<svg xmlns="http://www.w3.org/2000/svg" width="1200" height="900" viewBox="0 0 1200 900">
<rect width="100%" height="100%" fill="#ffffff"/>
<g><path d="M 205.93,876.00 L 205.93,837.27 L 164.45,837.27 L 164.45,876.00 L 205.93,876.00 Z" fill="#e0e0e0" stroke="#ffffff" stroke-width="0.8"><title>cell 0: Delta_SMCI=0.0000</title></path><path d="M 205.93,837.27 L 205.93,798.53 L 164.45,798.53 L 164.45,837.27 L 205.93,837.27 Z" fill="#e0e0e0" stroke="#ffffff" stroke-width="0.8"><title>cell 1: Delta_SMCI=0.0000</title></path><path d="M 205.93,798.53 L 205.93,759.80 L 164.45,759.80 L 164.45,798.53 L 205.93,798.53 Z" fill="#e0e0e0" stroke="#ffffff" stroke-width="0.8"><title>cell 2: Delta_SMCI=0.0000</title></path><path d="M 205.93,759.80 L 205.93,721.07 L 164.45,721.07 L 164.45,759.80 L 205.93,759.80 Z" fill="#e0e0e0" stroke="#ffffff" stroke-width="0.8"><title>cell 3: Delta_SMCI=0.0000</title></path><path d="M 205.93,721.07 L 205.93,682.34 L 164.45,682.34 L 164.45,721.07 L 205.93,721.07 Z" fill="#e0e0e0" stroke="#ffffff" stroke-width="0.8"><title>cell 4: Delta_SMCI=0.0000</title></path><path d="M 205.93,682.34 L 205.93,643.61 L 164.45,643.61 L 164.45,682.34 L 205.93,682.34 Z" fill="#e0e0e0" stroke="#ffffff" stroke-width="0.8"><title>cell 5: Delta_SMCI=0.0000</title></path><path d="M 205.93,643.61 L 205.93,604.88 L 164.45,604.88 L 164.45,643.61 L 205.93,643.61 Z" fill="#e0e0e0" stroke="#ffffff" stroke-width="0.8"><title>cell 6: Delta_SMCI=0.0000</title></path><path d="M 205.93,604.88 L 205.93,566.15 L 164.45,566.15 L 164.45,604.88 L 205.93,604.88 Z" fill="#e0e0e0" stroke="#ffffff" stroke-width="0.8"><title>cell 7: Delta_SMCI=0.0000</title></path><path d="M 205.93,566.15 L 205.93,527.42 L 164.45,527.42 L 164.45,566.15 L 205.93,566.15 Z" fill="#e0e0e0" stroke="#ffffff" stroke-width="0.8"><title>cell 8: Delta_SMCI=0.0000</title></path><path d="M 205.93,527.42 L 205.93,488.69 L 164.45,488.69 L 164.45,527.42 L 205.93,527.42 Z" fill="#c6dbef" stroke="#ffffff" stroke-width="0.8"><title>cell 9: Delta_SMCI=0.0064</title></path><path d="M 205.93,488.69 L 205.93,449.97 L 164.45,449.97 L 164.45,488.69 L 205.93,488.69 Z" fill="#e0e0e0" stroke="#ffffff" stroke-width="0.8"><title>cell 10: Delta_SMCI=0.0000</title></path><path d="M 205.93,449.97 L 205.93,411.24 L 164.45,411.24 L 164.45,449.97 L 205.93,449.97 Z" fill="#e0e0e0" stroke="#ffffff" stroke-width="0.8"><title>cell 11: Delta_SMCI=0.0000</title></path><path d="M 205.93,411.24 L 205.93,372.51 L 164.45,372.51 L 164.45,411.24 L 205.93,411.24 Z" fill="#e0e0e0" stroke="#ffffff" stroke-width="0.8"><title>cell 12: Delta_SMCI=0.0000</title></path><path d="M 205.93,372.51 L 205.93,333.79 L 164.45,333.79 L 164.45,372.51 L 205.93,372.51 Z" fill="#e0e0e0" stroke="#ffffff" stroke-width="0.8"><title>cell 13: Delta_SMCI=0.0000</title></path><path d="M 205.93,333.79 L 205.93,295.06 L 164.45,295.06 L 164.45,333.79 L 205.93,333.79 Z" fill="#e0e0e0" stroke="#ffffff" stroke-width="0.8"><title>cell 14: Delta_SMCI=0.0000</title></path><path d="M 205.93,295.06 L 205.93,256.34 L 164.45,256.34 L 164.45,295.06 L 205.93,295.06 Z" fill="#c6dbef" stroke="#ffffff" stroke-width="0.8"><title>cell 15: Delta_SMCI=0.0015</title></path><path d="M 205.93,256.34 L 205.93,217.61 L 164.45,217.61 L 164.45,256.34 L 205.93,256.34 Z" fill="#c6dbef" stroke="#ffffff" stroke-width="0.8"><title>cell 16: Delta_SMCI=0.0015</title></path><path d="M 205.93,217.61 L 205.93,178.89 L 164.45,178.89 L 164.45,217.61 L 205.93,217.61 Z" fill="#c6dbef" stroke="#ffffff" stroke-width="0.8"><title>cell 17: Delta_SMCI=0.0070</title></path><path d="M 205.93,178.89 L 205.93,140.17 L 164.45,140.17 L 164.45,178.89 L 205.93,178.89 Z" fill="#6baed6" stroke="#ffffff" stroke-width="0.8"><title>cell 18: Delta_SMCI=0.0078</title></path><path d="M 205.93,140.17 L 205.93,101.44 L 164.45,101.44 L 164.45,140.17 L 205.93,140.17 Z" fill="#c6dbef" stroke="#ffffff" stroke-width="0.8"><title>cell 19: Delta_SMCI=0.0046</title></path><path d="M 205.93,101.44 L 205.93,62.72 L 164.45,62.72 L 164.45,101.44 L 205.93,101.44 Z" fill="#f7fbff" stroke="#ffffff" stroke-width="0.8"><title>cell 20: Delta_SMCI=0.0012</title></path><path d="M 205.93,62.72 L 205.93,24.00 L 164.45,24.00 L 164.45,62.72 L 205.93,62.72 Z" fill="#c6dbef" stroke="#ffffff" stroke-width="0.8"><title>cell 21: Delta_SMCI=0.0026</title></path><path d="M 247.41,876.00 L 247.41,837.27 L 205.93,837.27 L 205.93,876.00 L 247.41,876.00 Z" fill="#e0e0e0" stroke="#ffffff" stroke-width="0.8"><title>cell 22: Delta_SMCI=0.0000</title></path><path d="M 247.41,837.27 L 247.41,798.53 L 205.93,798.53 L 205.93,837.27 L 247.41,837.27 Z" fill="#e0e0e0" stroke="#ffffff" stroke-width="0.8"><title>cell 23: Delta_SMCI=0.0000</title></path><path d="M 247.41,798.53 L 247.41,759.80 L 205.93,759.80 L 205.93,798.53 L 247.41,798.53 Z" fill="#e0e0e0" stroke="#ffffff" stroke-width="0.8"><title>cell 24: Delta_SMCI=0.0000</title></path><path d="M 247.41,759.80 L 247.41,721.07 L 205.93,721.07 L 205.93,759.80 L 247.41,759.80 Z" fill="#c6dbef" stroke="#ffffff" stroke-width="0.8"><title>cell 25: Delta_SMCI=0.0019</title></path><path d="M 247.41,721.07 L 247.41,682.34 L 205.93,682.34 L 205.93,721.07 L 247.41,721.07 Z" fill="#e0e0e0" stroke="#ffffff" stroke-width="0.8"><title>cell 26: Delta_SMCI=0.0000</title></path><path d="M 247.41,682.34 L 247.41,643.61 L 205.93,643.61 L 205.93,682.34 L 247.41,682.34 Z" fill="#e0e0e0" stroke="#ffffff" stroke-width="0.8"><title>cell 27: Delta_SMCI=0.0000</title></path><path d="M 247.41,643.61 L 247.41,604.88 L 205.93,604.88 L 205.93,643.61 L 247.41,643.61 Z" fill="#e0e0e0" stroke="#ffffff" stroke-width="0.8"><title>cell 28: Delta_SMCI=0.0000</title></path><path d="M 247.41,604.88 L 247.41,566.15 L 205.93,566.15 L 205.93,604.88 L 247.41,604.88 Z" fill="#6baed6" stroke="#ffffff" stroke-width="0.8"><title>cell 29: Delta_SMCI=0.0127</title></path><path d="M 247.41,566.15 L 247.41,527.42 L 205.93,527.42 L 205.93,566.15 L 247.41,566.15 Z" fill="#c6dbef" stroke="#ffffff" stroke-width="0.8"><title>cell 30: Delta_SMCI=0.0032</title></path><path d="M 247.41,527.42 L 247.41,488.69 L 205.93,488.69 L 205.93,527.42 L 247.41,527.42 Z" fill="#f7fbff" stroke="#ffffff" stroke-width="0.8"><title>cell 31: Delta_SMCI=0.0013</title></path><path d="M 247.41,488.69 L 247.41,449.97 L 205.93,449.97 L 205.93,488.69 L 247.41,488.69 Z" fill="#e0e0e0" stroke="#ffffff" stroke-width="0.8"><title>cell 32: Delta_SMCI=0.0000</title></path><path d="M 247.41,449.97 L 247.41,411.24 L 205.93,411.24 L 205.93,449.97 L 247.41,449.97 Z" fill="#e0e0e0" stroke="#ffffff" stroke-width="0.8"><title>cell 33: Delta_SMCI=0.0000</title></path><path d="M 247.41,411.24 L 247.41,372.51 L 205.93,372.51 L 205.93,411.24 L 247.41,411.24 Z" fill="#e0e0e0" stroke="#ffffff" stroke-width="0.8"><title>cell 34: Delta_SMCI=0.0000</title></path><path d="M 247.41,372.51 L 247.41,333.79 L 205.93,333.79 L 205.93,372.51 L 247.41,372.51 Z" fill="#e0e0e0" stroke="#ffffff" stroke-width="0.8"><title>cell 35: Delta_SMCI=0.0000</title></path><path d="M 247.41,333.79 L 247.41,295.06 L 205.93,295.06 L 205.93,333.79 L 247.41,333.79 Z" fill="#e0e0e0" stroke="#ffffff" stroke-width="0.8"><title>cell 36: Delta_SMCI=0.0000</title></path><path d="M 247.41,295.06 L 247.41,256.34 L 205.93,256.34 L 205.93,295.06 L 247.41,295.06 Z" fill="#c6dbef" stroke="#ffffff" stroke-width="0.8"><title>cell 37: Delta_SMCI=0.0036</title></path><path d="M 247.41,256.34 L 247.41,217.61 L 205.93,217.61 L 205.93,256.34 L 247.41,256.34 Z" fill="#e0e0e0" stroke="#ffffff" stroke-width="0.8"><title>cell 38: Delta_SMCI=0.0000</title></path><path d="M 247.41,217.61 L 247.41,178.89 L 205.93,178.89 L 205.93,217.61 L 247.41,217.61 Z" fill="#e0e0e0" stroke="#ffffff" stroke-width="0.8"><title>cell 39: Delta_SMCI=0.0000</title></path><path d="M 247.41,178.89 L 247.41,140.17 L 205.93,140.17 L 205.93,178.89 L 247.41,178.89 Z" fill="#c6dbef" stroke="#ffffff" stroke-width="0.8"><title>cell 40: Delta_SMCI=0.0061</title></path><path d="M 247.41,140.17 L 247.41,101.44 L 205.93,101.44 L 205.93,140.17 L 247.41,140.17 Z" fill="#c6dbef" stroke="#ffffff" stroke-width="0.8"><title>cell 41: Delta_SMCI=0.0048</title></path><path d="M 247.41,101.44 L 247.41,62.72 L 205.93,62.72 L 205.93,101.44 L 247.41,101.44 Z" fill="#f7fbff" stroke="#ffffff" stroke-width="0.8"><title>cell 42: Delta_SMCI=0.0013</title></path><path d="M 247.41,62.72 L 247.41,24.00 L 205.93,24.00 L 205.93,62.72 L 247.41,62.72 Z" fill="#c6dbef" stroke="#ffffff" stroke-width="0.8"><title>cell 43: Delta_SMCI=0.0055</title></path><path d="M 288.89,876.00 L 288.89,837.27 L 247.41,837.27 L 247.41,876.00 L 288.89,876.00 Z" fill="#f7fbff" stroke="#ffffff" stroke-width="0.8"><title>cell 44: Delta_SMCI=0.0006</title></path><path d="M 288.89,837.27 L 288.89,798.53 L 247.41,798.53 L 247.41,837.27 L 288.89,837.27 Z" fill="#f7fbff" stroke="#ffffff" stroke-width="0.8"><title>cell 45: Delta_SMCI=0.0007</title></path><path d="M 288.89,798.53 L 288.89,759.80 L 247.41,759.80 L 247.41,798.53 L 288.89,798.53 Z" fill="#c6dbef" stroke="#ffffff" stroke-width="0.8"><title>cell 46: Delta_SMCI=0.0022</title></path><path d="M 288.89,759.80 L 288.89,721.07 L 247.41,721.07 L 247.41,759.80 L 288.89,759.80 Z" fill="#e0e0e0" stroke="#ffffff" stroke-width="0.8"><title>cell 47: Delta_SMCI=0.0000</title></path><path d="M 288.89,721.07 L 288.89,682.34 L 247.41,682.34 L 247.41,721.07 L 288.89,721.07 Z" fill="#e0e0e0" stroke="#ffffff" stroke-width="0.8"><title>cell 48: Delta_SMCI=0.0000</title></path><path d="M 288.89,682.34 L 288.89,643.61 L 247.41,643.61 L 247.41,682.34 L 288.89,682.34 Z" fill="#c6dbef" stroke="#ffffff" stroke-width="0.8"><title>cell 49: Delta_SMCI=0.0069</title></path><path d="M 288.89,643.61 L 288.89,604.88 L 247.41,604.88 L 247.41,643.61 L 288.89,643.61 Z" fill="#6baed6" stroke="#ffffff" stroke-width="0.8"><title>cell 50: Delta_SMCI=0.0178</title></path><path d="M 288.89,604.88 L 288.89,566.15 L 247.41,566.15 L 247.41,604.88 L 288.89,604.88 Z" fill="#6baed6" stroke="#ffffff" stroke-width="0.8"><title>cell 51: Delta_SMCI=0.0312</title></path><path d="M 288.89,566.15 L 288.89,527.42 L 247.41,527.42 L 247.41,566.15 L 288.89,566.15 Z" fill="#6baed6" stroke="#ffffff" stroke-width="0.8"><title>cell 52: Delta_SMCI=0.0211</title></path><path d="M 288.89,527.42 L 288.89,488.69 L 247.41,488.69 L 247.41,527.42 L 288.89,527.42 Z" fill="#c6dbef" stroke="#ffffff" stroke-width="0.8"><title>cell 53: Delta_SMCI=0.0065</title></path><path d="M 288.89,488.69 L 288.89,449.97 L 247.41,449.97 L 247.41,488.69 L 288.89,488.69 Z" fill="#e0e0e0" stroke="#ffffff" stroke-width="0.8"><title>cell 54: Delta_SMCI=0.0000</title></path><path d="M 288.89,449.97 L 288.89,411.24 L 247.41,411.24 L 247.41,449.97 L 288.89,449.97 Z" fill="#e0e0e0" stroke="#ffffff" stroke-width="0.8"><title>cell 55: Delta_SMCI=0.0000</title></path><path d="M 288.89,411.24 L 288.89,372.51 L 247.41,372.51 L 247.41,411.24 L 288.89,411.24 Z" fill="#e0e0e0" stroke="#ffffff" stroke-width="0.8"><title>cell 56: Delta_SMCI=0.0000</title></path><path d="M 288.89,372.51 L 288.89,333.79 L 247.41,333.79 L 247.41,372.51 L 288.89,372.51 Z" fill="#e0e0e0" stroke="#ffffff" stroke-width="0.8"><title>cell 57: Delta_SMCI=0.0000</title></path><path d="M 288.89,333.79 L 288.89,295.06 L 247.41,295.06 L 247.41,333.79 L 288.89,333.79 Z" fill="#e0e0e0" stroke="#ffffff" stroke-width="0.8"><title>cell 58: Delta_SMCI=0.0000</title></path><path d="M 288.89,295.06 L 288.89,256.34 L 247.41,256.34 L 247.41,295.06 L 288.89,295.06 Z" fill="#e0e0e0" stroke="#ffffff" stroke-width="0.8"><title>cell 59: Delta_SMCI=0.0000</title></path><path d="M 288.89,256.34 L 288.89,217.61 L 247.41,217.61 L 247.41,256.34 L 288.89,256.34 Z" fill="#e0e0e0" stroke="#ffffff" stroke-width="0.8"><title>cell 60: Delta_SMCI=0.0000</title></path><path d="M 288.89,217.61 L 288.89,178.89 L 247.41,178.89 L 247.41,217.61 L 288.89,217.61 Z" fill="#e0e0e0" stroke="#ffffff" stroke-width="0.8"><title>cell 61: Delta_SMCI=0.0000</title></path><path d="M 288.89,178.89 L 288.89,140.17 L 247.41,140.17 L 247.41,178.89 L 288.89,178.89 Z" fill="#2171b5" stroke="#ffffff" stroke-width="0.8"><title>cell 62: Delta_SMCI=0.0625</title></path><path d="M 288.89,140.17 L 288.89,101.44 L 247.41,101.44 L 247.41,140.17 L 288.89,140.17 Z" fill="#e0e0e0" stroke="#ffffff" stroke-width="0.8"><title>cell 63: Delta_SMCI=0.0000</title></path><path d="M 288.89,101.44 L 288.89,62.72 L 247.41,62.72 L 247.41,101.44 L 288.89,101.44 Z" fill="#6baed6" stroke="#ffffff" stroke-width="0.8"><title>cell 64: Delta_SMCI=0.0117</title></path><path d="M 288.89,62.72 L 288.89,24.00 L 247.41,24.00 L 247.41,62.72 L 288.89,62.72 Z" fill="#c6dbef" stroke="#ffffff" stroke-width="0.8"><title>cell 65: Delta_SMCI=0.0056</title></path><path d="M 330.38,876.00 L 330.38,837.27 L 288.89,837.27 L 288.89,876.00 L 330.38,876.00 Z" fill="#f7fbff" stroke="#ffffff" stroke-width="0.8"><title>cell 66: Delta_SMCI=0.0012</title></path><path d="M 330.38,837.27 L 330.38,798.53 L 288.89,798.53 L 288.89,837.27 L 330.38,837.27 Z" fill="#c6dbef" stroke="#ffffff" stroke-width="0.8"><title>cell 67: Delta_SMCI=0.0016</title></path><path d="M 330.38,798.53 L 330.38,759.80 L 288.89,759.80 L 288.89,798.53 L 330.38,798.53 Z" fill="#e0e0e0" stroke="#ffffff" stroke-width="0.8"><title>cell 68: Delta_SMCI=0.0000</title></path><path d="M 330.38,759.80 L 330.38,721.07 L 288.89,721.07 L 288.89,759.80 L 330.38,759.80 Z" fill="#e0e0e0" stroke="#ffffff" stroke-width="0.8"><title>cell 69: Delta_SMCI=0.0000</title></path><path d="M 330.38,721.07 L 330.38,682.34 L 288.89,682.34 L 288.89,721.07 L 330.38,721.07 Z" fill="#f7fbff" stroke="#ffffff" stroke-width="0.8"><title>cell 70: Delta_SMCI=0.0004</title></path><path d="M 330.38,682.34 L 330.38,643.61 L 288.89,643.61 L 288.89,682.34 L 330.38,682.34 Z" fill="#6baed6" stroke="#ffffff" stroke-width="0.8"><title>cell 71: Delta_SMCI=0.0091</title></path><path d="M 330.38,643.61 L 330.38,604.88 L 288.89,604.88 L 288.89,643.61 L 330.38,643.61 Z" fill="#6baed6" stroke="#ffffff" stroke-width="0.8"><title>cell 72: Delta_SMCI=0.0180</title></path><path d="M 330.38,604.88 L 330.38,566.15 L 288.89,566.15 L 288.89,604.88 L 330.38,604.88 Z" fill="#6baed6" stroke="#ffffff" stroke-width="0.8"><title>cell 73: Delta_SMCI=0.0309</title></path><path d="M 330.38,566.15 L 330.38,527.42 L 288.89,527.42 L 288.89,566.15 L 330.38,566.15 Z" fill="#6baed6" stroke="#ffffff" stroke-width="0.8"><title>cell 74: Delta_SMCI=0.0106</title></path><path d="M 330.38,527.42 L 330.38,488.69 L 288.89,488.69 L 288.89,527.42 L 330.38,527.42 Z" fill="#6baed6" stroke="#ffffff" stroke-width="0.8"><title>cell 75: Delta_SMCI=0.0094</title></path><path d="M 330.38,488.69 L 330.38,449.97 L 288.89,449.97 L 288.89,488.69 L 330.38,488.69 Z" fill="#e0e0e0" stroke="#ffffff" stroke-width="0.8"><title>cell 76: Delta_SMCI=0.0000</title></path><path d="M 330.38,449.97 L 330.38,411.24 L 288.89,411.24 L 288.89,449.97 L 330.38,449.97 Z" fill="#e0e0e0" stroke="#ffffff" stroke-width="0.8"><title>cell 77: Delta_SMCI=0.0000</title></path><path d="M 330.38,411.24 L 330.38,372.51 L 288.89,372.51 L 288.89,411.24 L 330.38,411.24 Z" fill="#e0e0e0" stroke="#ffffff" stroke-width="0.8"><title>cell 78: Delta_SMCI=0.0000</title></path><path d="M 330.38,372.51 L 330.38,333.79 L 288.89,333.79 L 288.89,372.51 L 330.38,372.51 Z" fill="#c6dbef" stroke="#ffffff" stroke-width="0.8"><title>cell 79: Delta_SMCI=0.0018</title></path><path d="M 330.38,333.79 L 330.38,295.06 L 288.89,295.06 L 288.89,333.79 L 330.38,333.79 Z" fill="#2171b5" stroke="#ffffff" stroke-width="0.8"><title>cell 80: Delta_SMCI=0.0379</title></path><path d="M 330.38,295.06 L 330.38,256.34 L 288.89,256.34 L 288.89,295.06 L 330.38,295.06 Z" fill="#6baed6" stroke="#ffffff" stroke-width="0.8"><title>cell 81: Delta_SMCI=0.0269</title></path><path d="M 330.38,256.34 L 330.38,217.61 L 288.89,217.61 L 288.89,256.34 L 330.38,256.34 Z" fill="#2171b5" stroke="#ffffff" stroke-width="0.8"><title>cell 82: Delta_SMCI=0.0763</title></path><path d="M 330.38,217.61 L 330.38,178.89 L 288.89,178.89 L 288.89,217.61 L 330.38,217.61 Z" fill="#2171b5" stroke="#ffffff" stroke-width="0.8"><title>cell 83: Delta_SMCI=0.0920</title></path><path d="M 330.38,178.89 L 330.38,140.17 L 288.89,140.17 L 288.89,178.89 L 330.38,178.89 Z" fill="#e0e0e0" stroke="#ffffff" stroke-width="0.8"><title>cell 84: Delta_SMCI=0.0000</title></path><path d="M 330.38,140.17 L 330.38,101.44 L 288.89,101.44 L 288.89,140.17 L 330.38,140.17 Z" fill="#2171b5" stroke="#ffffff" stroke-width="0.8"><title>cell 85: Delta_SMCI=0.0321</title></path><path d="M 330.38,101.44 L 330.38,62.72 L 288.89,62.72 L 288.89,101.44 L 330.38,101.44 Z" fill="#e0e0e0" stroke="#ffffff" stroke-width="0.8"><title>cell 86: Delta_SMCI=0.0000</title></path><path d="M 330.38,62.72 L 330.38,24.00 L 288.89,24.00 L 288.89,62.72 L 330.38,62.72 Z" fill="#e0e0e0" stroke="#ffffff" stroke-width="0.8"><title>cell 87: Delta_SMCI=0.0000</title></path><path d="M 371.86,876.00 L 371.86,837.27 L 330.38,837.27 L 330.38,876.00 L 371.86,876.00 Z" fill="#f7fbff" stroke="#ffffff" stroke-width="0.8"><title>cell 88: Delta_SMCI=0.0003</title></path><path d="M 371.86,837.27 L 371.86,798.53 L 330.38,798.53 L 330.38,837.27 L 371.86,837.27 Z" fill="#f7fbff" stroke="#ffffff" stroke-width="0.8"><title>cell 89: Delta_SMCI=0.0005</title></path><path d="M 371.86,798.53 L 371.86,759.80 L 330.38,759.80 L 330.38,798.53 L 371.86,798.53 Z" fill="#e0e0e0" stroke="#ffffff" stroke-width="0.8"><title>cell 90: Delta_SMCI=0.0000</title></path><path d="M 371.86,759.80 L 371.86,721.07 L 330.38,721.07 L 330.38,759.80 L 371.86,759.80 Z" fill="#e0e0e0" stroke="#ffffff" stroke-width="0.8"><title>cell 91: Delta_SMCI=0.0000</title></path><path d="M 371.86,721.07 L 371.86,682.34 L 330.38,682.34 L 330.38,721.07 L 371.86,721.07 Z" fill="#f7fbff" stroke="#ffffff" stroke-width="0.8"><title>cell 92: Delta_SMCI=0.0005</title></path><path d="M 371.86,682.34 L 371.86,643.61 L 330.38,643.61 L 330.38,682.34 L 371.86,682.34 Z" fill="#c6dbef" stroke="#ffffff" stroke-width="0.8"><title>cell 93: Delta_SMCI=0.0045</title></path><path d="M 371.86,643.61 L 371.86,604.88 L 330.38,604.88 L 330.38,643.61 L 371.86,643.61 Z" fill="#6baed6" stroke="#ffffff" stroke-width="0.8"><title>cell 94: Delta_SMCI=0.0080</title></path><path d="M 371.86,604.88 L 371.86,566.15 L 330.38,566.15 L 330.38,604.88 L 371.86,604.88 Z" fill="#6baed6" stroke="#ffffff" stroke-width="0.8"><title>cell 95: Delta_SMCI=0.0099</title></path><path d="M 371.86,566.15 L 371.86,527.42 L 330.38,527.42 L 330.38,566.15 L 371.86,566.15 Z" fill="#6baed6" stroke="#ffffff" stroke-width="0.8"><title>cell 96: Delta_SMCI=0.0115</title></path><path d="M 371.86,527.42 L 371.86,488.69 L 330.38,488.69 L 330.38,527.42 L 371.86,527.42 Z" fill="#6baed6" stroke="#ffffff" stroke-width="0.8"><title>cell 97: Delta_SMCI=0.0090</title></path><path d="M 371.86,488.69 L 371.86,449.97 L 330.38,449.97 L 330.38,488.69 L 371.86,488.69 Z" fill="#c6dbef" stroke="#ffffff" stroke-width="0.8"><title>cell 98: Delta_SMCI=0.0074</title></path><path d="M 371.86,449.97 L 371.86,411.24 L 330.38,411.24 L 330.38,449.97 L 371.86,449.97 Z" fill="#e0e0e0" stroke="#ffffff" stroke-width="0.8"><title>cell 99: Delta_SMCI=0.0000</title></path><path d="M 371.86,411.24 L 371.86,372.51 L 330.38,372.51 L 330.38,411.24 L 371.86,411.24 Z" fill="#6baed6" stroke="#ffffff" stroke-width="0.8"><title>cell 100: Delta_SMCI=0.0294</title></path><path d="M 371.86,372.51 L 371.86,333.79 L 330.38,333.79 L 330.38,372.51 L 371.86,372.51 Z" fill="#e0e0e0" stroke="#ffffff" stroke-width="0.8"><title>cell 101: Delta_SMCI=0.0000</title></path><path d="M 371.86,333.79 L 371.86,295.06 L 330.38,295.06 L 330.38,333.79 L 371.86,333.79 Z" fill="#2171b5" stroke="#ffffff" stroke-width="0.8"><title>cell 102: Delta_SMCI=0.0580</title></path><path d="M 371.86,295.06 L 371.86,256.34 L 330.38,256.34 L 330.38,295.06 L 371.86,295.06 Z" fill="#08306b" stroke="#ffffff" stroke-width="0.8"><title>cell 103: Delta_SMCI=0.1256</title></path><path d="M 371.86,256.34 L 371.86,217.61 L 330.38,217.61 L 330.38,256.34 L 371.86,256.34 Z" fill="#08306b" stroke="#ffffff" stroke-width="0.8"><title>cell 104: Delta_SMCI=0.1610</title></path><path d="M 371.86,217.61 L 371.86,178.89 L 330.38,178.89 L 330.38,217.61 L 371.86,217.61 Z" fill="#2171b5" stroke="#ffffff" stroke-width="0.8"><title>cell 105: Delta_SMCI=0.0984</title></path><path d="M 371.86,178.89 L 371.86,140.17 L 330.38,140.17 L 330.38,178.89 L 371.86,178.89 Z" fill="#e0e0e0" stroke="#ffffff" stroke-width="0.8"><title>cell 106: Delta_SMCI=0.0000</title></path><path d="M 371.86,140.17 L 371.86,101.44 L 330.38,101.44 L 330.38,140.17 L 371.86,140.17 Z" fill="#c6dbef" stroke="#ffffff" stroke-width="0.8"><title>cell 107: Delta_SMCI=0.0062</title></path><path d="M 371.86,101.44 L 371.86,62.72 L 330.38,62.72 L 330.38,101.44 L 371.86,101.44 Z" fill="#2171b5" stroke="#ffffff" stroke-width="0.8"><title>cell 108: Delta_SMCI=0.0451</title></path><path d="M 371.86,62.72 L 371.86,24.00 L 330.38,24.00 L 330.38,62.72 L 371.86,62.72 Z" fill="#e0e0e0" stroke="#ffffff" stroke-width="0.8"><title>cell 109: Delta_SMCI=0.0000</title></path><path d="M 413.34,876.00 L 413.34,837.27 L 371.86,837.27 L 371.86,876.00 L 413.34,876.00 Z" fill="#f7fbff" stroke="#ffffff" stroke-width="0.8"><title>cell 110: Delta_SMCI=0.0004</title></path><path d="M 413.34,837.27 L 413.34,798.53 L 371.86,798.53 L 371.86,837.27 L 413.34,837.27 Z" fill="#e0e0e0" stroke="#ffffff" stroke-width="0.8"><title>cell 111: Delta_SMCI=0.0000</title></path><path d="M 413.34,798.53 L 413.34,759.80 L 371.86,759.80 L 371.86,798.53 L 413.34,798.53 Z" fill="#e0e0e0" stroke="#ffffff" stroke-width="0.8"><title>cell 112: Delta_SMCI=0.0000</title></path><path d="M 413.34,759.80 L 413.34,721.07 L 371.86,721.07 L 371.86,759.80 L 413.34,759.80 Z" fill="#e0e0e0" stroke="#ffffff" stroke-width="0.8"><title>cell 113: Delta_SMCI=0.0000</title></path><path d="M 413.34,721.07 L 413.34,682.34 L 371.86,682.34 L 371.86,721.07 L 413.34,721.07 Z" fill="#e0e0e0" stroke="#ffffff" stroke-width="0.8"><title>cell 114: Delta_SMCI=0.0000</title></path><path d="M 413.34,682.34 L 413.34,643.61 L 371.86,643.61 L 371.86,682.34 L 413.34,682.34 Z" fill="#f7fbff" stroke="#ffffff" stroke-width="0.8"><title>cell 115: Delta_SMCI=0.0006</title></path><path d="M 413.34,643.61 L 413.34,604.88 L 371.86,604.88 L 371.86,643.61 L 413.34,643.61 Z" fill="#c6dbef" stroke="#ffffff" stroke-width="0.8"><title>cell 116: Delta_SMCI=0.0056</title></path><path d="M 413.34,604.88 L 413.34,566.15 L 371.86,566.15 L 371.86,604.88 L 413.34,604.88 Z" fill="#6baed6" stroke="#ffffff" stroke-width="0.8"><title>cell 117: Delta_SMCI=0.0089</title></path><path d="M 413.34,566.15 L 413.34,527.42 L 371.86,527.42 L 371.86,566.15 L 413.34,566.15 Z" fill="#6baed6" stroke="#ffffff" stroke-width="0.8"><title>cell 118: Delta_SMCI=0.0090</title></path><path d="M 413.34,527.42 L 413.34,488.69 L 371.86,488.69 L 371.86,527.42 L 413.34,527.42 Z" fill="#6baed6" stroke="#ffffff" stroke-width="0.8"><title>cell 119: Delta_SMCI=0.0089</title></path><path d="M 413.34,488.69 L 413.34,449.97 L 371.86,449.97 L 371.86,488.69 L 413.34,488.69 Z" fill="#e0e0e0" stroke="#ffffff" stroke-width="0.8"><title>cell 120: Delta_SMCI=0.0000</title></path><path d="M 413.34,449.97 L 413.34,411.24 L 371.86,411.24 L 371.86,449.97 L 413.34,449.97 Z" fill="#e0e0e0" stroke="#ffffff" stroke-width="0.8"><title>cell 121: Delta_SMCI=0.0000</title></path><path d="M 413.34,411.24 L 413.34,372.51 L 371.86,372.51 L 371.86,411.24 L 413.34,411.24 Z" fill="#2171b5" stroke="#ffffff" stroke-width="0.8"><title>cell 122: Delta_SMCI=0.0883</title></path><path d="M 413.34,372.51 L 413.34,333.79 L 371.86,333.79 L 371.86,372.51 L 413.34,372.51 Z" fill="#2171b5" stroke="#ffffff" stroke-width="0.8"><title>cell 123: Delta_SMCI=0.0787</title></path><path d="M 413.34,333.79 L 413.34,295.06 L 371.86,295.06 L 371.86,333.79 L 413.34,333.79 Z" fill="#2171b5" stroke="#ffffff" stroke-width="0.8"><title>cell 124: Delta_SMCI=0.0515</title></path><path d="M 413.34,295.06 L 413.34,256.34 L 371.86,256.34 L 371.86,295.06 L 413.34,295.06 Z" fill="#08306b" stroke="#ffffff" stroke-width="0.8"><title>cell 125: Delta_SMCI=0.1225</title></path><path d="M 413.34,256.34 L 413.34,217.61 L 371.86,217.61 L 371.86,256.34 L 413.34,256.34 Z" fill="#08306b" stroke="#ffffff" stroke-width="0.8"><title>cell 126: Delta_SMCI=0.1623</title></path><path d="M 413.34,217.61 L 413.34,178.89 L 371.86,178.89 L 371.86,217.61 L 413.34,217.61 Z" fill="#6baed6" stroke="#ffffff" stroke-width="0.8"><title>cell 127: Delta_SMCI=0.0192</title></path><path d="M 413.34,178.89 L 413.34,140.17 L 371.86,140.17 L 371.86,178.89 L 413.34,178.89 Z" fill="#6baed6" stroke="#ffffff" stroke-width="0.8"><title>cell 128: Delta_SMCI=0.0105</title></path><path d="M 413.34,140.17 L 413.34,101.44 L 371.86,101.44 L 371.86,140.17 L 413.34,140.17 Z" fill="#2171b5" stroke="#ffffff" stroke-width="0.8"><title>cell 129: Delta_SMCI=0.0383</title></path><path d="M 413.34,101.44 L 413.34,62.72 L 371.86,62.72 L 371.86,101.44 L 413.34,101.44 Z" fill="#2171b5" stroke="#ffffff" stroke-width="0.8"><title>cell 130: Delta_SMCI=0.0361</title></path><path d="M 413.34,62.72 L 413.34,24.00 L 371.86,24.00 L 371.86,62.72 L 413.34,62.72 Z" fill="#6baed6" stroke="#ffffff" stroke-width="0.8"><title>cell 131: Delta_SMCI=0.0260</title></path><path d="M 454.82,876.00 L 454.82,837.27 L 413.34,837.27 L 413.34,876.00 L 454.82,876.00 Z" fill="#e0e0e0" stroke="#ffffff" stroke-width="0.8"><title>cell 132: Delta_SMCI=0.0000</title></path><path d="M 454.82,837.27 L 454.82,798.53 L 413.34,798.53 L 413.34,837.27 L 454.82,837.27 Z" fill="#e0e0e0" stroke="#ffffff" stroke-width="0.8"><title>cell 133: Delta_SMCI=0.0000</title></path><path d="M 454.82,798.53 L 454.82,759.80 L 413.34,759.80 L 413.34,798.53 L 454.82,798.53 Z" fill="#e0e0e0" stroke="#ffffff" stroke-width="0.8"><title>cell 134: Delta_SMCI=0.0000</title></path><path d="M 454.82,759.80 L 454.82,721.07 L 413.34,721.07 L 413.34,759.80 L 454.82,759.80 Z" fill="#e0e0e0" stroke="#ffffff" stroke-width="0.8"><title>cell 135: Delta_SMCI=0.0000</title></path><path d="M 454.82,721.07 L 454.82,682.34 L 413.34,682.34 L 413.34,721.07 L 454.82,721.07 Z" fill="#e0e0e0" stroke="#ffffff" stroke-width="0.8"><title>cell 136: Delta_SMCI=0.0000</title></path><path d="M 454.82,682.34 L 454.82,643.61 L 413.34,643.61 L 413.34,682.34 L 454.82,682.34 Z" fill="#f7fbff" stroke="#ffffff" stroke-width="0.8"><title>cell 137: Delta_SMCI=0.0012</title></path><path d="M 454.82,643.61 L 454.82,604.88 L 413.34,604.88 L 413.34,643.61 L 454.82,643.61 Z" fill="#c6dbef" stroke="#ffffff" stroke-width="0.8"><title>cell 138: Delta_SMCI=0.0059</title></path><path d="M 454.82,604.88 L 454.82,566.15 L 413.34,566.15 L 413.34,604.88 L 454.82,604.88 Z" fill="#c6dbef" stroke="#ffffff" stroke-width="0.8"><title>cell 139: Delta_SMCI=0.0033</title></path><path d="M 454.82,566.15 L 454.82,527.42 L 413.34,527.42 L 413.34,566.15 L 454.82,566.15 Z" fill="#c6dbef" stroke="#ffffff" stroke-width="0.8"><title>cell 140: Delta_SMCI=0.0074</title></path><path d="M 454.82,527.42 L 454.82,488.69 L 413.34,488.69 L 413.34,527.42 L 454.82,527.42 Z" fill="#c6dbef" stroke="#ffffff" stroke-width="0.8"><title>cell 141: Delta_SMCI=0.0019</title></path><path d="M 454.82,488.69 L 454.82,449.97 L 413.34,449.97 L 413.34,488.69 L 454.82,488.69 Z" fill="#08306b" stroke="#ffffff" stroke-width="0.8"><title>cell 142: Delta_SMCI=0.2084</title></path><path d="M 454.82,449.97 L 454.82,411.24 L 413.34,411.24 L 413.34,449.97 L 454.82,449.97 Z" fill="#08306b" stroke="#ffffff" stroke-width="0.8"><title>cell 143: Delta_SMCI=0.2212</title></path><path d="M 454.82,411.24 L 454.82,372.51 L 413.34,372.51 L 413.34,411.24 L 454.82,411.24 Z" fill="#08306b" stroke="#ffffff" stroke-width="0.8"><title>cell 144: Delta_SMCI=0.1865</title></path><path d="M 454.82,372.51 L 454.82,333.79 L 413.34,333.79 L 413.34,372.51 L 454.82,372.51 Z" fill="#2171b5" stroke="#ffffff" stroke-width="0.8"><title>cell 145: Delta_SMCI=0.0421</title></path><path d="M 454.82,333.79 L 454.82,295.06 L 413.34,295.06 L 413.34,333.79 L 454.82,333.79 Z" fill="#2171b5" stroke="#ffffff" stroke-width="0.8"><title>cell 146: Delta_SMCI=0.0612</title></path><path d="M 454.82,295.06 L 454.82,256.34 L 413.34,256.34 L 413.34,295.06 L 454.82,295.06 Z" fill="#2171b5" stroke="#ffffff" stroke-width="0.8"><title>cell 147: Delta_SMCI=0.0466</title></path><path d="M 454.82,256.34 L 454.82,217.61 L 413.34,217.61 L 413.34,256.34 L 454.82,256.34 Z" fill="#08306b" stroke="#ffffff" stroke-width="0.8"><title>cell 148: Delta_SMCI=0.1433</title></path><path d="M 454.82,217.61 L 454.82,178.89 L 413.34,178.89 L 413.34,217.61 L 454.82,217.61 Z" fill="#2171b5" stroke="#ffffff" stroke-width="0.8"><title>cell 149: Delta_SMCI=0.0642</title></path><path d="M 454.82,178.89 L 454.82,140.17 L 413.34,140.17 L 413.34,178.89 L 454.82,178.89 Z" fill="#2171b5" stroke="#ffffff" stroke-width="0.8"><title>cell 150: Delta_SMCI=0.0803</title></path><path d="M 454.82,140.17 L 454.82,101.44 L 413.34,101.44 L 413.34,140.17 L 454.82,140.17 Z" fill="#2171b5" stroke="#ffffff" stroke-width="0.8"><title>cell 151: Delta_SMCI=0.0323</title></path><path d="M 454.82,101.44 L 454.82,62.72 L 413.34,62.72 L 413.34,101.44 L 454.82,101.44 Z" fill="#2171b5" stroke="#ffffff" stroke-width="0.8"><title>cell 152: Delta_SMCI=0.0453</title></path><path d="M 454.82,62.72 L 454.82,24.00 L 413.34,24.00 L 413.34,62.72 L 454.82,62.72 Z" fill="#2171b5" stroke="#ffffff" stroke-width="0.8"><title>cell 153: Delta_SMCI=0.0433</title></path><path d="M 496.30,876.00 L 496.30,837.27 L 454.82,837.27 L 454.82,876.00 L 496.30,876.00 Z" fill="#e0e0e0" stroke="#ffffff" stroke-width="0.8"><title>cell 154: Delta_SMCI=0.0000</title></path><path d="M 496.30,837.27 L 496.30,798.53 L 454.82,798.53 L 454.82,837.27 L 496.30,837.27 Z" fill="#e0e0e0" stroke="#ffffff" stroke-width="0.8"><title>cell 155: Delta_SMCI=0.0000</title></path><path d="M 496.30,798.53 L 496.30,759.80 L 454.82,759.80 L 454.82,798.53 L 496.30,798.53 Z" fill="#e0e0e0" stroke="#ffffff" stroke-width="0.8"><title>cell 156: Delta_SMCI=0.0000</title></path><path d="M 496.30,759.80 L 496.30,721.07 L 454.82,721.07 L 454.82,759.80 L 496.30,759.80 Z" fill="#f7fbff" stroke="#ffffff" stroke-width="0.8"><title>cell 157: Delta_SMCI=0.0005</title></path><path d="M 496.30,721.07 L 496.30,682.34 L 454.82,682.34 L 454.82,721.07 L 496.30,721.07 Z" fill="#f7fbff" stroke="#ffffff" stroke-width="0.8"><title>cell 158: Delta_SMCI=0.0005</title></path><path d="M 496.30,682.34 L 496.30,643.61 L 454.82,643.61 L 454.82,682.34 L 496.30,682.34 Z" fill="#f7fbff" stroke="#ffffff" stroke-width="0.8"><title>cell 159: Delta_SMCI=0.0013</title></path><path d="M 496.30,643.61 L 496.30,604.88 L 454.82,604.88 L 454.82,643.61 L 496.30,643.61 Z" fill="#c6dbef" stroke="#ffffff" stroke-width="0.8"><title>cell 160: Delta_SMCI=0.0014</title></path><path d="M 496.30,604.88 L 496.30,566.15 L 454.82,566.15 L 454.82,604.88 L 496.30,604.88 Z" fill="#f7fbff" stroke="#ffffff" stroke-width="0.8"><title>cell 161: Delta_SMCI=0.0013</title></path><path d="M 496.30,566.15 L 496.30,527.42 L 454.82,527.42 L 454.82,566.15 L 496.30,566.15 Z" fill="#6baed6" stroke="#ffffff" stroke-width="0.8"><title>cell 162: Delta_SMCI=0.0088</title></path><path d="M 496.30,527.42 L 496.30,488.69 L 454.82,488.69 L 454.82,527.42 L 496.30,527.42 Z" fill="#08306b" stroke="#ffffff" stroke-width="0.8"><title>cell 163: Delta_SMCI=0.2332</title></path><path d="M 496.30,488.69 L 496.30,449.97 L 454.82,449.97 L 454.82,488.69 L 496.30,488.69 Z" fill="#08306b" stroke="#ffffff" stroke-width="0.8"><title>cell 164: Delta_SMCI=0.2279</title></path><path d="M 496.30,449.97 L 496.30,411.24 L 454.82,411.24 L 454.82,449.97 L 496.30,449.97 Z" fill="#08306b" stroke="#ffffff" stroke-width="0.8"><title>cell 165: Delta_SMCI=0.2615</title></path><path d="M 496.30,411.24 L 496.30,372.51 L 454.82,372.51 L 454.82,411.24 L 496.30,411.24 Z" fill="#08306b" stroke="#ffffff" stroke-width="0.8"><title>cell 166: Delta_SMCI=0.2999</title></path><path d="M 496.30,372.51 L 496.30,333.79 L 454.82,333.79 L 454.82,372.51 L 496.30,372.51 Z" fill="#08306b" stroke="#ffffff" stroke-width="0.8"><title>cell 167: Delta_SMCI=0.1659</title></path><path d="M 496.30,333.79 L 496.30,295.06 L 454.82,295.06 L 454.82,333.79 L 496.30,333.79 Z" fill="#08306b" stroke="#ffffff" stroke-width="0.8"><title>cell 168: Delta_SMCI=0.1354</title></path><path d="M 496.30,295.06 L 496.30,256.34 L 454.82,256.34 L 454.82,295.06 L 496.30,295.06 Z" fill="#6baed6" stroke="#ffffff" stroke-width="0.8"><title>cell 169: Delta_SMCI=0.0312</title></path><path d="M 496.30,256.34 L 496.30,217.61 L 454.82,217.61 L 454.82,256.34 L 496.30,256.34 Z" fill="#6baed6" stroke="#ffffff" stroke-width="0.8"><title>cell 170: Delta_SMCI=0.0235</title></path><path d="M 496.30,217.61 L 496.30,178.89 L 454.82,178.89 L 454.82,217.61 L 496.30,217.61 Z" fill="#2171b5" stroke="#ffffff" stroke-width="0.8"><title>cell 171: Delta_SMCI=0.0419</title></path><path d="M 496.30,178.89 L 496.30,140.17 L 454.82,140.17 L 454.82,178.89 L 496.30,178.89 Z" fill="#2171b5" stroke="#ffffff" stroke-width="0.8"><title>cell 172: Delta_SMCI=0.0944</title></path><path d="M 496.30,140.17 L 496.30,101.44 L 454.82,101.44 L 454.82,140.17 L 496.30,140.17 Z" fill="#2171b5" stroke="#ffffff" stroke-width="0.8"><title>cell 173: Delta_SMCI=0.0682</title></path><path d="M 496.30,101.44 L 496.30,62.72 L 454.82,62.72 L 454.82,101.44 L 496.30,101.44 Z" fill="#2171b5" stroke="#ffffff" stroke-width="0.8"><title>cell 174: Delta_SMCI=0.0394</title></path><path d="M 496.30,62.72 L 496.30,24.00 L 454.82,24.00 L 454.82,62.72 L 496.30,62.72 Z" fill="#2171b5" stroke="#ffffff" stroke-width="0.8"><title>cell 175: Delta_SMCI=0.0477</title></path><path d="M 537.78,876.00 L 537.78,837.27 L 496.30,837.27 L 496.30,876.00 L 537.78,876.00 Z" fill="#e0e0e0" stroke="#ffffff" stroke-width="0.8"><title>cell 176: Delta_SMCI=0.0000</title></path><path d="M 537.78,837.27 L 537.78,798.53 L 496.30,798.53 L 496.30,837.27 L 537.78,837.27 Z" fill="#e0e0e0" stroke="#ffffff" stroke-width="0.8"><title>cell 177: Delta_SMCI=0.0000</title></path><path d="M 537.78,798.53 L 537.78,759.80 L 496.30,759.80 L 496.30,798.53 L 537.78,798.53 Z" fill="#e0e0e0" stroke="#ffffff" stroke-width="0.8"><title>cell 178: Delta_SMCI=0.0000</title></path><path d="M 537.78,759.80 L 537.78,721.07 L 496.30,721.07 L 496.30,759.80 L 537.78,759.80 Z" fill="#f7fbff" stroke="#ffffff" stroke-width="0.8"><title>cell 179: Delta_SMCI=0.0005</title></path><path d="M 537.78,721.07 L 537.78,682.34 L 496.30,682.34 L 496.30,721.07 L 537.78,721.07 Z" fill="#f7fbff" stroke="#ffffff" stroke-width="0.8"><title>cell 180: Delta_SMCI=0.0007</title></path><path d="M 537.78,682.34 L 537.78,643.61 L 496.30,643.61 L 496.30,682.34 L 537.78,682.34 Z" fill="#c6dbef" stroke="#ffffff" stroke-width="0.8"><title>cell 181: Delta_SMCI=0.0014</title></path><path d="M 537.78,643.61 L 537.78,604.88 L 496.30,604.88 L 496.30,643.61 L 537.78,643.61 Z" fill="#f7fbff" stroke="#ffffff" stroke-width="0.8"><title>cell 182: Delta_SMCI=0.0009</title></path><path d="M 537.78,604.88 L 537.78,566.15 L 496.30,566.15 L 496.30,604.88 L 537.78,604.88 Z" fill="#2171b5" stroke="#ffffff" stroke-width="0.8"><title>cell 183: Delta_SMCI=0.0599</title></path><path d="M 537.78,566.15 L 537.78,527.42 L 496.30,527.42 L 496.30,566.15 L 537.78,566.15 Z" fill="#08306b" stroke="#ffffff" stroke-width="0.8"><title>cell 184: Delta_SMCI=0.1353</title></path><path d="M 537.78,527.42 L 537.78,488.69 L 496.30,488.69 L 496.30,527.42 L 537.78,527.42 Z" fill="#08306b" stroke="#ffffff" stroke-width="0.8"><title>cell 185: Delta_SMCI=0.2769</title></path><path d="M 537.78,488.69 L 537.78,449.97 L 496.30,449.97 L 496.30,488.69 L 537.78,488.69 Z" fill="#08306b" stroke="#ffffff" stroke-width="0.8"><title>cell 186: Delta_SMCI=0.3211</title></path><path d="M 537.78,449.97 L 537.78,411.24 L 496.30,411.24 L 496.30,449.97 L 537.78,449.97 Z" fill="#08306b" stroke="#ffffff" stroke-width="0.8"><title>cell 187: Delta_SMCI=0.3420</title></path><path d="M 537.78,411.24 L 537.78,372.51 L 496.30,372.51 L 496.30,411.24 L 537.78,411.24 Z" fill="#08306b" stroke="#ffffff" stroke-width="0.8"><title>cell 188: Delta_SMCI=0.2113</title></path><path d="M 537.78,372.51 L 537.78,333.79 L 496.30,333.79 L 496.30,372.51 L 537.78,372.51 Z" fill="#08306b" stroke="#ffffff" stroke-width="0.8"><title>cell 189: Delta_SMCI=0.1828</title></path><path d="M 537.78,333.79 L 537.78,295.06 L 496.30,295.06 L 496.30,333.79 L 537.78,333.79 Z" fill="#08306b" stroke="#ffffff" stroke-width="0.8"><title>cell 190: Delta_SMCI=0.2005</title></path><path d="M 537.78,295.06 L 537.78,256.34 L 496.30,256.34 L 496.30,295.06 L 537.78,295.06 Z" fill="#08306b" stroke="#ffffff" stroke-width="0.8"><title>cell 191: Delta_SMCI=0.2046</title></path><path d="M 537.78,256.34 L 537.78,217.61 L 496.30,217.61 L 496.30,256.34 L 537.78,256.34 Z" fill="#6baed6" stroke="#ffffff" stroke-width="0.8"><title>cell 192: Delta_SMCI=0.0244</title></path><path d="M 537.78,217.61 L 537.78,178.89 L 496.30,178.89 L 496.30,217.61 L 537.78,217.61 Z" fill="#2171b5" stroke="#ffffff" stroke-width="0.8"><title>cell 193: Delta_SMCI=0.0754</title></path><path d="M 537.78,178.89 L 537.78,140.17 L 496.30,140.17 L 496.30,178.89 L 537.78,178.89 Z" fill="#08306b" stroke="#ffffff" stroke-width="0.8"><title>cell 194: Delta_SMCI=0.1085</title></path><path d="M 537.78,140.17 L 537.78,101.44 L 496.30,101.44 L 496.30,140.17 L 537.78,140.17 Z" fill="#2171b5" stroke="#ffffff" stroke-width="0.8"><title>cell 195: Delta_SMCI=0.0718</title></path><path d="M 537.78,101.44 L 537.78,62.72 L 496.30,62.72 L 496.30,101.44 L 537.78,101.44 Z" fill="#2171b5" stroke="#ffffff" stroke-width="0.8"><title>cell 196: Delta_SMCI=0.0481</title></path><path d="M 537.78,62.72 L 537.78,24.00 L 496.30,24.00 L 496.30,62.72 L 537.78,62.72 Z" fill="#2171b5" stroke="#ffffff" stroke-width="0.8"><title>cell 197: Delta_SMCI=0.0357</title></path><path d="M 579.26,876.00 L 579.26,837.27 L 537.78,837.27 L 537.78,876.00 L 579.26,876.00 Z" fill="#e0e0e0" stroke="#ffffff" stroke-width="0.8"><title>cell 198: Delta_SMCI=0.0000</title></path><path d="M 579.26,837.27 L 579.26,798.53 L 537.78,798.53 L 537.78,837.27 L 579.26,837.27 Z" fill="#e0e0e0" stroke="#ffffff" stroke-width="0.8"><title>cell 199: Delta_SMCI=0.0000</title></path><path d="M 579.26,798.53 L 579.26,759.80 L 537.78,759.80 L 537.78,798.53 L 579.26,798.53 Z" fill="#e0e0e0" stroke="#ffffff" stroke-width="0.8"><title>cell 200: Delta_SMCI=0.0000</title></path><path d="M 579.26,759.80 L 579.26,721.07 L 537.78,721.07 L 537.78,759.80 L 579.26,759.80 Z" fill="#f7fbff" stroke="#ffffff" stroke-width="0.8"><title>cell 201: Delta_SMCI=0.0006</title></path><path d="M 579.26,721.07 L 579.26,682.34 L 537.78,682.34 L 537.78,721.07 L 579.26,721.07 Z" fill="#f7fbff" stroke="#ffffff" stroke-width="0.8"><title>cell 202: Delta_SMCI=0.0008</title></path><path d="M 579.26,682.34 L 579.26,643.61 L 537.78,643.61 L 537.78,682.34 L 579.26,682.34 Z" fill="#f7fbff" stroke="#ffffff" stroke-width="0.8"><title>cell 203: Delta_SMCI=0.0009</title></path><path d="M 579.26,643.61 L 579.26,604.88 L 537.78,604.88 L 537.78,643.61 L 579.26,643.61 Z" fill="#f7fbff" stroke="#ffffff" stroke-width="0.8"><title>cell 204: Delta_SMCI=0.0011</title></path><path d="M 579.26,604.88 L 579.26,566.15 L 537.78,566.15 L 537.78,604.88 L 579.26,604.88 Z" fill="#2171b5" stroke="#ffffff" stroke-width="0.8"><title>cell 205: Delta_SMCI=0.0471</title></path><path d="M 579.26,566.15 L 579.26,527.42 L 537.78,527.42 L 537.78,566.15 L 579.26,566.15 Z" fill="#2171b5" stroke="#ffffff" stroke-width="0.8"><title>cell 206: Delta_SMCI=0.0570</title></path><path d="M 579.26,527.42 L 579.26,488.69 L 537.78,488.69 L 537.78,527.42 L 579.26,527.42 Z" fill="#08306b" stroke="#ffffff" stroke-width="0.8"><title>cell 207: Delta_SMCI=0.2815</title></path><path d="M 579.26,488.69 L 579.26,449.97 L 537.78,449.97 L 537.78,488.69 L 579.26,488.69 Z" fill="#08306b" stroke="#ffffff" stroke-width="0.8"><title>cell 208: Delta_SMCI=0.4319</title></path><path d="M 579.26,449.97 L 579.26,411.24 L 537.78,411.24 L 537.78,449.97 L 579.26,449.97 Z" fill="#08306b" stroke="#ffffff" stroke-width="0.8"><title>cell 209: Delta_SMCI=0.3661</title></path><path d="M 579.26,411.24 L 579.26,372.51 L 537.78,372.51 L 537.78,411.24 L 579.26,411.24 Z" fill="#08306b" stroke="#ffffff" stroke-width="0.8"><title>cell 210: Delta_SMCI=0.2994</title></path><path d="M 579.26,372.51 L 579.26,333.79 L 537.78,333.79 L 537.78,372.51 L 579.26,372.51 Z" fill="#08306b" stroke="#ffffff" stroke-width="0.8"><title>cell 211: Delta_SMCI=0.3605</title></path><path d="M 579.26,333.79 L 579.26,295.06 L 537.78,295.06 L 537.78,333.79 L 579.26,333.79 Z" fill="#08306b" stroke="#ffffff" stroke-width="0.8"><title>cell 212: Delta_SMCI=0.2616</title></path><path d="M 579.26,295.06 L 579.26,256.34 L 537.78,256.34 L 537.78,295.06 L 579.26,295.06 Z" fill="#08306b" stroke="#ffffff" stroke-width="0.8"><title>cell 213: Delta_SMCI=0.1682</title></path><path d="M 579.26,256.34 L 579.26,217.61 L 537.78,217.61 L 537.78,256.34 L 579.26,256.34 Z" fill="#2171b5" stroke="#ffffff" stroke-width="0.8"><title>cell 214: Delta_SMCI=0.0723</title></path><path d="M 579.26,217.61 L 579.26,178.89 L 537.78,178.89 L 537.78,217.61 L 579.26,217.61 Z" fill="#08306b" stroke="#ffffff" stroke-width="0.8"><title>cell 215: Delta_SMCI=0.2811</title></path><path d="M 579.26,178.89 L 579.26,140.17 L 537.78,140.17 L 537.78,178.89 L 579.26,178.89 Z" fill="#6baed6" stroke="#ffffff" stroke-width="0.8"><title>cell 216: Delta_SMCI=0.0296</title></path><path d="M 579.26,140.17 L 579.26,101.44 L 537.78,101.44 L 537.78,140.17 L 579.26,140.17 Z" fill="#c6dbef" stroke="#ffffff" stroke-width="0.8"><title>cell 217: Delta_SMCI=0.0030</title></path><path d="M 579.26,101.44 L 579.26,62.72 L 537.78,62.72 L 537.78,101.44 L 579.26,101.44 Z" fill="#2171b5" stroke="#ffffff" stroke-width="0.8"><title>cell 218: Delta_SMCI=0.0680</title></path><path d="M 579.26,62.72 L 579.26,24.00 L 537.78,24.00 L 537.78,62.72 L 579.26,62.72 Z" fill="#2171b5" stroke="#ffffff" stroke-width="0.8"><title>cell 219: Delta_SMCI=0.0541</title></path><path d="M 620.74,876.00 L 620.74,837.27 L 579.26,837.27 L 579.26,876.00 L 620.74,876.00 Z" fill="#e0e0e0" stroke="#ffffff" stroke-width="0.8"><title>cell 220: Delta_SMCI=0.0000</title></path><path d="M 620.74,837.27 L 620.74,798.53 L 579.26,798.53 L 579.26,837.27 L 620.74,837.27 Z" fill="#e0e0e0" stroke="#ffffff" stroke-width="0.8"><title>cell 221: Delta_SMCI=0.0000</title></path><path d="M 620.74,798.53 L 620.74,759.80 L 579.26,759.80 L 579.26,798.53 L 620.74,798.53 Z" fill="#e0e0e0" stroke="#ffffff" stroke-width="0.8"><title>cell 222: Delta_SMCI=0.0000</title></path><path d="M 620.74,759.80 L 620.74,721.07 L 579.26,721.07 L 579.26,759.80 L 620.74,759.80 Z" fill="#e0e0e0" stroke="#ffffff" stroke-width="0.8"><title>cell 223: Delta_SMCI=0.0000</title></path><path d="M 620.74,721.07 L 620.74,682.34 L 579.26,682.34 L 579.26,721.07 L 620.74,721.07 Z" fill="#e0e0e0" stroke="#ffffff" stroke-width="0.8"><title>cell 224: Delta_SMCI=0.0000</title></path><path d="M 620.74,682.34 L 620.74,643.61 L 579.26,643.61 L 579.26,682.34 L 620.74,682.34 Z" fill="#e0e0e0" stroke="#ffffff" stroke-width="0.8"><title>cell 225: Delta_SMCI=0.0000</title></path><path d="M 620.74,643.61 L 620.74,604.88 L 579.26,604.88 L 579.26,643.61 L 620.74,643.61 Z" fill="#f7fbff" stroke="#ffffff" stroke-width="0.8"><title>cell 226: Delta_SMCI=0.0010</title></path><path d="M 620.74,604.88 L 620.74,566.15 L 579.26,566.15 L 579.26,604.88 L 620.74,604.88 Z" fill="#6baed6" stroke="#ffffff" stroke-width="0.8"><title>cell 227: Delta_SMCI=0.0197</title></path><path d="M 620.74,566.15 L 620.74,527.42 L 579.26,527.42 L 579.26,566.15 L 620.74,566.15 Z" fill="#2171b5" stroke="#ffffff" stroke-width="0.8"><title>cell 228: Delta_SMCI=0.0936</title></path><path d="M 620.74,527.42 L 620.74,488.69 L 579.26,488.69 L 579.26,527.42 L 620.74,527.42 Z" fill="#08306b" stroke="#ffffff" stroke-width="0.8"><title>cell 229: Delta_SMCI=0.1652</title></path><path d="M 620.74,488.69 L 620.74,449.97 L 579.26,449.97 L 579.26,488.69 L 620.74,488.69 Z" fill="#08306b" stroke="#ffffff" stroke-width="0.8"><title>cell 230: Delta_SMCI=0.4339</title></path><path d="M 620.74,449.97 L 620.74,411.24 L 579.26,411.24 L 579.26,449.97 L 620.74,449.97 Z" fill="#08306b" stroke="#ffffff" stroke-width="0.8"><title>cell 231: Delta_SMCI=0.4176</title></path><path d="M 620.74,411.24 L 620.74,372.51 L 579.26,372.51 L 579.26,411.24 L 620.74,411.24 Z" fill="#08306b" stroke="#ffffff" stroke-width="0.8"><title>cell 232: Delta_SMCI=0.0994</title></path><path d="M 620.74,372.51 L 620.74,333.79 L 579.26,333.79 L 579.26,372.51 L 620.74,372.51 Z" fill="#2171b5" stroke="#ffffff" stroke-width="0.8"><title>cell 233: Delta_SMCI=0.0954</title></path><path d="M 620.74,333.79 L 620.74,295.06 L 579.26,295.06 L 579.26,333.79 L 620.74,333.79 Z" fill="#08306b" stroke="#ffffff" stroke-width="0.8"><title>cell 234: Delta_SMCI=0.2214</title></path><path d="M 620.74,295.06 L 620.74,256.34 L 579.26,256.34 L 579.26,295.06 L 620.74,295.06 Z" fill="#08306b" stroke="#ffffff" stroke-width="0.8"><title>cell 235: Delta_SMCI=0.1711</title></path><path d="M 620.74,256.34 L 620.74,217.61 L 579.26,217.61 L 579.26,256.34 L 620.74,256.34 Z" fill="#08306b" stroke="#ffffff" stroke-width="0.8"><title>cell 236: Delta_SMCI=0.1751</title></path><path d="M 620.74,217.61 L 620.74,178.89 L 579.26,178.89 L 579.26,217.61 L 620.74,217.61 Z" fill="#08306b" stroke="#ffffff" stroke-width="0.8"><title>cell 237: Delta_SMCI=0.1125</title></path><path d="M 620.74,178.89 L 620.74,140.17 L 579.26,140.17 L 579.26,178.89 L 620.74,178.89 Z" fill="#6baed6" stroke="#ffffff" stroke-width="0.8"><title>cell 238: Delta_SMCI=0.0193</title></path><path d="M 620.74,140.17 L 620.74,101.44 L 579.26,101.44 L 579.26,140.17 L 620.74,140.17 Z" fill="#6baed6" stroke="#ffffff" stroke-width="0.8"><title>cell 239: Delta_SMCI=0.0173</title></path><path d="M 620.74,101.44 L 620.74,62.72 L 579.26,62.72 L 579.26,101.44 L 620.74,101.44 Z" fill="#6baed6" stroke="#ffffff" stroke-width="0.8"><title>cell 240: Delta_SMCI=0.0141</title></path><path d="M 620.74,62.72 L 620.74,24.00 L 579.26,24.00 L 579.26,62.72 L 620.74,62.72 Z" fill="#6baed6" stroke="#ffffff" stroke-width="0.8"><title>cell 241: Delta_SMCI=0.0095</title></path><path d="M 662.22,876.00 L 662.22,837.27 L 620.74,837.27 L 620.74,876.00 L 662.22,876.00 Z" fill="#e0e0e0" stroke="#ffffff" stroke-width="0.8"><title>cell 242: Delta_SMCI=0.0000</title></path><path d="M 662.22,837.27 L 662.22,798.53 L 620.74,798.53 L 620.74,837.27 L 662.22,837.27 Z" fill="#e0e0e0" stroke="#ffffff" stroke-width="0.8"><title>cell 243: Delta_SMCI=0.0000</title></path><path d="M 662.22,798.53 L 662.22,759.80 L 620.74,759.80 L 620.74,798.53 L 662.22,798.53 Z" fill="#e0e0e0" stroke="#ffffff" stroke-width="0.8"><title>cell 244: Delta_SMCI=0.0000</title></path><path d="M 662.22,759.80 L 662.22,721.07 L 620.74,721.07 L 620.74,759.80 L 662.22,759.80 Z" fill="#e0e0e0" stroke="#ffffff" stroke-width="0.8"><title>cell 245: Delta_SMCI=0.0000</title></path><path d="M 662.22,721.07 L 662.22,682.34 L 620.74,682.34 L 620.74,721.07 L 662.22,721.07 Z" fill="#f7fbff" stroke="#ffffff" stroke-width="0.8"><title>cell 246: Delta_SMCI=0.0006</title></path><path d="M 662.22,682.34 L 662.22,643.61 L 620.74,643.61 L 620.74,682.34 L 662.22,682.34 Z" fill="#e0e0e0" stroke="#ffffff" stroke-width="0.8"><title>cell 247: Delta_SMCI=0.0000</title></path><path d="M 662.22,643.61 L 662.22,604.88 L 620.74,604.88 L 620.74,643.61 L 662.22,643.61 Z" fill="#e0e0e0" stroke="#ffffff" stroke-width="0.8"><title>cell 248: Delta_SMCI=0.0000</title></path><path d="M 662.22,604.88 L 662.22,566.15 L 620.74,566.15 L 620.74,604.88 L 662.22,604.88 Z" fill="#2171b5" stroke="#ffffff" stroke-width="0.8"><title>cell 249: Delta_SMCI=0.0717</title></path><path d="M 662.22,566.15 L 662.22,527.42 L 620.74,527.42 L 620.74,566.15 L 662.22,566.15 Z" fill="#2171b5" stroke="#ffffff" stroke-width="0.8"><title>cell 250: Delta_SMCI=0.0881</title></path><path d="M 662.22,527.42 L 662.22,488.69 L 620.74,488.69 L 620.74,527.42 L 662.22,527.42 Z" fill="#08306b" stroke="#ffffff" stroke-width="0.8"><title>cell 251: Delta_SMCI=0.1835</title></path><path d="M 662.22,488.69 L 662.22,449.97 L 620.74,449.97 L 620.74,488.69 L 662.22,488.69 Z" fill="#08306b" stroke="#ffffff" stroke-width="0.8"><title>cell 252: Delta_SMCI=0.2088</title></path><path d="M 662.22,449.97 L 662.22,411.24 L 620.74,411.24 L 620.74,449.97 L 662.22,449.97 Z" fill="#08306b" stroke="#ffffff" stroke-width="0.8"><title>cell 253: Delta_SMCI=0.1007</title></path><path d="M 662.22,411.24 L 662.22,372.51 L 620.74,372.51 L 620.74,411.24 L 662.22,411.24 Z" fill="#08306b" stroke="#ffffff" stroke-width="0.8"><title>cell 254: Delta_SMCI=0.2762</title></path><path d="M 662.22,372.51 L 662.22,333.79 L 620.74,333.79 L 620.74,372.51 L 662.22,372.51 Z" fill="#08306b" stroke="#ffffff" stroke-width="0.8"><title>cell 255: Delta_SMCI=0.1443</title></path><path d="M 662.22,333.79 L 662.22,295.06 L 620.74,295.06 L 620.74,333.79 L 662.22,333.79 Z" fill="#08306b" stroke="#ffffff" stroke-width="0.8"><title>cell 256: Delta_SMCI=0.1905</title></path><path d="M 662.22,295.06 L 662.22,256.34 L 620.74,256.34 L 620.74,295.06 L 662.22,295.06 Z" fill="#08306b" stroke="#ffffff" stroke-width="0.8"><title>cell 257: Delta_SMCI=0.1983</title></path><path d="M 662.22,256.34 L 662.22,217.61 L 620.74,217.61 L 620.74,256.34 L 662.22,256.34 Z" fill="#08306b" stroke="#ffffff" stroke-width="0.8"><title>cell 258: Delta_SMCI=0.1718</title></path><path d="M 662.22,217.61 L 662.22,178.89 L 620.74,178.89 L 620.74,217.61 L 662.22,217.61 Z" fill="#6baed6" stroke="#ffffff" stroke-width="0.8"><title>cell 259: Delta_SMCI=0.0198</title></path><path d="M 662.22,178.89 L 662.22,140.17 L 620.74,140.17 L 620.74,178.89 L 662.22,178.89 Z" fill="#c6dbef" stroke="#ffffff" stroke-width="0.8"><title>cell 260: Delta_SMCI=0.0066</title></path><path d="M 662.22,140.17 L 662.22,101.44 L 620.74,101.44 L 620.74,140.17 L 662.22,140.17 Z" fill="#6baed6" stroke="#ffffff" stroke-width="0.8"><title>cell 261: Delta_SMCI=0.0097</title></path><path d="M 662.22,101.44 L 662.22,62.72 L 620.74,62.72 L 620.74,101.44 L 662.22,101.44 Z" fill="#6baed6" stroke="#ffffff" stroke-width="0.8"><title>cell 262: Delta_SMCI=0.0117</title></path><path d="M 662.22,62.72 L 662.22,24.00 L 620.74,24.00 L 620.74,62.72 L 662.22,62.72 Z" fill="#c6dbef" stroke="#ffffff" stroke-width="0.8"><title>cell 263: Delta_SMCI=0.0042</title></path><path d="M 703.70,876.00 L 703.70,837.27 L 662.22,837.27 L 662.22,876.00 L 703.70,876.00 Z" fill="#e0e0e0" stroke="#ffffff" stroke-width="0.8"><title>cell 264: Delta_SMCI=0.0000</title></path><path d="M 703.70,837.27 L 703.70,798.53 L 662.22,798.53 L 662.22,837.27 L 703.70,837.27 Z" fill="#e0e0e0" stroke="#ffffff" stroke-width="0.8"><title>cell 265: Delta_SMCI=0.0000</title></path><path d="M 703.70,798.53 L 703.70,759.80 L 662.22,759.80 L 662.22,798.53 L 703.70,798.53 Z" fill="#e0e0e0" stroke="#ffffff" stroke-width="0.8"><title>cell 266: Delta_SMCI=0.0000</title></path><path d="M 703.70,759.80 L 703.70,721.07 L 662.22,721.07 L 662.22,759.80 L 703.70,759.80 Z" fill="#e0e0e0" stroke="#ffffff" stroke-width="0.8"><title>cell 267: Delta_SMCI=0.0000</title></path><path d="M 703.70,721.07 L 703.70,682.34 L 662.22,682.34 L 662.22,721.07 L 703.70,721.07 Z" fill="#f7fbff" stroke="#ffffff" stroke-width="0.8"><title>cell 268: Delta_SMCI=0.0005</title></path><path d="M 703.70,682.34 L 703.70,643.61 L 662.22,643.61 L 662.22,682.34 L 703.70,682.34 Z" fill="#f7fbff" stroke="#ffffff" stroke-width="0.8"><title>cell 269: Delta_SMCI=0.0011</title></path><path d="M 703.70,643.61 L 703.70,604.88 L 662.22,604.88 L 662.22,643.61 L 703.70,643.61 Z" fill="#6baed6" stroke="#ffffff" stroke-width="0.8"><title>cell 270: Delta_SMCI=0.0203</title></path><path d="M 703.70,604.88 L 703.70,566.15 L 662.22,566.15 L 662.22,604.88 L 703.70,604.88 Z" fill="#2171b5" stroke="#ffffff" stroke-width="0.8"><title>cell 271: Delta_SMCI=0.0450</title></path><path d="M 703.70,566.15 L 703.70,527.42 L 662.22,527.42 L 662.22,566.15 L 703.70,566.15 Z" fill="#08306b" stroke="#ffffff" stroke-width="0.8"><title>cell 272: Delta_SMCI=0.1323</title></path><path d="M 703.70,527.42 L 703.70,488.69 L 662.22,488.69 L 662.22,527.42 L 703.70,527.42 Z" fill="#08306b" stroke="#ffffff" stroke-width="0.8"><title>cell 273: Delta_SMCI=0.1548</title></path><path d="M 703.70,488.69 L 703.70,449.97 L 662.22,449.97 L 662.22,488.69 L 703.70,488.69 Z" fill="#08306b" stroke="#ffffff" stroke-width="0.8"><title>cell 274: Delta_SMCI=0.1555</title></path><path d="M 703.70,449.97 L 703.70,411.24 L 662.22,411.24 L 662.22,449.97 L 703.70,449.97 Z" fill="#08306b" stroke="#ffffff" stroke-width="0.8"><title>cell 275: Delta_SMCI=0.1345</title></path><path d="M 703.70,411.24 L 703.70,372.51 L 662.22,372.51 L 662.22,411.24 L 703.70,411.24 Z" fill="#08306b" stroke="#ffffff" stroke-width="0.8"><title>cell 276: Delta_SMCI=0.1426</title></path><path d="M 703.70,372.51 L 703.70,333.79 L 662.22,333.79 L 662.22,372.51 L 703.70,372.51 Z" fill="#08306b" stroke="#ffffff" stroke-width="0.8"><title>cell 277: Delta_SMCI=0.2653</title></path><path d="M 703.70,333.79 L 703.70,295.06 L 662.22,295.06 L 662.22,333.79 L 703.70,333.79 Z" fill="#08306b" stroke="#ffffff" stroke-width="0.8"><title>cell 278: Delta_SMCI=0.1141</title></path><path d="M 703.70,295.06 L 703.70,256.34 L 662.22,256.34 L 662.22,295.06 L 703.70,295.06 Z" fill="#08306b" stroke="#ffffff" stroke-width="0.8"><title>cell 279: Delta_SMCI=0.1050</title></path><path d="M 703.70,256.34 L 703.70,217.61 L 662.22,217.61 L 662.22,256.34 L 703.70,256.34 Z" fill="#6baed6" stroke="#ffffff" stroke-width="0.8"><title>cell 280: Delta_SMCI=0.0136</title></path><path d="M 703.70,217.61 L 703.70,178.89 L 662.22,178.89 L 662.22,217.61 L 703.70,217.61 Z" fill="#6baed6" stroke="#ffffff" stroke-width="0.8"><title>cell 281: Delta_SMCI=0.0097</title></path><path d="M 703.70,178.89 L 703.70,140.17 L 662.22,140.17 L 662.22,178.89 L 703.70,178.89 Z" fill="#c6dbef" stroke="#ffffff" stroke-width="0.8"><title>cell 282: Delta_SMCI=0.0073</title></path><path d="M 703.70,140.17 L 703.70,101.44 L 662.22,101.44 L 662.22,140.17 L 703.70,140.17 Z" fill="#c6dbef" stroke="#ffffff" stroke-width="0.8"><title>cell 283: Delta_SMCI=0.0058</title></path><path d="M 703.70,101.44 L 703.70,62.72 L 662.22,62.72 L 662.22,101.44 L 703.70,101.44 Z" fill="#c6dbef" stroke="#ffffff" stroke-width="0.8"><title>cell 284: Delta_SMCI=0.0042</title></path><path d="M 703.70,62.72 L 703.70,24.00 L 662.22,24.00 L 662.22,62.72 L 703.70,62.72 Z" fill="#6baed6" stroke="#ffffff" stroke-width="0.8"><title>cell 285: Delta_SMCI=0.0077</title></path><path d="M 745.18,876.00 L 745.18,837.27 L 703.70,837.27 L 703.70,876.00 L 745.18,876.00 Z" fill="#e0e0e0" stroke="#ffffff" stroke-width="0.8"><title>cell 286: Delta_SMCI=0.0000</title></path><path d="M 745.18,837.27 L 745.18,798.53 L 703.70,798.53 L 703.70,837.27 L 745.18,837.27 Z" fill="#e0e0e0" stroke="#ffffff" stroke-width="0.8"><title>cell 287: Delta_SMCI=0.0000</title></path><path d="M 745.18,798.53 L 745.18,759.80 L 703.70,759.80 L 703.70,798.53 L 745.18,798.53 Z" fill="#f7fbff" stroke="#ffffff" stroke-width="0.8"><title>cell 288: Delta_SMCI=0.0009</title></path><path d="M 745.18,759.80 L 745.18,721.07 L 703.70,721.07 L 703.70,759.80 L 745.18,759.80 Z" fill="#e0e0e0" stroke="#ffffff" stroke-width="0.8"><title>cell 289: Delta_SMCI=0.0000</title></path><path d="M 745.18,721.07 L 745.18,682.34 L 703.70,682.34 L 703.70,721.07 L 745.18,721.07 Z" fill="#f7fbff" stroke="#ffffff" stroke-width="0.8"><title>cell 290: Delta_SMCI=0.0013</title></path><path d="M 745.18,682.34 L 745.18,643.61 L 703.70,643.61 L 703.70,682.34 L 745.18,682.34 Z" fill="#f7fbff" stroke="#ffffff" stroke-width="0.8"><title>cell 291: Delta_SMCI=0.0011</title></path><path d="M 745.18,643.61 L 745.18,604.88 L 703.70,604.88 L 703.70,643.61 L 745.18,643.61 Z" fill="#c6dbef" stroke="#ffffff" stroke-width="0.8"><title>cell 292: Delta_SMCI=0.0015</title></path><path d="M 745.18,604.88 L 745.18,566.15 L 703.70,566.15 L 703.70,604.88 L 745.18,604.88 Z" fill="#2171b5" stroke="#ffffff" stroke-width="0.8"><title>cell 293: Delta_SMCI=0.0854</title></path><path d="M 745.18,566.15 L 745.18,527.42 L 703.70,527.42 L 703.70,566.15 L 745.18,566.15 Z" fill="#2171b5" stroke="#ffffff" stroke-width="0.8"><title>cell 294: Delta_SMCI=0.0876</title></path><path d="M 745.18,527.42 L 745.18,488.69 L 703.70,488.69 L 703.70,527.42 L 745.18,527.42 Z" fill="#2171b5" stroke="#ffffff" stroke-width="0.8"><title>cell 295: Delta_SMCI=0.0834</title></path><path d="M 745.18,488.69 L 745.18,449.97 L 703.70,449.97 L 703.70,488.69 L 745.18,488.69 Z" fill="#2171b5" stroke="#ffffff" stroke-width="0.8"><title>cell 296: Delta_SMCI=0.0916</title></path><path d="M 745.18,449.97 L 745.18,411.24 L 703.70,411.24 L 703.70,449.97 L 745.18,449.97 Z" fill="#08306b" stroke="#ffffff" stroke-width="0.8"><title>cell 297: Delta_SMCI=0.1390</title></path><path d="M 745.18,411.24 L 745.18,372.51 L 703.70,372.51 L 703.70,411.24 L 745.18,411.24 Z" fill="#08306b" stroke="#ffffff" stroke-width="0.8"><title>cell 298: Delta_SMCI=0.1580</title></path><path d="M 745.18,372.51 L 745.18,333.79 L 703.70,333.79 L 703.70,372.51 L 745.18,372.51 Z" fill="#08306b" stroke="#ffffff" stroke-width="0.8"><title>cell 299: Delta_SMCI=0.2063</title></path><path d="M 745.18,333.79 L 745.18,295.06 L 703.70,295.06 L 703.70,333.79 L 745.18,333.79 Z" fill="#e0e0e0" stroke="#ffffff" stroke-width="0.8"><title>cell 300: Delta_SMCI=0.0000</title></path><path d="M 745.18,295.06 L 745.18,256.34 L 703.70,256.34 L 703.70,295.06 L 745.18,295.06 Z" fill="#e0e0e0" stroke="#ffffff" stroke-width="0.8"><title>cell 301: Delta_SMCI=0.0000</title></path><path d="M 745.18,256.34 L 745.18,217.61 L 703.70,217.61 L 703.70,256.34 L 745.18,256.34 Z" fill="#e0e0e0" stroke="#ffffff" stroke-width="0.8"><title>cell 302: Delta_SMCI=0.0000</title></path><path d="M 745.18,217.61 L 745.18,178.89 L 703.70,178.89 L 703.70,217.61 L 745.18,217.61 Z" fill="#c6dbef" stroke="#ffffff" stroke-width="0.8"><title>cell 303: Delta_SMCI=0.0051</title></path><path d="M 745.18,178.89 L 745.18,140.17 L 703.70,140.17 L 703.70,178.89 L 745.18,178.89 Z" fill="#c6dbef" stroke="#ffffff" stroke-width="0.8"><title>cell 304: Delta_SMCI=0.0068</title></path><path d="M 745.18,140.17 L 745.18,101.44 L 703.70,101.44 L 703.70,140.17 L 745.18,140.17 Z" fill="#6baed6" stroke="#ffffff" stroke-width="0.8"><title>cell 305: Delta_SMCI=0.0095</title></path><path d="M 745.18,101.44 L 745.18,62.72 L 703.70,62.72 L 703.70,101.44 L 745.18,101.44 Z" fill="#6baed6" stroke="#ffffff" stroke-width="0.8"><title>cell 306: Delta_SMCI=0.0112</title></path><path d="M 745.18,62.72 L 745.18,24.00 L 703.70,24.00 L 703.70,62.72 L 745.18,62.72 Z" fill="#6baed6" stroke="#ffffff" stroke-width="0.8"><title>cell 307: Delta_SMCI=0.0082</title></path><path d="M 786.66,876.00 L 786.66,837.27 L 745.18,837.27 L 745.18,876.00 L 786.66,876.00 Z" fill="#f7fbff" stroke="#ffffff" stroke-width="0.8"><title>cell 308: Delta_SMCI=0.0006</title></path><path d="M 786.66,837.27 L 786.66,798.53 L 745.18,798.53 L 745.18,837.27 L 786.66,837.27 Z" fill="#f7fbff" stroke="#ffffff" stroke-width="0.8"><title>cell 309: Delta_SMCI=0.0005</title></path><path d="M 786.66,798.53 L 786.66,759.80 L 745.18,759.80 L 745.18,798.53 L 786.66,798.53 Z" fill="#c6dbef" stroke="#ffffff" stroke-width="0.8"><title>cell 310: Delta_SMCI=0.0017</title></path><path d="M 786.66,759.80 L 786.66,721.07 L 745.18,721.07 L 745.18,759.80 L 786.66,759.80 Z" fill="#c6dbef" stroke="#ffffff" stroke-width="0.8"><title>cell 311: Delta_SMCI=0.0040</title></path><path d="M 786.66,721.07 L 786.66,682.34 L 745.18,682.34 L 745.18,721.07 L 786.66,721.07 Z" fill="#c6dbef" stroke="#ffffff" stroke-width="0.8"><title>cell 312: Delta_SMCI=0.0063</title></path><path d="M 786.66,682.34 L 786.66,643.61 L 745.18,643.61 L 745.18,682.34 L 786.66,682.34 Z" fill="#6baed6" stroke="#ffffff" stroke-width="0.8"><title>cell 313: Delta_SMCI=0.0094</title></path><path d="M 786.66,643.61 L 786.66,604.88 L 745.18,604.88 L 745.18,643.61 L 786.66,643.61 Z" fill="#6baed6" stroke="#ffffff" stroke-width="0.8"><title>cell 314: Delta_SMCI=0.0096</title></path><path d="M 786.66,604.88 L 786.66,566.15 L 745.18,566.15 L 745.18,604.88 L 786.66,604.88 Z" fill="#6baed6" stroke="#ffffff" stroke-width="0.8"><title>cell 315: Delta_SMCI=0.0275</title></path><path d="M 786.66,566.15 L 786.66,527.42 L 745.18,527.42 L 745.18,566.15 L 786.66,566.15 Z" fill="#2171b5" stroke="#ffffff" stroke-width="0.8"><title>cell 316: Delta_SMCI=0.0895</title></path><path d="M 786.66,527.42 L 786.66,488.69 L 745.18,488.69 L 745.18,527.42 L 786.66,527.42 Z" fill="#2171b5" stroke="#ffffff" stroke-width="0.8"><title>cell 317: Delta_SMCI=0.0899</title></path><path d="M 786.66,488.69 L 786.66,449.97 L 745.18,449.97 L 745.18,488.69 L 786.66,488.69 Z" fill="#08306b" stroke="#ffffff" stroke-width="0.8"><title>cell 318: Delta_SMCI=0.1172</title></path><path d="M 786.66,449.97 L 786.66,411.24 L 745.18,411.24 L 745.18,449.97 L 786.66,449.97 Z" fill="#08306b" stroke="#ffffff" stroke-width="0.8"><title>cell 319: Delta_SMCI=0.1159</title></path><path d="M 786.66,411.24 L 786.66,372.51 L 745.18,372.51 L 745.18,411.24 L 786.66,411.24 Z" fill="#2171b5" stroke="#ffffff" stroke-width="0.8"><title>cell 320: Delta_SMCI=0.0945</title></path><path d="M 786.66,372.51 L 786.66,333.79 L 745.18,333.79 L 745.18,372.51 L 786.66,372.51 Z" fill="#08306b" stroke="#ffffff" stroke-width="0.8"><title>cell 321: Delta_SMCI=0.1046</title></path><path d="M 786.66,333.79 L 786.66,295.06 L 745.18,295.06 L 745.18,333.79 L 786.66,333.79 Z" fill="#2171b5" stroke="#ffffff" stroke-width="0.8"><title>cell 322: Delta_SMCI=0.0574</title></path><path d="M 786.66,295.06 L 786.66,256.34 L 745.18,256.34 L 745.18,295.06 L 786.66,295.06 Z" fill="#e0e0e0" stroke="#ffffff" stroke-width="0.8"><title>cell 323: Delta_SMCI=0.0000</title></path><path d="M 786.66,256.34 L 786.66,217.61 L 745.18,217.61 L 745.18,256.34 L 786.66,256.34 Z" fill="#e0e0e0" stroke="#ffffff" stroke-width="0.8"><title>cell 324: Delta_SMCI=0.0000</title></path><path d="M 786.66,217.61 L 786.66,178.89 L 745.18,178.89 L 745.18,217.61 L 786.66,217.61 Z" fill="#c6dbef" stroke="#ffffff" stroke-width="0.8"><title>cell 325: Delta_SMCI=0.0017</title></path><path d="M 786.66,178.89 L 786.66,140.17 L 745.18,140.17 L 745.18,178.89 L 786.66,178.89 Z" fill="#c6dbef" stroke="#ffffff" stroke-width="0.8"><title>cell 326: Delta_SMCI=0.0035</title></path><path d="M 786.66,140.17 L 786.66,101.44 L 745.18,101.44 L 745.18,140.17 L 786.66,140.17 Z" fill="#e0e0e0" stroke="#ffffff" stroke-width="0.8"><title>cell 327: Delta_SMCI=0.0000</title></path><path d="M 786.66,101.44 L 786.66,62.72 L 745.18,62.72 L 745.18,101.44 L 786.66,101.44 Z" fill="#e0e0e0" stroke="#ffffff" stroke-width="0.8"><title>cell 328: Delta_SMCI=0.0000</title></path><path d="M 786.66,62.72 L 786.66,24.00 L 745.18,24.00 L 745.18,62.72 L 786.66,62.72 Z" fill="#6baed6" stroke="#ffffff" stroke-width="0.8"><title>cell 329: Delta_SMCI=0.0122</title></path><path d="M 828.14,876.00 L 828.14,837.27 L 786.66,837.27 L 786.66,876.00 L 828.14,876.00 Z" fill="#e0e0e0" stroke="#ffffff" stroke-width="0.8"><title>cell 330: Delta_SMCI=0.0000</title></path><path d="M 828.14,837.27 L 828.14,798.53 L 786.66,798.53 L 786.66,837.27 L 828.14,837.27 Z" fill="#c6dbef" stroke="#ffffff" stroke-width="0.8"><title>cell 331: Delta_SMCI=0.0017</title></path><path d="M 828.14,798.53 L 828.14,759.80 L 786.66,759.80 L 786.66,798.53 L 828.14,798.53 Z" fill="#c6dbef" stroke="#ffffff" stroke-width="0.8"><title>cell 332: Delta_SMCI=0.0023</title></path><path d="M 828.14,759.80 L 828.14,721.07 L 786.66,721.07 L 786.66,759.80 L 828.14,759.80 Z" fill="#c6dbef" stroke="#ffffff" stroke-width="0.8"><title>cell 333: Delta_SMCI=0.0051</title></path><path d="M 828.14,721.07 L 828.14,682.34 L 786.66,682.34 L 786.66,721.07 L 828.14,721.07 Z" fill="#6baed6" stroke="#ffffff" stroke-width="0.8"><title>cell 334: Delta_SMCI=0.0092</title></path><path d="M 828.14,682.34 L 828.14,643.61 L 786.66,643.61 L 786.66,682.34 L 828.14,682.34 Z" fill="#6baed6" stroke="#ffffff" stroke-width="0.8"><title>cell 335: Delta_SMCI=0.0165</title></path><path d="M 828.14,643.61 L 828.14,604.88 L 786.66,604.88 L 786.66,643.61 L 828.14,643.61 Z" fill="#6baed6" stroke="#ffffff" stroke-width="0.8"><title>cell 336: Delta_SMCI=0.0186</title></path><path d="M 828.14,604.88 L 828.14,566.15 L 786.66,566.15 L 786.66,604.88 L 828.14,604.88 Z" fill="#6baed6" stroke="#ffffff" stroke-width="0.8"><title>cell 337: Delta_SMCI=0.0149</title></path><path d="M 828.14,566.15 L 828.14,527.42 L 786.66,527.42 L 786.66,566.15 L 828.14,566.15 Z" fill="#2171b5" stroke="#ffffff" stroke-width="0.8"><title>cell 338: Delta_SMCI=0.0474</title></path><path d="M 828.14,527.42 L 828.14,488.69 L 786.66,488.69 L 786.66,527.42 L 828.14,527.42 Z" fill="#2171b5" stroke="#ffffff" stroke-width="0.8"><title>cell 339: Delta_SMCI=0.0582</title></path><path d="M 828.14,488.69 L 828.14,449.97 L 786.66,449.97 L 786.66,488.69 L 828.14,488.69 Z" fill="#2171b5" stroke="#ffffff" stroke-width="0.8"><title>cell 340: Delta_SMCI=0.0702</title></path><path d="M 828.14,449.97 L 828.14,411.24 L 786.66,411.24 L 786.66,449.97 L 828.14,449.97 Z" fill="#2171b5" stroke="#ffffff" stroke-width="0.8"><title>cell 341: Delta_SMCI=0.0797</title></path><path d="M 828.14,411.24 L 828.14,372.51 L 786.66,372.51 L 786.66,411.24 L 828.14,411.24 Z" fill="#2171b5" stroke="#ffffff" stroke-width="0.8"><title>cell 342: Delta_SMCI=0.0724</title></path><path d="M 828.14,372.51 L 828.14,333.79 L 786.66,333.79 L 786.66,372.51 L 828.14,372.51 Z" fill="#08306b" stroke="#ffffff" stroke-width="0.8"><title>cell 343: Delta_SMCI=0.1044</title></path><path d="M 828.14,333.79 L 828.14,295.06 L 786.66,295.06 L 786.66,333.79 L 828.14,333.79 Z" fill="#c6dbef" stroke="#ffffff" stroke-width="0.8"><title>cell 344: Delta_SMCI=0.0063</title></path><path d="M 828.14,295.06 L 828.14,256.34 L 786.66,256.34 L 786.66,295.06 L 828.14,295.06 Z" fill="#c6dbef" stroke="#ffffff" stroke-width="0.8"><title>cell 345: Delta_SMCI=0.0020</title></path><path d="M 828.14,256.34 L 828.14,217.61 L 786.66,217.61 L 786.66,256.34 L 828.14,256.34 Z" fill="#e0e0e0" stroke="#ffffff" stroke-width="0.8"><title>cell 346: Delta_SMCI=0.0000</title></path><path d="M 828.14,217.61 L 828.14,178.89 L 786.66,178.89 L 786.66,217.61 L 828.14,217.61 Z" fill="#f7fbff" stroke="#ffffff" stroke-width="0.8"><title>cell 347: Delta_SMCI=0.0007</title></path><path d="M 828.14,178.89 L 828.14,140.17 L 786.66,140.17 L 786.66,178.89 L 828.14,178.89 Z" fill="#e0e0e0" stroke="#ffffff" stroke-width="0.8"><title>cell 348: Delta_SMCI=0.0000</title></path><path d="M 828.14,140.17 L 828.14,101.44 L 786.66,101.44 L 786.66,140.17 L 828.14,140.17 Z" fill="#c6dbef" stroke="#ffffff" stroke-width="0.8"><title>cell 349: Delta_SMCI=0.0031</title></path><path d="M 828.14,101.44 L 828.14,62.72 L 786.66,62.72 L 786.66,101.44 L 828.14,101.44 Z" fill="#c6dbef" stroke="#ffffff" stroke-width="0.8"><title>cell 350: Delta_SMCI=0.0042</title></path><path d="M 828.14,62.72 L 828.14,24.00 L 786.66,24.00 L 786.66,62.72 L 828.14,62.72 Z" fill="#e0e0e0" stroke="#ffffff" stroke-width="0.8"><title>cell 351: Delta_SMCI=0.0000</title></path><path d="M 869.62,876.00 L 869.62,837.27 L 828.14,837.27 L 828.14,876.00 L 869.62,876.00 Z" fill="#e0e0e0" stroke="#ffffff" stroke-width="0.8"><title>cell 352: Delta_SMCI=0.0000</title></path><path d="M 869.62,837.27 L 869.62,798.53 L 828.14,798.53 L 828.14,837.27 L 869.62,837.27 Z" fill="#f7fbff" stroke="#ffffff" stroke-width="0.8"><title>cell 353: Delta_SMCI=0.0010</title></path><path d="M 869.62,798.53 L 869.62,759.80 L 828.14,759.80 L 828.14,798.53 L 869.62,798.53 Z" fill="#f7fbff" stroke="#ffffff" stroke-width="0.8"><title>cell 354: Delta_SMCI=0.0010</title></path><path d="M 869.62,759.80 L 869.62,721.07 L 828.14,721.07 L 828.14,759.80 L 869.62,759.80 Z" fill="#c6dbef" stroke="#ffffff" stroke-width="0.8"><title>cell 355: Delta_SMCI=0.0062</title></path><path d="M 869.62,721.07 L 869.62,682.34 L 828.14,682.34 L 828.14,721.07 L 869.62,721.07 Z" fill="#c6dbef" stroke="#ffffff" stroke-width="0.8"><title>cell 356: Delta_SMCI=0.0068</title></path><path d="M 869.62,682.34 L 869.62,643.61 L 828.14,643.61 L 828.14,682.34 L 869.62,682.34 Z" fill="#6baed6" stroke="#ffffff" stroke-width="0.8"><title>cell 357: Delta_SMCI=0.0155</title></path><path d="M 869.62,643.61 L 869.62,604.88 L 828.14,604.88 L 828.14,643.61 L 869.62,643.61 Z" fill="#6baed6" stroke="#ffffff" stroke-width="0.8"><title>cell 358: Delta_SMCI=0.0160</title></path><path d="M 869.62,604.88 L 869.62,566.15 L 828.14,566.15 L 828.14,604.88 L 869.62,604.88 Z" fill="#6baed6" stroke="#ffffff" stroke-width="0.8"><title>cell 359: Delta_SMCI=0.0207</title></path><path d="M 869.62,566.15 L 869.62,527.42 L 828.14,527.42 L 828.14,566.15 L 869.62,566.15 Z" fill="#6baed6" stroke="#ffffff" stroke-width="0.8"><title>cell 360: Delta_SMCI=0.0319</title></path><path d="M 869.62,527.42 L 869.62,488.69 L 828.14,488.69 L 828.14,527.42 L 869.62,527.42 Z" fill="#2171b5" stroke="#ffffff" stroke-width="0.8"><title>cell 361: Delta_SMCI=0.0627</title></path><path d="M 869.62,488.69 L 869.62,449.97 L 828.14,449.97 L 828.14,488.69 L 869.62,488.69 Z" fill="#2171b5" stroke="#ffffff" stroke-width="0.8"><title>cell 362: Delta_SMCI=0.0627</title></path><path d="M 869.62,449.97 L 869.62,411.24 L 828.14,411.24 L 828.14,449.97 L 869.62,449.97 Z" fill="#2171b5" stroke="#ffffff" stroke-width="0.8"><title>cell 363: Delta_SMCI=0.0563</title></path><path d="M 869.62,411.24 L 869.62,372.51 L 828.14,372.51 L 828.14,411.24 L 869.62,411.24 Z" fill="#2171b5" stroke="#ffffff" stroke-width="0.8"><title>cell 364: Delta_SMCI=0.0478</title></path><path d="M 869.62,372.51 L 869.62,333.79 L 828.14,333.79 L 828.14,372.51 L 869.62,372.51 Z" fill="#e0e0e0" stroke="#ffffff" stroke-width="0.8"><title>cell 365: Delta_SMCI=0.0000</title></path><path d="M 869.62,333.79 L 869.62,295.06 L 828.14,295.06 L 828.14,333.79 L 869.62,333.79 Z" fill="#e0e0e0" stroke="#ffffff" stroke-width="0.8"><title>cell 366: Delta_SMCI=0.0000</title></path><path d="M 869.62,295.06 L 869.62,256.34 L 828.14,256.34 L 828.14,295.06 L 869.62,295.06 Z" fill="#e0e0e0" stroke="#ffffff" stroke-width="0.8"><title>cell 367: Delta_SMCI=0.0000</title></path><path d="M 869.62,256.34 L 869.62,217.61 L 828.14,217.61 L 828.14,256.34 L 869.62,256.34 Z" fill="#e0e0e0" stroke="#ffffff" stroke-width="0.8"><title>cell 368: Delta_SMCI=0.0000</title></path><path d="M 869.62,217.61 L 869.62,178.89 L 828.14,178.89 L 828.14,217.61 L 869.62,217.61 Z" fill="#c6dbef" stroke="#ffffff" stroke-width="0.8"><title>cell 369: Delta_SMCI=0.0030</title></path><path d="M 869.62,178.89 L 869.62,140.17 L 828.14,140.17 L 828.14,178.89 L 869.62,178.89 Z" fill="#f7fbff" stroke="#ffffff" stroke-width="0.8"><title>cell 370: Delta_SMCI=0.0008</title></path><path d="M 869.62,140.17 L 869.62,101.44 L 828.14,101.44 L 828.14,140.17 L 869.62,140.17 Z" fill="#e0e0e0" stroke="#ffffff" stroke-width="0.8"><title>cell 371: Delta_SMCI=0.0000</title></path><path d="M 869.62,101.44 L 869.62,62.72 L 828.14,62.72 L 828.14,101.44 L 869.62,101.44 Z" fill="#e0e0e0" stroke="#ffffff" stroke-width="0.8"><title>cell 372: Delta_SMCI=0.0000</title></path><path d="M 869.62,62.72 L 869.62,24.00 L 828.14,24.00 L 828.14,62.72 L 869.62,62.72 Z" fill="#e0e0e0" stroke="#ffffff" stroke-width="0.8"><title>cell 373: Delta_SMCI=0.0000</title></path><path d="M 911.11,876.00 L 911.11,837.27 L 869.62,837.27 L 869.62,876.00 L 911.11,876.00 Z" fill="#e0e0e0" stroke="#ffffff" stroke-width="0.8"><title>cell 374: Delta_SMCI=0.0000</title></path><path d="M 911.11,837.27 L 911.11,798.53 L 869.62,798.53 L 869.62,837.27 L 911.11,837.27 Z" fill="#e0e0e0" stroke="#ffffff" stroke-width="0.8"><title>cell 375: Delta_SMCI=0.0000</title></path><path d="M 911.11,798.53 L 911.11,759.80 L 869.62,759.80 L 869.62,798.53 L 911.11,798.53 Z" fill="#e0e0e0" stroke="#ffffff" stroke-width="0.8"><title>cell 376: Delta_SMCI=0.0000</title></path><path d="M 911.11,759.80 L 911.11,721.07 L 869.62,721.07 L 869.62,759.80 L 911.11,759.80 Z" fill="#f7fbff" stroke="#ffffff" stroke-width="0.8"><title>cell 377: Delta_SMCI=0.0001</title></path><path d="M 911.11,721.07 L 911.11,682.34 L 869.62,682.34 L 869.62,721.07 L 911.11,721.07 Z" fill="#c6dbef" stroke="#ffffff" stroke-width="0.8"><title>cell 378: Delta_SMCI=0.0049</title></path><path d="M 911.11,682.34 L 911.11,643.61 L 869.62,643.61 L 869.62,682.34 L 911.11,682.34 Z" fill="#6baed6" stroke="#ffffff" stroke-width="0.8"><title>cell 379: Delta_SMCI=0.0094</title></path><path d="M 911.11,643.61 L 911.11,604.88 L 869.62,604.88 L 869.62,643.61 L 911.11,643.61 Z" fill="#6baed6" stroke="#ffffff" stroke-width="0.8"><title>cell 380: Delta_SMCI=0.0093</title></path><path d="M 911.11,604.88 L 911.11,566.15 L 869.62,566.15 L 869.62,604.88 L 911.11,604.88 Z" fill="#6baed6" stroke="#ffffff" stroke-width="0.8"><title>cell 381: Delta_SMCI=0.0217</title></path><path d="M 911.11,566.15 L 911.11,527.42 L 869.62,527.42 L 869.62,566.15 L 911.11,566.15 Z" fill="#2171b5" stroke="#ffffff" stroke-width="0.8"><title>cell 382: Delta_SMCI=0.0358</title></path><path d="M 911.11,527.42 L 911.11,488.69 L 869.62,488.69 L 869.62,527.42 L 911.11,527.42 Z" fill="#6baed6" stroke="#ffffff" stroke-width="0.8"><title>cell 383: Delta_SMCI=0.0275</title></path><path d="M 911.11,488.69 L 911.11,449.97 L 869.62,449.97 L 869.62,488.69 L 911.11,488.69 Z" fill="#2171b5" stroke="#ffffff" stroke-width="0.8"><title>cell 384: Delta_SMCI=0.0683</title></path><path d="M 911.11,449.97 L 911.11,411.24 L 869.62,411.24 L 869.62,449.97 L 911.11,449.97 Z" fill="#2171b5" stroke="#ffffff" stroke-width="0.8"><title>cell 385: Delta_SMCI=0.0552</title></path><path d="M 911.11,411.24 L 911.11,372.51 L 869.62,372.51 L 869.62,411.24 L 911.11,411.24 Z" fill="#e0e0e0" stroke="#ffffff" stroke-width="0.8"><title>cell 386: Delta_SMCI=0.0000</title></path><path d="M 911.11,372.51 L 911.11,333.79 L 869.62,333.79 L 869.62,372.51 L 911.11,372.51 Z" fill="#e0e0e0" stroke="#ffffff" stroke-width="0.8"><title>cell 387: Delta_SMCI=0.0000</title></path><path d="M 911.11,333.79 L 911.11,295.06 L 869.62,295.06 L 869.62,333.79 L 911.11,333.79 Z" fill="#e0e0e0" stroke="#ffffff" stroke-width="0.8"><title>cell 388: Delta_SMCI=0.0000</title></path><path d="M 911.11,295.06 L 911.11,256.34 L 869.62,256.34 L 869.62,295.06 L 911.11,295.06 Z" fill="#e0e0e0" stroke="#ffffff" stroke-width="0.8"><title>cell 389: Delta_SMCI=0.0000</title></path><path d="M 911.11,256.34 L 911.11,217.61 L 869.62,217.61 L 869.62,256.34 L 911.11,256.34 Z" fill="#e0e0e0" stroke="#ffffff" stroke-width="0.8"><title>cell 390: Delta_SMCI=0.0000</title></path><path d="M 911.11,217.61 L 911.11,178.89 L 869.62,178.89 L 869.62,217.61 L 911.11,217.61 Z" fill="#e0e0e0" stroke="#ffffff" stroke-width="0.8"><title>cell 391: Delta_SMCI=0.0000</title></path><path d="M 911.11,178.89 L 911.11,140.17 L 869.62,140.17 L 869.62,178.89 L 911.11,178.89 Z" fill="#f7fbff" stroke="#ffffff" stroke-width="0.8"><title>cell 392: Delta_SMCI=0.0000</title></path><path d="M 911.11,140.17 L 911.11,101.44 L 869.62,101.44 L 869.62,140.17 L 911.11,140.17 Z" fill="#e0e0e0" stroke="#ffffff" stroke-width="0.8"><title>cell 393: Delta_SMCI=0.0000</title></path><path d="M 911.11,101.44 L 911.11,62.72 L 869.62,62.72 L 869.62,101.44 L 911.11,101.44 Z" fill="#e0e0e0" stroke="#ffffff" stroke-width="0.8"><title>cell 394: Delta_SMCI=0.0000</title></path><path d="M 911.11,62.72 L 911.11,24.00 L 869.62,24.00 L 869.62,62.72 L 911.11,62.72 Z" fill="#e0e0e0" stroke="#ffffff" stroke-width="0.8"><title>cell 395: Delta_SMCI=0.0000</title></path><path d="M 952.59,876.00 L 952.59,837.27 L 911.11,837.27 L 911.11,876.00 L 952.59,876.00 Z" fill="#e0e0e0" stroke="#ffffff" stroke-width="0.8"><title>cell 396: Delta_SMCI=0.0000</title></path><path d="M 952.59,837.27 L 952.59,798.53 L 911.11,798.53 L 911.11,837.27 L 952.59,837.27 Z" fill="#f7fbff" stroke="#ffffff" stroke-width="0.8"><title>cell 397: Delta_SMCI=0.0001</title></path><path d="M 952.59,798.53 L 952.59,759.80 L 911.11,759.80 L 911.11,798.53 L 952.59,798.53 Z" fill="#f7fbff" stroke="#ffffff" stroke-width="0.8"><title>cell 398: Delta_SMCI=0.0001</title></path><path d="M 952.59,759.80 L 952.59,721.07 L 911.11,721.07 L 911.11,759.80 L 952.59,759.80 Z" fill="#f7fbff" stroke="#ffffff" stroke-width="0.8"><title>cell 399: Delta_SMCI=0.0003</title></path><path d="M 952.59,721.07 L 952.59,682.34 L 911.11,682.34 L 911.11,721.07 L 952.59,721.07 Z" fill="#f7fbff" stroke="#ffffff" stroke-width="0.8"><title>cell 400: Delta_SMCI=0.0003</title></path><path d="M 952.59,682.34 L 952.59,643.61 L 911.11,643.61 L 911.11,682.34 L 952.59,682.34 Z" fill="#c6dbef" stroke="#ffffff" stroke-width="0.8"><title>cell 401: Delta_SMCI=0.0035</title></path><path d="M 952.59,643.61 L 952.59,604.88 L 911.11,604.88 L 911.11,643.61 L 952.59,643.61 Z" fill="#f7fbff" stroke="#ffffff" stroke-width="0.8"><title>cell 402: Delta_SMCI=0.0013</title></path><path d="M 952.59,604.88 L 952.59,566.15 L 911.11,566.15 L 911.11,604.88 L 952.59,604.88 Z" fill="#c6dbef" stroke="#ffffff" stroke-width="0.8"><title>cell 403: Delta_SMCI=0.0059</title></path><path d="M 952.59,566.15 L 952.59,527.42 L 911.11,527.42 L 911.11,566.15 L 952.59,566.15 Z" fill="#6baed6" stroke="#ffffff" stroke-width="0.8"><title>cell 404: Delta_SMCI=0.0104</title></path><path d="M 952.59,527.42 L 952.59,488.69 L 911.11,488.69 L 911.11,527.42 L 952.59,527.42 Z" fill="#c6dbef" stroke="#ffffff" stroke-width="0.8"><title>cell 405: Delta_SMCI=0.0047</title></path><path d="M 952.59,488.69 L 952.59,449.97 L 911.11,449.97 L 911.11,488.69 L 952.59,488.69 Z" fill="#2171b5" stroke="#ffffff" stroke-width="0.8"><title>cell 406: Delta_SMCI=0.0654</title></path><path d="M 952.59,449.97 L 952.59,411.24 L 911.11,411.24 L 911.11,449.97 L 952.59,449.97 Z" fill="#6baed6" stroke="#ffffff" stroke-width="0.8"><title>cell 407: Delta_SMCI=0.0136</title></path><path d="M 952.59,411.24 L 952.59,372.51 L 911.11,372.51 L 911.11,411.24 L 952.59,411.24 Z" fill="#6baed6" stroke="#ffffff" stroke-width="0.8"><title>cell 408: Delta_SMCI=0.0148</title></path><path d="M 952.59,372.51 L 952.59,333.79 L 911.11,333.79 L 911.11,372.51 L 952.59,372.51 Z" fill="#e0e0e0" stroke="#ffffff" stroke-width="0.8"><title>cell 409: Delta_SMCI=0.0000</title></path><path d="M 952.59,333.79 L 952.59,295.06 L 911.11,295.06 L 911.11,333.79 L 952.59,333.79 Z" fill="#e0e0e0" stroke="#ffffff" stroke-width="0.8"><title>cell 410: Delta_SMCI=0.0000</title></path><path d="M 952.59,295.06 L 952.59,256.34 L 911.11,256.34 L 911.11,295.06 L 952.59,295.06 Z" fill="#e0e0e0" stroke="#ffffff" stroke-width="0.8"><title>cell 411: Delta_SMCI=0.0000</title></path><path d="M 952.59,256.34 L 952.59,217.61 L 911.11,217.61 L 911.11,256.34 L 952.59,256.34 Z" fill="#e0e0e0" stroke="#ffffff" stroke-width="0.8"><title>cell 412: Delta_SMCI=0.0000</title></path><path d="M 952.59,217.61 L 952.59,178.89 L 911.11,178.89 L 911.11,217.61 L 952.59,217.61 Z" fill="#e0e0e0" stroke="#ffffff" stroke-width="0.8"><title>cell 413: Delta_SMCI=0.0000</title></path><path d="M 952.59,178.89 L 952.59,140.17 L 911.11,140.17 L 911.11,178.89 L 952.59,178.89 Z" fill="#e0e0e0" stroke="#ffffff" stroke-width="0.8"><title>cell 414: Delta_SMCI=0.0000</title></path><path d="M 952.59,140.17 L 952.59,101.44 L 911.11,101.44 L 911.11,140.17 L 952.59,140.17 Z" fill="#e0e0e0" stroke="#ffffff" stroke-width="0.8"><title>cell 415: Delta_SMCI=0.0000</title></path><path d="M 952.59,101.44 L 952.59,62.72 L 911.11,62.72 L 911.11,101.44 L 952.59,101.44 Z" fill="#e0e0e0" stroke="#ffffff" stroke-width="0.8"><title>cell 416: Delta_SMCI=0.0000</title></path><path d="M 952.59,62.72 L 952.59,24.00 L 911.11,24.00 L 911.11,62.72 L 952.59,62.72 Z" fill="#e0e0e0" stroke="#ffffff" stroke-width="0.8"><title>cell 417: Delta_SMCI=0.0000</title></path><path d="M 994.07,876.00 L 994.07,837.27 L 952.59,837.27 L 952.59,876.00 L 994.07,876.00 Z" fill="#e0e0e0" stroke="#ffffff" stroke-width="0.8"><title>cell 418: Delta_SMCI=0.0000</title></path><path d="M 994.07,837.27 L 994.07,798.53 L 952.59,798.53 L 952.59,837.27 L 994.07,837.27 Z" fill="#f7fbff" stroke="#ffffff" stroke-width="0.8"><title>cell 419: Delta_SMCI=0.0001</title></path><path d="M 994.07,798.53 L 994.07,759.80 L 952.59,759.80 L 952.59,798.53 L 994.07,798.53 Z" fill="#f7fbff" stroke="#ffffff" stroke-width="0.8"><title>cell 420: Delta_SMCI=0.0001</title></path><path d="M 994.07,759.80 L 994.07,721.07 L 952.59,721.07 L 952.59,759.80 L 994.07,759.80 Z" fill="#f7fbff" stroke="#ffffff" stroke-width="0.8"><title>cell 421: Delta_SMCI=0.0002</title></path><path d="M 994.07,721.07 L 994.07,682.34 L 952.59,682.34 L 952.59,721.07 L 994.07,721.07 Z" fill="#f7fbff" stroke="#ffffff" stroke-width="0.8"><title>cell 422: Delta_SMCI=0.0003</title></path><path d="M 994.07,682.34 L 994.07,643.61 L 952.59,643.61 L 952.59,682.34 L 994.07,682.34 Z" fill="#f7fbff" stroke="#ffffff" stroke-width="0.8"><title>cell 423: Delta_SMCI=0.0006</title></path><path d="M 994.07,643.61 L 994.07,604.88 L 952.59,604.88 L 952.59,643.61 L 994.07,643.61 Z" fill="#f7fbff" stroke="#ffffff" stroke-width="0.8"><title>cell 424: Delta_SMCI=0.0004</title></path><path d="M 994.07,604.88 L 994.07,566.15 L 952.59,566.15 L 952.59,604.88 L 994.07,604.88 Z" fill="#f7fbff" stroke="#ffffff" stroke-width="0.8"><title>cell 425: Delta_SMCI=0.0004</title></path><path d="M 994.07,566.15 L 994.07,527.42 L 952.59,527.42 L 952.59,566.15 L 994.07,566.15 Z" fill="#c6dbef" stroke="#ffffff" stroke-width="0.8"><title>cell 426: Delta_SMCI=0.0042</title></path><path d="M 994.07,527.42 L 994.07,488.69 L 952.59,488.69 L 952.59,527.42 L 994.07,527.42 Z" fill="#f7fbff" stroke="#ffffff" stroke-width="0.8"><title>cell 427: Delta_SMCI=0.0013</title></path><path d="M 994.07,488.69 L 994.07,449.97 L 952.59,449.97 L 952.59,488.69 L 994.07,488.69 Z" fill="#e0e0e0" stroke="#ffffff" stroke-width="0.8"><title>cell 428: Delta_SMCI=0.0000</title></path><path d="M 994.07,449.97 L 994.07,411.24 L 952.59,411.24 L 952.59,449.97 L 994.07,449.97 Z" fill="#e0e0e0" stroke="#ffffff" stroke-width="0.8"><title>cell 429: Delta_SMCI=0.0000</title></path><path d="M 994.07,411.24 L 994.07,372.51 L 952.59,372.51 L 952.59,411.24 L 994.07,411.24 Z" fill="#e0e0e0" stroke="#ffffff" stroke-width="0.8"><title>cell 430: Delta_SMCI=0.0000</title></path><path d="M 994.07,372.51 L 994.07,333.79 L 952.59,333.79 L 952.59,372.51 L 994.07,372.51 Z" fill="#e0e0e0" stroke="#ffffff" stroke-width="0.8"><title>cell 431: Delta_SMCI=0.0000</title></path><path d="M 994.07,333.79 L 994.07,295.06 L 952.59,295.06 L 952.59,333.79 L 994.07,333.79 Z" fill="#e0e0e0" stroke="#ffffff" stroke-width="0.8"><title>cell 432: Delta_SMCI=0.0000</title></path><path d="M 994.07,295.06 L 994.07,256.34 L 952.59,256.34 L 952.59,295.06 L 994.07,295.06 Z" fill="#e0e0e0" stroke="#ffffff" stroke-width="0.8"><title>cell 433: Delta_SMCI=0.0000</title></path><path d="M 994.07,256.34 L 994.07,217.61 L 952.59,217.61 L 952.59,256.34 L 994.07,256.34 Z" fill="#e0e0e0" stroke="#ffffff" stroke-width="0.8"><title>cell 434: Delta_SMCI=0.0000</title></path><path d="M 994.07,217.61 L 994.07,178.89 L 952.59,178.89 L 952.59,217.61 L 994.07,217.61 Z" fill="#e0e0e0" stroke="#ffffff" stroke-width="0.8"><title>cell 435: Delta_SMCI=0.0000</title></path><path d="M 994.07,178.89 L 994.07,140.17 L 952.59,140.17 L 952.59,178.89 L 994.07,178.89 Z" fill="#e0e0e0" stroke="#ffffff" stroke-width="0.8"><title>cell 436: Delta_SMCI=0.0000</title></path><path d="M 994.07,140.17 L 994.07,101.44 L 952.59,101.44 L 952.59,140.17 L 994.07,140.17 Z" fill="#f7fbff" stroke="#ffffff" stroke-width="0.8"><title>cell 437: Delta_SMCI=0.0009</title></path><path d="M 994.07,101.44 L 994.07,62.72 L 952.59,62.72 L 952.59,101.44 L 994.07,101.44 Z" fill="#c6dbef" stroke="#ffffff" stroke-width="0.8"><title>cell 438: Delta_SMCI=0.0018</title></path><path d="M 994.07,62.72 L 994.07,24.00 L 952.59,24.00 L 952.59,62.72 L 994.07,62.72 Z" fill="#e0e0e0" stroke="#ffffff" stroke-width="0.8"><title>cell 439: Delta_SMCI=0.0000</title></path><path d="M 1035.55,876.00 L 1035.55,837.27 L 994.07,837.27 L 994.07,876.00 L 1035.55,876.00 Z" fill="#e0e0e0" stroke="#ffffff" stroke-width="0.8"><title>cell 440: Delta_SMCI=0.0000</title></path><path d="M 1035.55,837.27 L 1035.55,798.53 L 994.07,798.53 L 994.07,837.27 L 1035.55,837.27 Z" fill="#f7fbff" stroke="#ffffff" stroke-width="0.8"><title>cell 441: Delta_SMCI=0.0001</title></path><path d="M 1035.55,798.53 L 1035.55,759.80 L 994.07,759.80 L 994.07,798.53 L 1035.55,798.53 Z" fill="#f7fbff" stroke="#ffffff" stroke-width="0.8"><title>cell 442: Delta_SMCI=0.0001</title></path><path d="M 1035.55,759.80 L 1035.55,721.07 L 994.07,721.07 L 994.07,759.80 L 1035.55,759.80 Z" fill="#f7fbff" stroke="#ffffff" stroke-width="0.8"><title>cell 443: Delta_SMCI=0.0001</title></path><path d="M 1035.55,721.07 L 1035.55,682.34 L 994.07,682.34 L 994.07,721.07 L 1035.55,721.07 Z" fill="#f7fbff" stroke="#ffffff" stroke-width="0.8"><title>cell 444: Delta_SMCI=0.0002</title></path><path d="M 1035.55,682.34 L 1035.55,643.61 L 994.07,643.61 L 994.07,682.34 L 1035.55,682.34 Z" fill="#f7fbff" stroke="#ffffff" stroke-width="0.8"><title>cell 445: Delta_SMCI=0.0006</title></path><path d="M 1035.55,643.61 L 1035.55,604.88 L 994.07,604.88 L 994.07,643.61 L 1035.55,643.61 Z" fill="#f7fbff" stroke="#ffffff" stroke-width="0.8"><title>cell 446: Delta_SMCI=0.0003</title></path><path d="M 1035.55,604.88 L 1035.55,566.15 L 994.07,566.15 L 994.07,604.88 L 1035.55,604.88 Z" fill="#c6dbef" stroke="#ffffff" stroke-width="0.8"><title>cell 447: Delta_SMCI=0.0013</title></path><path d="M 1035.55,566.15 L 1035.55,527.42 L 994.07,527.42 L 994.07,566.15 L 1035.55,566.15 Z" fill="#c6dbef" stroke="#ffffff" stroke-width="0.8"><title>cell 448: Delta_SMCI=0.0013</title></path><path d="M 1035.55,527.42 L 1035.55,488.69 L 994.07,488.69 L 994.07,527.42 L 1035.55,527.42 Z" fill="#c6dbef" stroke="#ffffff" stroke-width="0.8"><title>cell 449: Delta_SMCI=0.0017</title></path><path d="M 1035.55,488.69 L 1035.55,449.97 L 994.07,449.97 L 994.07,488.69 L 1035.55,488.69 Z" fill="#e0e0e0" stroke="#ffffff" stroke-width="0.8"><title>cell 450: Delta_SMCI=0.0000</title></path><path d="M 1035.55,449.97 L 1035.55,411.24 L 994.07,411.24 L 994.07,449.97 L 1035.55,449.97 Z" fill="#f7fbff" stroke="#ffffff" stroke-width="0.8"><title>cell 451: Delta_SMCI=0.0000</title></path><path d="M 1035.55,411.24 L 1035.55,372.51 L 994.07,372.51 L 994.07,411.24 L 1035.55,411.24 Z" fill="#e0e0e0" stroke="#ffffff" stroke-width="0.8"><title>cell 452: Delta_SMCI=0.0000</title></path><path d="M 1035.55,372.51 L 1035.55,333.79 L 994.07,333.79 L 994.07,372.51 L 1035.55,372.51 Z" fill="#e0e0e0" stroke="#ffffff" stroke-width="0.8"><title>cell 453: Delta_SMCI=0.0000</title></path><path d="M 1035.55,333.79 L 1035.55,295.06 L 994.07,295.06 L 994.07,333.79 L 1035.55,333.79 Z" fill="#e0e0e0" stroke="#ffffff" stroke-width="0.8"><title>cell 454: Delta_SMCI=0.0000</title></path><path d="M 1035.55,295.06 L 1035.55,256.34 L 994.07,256.34 L 994.07,295.06 L 1035.55,295.06 Z" fill="#e0e0e0" stroke="#ffffff" stroke-width="0.8"><title>cell 455: Delta_SMCI=0.0000</title></path><path d="M 1035.55,256.34 L 1035.55,217.61 L 994.07,217.61 L 994.07,256.34 L 1035.55,256.34 Z" fill="#e0e0e0" stroke="#ffffff" stroke-width="0.8"><title>cell 456: Delta_SMCI=0.0000</title></path><path d="M 1035.55,217.61 L 1035.55,178.89 L 994.07,178.89 L 994.07,217.61 L 1035.55,217.61 Z" fill="#e0e0e0" stroke="#ffffff" stroke-width="0.8"><title>cell 457: Delta_SMCI=0.0000</title></path><path d="M 1035.55,178.89 L 1035.55,140.17 L 994.07,140.17 L 994.07,178.89 L 1035.55,178.89 Z" fill="#e0e0e0" stroke="#ffffff" stroke-width="0.8"><title>cell 458: Delta_SMCI=0.0000</title></path><path d="M 1035.55,140.17 L 1035.55,101.44 L 994.07,101.44 L 994.07,140.17 L 1035.55,140.17 Z" fill="#c6dbef" stroke="#ffffff" stroke-width="0.8"><title>cell 459: Delta_SMCI=0.0037</title></path><path d="M 1035.55,101.44 L 1035.55,62.72 L 994.07,62.72 L 994.07,101.44 L 1035.55,101.44 Z" fill="#c6dbef" stroke="#ffffff" stroke-width="0.8"><title>cell 460: Delta_SMCI=0.0035</title></path><path d="M 1035.55,62.72 L 1035.55,24.00 L 994.07,24.00 L 994.07,62.72 L 1035.55,62.72 Z" fill="#f7fbff" stroke="#ffffff" stroke-width="0.8"><title>cell 461: Delta_SMCI=0.0000</title></path></g>
<text x="40" y="44" font-family="Arial" font-size="28" font-weight="700">Delta_SMCI</text>
<rect x="40" y="80" width="22" height="18" fill="#e0e0e0"/><text x="72" y="94" font-size="16">Zero access</text><rect x="40" y="108" width="22" height="18" fill="#f7fbff"/><text x="72" y="122" font-size="16">positive quantile 1</text><rect x="40" y="136" width="22" height="18" fill="#c6dbef"/><text x="72" y="150" font-size="16">positive quantile 2</text><rect x="40" y="164" width="22" height="18" fill="#6baed6"/><text x="72" y="178" font-size="16">positive quantile 3</text><rect x="40" y="192" width="22" height="18" fill="#2171b5"/><text x="72" y="206" font-size="16">positive quantile 4</text><rect x="40" y="220" width="22" height="18" fill="#08306b"/><text x="72" y="234" font-size="16">positive quantile 5</text>
</svg>
