<svg xmlns="http://www.w3.org/2000/svg" width="1200" height="900" viewBox="0 0 1200 900">
<rect width="100%" height="100%" fill="#ffffff"/>
<g><path d="M 205.93,876.00 L 205.93,837.27 L 164.45,837.27 L 164.45,876.00 L 205.93,876.00 Z" fill="#f7fbff" stroke="#ffffff" stroke-width="0.8"><title>cell 0: MAI_B=2.2040</title></path><path d="M 205.93,837.27 L 205.93,798.53 L 164.45,798.53 L 164.45,837.27 L 205.93,837.27 Z" fill="#f7fbff" stroke="#ffffff" stroke-width="0.8"><title>cell 1: MAI_B=2.3765</title></path><path d="M 205.93,798.53 L 205.93,759.80 L 164.45,759.80 L 164.45,798.53 L 205.93,798.53 Z" fill="#f7fbff" stroke="#ffffff" stroke-width="0.8"><title>cell 2: MAI_B=3.3228</title></path><path d="M 205.93,759.80 L 205.93,721.07 L 164.45,721.07 L 164.45,759.80 L 205.93,759.80 Z" fill="#f7fbff" stroke="#ffffff" stroke-width="0.8"><title>cell 3: MAI_B=3.0531</title></path><path d="M 205.93,721.07 L 205.93,682.34 L 164.45,682.34 L 164.45,721.07 L 205.93,721.07 Z" fill="#f7fbff" stroke="#ffffff" stroke-width="0.8"><title>cell 4: MAI_B=4.4993</title></path><path d="M 205.93,682.34 L 205.93,643.61 L 164.45,643.61 L 164.45,682.34 L 205.93,682.34 Z" fill="#f7fbff" stroke="#ffffff" stroke-width="0.8"><title>cell 5: MAI_B=4.7403</title></path><path d="M 205.93,643.61 L 205.93,604.88 L 164.45,604.88 L 164.45,643.61 L 205.93,643.61 Z" fill="#f7fbff" stroke="#ffffff" stroke-width="0.8"><title>cell 6: MAI_B=5.7999</title></path><path d="M 205.93,604.88 L 205.93,566.15 L 164.45,566.15 L 164.45,604.88 L 205.93,604.88 Z" fill="#c6dbef" stroke="#ffffff" stroke-width="0.8"><title>cell 7: MAI_B=9.2665</title></path><path d="M 205.93,566.15 L 205.93,527.42 L 164.45,527.42 L 164.45,566.15 L 205.93,566.15 Z" fill="#6baed6" stroke="#ffffff" stroke-width="0.8"><title>cell 8: MAI_B=9.5244</title></path><path d="M 205.93,527.42 L 205.93,488.69 L 164.45,488.69 L 164.45,527.42 L 205.93,527.42 Z" fill="#6baed6" stroke="#ffffff" stroke-width="0.8"><title>cell 9: MAI_B=10.5911</title></path><path d="M 205.93,488.69 L 205.93,449.97 L 164.45,449.97 L 164.45,488.69 L 205.93,488.69 Z" fill="#6baed6" stroke="#ffffff" stroke-width="0.8"><title>cell 10: MAI_B=10.4384</title></path><path d="M 205.93,449.97 L 205.93,411.24 L 164.45,411.24 L 164.45,449.97 L 205.93,449.97 Z" fill="#6baed6" stroke="#ffffff" stroke-width="0.8"><title>cell 11: MAI_B=12.3174</title></path><path d="M 205.93,411.24 L 205.93,372.51 L 164.45,372.51 L 164.45,411.24 L 205.93,411.24 Z" fill="#6baed6" stroke="#ffffff" stroke-width="0.8"><title>cell 12: MAI_B=11.3363</title></path><path d="M 205.93,372.51 L 205.93,333.79 L 164.45,333.79 L 164.45,372.51 L 205.93,372.51 Z" fill="#2171b5" stroke="#ffffff" stroke-width="0.8"><title>cell 13: MAI_B=13.0172</title></path><path d="M 205.93,333.79 L 205.93,295.06 L 164.45,295.06 L 164.45,333.79 L 205.93,333.79 Z" fill="#2171b5" stroke="#ffffff" stroke-width="0.8"><title>cell 14: MAI_B=14.0921</title></path><path d="M 205.93,295.06 L 205.93,256.34 L 164.45,256.34 L 164.45,295.06 L 205.93,295.06 Z" fill="#2171b5" stroke="#ffffff" stroke-width="0.8"><title>cell 15: MAI_B=13.1068</title></path><path d="M 205.93,256.34 L 205.93,217.61 L 164.45,217.61 L 164.45,256.34 L 205.93,256.34 Z" fill="#2171b5" stroke="#ffffff" stroke-width="0.8"><title>cell 16: MAI_B=13.1068</title></path><path d="M 205.93,217.61 L 205.93,178.89 L 164.45,178.89 L 164.45,217.61 L 205.93,217.61 Z" fill="#2171b5" stroke="#ffffff" stroke-width="0.8"><title>cell 17: MAI_B=13.5950</title></path><path d="M 205.93,178.89 L 205.93,140.17 L 164.45,140.17 L 164.45,178.89 L 205.93,178.89 Z" fill="#2171b5" stroke="#ffffff" stroke-width="0.8"><title>cell 18: MAI_B=13.2231</title></path><path d="M 205.93,140.17 L 205.93,101.44 L 164.45,101.44 L 164.45,140.17 L 205.93,140.17 Z" fill="#6baed6" stroke="#ffffff" stroke-width="0.8"><title>cell 19: MAI_B=13.0090</title></path><path d="M 205.93,101.44 L 205.93,62.72 L 164.45,62.72 L 164.45,101.44 L 205.93,101.44 Z" fill="#6baed6" stroke="#ffffff" stroke-width="0.8"><title>cell 20: MAI_B=11.1763</title></path><path d="M 205.93,62.72 L 205.93,24.00 L 164.45,24.00 L 164.45,62.72 L 205.93,62.72 Z" fill="#6baed6" stroke="#ffffff" stroke-width="0.8"><title>cell 21: MAI_B=11.8447</title></path><path d="M 247.41,876.00 L 247.41,837.27 L 205.93,837.27 L 205.93,876.00 L 247.41,876.00 Z" fill="#f7fbff" stroke="#ffffff" stroke-width="0.8"><title>cell 22: MAI_B=2.3894</title></path><path d="M 247.41,837.27 L 247.41,798.53 L 205.93,798.53 L 205.93,837.27 L 247.41,837.27 Z" fill="#f7fbff" stroke="#ffffff" stroke-width="0.8"><title>cell 23: MAI_B=2.6512</title></path><path d="M 247.41,798.53 L 247.41,759.80 L 205.93,759.80 L 205.93,798.53 L 247.41,798.53 Z" fill="#f7fbff" stroke="#ffffff" stroke-width="0.8"><title>cell 24: MAI_B=3.4584</title></path><path d="M 247.41,759.80 L 247.41,721.07 L 205.93,721.07 L 205.93,759.80 L 247.41,759.80 Z" fill="#f7fbff" stroke="#ffffff" stroke-width="0.8"><title>cell 25: MAI_B=4.8320</title></path><path d="M 247.41,721.07 L 247.41,682.34 L 205.93,682.34 L 205.93,721.07 L 247.41,721.07 Z" fill="#f7fbff" stroke="#ffffff" stroke-width="0.8"><title>cell 26: MAI_B=5.6165</title></path><path d="M 247.41,682.34 L 247.41,643.61 L 205.93,643.61 L 205.93,682.34 L 247.41,682.34 Z" fill="#c6dbef" stroke="#ffffff" stroke-width="0.8"><title>cell 27: MAI_B=6.5793</title></path><path d="M 247.41,643.61 L 247.41,604.88 L 205.93,604.88 L 205.93,643.61 L 247.41,643.61 Z" fill="#c6dbef" stroke="#ffffff" stroke-width="0.8"><title>cell 28: MAI_B=7.7399</title></path><path d="M 247.41,604.88 L 247.41,566.15 L 205.93,566.15 L 205.93,604.88 L 247.41,604.88 Z" fill="#c6dbef" stroke="#ffffff" stroke-width="0.8"><title>cell 29: MAI_B=8.5175</title></path><path d="M 247.41,566.15 L 247.41,527.42 L 205.93,527.42 L 205.93,566.15 L 247.41,566.15 Z" fill="#c6dbef" stroke="#ffffff" stroke-width="0.8"><title>cell 30: MAI_B=9.1737</title></path><path d="M 247.41,527.42 L 247.41,488.69 L 205.93,488.69 L 205.93,527.42 L 247.41,527.42 Z" fill="#c6dbef" stroke="#ffffff" stroke-width="0.8"><title>cell 31: MAI_B=8.1195</title></path><path d="M 247.41,488.69 L 247.41,449.97 L 205.93,449.97 L 205.93,488.69 L 247.41,488.69 Z" fill="#2171b5" stroke="#ffffff" stroke-width="0.8"><title>cell 32: MAI_B=13.9308</title></path><path d="M 247.41,449.97 L 247.41,411.24 L 205.93,411.24 L 205.93,449.97 L 247.41,449.97 Z" fill="#2171b5" stroke="#ffffff" stroke-width="0.8"><title>cell 33: MAI_B=13.9928</title></path><path d="M 247.41,411.24 L 247.41,372.51 L 205.93,372.51 L 205.93,411.24 L 247.41,411.24 Z" fill="#2171b5" stroke="#ffffff" stroke-width="0.8"><title>cell 34: MAI_B=13.9133</title></path><path d="M 247.41,372.51 L 247.41,333.79 L 205.93,333.79 L 205.93,372.51 L 247.41,372.51 Z" fill="#2171b5" stroke="#ffffff" stroke-width="0.8"><title>cell 35: MAI_B=14.0397</title></path><path d="M 247.41,333.79 L 247.41,295.06 L 205.93,295.06 L 205.93,333.79 L 247.41,333.79 Z" fill="#6baed6" stroke="#ffffff" stroke-width="0.8"><title>cell 36: MAI_B=12.9699</title></path><path d="M 247.41,295.06 L 247.41,256.34 L 205.93,256.34 L 205.93,295.06 L 247.41,295.06 Z" fill="#2171b5" stroke="#ffffff" stroke-width="0.8"><title>cell 37: MAI_B=14.2453</title></path><path d="M 247.41,256.34 L 247.41,217.61 L 205.93,217.61 L 205.93,256.34 L 247.41,256.34 Z" fill="#2171b5" stroke="#ffffff" stroke-width="0.8"><title>cell 38: MAI_B=13.2210</title></path><path d="M 247.41,217.61 L 247.41,178.89 L 205.93,178.89 L 205.93,217.61 L 247.41,217.61 Z" fill="#2171b5" stroke="#ffffff" stroke-width="0.8"><title>cell 39: MAI_B=13.3749</title></path><path d="M 247.41,178.89 L 247.41,140.17 L 205.93,140.17 L 205.93,178.89 L 247.41,178.89 Z" fill="#6baed6" stroke="#ffffff" stroke-width="0.8"><title>cell 40: MAI_B=13.0018</title></path><path d="M 247.41,140.17 L 247.41,101.44 L 205.93,101.44 L 205.93,140.17 L 247.41,140.17 Z" fill="#2171b5" stroke="#ffffff" stroke-width="0.8"><title>cell 41: MAI_B=13.3476</title></path><path d="M 247.41,101.44 L 247.41,62.72 L 205.93,62.72 L 205.93,101.44 L 247.41,101.44 Z" fill="#6baed6" stroke="#ffffff" stroke-width="0.8"><title>cell 42: MAI_B=11.7386</title></path><path d="M 247.41,62.72 L 247.41,24.00 L 205.93,24.00 L 205.93,62.72 L 247.41,62.72 Z" fill="#6baed6" stroke="#ffffff" stroke-width="0.8"><title>cell 43: MAI_B=12.3210</title></path><path d="M 288.89,876.00 L 288.89,837.27 L 247.41,837.27 L 247.41,876.00 L 288.89,876.00 Z" fill="#f7fbff" stroke="#ffffff" stroke-width="0.8"><title>cell 44: MAI_B=2.6858</title></path><path d="M 288.89,837.27 L 288.89,798.53 L 247.41,798.53 L 247.41,837.27 L 288.89,837.27 Z" fill="#f7fbff" stroke="#ffffff" stroke-width="0.8"><title>cell 45: MAI_B=2.8059</title></path><path d="M 288.89,798.53 L 288.89,759.80 L 247.41,759.80 L 247.41,798.53 L 288.89,798.53 Z" fill="#f7fbff" stroke="#ffffff" stroke-width="0.8"><title>cell 46: MAI_B=4.4675</title></path><path d="M 288.89,759.80 L 288.89,721.07 L 247.41,721.07 L 247.41,759.80 L 288.89,759.80 Z" fill="#f7fbff" stroke="#ffffff" stroke-width="0.8"><title>cell 47: MAI_B=4.7872</title></path><path d="M 288.89,721.07 L 288.89,682.34 L 247.41,682.34 L 247.41,721.07 L 288.89,721.07 Z" fill="#f7fbff" stroke="#ffffff" stroke-width="0.8"><title>cell 48: MAI_B=5.9362</title></path><path d="M 288.89,682.34 L 288.89,643.61 L 247.41,643.61 L 247.41,682.34 L 288.89,682.34 Z" fill="#c6dbef" stroke="#ffffff" stroke-width="0.8"><title>cell 49: MAI_B=6.8230</title></path><path d="M 288.89,643.61 L 288.89,604.88 L 247.41,604.88 L 247.41,643.61 L 288.89,643.61 Z" fill="#c6dbef" stroke="#ffffff" stroke-width="0.8"><title>cell 50: MAI_B=8.8185</title></path><path d="M 288.89,604.88 L 288.89,566.15 L 247.41,566.15 L 247.41,604.88 L 288.89,604.88 Z" fill="#6baed6" stroke="#ffffff" stroke-width="0.8"><title>cell 51: MAI_B=9.4888</title></path><path d="M 288.89,566.15 L 288.89,527.42 L 247.41,527.42 L 247.41,566.15 L 288.89,566.15 Z" fill="#6baed6" stroke="#ffffff" stroke-width="0.8"><title>cell 52: MAI_B=10.6274</title></path><path d="M 288.89,527.42 L 288.89,488.69 L 247.41,488.69 L 247.41,527.42 L 288.89,527.42 Z" fill="#6baed6" stroke="#ffffff" stroke-width="0.8"><title>cell 53: MAI_B=11.7856</title></path><path d="M 288.89,488.69 L 288.89,449.97 L 247.41,449.97 L 247.41,488.69 L 288.89,488.69 Z" fill="#2171b5" stroke="#ffffff" stroke-width="0.8"><title>cell 54: MAI_B=13.1460</title></path><path d="M 288.89,449.97 L 288.89,411.24 L 247.41,411.24 L 247.41,449.97 L 288.89,449.97 Z" fill="#2171b5" stroke="#ffffff" stroke-width="0.8"><title>cell 55: MAI_B=14.8262</title></path><path d="M 288.89,411.24 L 288.89,372.51 L 247.41,372.51 L 247.41,411.24 L 288.89,411.24 Z" fill="#2171b5" stroke="#ffffff" stroke-width="0.8"><title>cell 56: MAI_B=14.0104</title></path><path d="M 288.89,372.51 L 288.89,333.79 L 247.41,333.79 L 247.41,372.51 L 288.89,372.51 Z" fill="#6baed6" stroke="#ffffff" stroke-width="0.8"><title>cell 57: MAI_B=11.4137</title></path><path d="M 288.89,333.79 L 288.89,295.06 L 247.41,295.06 L 247.41,333.79 L 288.89,333.79 Z" fill="#08306b" stroke="#ffffff" stroke-width="0.8"><title>cell 58: MAI_B=15.4876</title></path><path d="M 288.89,295.06 L 288.89,256.34 L 247.41,256.34 L 247.41,295.06 L 288.89,295.06 Z" fill="#08306b" stroke="#ffffff" stroke-width="0.8"><title>cell 59: MAI_B=15.6814</title></path><path d="M 288.89,256.34 L 288.89,217.61 L 247.41,217.61 L 247.41,256.34 L 288.89,256.34 Z" fill="#6baed6" stroke="#ffffff" stroke-width="0.8"><title>cell 60: MAI_B=11.9782</title></path><path d="M 288.89,217.61 L 288.89,178.89 L 247.41,178.89 L 247.41,217.61 L 288.89,217.61 Z" fill="#2171b5" stroke="#ffffff" stroke-width="0.8"><title>cell 61: MAI_B=14.1161</title></path><path d="M 288.89,178.89 L 288.89,140.17 L 247.41,140.17 L 247.41,178.89 L 288.89,178.89 Z" fill="#2171b5" stroke="#ffffff" stroke-width="0.8"><title>cell 62: MAI_B=14.9473</title></path><path d="M 288.89,140.17 L 288.89,101.44 L 247.41,101.44 L 247.41,140.17 L 288.89,140.17 Z" fill="#2171b5" stroke="#ffffff" stroke-width="0.8"><title>cell 63: MAI_B=14.1304</title></path><path d="M 288.89,101.44 L 288.89,62.72 L 247.41,62.72 L 247.41,101.44 L 288.89,101.44 Z" fill="#2171b5" stroke="#ffffff" stroke-width="0.8"><title>cell 64: MAI_B=13.7130</title></path><path d="M 288.89,62.72 L 288.89,24.00 L 247.41,24.00 L 247.41,62.72 L 288.89,62.72 Z" fill="#6baed6" stroke="#ffffff" stroke-width="0.8"><title>cell 65: MAI_B=12.4140</title></path><path d="M 330.38,876.00 L 330.38,837.27 L 288.89,837.27 L 288.89,876.00 L 330.38,876.00 Z" fill="#f7fbff" stroke="#ffffff" stroke-width="0.8"><title>cell 66: MAI_B=3.0324</title></path><path d="M 330.38,837.27 L 330.38,798.53 L 288.89,798.53 L 288.89,837.27 L 330.38,837.27 Z" fill="#f7fbff" stroke="#ffffff" stroke-width="0.8"><title>cell 67: MAI_B=3.1896</title></path><path d="M 330.38,798.53 L 330.38,759.80 L 288.89,759.80 L 288.89,798.53 L 330.38,798.53 Z" fill="#f7fbff" stroke="#ffffff" stroke-width="0.8"><title>cell 68: MAI_B=4.5439</title></path><path d="M 330.38,759.80 L 330.38,721.07 L 288.89,721.07 L 288.89,759.80 L 330.38,759.80 Z" fill="#f7fbff" stroke="#ffffff" stroke-width="0.8"><title>cell 69: MAI_B=3.7088</title></path><path d="M 330.38,721.07 L 330.38,682.34 L 288.89,682.34 L 288.89,721.07 L 330.38,721.07 Z" fill="#c6dbef" stroke="#ffffff" stroke-width="0.8"><title>cell 70: MAI_B=6.4221</title></path><path d="M 330.38,682.34 L 330.38,643.61 L 288.89,643.61 L 288.89,682.34 L 330.38,682.34 Z" fill="#c6dbef" stroke="#ffffff" stroke-width="0.8"><title>cell 71: MAI_B=7.2345</title></path><path d="M 330.38,643.61 L 330.38,604.88 L 288.89,604.88 L 288.89,643.61 L 330.38,643.61 Z" fill="#c6dbef" stroke="#ffffff" stroke-width="0.8"><title>cell 72: MAI_B=8.5796</title></path><path d="M 330.38,604.88 L 330.38,566.15 L 288.89,566.15 L 288.89,604.88 L 330.38,604.88 Z" fill="#6baed6" stroke="#ffffff" stroke-width="0.8"><title>cell 73: MAI_B=10.4564</title></path><path d="M 330.38,566.15 L 330.38,527.42 L 288.89,527.42 L 288.89,566.15 L 330.38,566.15 Z" fill="#6baed6" stroke="#ffffff" stroke-width="0.8"><title>cell 74: MAI_B=11.2874</title></path><path d="M 330.38,527.42 L 330.38,488.69 L 288.89,488.69 L 288.89,527.42 L 330.38,527.42 Z" fill="#6baed6" stroke="#ffffff" stroke-width="0.8"><title>cell 75: MAI_B=12.1101</title></path><path d="M 330.38,488.69 L 330.38,449.97 L 288.89,449.97 L 288.89,488.69 L 330.38,488.69 Z" fill="#6baed6" stroke="#ffffff" stroke-width="0.8"><title>cell 76: MAI_B=12.6133</title></path><path d="M 330.38,449.97 L 330.38,411.24 L 288.89,411.24 L 288.89,449.97 L 330.38,449.97 Z" fill="#08306b" stroke="#ffffff" stroke-width="0.8"><title>cell 77: MAI_B=15.5814</title></path><path d="M 330.38,411.24 L 330.38,372.51 L 288.89,372.51 L 288.89,411.24 L 330.38,411.24 Z" fill="#08306b" stroke="#ffffff" stroke-width="0.8"><title>cell 78: MAI_B=15.6480</title></path><path d="M 330.38,372.51 L 330.38,333.79 L 288.89,333.79 L 288.89,372.51 L 330.38,372.51 Z" fill="#2171b5" stroke="#ffffff" stroke-width="0.8"><title>cell 79: MAI_B=14.2736</title></path><path d="M 330.38,333.79 L 330.38,295.06 L 288.89,295.06 L 288.89,333.79 L 330.38,333.79 Z" fill="#2171b5" stroke="#ffffff" stroke-width="0.8"><title>cell 80: MAI_B=15.2863</title></path><path d="M 330.38,295.06 L 330.38,256.34 L 288.89,256.34 L 288.89,295.06 L 330.38,295.06 Z" fill="#2171b5" stroke="#ffffff" stroke-width="0.8"><title>cell 81: MAI_B=15.0277</title></path><path d="M 330.38,256.34 L 330.38,217.61 L 288.89,217.61 L 288.89,256.34 L 330.38,256.34 Z" fill="#08306b" stroke="#ffffff" stroke-width="0.8"><title>cell 82: MAI_B=15.5708</title></path><path d="M 330.38,217.61 L 330.38,178.89 L 288.89,178.89 L 288.89,217.61 L 330.38,217.61 Z" fill="#08306b" stroke="#ffffff" stroke-width="0.8"><title>cell 83: MAI_B=15.4569</title></path><path d="M 330.38,178.89 L 330.38,140.17 L 288.89,140.17 L 288.89,178.89 L 330.38,178.89 Z" fill="#6baed6" stroke="#ffffff" stroke-width="0.8"><title>cell 84: MAI_B=11.8829</title></path><path d="M 330.38,140.17 L 330.38,101.44 L 288.89,101.44 L 288.89,140.17 L 330.38,140.17 Z" fill="#2171b5" stroke="#ffffff" stroke-width="0.8"><title>cell 85: MAI_B=14.3047</title></path><path d="M 330.38,101.44 L 330.38,62.72 L 288.89,62.72 L 288.89,101.44 L 330.38,101.44 Z" fill="#2171b5" stroke="#ffffff" stroke-width="0.8"><title>cell 86: MAI_B=13.5652</title></path><path d="M 330.38,62.72 L 330.38,24.00 L 288.89,24.00 L 288.89,62.72 L 330.38,62.72 Z" fill="#2171b5" stroke="#ffffff" stroke-width="0.8"><title>cell 87: MAI_B=13.3417</title></path><path d="M 371.86,876.00 L 371.86,837.27 L 330.38,837.27 L 330.38,876.00 L 371.86,876.00 Z" fill="#f7fbff" stroke="#ffffff" stroke-width="0.8"><title>cell 88: MAI_B=2.6139</title></path><path d="M 371.86,837.27 L 371.86,798.53 L 330.38,798.53 L 330.38,837.27 L 371.86,837.27 Z" fill="#f7fbff" stroke="#ffffff" stroke-width="0.8"><title>cell 89: MAI_B=2.7668</title></path><path d="M 371.86,798.53 L 371.86,759.80 L 330.38,759.80 L 330.38,798.53 L 371.86,798.53 Z" fill="#f7fbff" stroke="#ffffff" stroke-width="0.8"><title>cell 90: MAI_B=5.0500</title></path><path d="M 371.86,759.80 L 371.86,721.07 L 330.38,721.07 L 330.38,759.80 L 371.86,759.80 Z" fill="#f7fbff" stroke="#ffffff" stroke-width="0.8"><title>cell 91: MAI_B=5.4610</title></path><path d="M 371.86,721.07 L 371.86,682.34 L 330.38,682.34 L 330.38,721.07 L 371.86,721.07 Z" fill="#c6dbef" stroke="#ffffff" stroke-width="0.8"><title>cell 92: MAI_B=6.8529</title></path><path d="M 371.86,682.34 L 371.86,643.61 L 330.38,643.61 L 330.38,682.34 L 371.86,682.34 Z" fill="#c6dbef" stroke="#ffffff" stroke-width="0.8"><title>cell 93: MAI_B=8.1600</title></path><path d="M 371.86,643.61 L 371.86,604.88 L 330.38,604.88 L 330.38,643.61 L 371.86,643.61 Z" fill="#c6dbef" stroke="#ffffff" stroke-width="0.8"><title>cell 94: MAI_B=9.1582</title></path><path d="M 371.86,604.88 L 371.86,566.15 L 330.38,566.15 L 330.38,604.88 L 371.86,604.88 Z" fill="#6baed6" stroke="#ffffff" stroke-width="0.8"><title>cell 95: MAI_B=10.2747</title></path><path d="M 371.86,566.15 L 371.86,527.42 L 330.38,527.42 L 330.38,566.15 L 371.86,566.15 Z" fill="#6baed6" stroke="#ffffff" stroke-width="0.8"><title>cell 96: MAI_B=11.8334</title></path><path d="M 371.86,527.42 L 371.86,488.69 L 330.38,488.69 L 330.38,527.42 L 371.86,527.42 Z" fill="#6baed6" stroke="#ffffff" stroke-width="0.8"><title>cell 97: MAI_B=12.8953</title></path><path d="M 371.86,488.69 L 371.86,449.97 L 330.38,449.97 L 330.38,488.69 L 371.86,488.69 Z" fill="#2171b5" stroke="#ffffff" stroke-width="0.8"><title>cell 98: MAI_B=14.3804</title></path><path d="M 371.86,449.97 L 371.86,411.24 L 330.38,411.24 L 330.38,449.97 L 371.86,449.97 Z" fill="#08306b" stroke="#ffffff" stroke-width="0.8"><title>cell 99: MAI_B=15.3742</title></path><path d="M 371.86,411.24 L 371.86,372.51 L 330.38,372.51 L 330.38,411.24 L 371.86,411.24 Z" fill="#08306b" stroke="#ffffff" stroke-width="0.8"><title>cell 100: MAI_B=16.9861</title></path><path d="M 371.86,372.51 L 371.86,333.79 L 330.38,333.79 L 330.38,372.51 L 371.86,372.51 Z" fill="#08306b" stroke="#ffffff" stroke-width="0.8"><title>cell 101: MAI_B=16.4643</title></path><path d="M 371.86,333.79 L 371.86,295.06 L 330.38,295.06 L 330.38,333.79 L 371.86,333.79 Z" fill="#08306b" stroke="#ffffff" stroke-width="0.8"><title>cell 102: MAI_B=15.5939</title></path><path d="M 371.86,295.06 L 371.86,256.34 L 330.38,256.34 L 330.38,295.06 L 371.86,295.06 Z" fill="#08306b" stroke="#ffffff" stroke-width="0.8"><title>cell 103: MAI_B=15.9702</title></path><path d="M 371.86,256.34 L 371.86,217.61 L 330.38,217.61 L 330.38,256.34 L 371.86,256.34 Z" fill="#08306b" stroke="#ffffff" stroke-width="0.8"><title>cell 104: MAI_B=15.8397</title></path><path d="M 371.86,217.61 L 371.86,178.89 L 330.38,178.89 L 330.38,217.61 L 371.86,217.61 Z" fill="#2171b5" stroke="#ffffff" stroke-width="0.8"><title>cell 105: MAI_B=15.2060</title></path><path d="M 371.86,178.89 L 371.86,140.17 L 330.38,140.17 L 330.38,178.89 L 371.86,178.89 Z" fill="#2171b5" stroke="#ffffff" stroke-width="0.8"><title>cell 106: MAI_B=15.0099</title></path><path d="M 371.86,140.17 L 371.86,101.44 L 330.38,101.44 L 330.38,140.17 L 371.86,140.17 Z" fill="#2171b5" stroke="#ffffff" stroke-width="0.8"><title>cell 107: MAI_B=14.8298</title></path><path d="M 371.86,101.44 L 371.86,62.72 L 330.38,62.72 L 330.38,101.44 L 371.86,101.44 Z" fill="#2171b5" stroke="#ffffff" stroke-width="0.8"><title>cell 108: MAI_B=14.8809</title></path><path d="M 371.86,62.72 L 371.86,24.00 L 330.38,24.00 L 330.38,62.72 L 371.86,62.72 Z" fill="#2171b5" stroke="#ffffff" stroke-width="0.8"><title>cell 109: MAI_B=13.1211</title></path><path d="M 413.34,876.00 L 413.34,837.27 L 371.86,837.27 L 371.86,876.00 L 413.34,876.00 Z" fill="#f7fbff" stroke="#ffffff" stroke-width="0.8"><title>cell 110: MAI_B=2.6218</title></path><path d="M 413.34,837.27 L 413.34,798.53 L 371.86,798.53 L 371.86,837.27 L 413.34,837.27 Z" fill="#f7fbff" stroke="#ffffff" stroke-width="0.8"><title>cell 111: MAI_B=5.4829</title></path><path d="M 413.34,798.53 L 413.34,759.80 L 371.86,759.80 L 371.86,798.53 L 413.34,798.53 Z" fill="#f7fbff" stroke="#ffffff" stroke-width="0.8"><title>cell 112: MAI_B=5.7671</title></path><path d="M 413.34,759.80 L 413.34,721.07 L 371.86,721.07 L 371.86,759.80 L 413.34,759.80 Z" fill="#f7fbff" stroke="#ffffff" stroke-width="0.8"><title>cell 113: MAI_B=6.1843</title></path><path d="M 413.34,721.07 L 413.34,682.34 L 371.86,682.34 L 371.86,721.07 L 413.34,721.07 Z" fill="#c6dbef" stroke="#ffffff" stroke-width="0.8"><title>cell 114: MAI_B=7.1300</title></path><path d="M 413.34,682.34 L 413.34,643.61 L 371.86,643.61 L 371.86,682.34 L 413.34,682.34 Z" fill="#c6dbef" stroke="#ffffff" stroke-width="0.8"><title>cell 115: MAI_B=7.9767</title></path><path d="M 413.34,643.61 L 413.34,604.88 L 371.86,604.88 L 371.86,643.61 L 413.34,643.61 Z" fill="#6baed6" stroke="#ffffff" stroke-width="0.8"><title>cell 116: MAI_B=9.9241</title></path><path d="M 413.34,604.88 L 413.34,566.15 L 371.86,566.15 L 371.86,604.88 L 413.34,604.88 Z" fill="#6baed6" stroke="#ffffff" stroke-width="0.8"><title>cell 117: MAI_B=10.9558</title></path><path d="M 413.34,566.15 L 413.34,527.42 L 371.86,527.42 L 371.86,566.15 L 413.34,566.15 Z" fill="#6baed6" stroke="#ffffff" stroke-width="0.8"><title>cell 118: MAI_B=11.8649</title></path><path d="M 413.34,527.42 L 413.34,488.69 L 371.86,488.69 L 371.86,527.42 L 413.34,527.42 Z" fill="#6baed6" stroke="#ffffff" stroke-width="0.8"><title>cell 119: MAI_B=12.8520</title></path><path d="M 413.34,488.69 L 413.34,449.97 L 371.86,449.97 L 371.86,488.69 L 413.34,488.69 Z" fill="#08306b" stroke="#ffffff" stroke-width="0.8"><title>cell 120: MAI_B=15.3825</title></path><path d="M 413.34,449.97 L 413.34,411.24 L 371.86,411.24 L 371.86,449.97 L 413.34,449.97 Z" fill="#08306b" stroke="#ffffff" stroke-width="0.8"><title>cell 121: MAI_B=16.1623</title></path><path d="M 413.34,411.24 L 413.34,372.51 L 371.86,372.51 L 371.86,411.24 L 413.34,411.24 Z" fill="#08306b" stroke="#ffffff" stroke-width="0.8"><title>cell 122: MAI_B=16.0051</title></path><path d="M 413.34,372.51 L 413.34,333.79 L 371.86,333.79 L 371.86,372.51 L 413.34,372.51 Z" fill="#08306b" stroke="#ffffff" stroke-width="0.8"><title>cell 123: MAI_B=17.1426</title></path><path d="M 413.34,333.79 L 413.34,295.06 L 371.86,295.06 L 371.86,333.79 L 413.34,333.79 Z" fill="#08306b" stroke="#ffffff" stroke-width="0.8"><title>cell 124: MAI_B=15.4101</title></path><path d="M 413.34,295.06 L 413.34,256.34 L 371.86,256.34 L 371.86,295.06 L 413.34,295.06 Z" fill="#08306b" stroke="#ffffff" stroke-width="0.8"><title>cell 125: MAI_B=16.5210</title></path><path d="M 413.34,256.34 L 413.34,217.61 L 371.86,217.61 L 371.86,256.34 L 413.34,256.34 Z" fill="#08306b" stroke="#ffffff" stroke-width="0.8"><title>cell 126: MAI_B=16.2847</title></path><path d="M 413.34,217.61 L 413.34,178.89 L 371.86,178.89 L 371.86,217.61 L 413.34,217.61 Z" fill="#08306b" stroke="#ffffff" stroke-width="0.8"><title>cell 127: MAI_B=16.0893</title></path><path d="M 413.34,178.89 L 413.34,140.17 L 371.86,140.17 L 371.86,178.89 L 413.34,178.89 Z" fill="#2171b5" stroke="#ffffff" stroke-width="0.8"><title>cell 128: MAI_B=15.1415</title></path><path d="M 413.34,140.17 L 413.34,101.44 L 371.86,101.44 L 371.86,140.17 L 413.34,140.17 Z" fill="#2171b5" stroke="#ffffff" stroke-width="0.8"><title>cell 129: MAI_B=15.3063</title></path><path d="M 413.34,101.44 L 413.34,62.72 L 371.86,62.72 L 371.86,101.44 L 413.34,101.44 Z" fill="#2171b5" stroke="#ffffff" stroke-width="0.8"><title>cell 130: MAI_B=14.9077</title></path><path d="M 413.34,62.72 L 413.34,24.00 L 371.86,24.00 L 371.86,62.72 L 413.34,62.72 Z" fill="#2171b5" stroke="#ffffff" stroke-width="0.8"><title>cell 131: MAI_B=14.8807</title></path><path d="M 454.82,876.00 L 454.82,837.27 L 413.34,837.27 L 413.34,876.00 L 454.82,876.00 Z" fill="#f7fbff" stroke="#ffffff" stroke-width="0.8"><title>cell 132: MAI_B=5.0790</title></path><path d="M 454.82,837.27 L 454.82,798.53 L 413.34,798.53 L 413.34,837.27 L 454.82,837.27 Z" fill="#f7fbff" stroke="#ffffff" stroke-width="0.8"><title>cell 133: MAI_B=5.1667</title></path><path d="M 454.82,798.53 L 454.82,759.80 L 413.34,759.80 L 413.34,798.53 L 454.82,798.53 Z" fill="#c6dbef" stroke="#ffffff" stroke-width="0.8"><title>cell 134: MAI_B=6.3393</title></path><path d="M 454.82,759.80 L 454.82,721.07 L 413.34,721.07 L 413.34,759.80 L 454.82,759.80 Z" fill="#c6dbef" stroke="#ffffff" stroke-width="0.8"><title>cell 135: MAI_B=6.5584</title></path><path d="M 454.82,721.07 L 454.82,682.34 L 413.34,682.34 L 413.34,721.07 L 454.82,721.07 Z" fill="#f7fbff" stroke="#ffffff" stroke-width="0.8"><title>cell 136: MAI_B=5.9692</title></path><path d="M 454.82,682.34 L 454.82,643.61 L 413.34,643.61 L 413.34,682.34 L 454.82,682.34 Z" fill="#c6dbef" stroke="#ffffff" stroke-width="0.8"><title>cell 137: MAI_B=7.8063</title></path><path d="M 454.82,643.61 L 454.82,604.88 L 413.34,604.88 L 413.34,643.61 L 454.82,643.61 Z" fill="#6baed6" stroke="#ffffff" stroke-width="0.8"><title>cell 138: MAI_B=10.2555</title></path><path d="M 454.82,604.88 L 454.82,566.15 L 413.34,566.15 L 413.34,604.88 L 454.82,604.88 Z" fill="#6baed6" stroke="#ffffff" stroke-width="0.8"><title>cell 139: MAI_B=10.8323</title></path><path d="M 454.82,566.15 L 454.82,527.42 L 413.34,527.42 L 413.34,566.15 L 454.82,566.15 Z" fill="#6baed6" stroke="#ffffff" stroke-width="0.8"><title>cell 140: MAI_B=12.7512</title></path><path d="M 454.82,527.42 L 454.82,488.69 L 413.34,488.69 L 413.34,527.42 L 454.82,527.42 Z" fill="#2171b5" stroke="#ffffff" stroke-width="0.8"><title>cell 141: MAI_B=14.3803</title></path><path d="M 454.82,488.69 L 454.82,449.97 L 413.34,449.97 L 413.34,488.69 L 454.82,488.69 Z" fill="#2171b5" stroke="#ffffff" stroke-width="0.8"><title>cell 142: MAI_B=15.2746</title></path><path d="M 454.82,449.97 L 454.82,411.24 L 413.34,411.24 L 413.34,449.97 L 454.82,449.97 Z" fill="#08306b" stroke="#ffffff" stroke-width="0.8"><title>cell 143: MAI_B=16.0572</title></path><path d="M 454.82,411.24 L 454.82,372.51 L 413.34,372.51 L 413.34,411.24 L 454.82,411.24 Z" fill="#08306b" stroke="#ffffff" stroke-width="0.8"><title>cell 144: MAI_B=17.1926</title></path><path d="M 454.82,372.51 L 454.82,333.79 L 413.34,333.79 L 413.34,372.51 L 454.82,372.51 Z" fill="#08306b" stroke="#ffffff" stroke-width="0.8"><title>cell 145: MAI_B=17.8798</title></path><path d="M 454.82,333.79 L 454.82,295.06 L 413.34,295.06 L 413.34,333.79 L 454.82,333.79 Z" fill="#08306b" stroke="#ffffff" stroke-width="0.8"><title>cell 146: MAI_B=16.6727</title></path><path d="M 454.82,295.06 L 454.82,256.34 L 413.34,256.34 L 413.34,295.06 L 454.82,295.06 Z" fill="#08306b" stroke="#ffffff" stroke-width="0.8"><title>cell 147: MAI_B=17.2353</title></path><path d="M 454.82,256.34 L 454.82,217.61 L 413.34,217.61 L 413.34,256.34 L 454.82,256.34 Z" fill="#08306b" stroke="#ffffff" stroke-width="0.8"><title>cell 148: MAI_B=16.8447</title></path><path d="M 454.82,217.61 L 454.82,178.89 L 413.34,178.89 L 413.34,217.61 L 454.82,217.61 Z" fill="#08306b" stroke="#ffffff" stroke-width="0.8"><title>cell 149: MAI_B=16.4679</title></path><path d="M 454.82,178.89 L 454.82,140.17 L 413.34,140.17 L 413.34,178.89 L 454.82,178.89 Z" fill="#08306b" stroke="#ffffff" stroke-width="0.8"><title>cell 150: MAI_B=16.2939</title></path><path d="M 454.82,140.17 L 454.82,101.44 L 413.34,101.44 L 413.34,140.17 L 454.82,140.17 Z" fill="#08306b" stroke="#ffffff" stroke-width="0.8"><title>cell 151: MAI_B=15.5485</title></path><path d="M 454.82,101.44 L 454.82,62.72 L 413.34,62.72 L 413.34,101.44 L 454.82,101.44 Z" fill="#2171b5" stroke="#ffffff" stroke-width="0.8"><title>cell 152: MAI_B=15.0253</title></path><path d="M 454.82,62.72 L 454.82,24.00 L 413.34,24.00 L 413.34,62.72 L 454.82,62.72 Z" fill="#2171b5" stroke="#ffffff" stroke-width="0.8"><title>cell 153: MAI_B=14.9182</title></path><path d="M 496.30,876.00 L 496.30,837.27 L 454.82,837.27 L 454.82,876.00 L 496.30,876.00 Z" fill="#f7fbff" stroke="#ffffff" stroke-width="0.8"><title>cell 154: MAI_B=1.9135</title></path><path d="M 496.30,837.27 L 496.30,798.53 L 454.82,798.53 L 454.82,837.27 L 496.30,837.27 Z" fill="#f7fbff" stroke="#ffffff" stroke-width="0.8"><title>cell 155: MAI_B=5.3234</title></path><path d="M 496.30,798.53 L 496.30,759.80 L 454.82,759.80 L 454.82,798.53 L 496.30,798.53 Z" fill="#f7fbff" stroke="#ffffff" stroke-width="0.8"><title>cell 156: MAI_B=5.5931</title></path><path d="M 496.30,759.80 L 496.30,721.07 L 454.82,721.07 L 454.82,759.80 L 496.30,759.80 Z" fill="#c6dbef" stroke="#ffffff" stroke-width="0.8"><title>cell 157: MAI_B=7.4076</title></path><path d="M 496.30,721.07 L 496.30,682.34 L 454.82,682.34 L 454.82,721.07 L 496.30,721.07 Z" fill="#c6dbef" stroke="#ffffff" stroke-width="0.8"><title>cell 158: MAI_B=7.3886</title></path><path d="M 496.30,682.34 L 496.30,643.61 L 454.82,643.61 L 454.82,682.34 L 496.30,682.34 Z" fill="#c6dbef" stroke="#ffffff" stroke-width="0.8"><title>cell 159: MAI_B=8.3290</title></path><path d="M 496.30,643.61 L 496.30,604.88 L 454.82,604.88 L 454.82,643.61 L 496.30,643.61 Z" fill="#c6dbef" stroke="#ffffff" stroke-width="0.8"><title>cell 160: MAI_B=8.4152</title></path><path d="M 496.30,604.88 L 496.30,566.15 L 454.82,566.15 L 454.82,604.88 L 496.30,604.88 Z" fill="#6baed6" stroke="#ffffff" stroke-width="0.8"><title>cell 161: MAI_B=11.5330</title></path><path d="M 496.30,566.15 L 496.30,527.42 L 454.82,527.42 L 454.82,566.15 L 496.30,566.15 Z" fill="#2171b5" stroke="#ffffff" stroke-width="0.8"><title>cell 162: MAI_B=13.1522</title></path><path d="M 496.30,527.42 L 496.30,488.69 L 454.82,488.69 L 454.82,527.42 L 496.30,527.42 Z" fill="#2171b5" stroke="#ffffff" stroke-width="0.8"><title>cell 163: MAI_B=14.6984</title></path><path d="M 496.30,488.69 L 496.30,449.97 L 454.82,449.97 L 454.82,488.69 L 496.30,488.69 Z" fill="#08306b" stroke="#ffffff" stroke-width="0.8"><title>cell 164: MAI_B=15.5870</title></path><path d="M 496.30,449.97 L 496.30,411.24 L 454.82,411.24 L 454.82,449.97 L 496.30,449.97 Z" fill="#08306b" stroke="#ffffff" stroke-width="0.8"><title>cell 165: MAI_B=16.2559</title></path><path d="M 496.30,411.24 L 496.30,372.51 L 454.82,372.51 L 454.82,411.24 L 496.30,411.24 Z" fill="#08306b" stroke="#ffffff" stroke-width="0.8"><title>cell 166: MAI_B=16.2025</title></path><path d="M 496.30,372.51 L 496.30,333.79 L 454.82,333.79 L 454.82,372.51 L 496.30,372.51 Z" fill="#08306b" stroke="#ffffff" stroke-width="0.8"><title>cell 167: MAI_B=17.6544</title></path><path d="M 496.30,333.79 L 496.30,295.06 L 454.82,295.06 L 454.82,333.79 L 496.30,333.79 Z" fill="#08306b" stroke="#ffffff" stroke-width="0.8"><title>cell 168: MAI_B=18.0410</title></path><path d="M 496.30,295.06 L 496.30,256.34 L 454.82,256.34 L 454.82,295.06 L 496.30,295.06 Z" fill="#08306b" stroke="#ffffff" stroke-width="0.8"><title>cell 169: MAI_B=17.4000</title></path><path d="M 496.30,256.34 L 496.30,217.61 L 454.82,217.61 L 454.82,256.34 L 496.30,256.34 Z" fill="#08306b" stroke="#ffffff" stroke-width="0.8"><title>cell 170: MAI_B=16.8890</title></path><path d="M 496.30,217.61 L 496.30,178.89 L 454.82,178.89 L 454.82,217.61 L 496.30,217.61 Z" fill="#08306b" stroke="#ffffff" stroke-width="0.8"><title>cell 171: MAI_B=16.8825</title></path><path d="M 496.30,178.89 L 496.30,140.17 L 454.82,140.17 L 454.82,178.89 L 496.30,178.89 Z" fill="#08306b" stroke="#ffffff" stroke-width="0.8"><title>cell 172: MAI_B=16.5036</title></path><path d="M 496.30,140.17 L 496.30,101.44 L 454.82,101.44 L 454.82,140.17 L 496.30,140.17 Z" fill="#08306b" stroke="#ffffff" stroke-width="0.8"><title>cell 173: MAI_B=15.6291</title></path><path d="M 496.30,101.44 L 496.30,62.72 L 454.82,62.72 L 454.82,101.44 L 496.30,101.44 Z" fill="#08306b" stroke="#ffffff" stroke-width="0.8"><title>cell 174: MAI_B=15.3483</title></path><path d="M 496.30,62.72 L 496.30,24.00 L 454.82,24.00 L 454.82,62.72 L 496.30,62.72 Z" fill="#2171b5" stroke="#ffffff" stroke-width="0.8"><title>cell 175: MAI_B=14.9051</title></path><path d="M 537.78,876.00 L 537.78,837.27 L 496.30,837.27 L 496.30,876.00 L 537.78,876.00 Z" fill="#f7fbff" stroke="#ffffff" stroke-width="0.8"><title>cell 176: MAI_B=2.0456</title></path><path d="M 537.78,837.27 L 537.78,798.53 L 496.30,798.53 L 496.30,837.27 L 537.78,837.27 Z" fill="#f7fbff" stroke="#ffffff" stroke-width="0.8"><title>cell 177: MAI_B=2.6562</title></path><path d="M 537.78,798.53 L 537.78,759.80 L 496.30,759.80 L 496.30,798.53 L 537.78,798.53 Z" fill="#f7fbff" stroke="#ffffff" stroke-width="0.8"><title>cell 178: MAI_B=5.9160</title></path><path d="M 537.78,759.80 L 537.78,721.07 L 496.30,721.07 L 496.30,759.80 L 537.78,759.80 Z" fill="#c6dbef" stroke="#ffffff" stroke-width="0.8"><title>cell 179: MAI_B=7.3192</title></path><path d="M 537.78,721.07 L 537.78,682.34 L 496.30,682.34 L 496.30,721.07 L 537.78,721.07 Z" fill="#c6dbef" stroke="#ffffff" stroke-width="0.8"><title>cell 180: MAI_B=8.7021</title></path><path d="M 537.78,682.34 L 537.78,643.61 L 496.30,643.61 L 496.30,682.34 L 537.78,682.34 Z" fill="#c6dbef" stroke="#ffffff" stroke-width="0.8"><title>cell 181: MAI_B=8.6167</title></path><path d="M 537.78,643.61 L 537.78,604.88 L 496.30,604.88 L 496.30,643.61 L 537.78,643.61 Z" fill="#6baed6" stroke="#ffffff" stroke-width="0.8"><title>cell 182: MAI_B=9.7130</title></path><path d="M 537.78,604.88 L 537.78,566.15 L 496.30,566.15 L 496.30,604.88 L 537.78,604.88 Z" fill="#2171b5" stroke="#ffffff" stroke-width="0.8"><title>cell 183: MAI_B=13.0684</title></path><path d="M 537.78,566.15 L 537.78,527.42 L 496.30,527.42 L 496.30,566.15 L 537.78,566.15 Z" fill="#2171b5" stroke="#ffffff" stroke-width="0.8"><title>cell 184: MAI_B=13.9058</title></path><path d="M 537.78,527.42 L 537.78,488.69 L 496.30,488.69 L 496.30,527.42 L 537.78,527.42 Z" fill="#2171b5" stroke="#ffffff" stroke-width="0.8"><title>cell 185: MAI_B=15.2660</title></path><path d="M 537.78,488.69 L 537.78,449.97 L 496.30,449.97 L 496.30,488.69 L 537.78,488.69 Z" fill="#08306b" stroke="#ffffff" stroke-width="0.8"><title>cell 186: MAI_B=15.5826</title></path><path d="M 537.78,449.97 L 537.78,411.24 L 496.30,411.24 L 496.30,449.97 L 537.78,449.97 Z" fill="#08306b" stroke="#ffffff" stroke-width="0.8"><title>cell 187: MAI_B=16.3103</title></path><path d="M 537.78,411.24 L 537.78,372.51 L 496.30,372.51 L 496.30,411.24 L 537.78,411.24 Z" fill="#08306b" stroke="#ffffff" stroke-width="0.8"><title>cell 188: MAI_B=16.6576</title></path><path d="M 537.78,372.51 L 537.78,333.79 L 496.30,333.79 L 496.30,372.51 L 537.78,372.51 Z" fill="#08306b" stroke="#ffffff" stroke-width="0.8"><title>cell 189: MAI_B=17.5307</title></path><path d="M 537.78,333.79 L 537.78,295.06 L 496.30,295.06 L 496.30,333.79 L 537.78,333.79 Z" fill="#08306b" stroke="#ffffff" stroke-width="0.8"><title>cell 190: MAI_B=17.8424</title></path><path d="M 537.78,295.06 L 537.78,256.34 L 496.30,256.34 L 496.30,295.06 L 537.78,295.06 Z" fill="#08306b" stroke="#ffffff" stroke-width="0.8"><title>cell 191: MAI_B=18.1701</title></path><path d="M 537.78,256.34 L 537.78,217.61 L 496.30,217.61 L 496.30,256.34 L 537.78,256.34 Z" fill="#08306b" stroke="#ffffff" stroke-width="0.8"><title>cell 192: MAI_B=17.3358</title></path><path d="M 537.78,217.61 L 537.78,178.89 L 496.30,178.89 L 496.30,217.61 L 537.78,217.61 Z" fill="#08306b" stroke="#ffffff" stroke-width="0.8"><title>cell 193: MAI_B=15.9292</title></path><path d="M 537.78,178.89 L 537.78,140.17 L 496.30,140.17 L 496.30,178.89 L 537.78,178.89 Z" fill="#08306b" stroke="#ffffff" stroke-width="0.8"><title>cell 194: MAI_B=16.6931</title></path><path d="M 537.78,140.17 L 537.78,101.44 L 496.30,101.44 L 496.30,140.17 L 537.78,140.17 Z" fill="#08306b" stroke="#ffffff" stroke-width="0.8"><title>cell 195: MAI_B=15.9302</title></path><path d="M 537.78,101.44 L 537.78,62.72 L 496.30,62.72 L 496.30,101.44 L 537.78,101.44 Z" fill="#08306b" stroke="#ffffff" stroke-width="0.8"><title>cell 196: MAI_B=15.5441</title></path><path d="M 537.78,62.72 L 537.78,24.00 L 496.30,24.00 L 496.30,62.72 L 537.78,62.72 Z" fill="#2171b5" stroke="#ffffff" stroke-width="0.8"><title>cell 197: MAI_B=14.8579</title></path><path d="M 579.26,876.00 L 579.26,837.27 L 537.78,837.27 L 537.78,876.00 L 579.26,876.00 Z" fill="#f7fbff" stroke="#ffffff" stroke-width="0.8"><title>cell 198: MAI_B=3.1059</title></path><path d="M 579.26,837.27 L 579.26,798.53 L 537.78,798.53 L 537.78,837.27 L 579.26,837.27 Z" fill="#f7fbff" stroke="#ffffff" stroke-width="0.8"><title>cell 199: MAI_B=3.3700</title></path><path d="M 579.26,798.53 L 579.26,759.80 L 537.78,759.80 L 537.78,798.53 L 579.26,798.53 Z" fill="#f7fbff" stroke="#ffffff" stroke-width="0.8"><title>cell 200: MAI_B=3.1432</title></path><path d="M 579.26,759.80 L 579.26,721.07 L 537.78,721.07 L 537.78,759.80 L 579.26,759.80 Z" fill="#c6dbef" stroke="#ffffff" stroke-width="0.8"><title>cell 201: MAI_B=8.0837</title></path><path d="M 579.26,721.07 L 579.26,682.34 L 537.78,682.34 L 537.78,721.07 L 579.26,721.07 Z" fill="#c6dbef" stroke="#ffffff" stroke-width="0.8"><title>cell 202: MAI_B=9.0504</title></path><path d="M 579.26,682.34 L 579.26,643.61 L 537.78,643.61 L 537.78,682.34 L 579.26,682.34 Z" fill="#c6dbef" stroke="#ffffff" stroke-width="0.8"><title>cell 203: MAI_B=9.3648</title></path><path d="M 579.26,643.61 L 579.26,604.88 L 537.78,604.88 L 537.78,643.61 L 579.26,643.61 Z" fill="#6baed6" stroke="#ffffff" stroke-width="0.8"><title>cell 204: MAI_B=11.0982</title></path><path d="M 579.26,604.88 L 579.26,566.15 L 537.78,566.15 L 537.78,604.88 L 579.26,604.88 Z" fill="#6baed6" stroke="#ffffff" stroke-width="0.8"><title>cell 205: MAI_B=12.5608</title></path><path d="M 579.26,566.15 L 579.26,527.42 L 537.78,527.42 L 537.78,566.15 L 579.26,566.15 Z" fill="#6baed6" stroke="#ffffff" stroke-width="0.8"><title>cell 206: MAI_B=12.7132</title></path><path d="M 579.26,527.42 L 579.26,488.69 L 537.78,488.69 L 537.78,527.42 L 579.26,527.42 Z" fill="#2171b5" stroke="#ffffff" stroke-width="0.8"><title>cell 207: MAI_B=15.2459</title></path><path d="M 579.26,488.69 L 579.26,449.97 L 537.78,449.97 L 537.78,488.69 L 579.26,488.69 Z" fill="#08306b" stroke="#ffffff" stroke-width="0.8"><title>cell 208: MAI_B=16.1908</title></path><path d="M 579.26,449.97 L 579.26,411.24 L 537.78,411.24 L 537.78,449.97 L 579.26,449.97 Z" fill="#08306b" stroke="#ffffff" stroke-width="0.8"><title>cell 209: MAI_B=16.8209</title></path><path d="M 579.26,411.24 L 579.26,372.51 L 537.78,372.51 L 537.78,411.24 L 579.26,411.24 Z" fill="#08306b" stroke="#ffffff" stroke-width="0.8"><title>cell 210: MAI_B=16.7703</title></path><path d="M 579.26,372.51 L 579.26,333.79 L 537.78,333.79 L 537.78,372.51 L 579.26,372.51 Z" fill="#08306b" stroke="#ffffff" stroke-width="0.8"><title>cell 211: MAI_B=17.5184</title></path><path d="M 579.26,333.79 L 579.26,295.06 L 537.78,295.06 L 537.78,333.79 L 579.26,333.79 Z" fill="#08306b" stroke="#ffffff" stroke-width="0.8"><title>cell 212: MAI_B=17.6462</title></path><path d="M 579.26,295.06 L 579.26,256.34 L 537.78,256.34 L 537.78,295.06 L 579.26,295.06 Z" fill="#08306b" stroke="#ffffff" stroke-width="0.8"><title>cell 213: MAI_B=18.0135</title></path><path d="M 579.26,256.34 L 579.26,217.61 L 537.78,217.61 L 537.78,256.34 L 579.26,256.34 Z" fill="#08306b" stroke="#ffffff" stroke-width="0.8"><title>cell 214: MAI_B=17.5708</title></path><path d="M 579.26,217.61 L 579.26,178.89 L 537.78,178.89 L 537.78,217.61 L 579.26,217.61 Z" fill="#08306b" stroke="#ffffff" stroke-width="0.8"><title>cell 215: MAI_B=17.3655</title></path><path d="M 579.26,178.89 L 579.26,140.17 L 537.78,140.17 L 537.78,178.89 L 579.26,178.89 Z" fill="#08306b" stroke="#ffffff" stroke-width="0.8"><title>cell 216: MAI_B=16.3498</title></path><path d="M 579.26,140.17 L 579.26,101.44 L 537.78,101.44 L 537.78,140.17 L 579.26,140.17 Z" fill="#2171b5" stroke="#ffffff" stroke-width="0.8"><title>cell 217: MAI_B=14.6165</title></path><path d="M 579.26,101.44 L 579.26,62.72 L 537.78,62.72 L 537.78,101.44 L 579.26,101.44 Z" fill="#2171b5" stroke="#ffffff" stroke-width="0.8"><title>cell 218: MAI_B=15.1897</title></path><path d="M 579.26,62.72 L 579.26,24.00 L 537.78,24.00 L 537.78,62.72 L 579.26,62.72 Z" fill="#2171b5" stroke="#ffffff" stroke-width="0.8"><title>cell 219: MAI_B=15.1024</title></path><path d="M 620.74,876.00 L 620.74,837.27 L 579.26,837.27 L 579.26,876.00 L 620.74,876.00 Z" fill="#f7fbff" stroke="#ffffff" stroke-width="0.8"><title>cell 220: MAI_B=4.4783</title></path><path d="M 620.74,837.27 L 620.74,798.53 L 579.26,798.53 L 579.26,837.27 L 620.74,837.27 Z" fill="#c6dbef" stroke="#ffffff" stroke-width="0.8"><title>cell 221: MAI_B=6.4220</title></path><path d="M 620.74,798.53 L 620.74,759.80 L 579.26,759.80 L 579.26,798.53 L 620.74,798.53 Z" fill="#c6dbef" stroke="#ffffff" stroke-width="0.8"><title>cell 222: MAI_B=7.0847</title></path><path d="M 620.74,759.80 L 620.74,721.07 L 579.26,721.07 L 579.26,759.80 L 620.74,759.80 Z" fill="#c6dbef" stroke="#ffffff" stroke-width="0.8"><title>cell 223: MAI_B=7.1129</title></path><path d="M 620.74,721.07 L 620.74,682.34 L 579.26,682.34 L 579.26,721.07 L 620.74,721.07 Z" fill="#c6dbef" stroke="#ffffff" stroke-width="0.8"><title>cell 224: MAI_B=8.1072</title></path><path d="M 620.74,682.34 L 620.74,643.61 L 579.26,643.61 L 579.26,682.34 L 620.74,682.34 Z" fill="#6baed6" stroke="#ffffff" stroke-width="0.8"><title>cell 225: MAI_B=9.6613</title></path><path d="M 620.74,643.61 L 620.74,604.88 L 579.26,604.88 L 579.26,643.61 L 620.74,643.61 Z" fill="#6baed6" stroke="#ffffff" stroke-width="0.8"><title>cell 226: MAI_B=10.4013</title></path><path d="M 620.74,604.88 L 620.74,566.15 L 579.26,566.15 L 579.26,604.88 L 620.74,604.88 Z" fill="#6baed6" stroke="#ffffff" stroke-width="0.8"><title>cell 227: MAI_B=11.7538</title></path><path d="M 620.74,566.15 L 620.74,527.42 L 579.26,527.42 L 579.26,566.15 L 620.74,566.15 Z" fill="#2171b5" stroke="#ffffff" stroke-width="0.8"><title>cell 228: MAI_B=13.3272</title></path><path d="M 620.74,527.42 L 620.74,488.69 L 579.26,488.69 L 579.26,527.42 L 620.74,527.42 Z" fill="#2171b5" stroke="#ffffff" stroke-width="0.8"><title>cell 229: MAI_B=14.6331</title></path><path d="M 620.74,488.69 L 620.74,449.97 L 579.26,449.97 L 579.26,488.69 L 620.74,488.69 Z" fill="#08306b" stroke="#ffffff" stroke-width="0.8"><title>cell 230: MAI_B=15.9284</title></path><path d="M 620.74,449.97 L 620.74,411.24 L 579.26,411.24 L 579.26,449.97 L 620.74,449.97 Z" fill="#08306b" stroke="#ffffff" stroke-width="0.8"><title>cell 231: MAI_B=16.9303</title></path><path d="M 620.74,411.24 L 620.74,372.51 L 579.26,372.51 L 579.26,411.24 L 620.74,411.24 Z" fill="#2171b5" stroke="#ffffff" stroke-width="0.8"><title>cell 232: MAI_B=14.4935</title></path><path d="M 620.74,372.51 L 620.74,333.79 L 579.26,333.79 L 579.26,372.51 L 620.74,372.51 Z" fill="#2171b5" stroke="#ffffff" stroke-width="0.8"><title>cell 233: MAI_B=14.3142</title></path><path d="M 620.74,333.79 L 620.74,295.06 L 579.26,295.06 L 579.26,333.79 L 620.74,333.79 Z" fill="#08306b" stroke="#ffffff" stroke-width="0.8"><title>cell 234: MAI_B=17.4936</title></path><path d="M 620.74,295.06 L 620.74,256.34 L 579.26,256.34 L 579.26,295.06 L 620.74,295.06 Z" fill="#08306b" stroke="#ffffff" stroke-width="0.8"><title>cell 235: MAI_B=17.5895</title></path><path d="M 620.74,256.34 L 620.74,217.61 L 579.26,217.61 L 579.26,256.34 L 620.74,256.34 Z" fill="#08306b" stroke="#ffffff" stroke-width="0.8"><title>cell 236: MAI_B=17.9007</title></path><path d="M 620.74,217.61 L 620.74,178.89 L 579.26,178.89 L 579.26,217.61 L 620.74,217.61 Z" fill="#08306b" stroke="#ffffff" stroke-width="0.8"><title>cell 237: MAI_B=17.4578</title></path><path d="M 620.74,178.89 L 620.74,140.17 L 579.26,140.17 L 579.26,178.89 L 620.74,178.89 Z" fill="#08306b" stroke="#ffffff" stroke-width="0.8"><title>cell 238: MAI_B=16.9586</title></path><path d="M 620.74,140.17 L 620.74,101.44 L 579.26,101.44 L 579.26,140.17 L 620.74,140.17 Z" fill="#08306b" stroke="#ffffff" stroke-width="0.8"><title>cell 239: MAI_B=15.4032</title></path><path d="M 620.74,101.44 L 620.74,62.72 L 579.26,62.72 L 579.26,101.44 L 620.74,101.44 Z" fill="#2171b5" stroke="#ffffff" stroke-width="0.8"><title>cell 240: MAI_B=15.2408</title></path><path d="M 620.74,62.72 L 620.74,24.00 L 579.26,24.00 L 579.26,62.72 L 620.74,62.72 Z" fill="#2171b5" stroke="#ffffff" stroke-width="0.8"><title>cell 241: MAI_B=14.7034</title></path><path d="M 662.22,876.00 L 662.22,837.27 L 620.74,837.27 L 620.74,876.00 L 662.22,876.00 Z" fill="#f7fbff" stroke="#ffffff" stroke-width="0.8"><title>cell 242: MAI_B=5.3361</title></path><path d="M 662.22,837.27 L 662.22,798.53 L 620.74,798.53 L 620.74,837.27 L 662.22,837.27 Z" fill="#f7fbff" stroke="#ffffff" stroke-width="0.8"><title>cell 243: MAI_B=6.1674</title></path><path d="M 662.22,798.53 L 662.22,759.80 L 620.74,759.80 L 620.74,798.53 L 662.22,798.53 Z" fill="#c6dbef" stroke="#ffffff" stroke-width="0.8"><title>cell 244: MAI_B=7.0164</title></path><path d="M 662.22,759.80 L 662.22,721.07 L 620.74,721.07 L 620.74,759.80 L 662.22,759.80 Z" fill="#c6dbef" stroke="#ffffff" stroke-width="0.8"><title>cell 245: MAI_B=8.0127</title></path><path d="M 662.22,721.07 L 662.22,682.34 L 620.74,682.34 L 620.74,721.07 L 662.22,721.07 Z" fill="#c6dbef" stroke="#ffffff" stroke-width="0.8"><title>cell 246: MAI_B=7.8480</title></path><path d="M 662.22,682.34 L 662.22,643.61 L 620.74,643.61 L 620.74,682.34 L 662.22,682.34 Z" fill="#c6dbef" stroke="#ffffff" stroke-width="0.8"><title>cell 247: MAI_B=9.2392</title></path><path d="M 662.22,643.61 L 662.22,604.88 L 620.74,604.88 L 620.74,643.61 L 662.22,643.61 Z" fill="#c6dbef" stroke="#ffffff" stroke-width="0.8"><title>cell 248: MAI_B=8.4890</title></path><path d="M 662.22,604.88 L 662.22,566.15 L 620.74,566.15 L 620.74,604.88 L 662.22,604.88 Z" fill="#6baed6" stroke="#ffffff" stroke-width="0.8"><title>cell 249: MAI_B=12.4002</title></path><path d="M 662.22,566.15 L 662.22,527.42 L 620.74,527.42 L 620.74,566.15 L 662.22,566.15 Z" fill="#6baed6" stroke="#ffffff" stroke-width="0.8"><title>cell 250: MAI_B=12.7741</title></path><path d="M 662.22,527.42 L 662.22,488.69 L 620.74,488.69 L 620.74,527.42 L 662.22,527.42 Z" fill="#2171b5" stroke="#ffffff" stroke-width="0.8"><title>cell 251: MAI_B=14.3682</title></path><path d="M 662.22,488.69 L 662.22,449.97 L 620.74,449.97 L 620.74,488.69 L 662.22,488.69 Z" fill="#08306b" stroke="#ffffff" stroke-width="0.8"><title>cell 252: MAI_B=15.3884</title></path><path d="M 662.22,449.97 L 662.22,411.24 L 620.74,411.24 L 620.74,449.97 L 662.22,449.97 Z" fill="#2171b5" stroke="#ffffff" stroke-width="0.8"><title>cell 253: MAI_B=14.4341</title></path><path d="M 662.22,411.24 L 662.22,372.51 L 620.74,372.51 L 620.74,411.24 L 662.22,411.24 Z" fill="#08306b" stroke="#ffffff" stroke-width="0.8"><title>cell 254: MAI_B=16.3168</title></path><path d="M 662.22,372.51 L 662.22,333.79 L 620.74,333.79 L 620.74,372.51 L 662.22,372.51 Z" fill="#2171b5" stroke="#ffffff" stroke-width="0.8"><title>cell 255: MAI_B=15.1155</title></path><path d="M 662.22,333.79 L 662.22,295.06 L 620.74,295.06 L 620.74,333.79 L 662.22,333.79 Z" fill="#08306b" stroke="#ffffff" stroke-width="0.8"><title>cell 256: MAI_B=17.2667</title></path><path d="M 662.22,295.06 L 662.22,256.34 L 620.74,256.34 L 620.74,295.06 L 662.22,295.06 Z" fill="#08306b" stroke="#ffffff" stroke-width="0.8"><title>cell 257: MAI_B=17.5104</title></path><path d="M 662.22,256.34 L 662.22,217.61 L 620.74,217.61 L 620.74,256.34 L 662.22,256.34 Z" fill="#08306b" stroke="#ffffff" stroke-width="0.8"><title>cell 258: MAI_B=17.6680</title></path><path d="M 662.22,217.61 L 662.22,178.89 L 620.74,178.89 L 620.74,217.61 L 662.22,217.61 Z" fill="#08306b" stroke="#ffffff" stroke-width="0.8"><title>cell 259: MAI_B=17.2719</title></path><path d="M 662.22,178.89 L 662.22,140.17 L 620.74,140.17 L 620.74,178.89 L 662.22,178.89 Z" fill="#08306b" stroke="#ffffff" stroke-width="0.8"><title>cell 260: MAI_B=16.7334</title></path><path d="M 662.22,140.17 L 662.22,101.44 L 620.74,101.44 L 620.74,140.17 L 662.22,140.17 Z" fill="#08306b" stroke="#ffffff" stroke-width="0.8"><title>cell 261: MAI_B=15.6366</title></path><path d="M 662.22,101.44 L 662.22,62.72 L 620.74,62.72 L 620.74,101.44 L 662.22,101.44 Z" fill="#2171b5" stroke="#ffffff" stroke-width="0.8"><title>cell 262: MAI_B=14.7411</title></path><path d="M 662.22,62.72 L 662.22,24.00 L 620.74,24.00 L 620.74,62.72 L 662.22,62.72 Z" fill="#6baed6" stroke="#ffffff" stroke-width="0.8"><title>cell 263: MAI_B=10.4879</title></path><path d="M 703.70,876.00 L 703.70,837.27 L 662.22,837.27 L 662.22,876.00 L 703.70,876.00 Z" fill="#f7fbff" stroke="#ffffff" stroke-width="0.8"><title>cell 264: MAI_B=5.1967</title></path><path d="M 703.70,837.27 L 703.70,798.53 L 662.22,798.53 L 662.22,837.27 L 703.70,837.27 Z" fill="#f7fbff" stroke="#ffffff" stroke-width="0.8"><title>cell 265: MAI_B=5.7051</title></path><path d="M 703.70,798.53 L 703.70,759.80 L 662.22,759.80 L 662.22,798.53 L 703.70,798.53 Z" fill="#c6dbef" stroke="#ffffff" stroke-width="0.8"><title>cell 266: MAI_B=6.3037</title></path><path d="M 703.70,759.80 L 703.70,721.07 L 662.22,721.07 L 662.22,759.80 L 703.70,759.80 Z" fill="#c6dbef" stroke="#ffffff" stroke-width="0.8"><title>cell 267: MAI_B=6.3037</title></path><path d="M 703.70,721.07 L 703.70,682.34 L 662.22,682.34 L 662.22,721.07 L 703.70,721.07 Z" fill="#c6dbef" stroke="#ffffff" stroke-width="0.8"><title>cell 268: MAI_B=6.9694</title></path><path d="M 703.70,682.34 L 703.70,643.61 L 662.22,643.61 L 662.22,682.34 L 703.70,682.34 Z" fill="#c6dbef" stroke="#ffffff" stroke-width="0.8"><title>cell 269: MAI_B=7.6588</title></path><path d="M 703.70,643.61 L 703.70,604.88 L 662.22,604.88 L 662.22,643.61 L 703.70,643.61 Z" fill="#6baed6" stroke="#ffffff" stroke-width="0.8"><title>cell 270: MAI_B=9.9518</title></path><path d="M 703.70,604.88 L 703.70,566.15 L 662.22,566.15 L 662.22,604.88 L 703.70,604.88 Z" fill="#6baed6" stroke="#ffffff" stroke-width="0.8"><title>cell 271: MAI_B=10.7710</title></path><path d="M 703.70,566.15 L 703.70,527.42 L 662.22,527.42 L 662.22,566.15 L 703.70,566.15 Z" fill="#6baed6" stroke="#ffffff" stroke-width="0.8"><title>cell 272: MAI_B=12.7898</title></path><path d="M 703.70,527.42 L 703.70,488.69 L 662.22,488.69 L 662.22,527.42 L 703.70,527.42 Z" fill="#2171b5" stroke="#ffffff" stroke-width="0.8"><title>cell 273: MAI_B=14.0279</title></path><path d="M 703.70,488.69 L 703.70,449.97 L 662.22,449.97 L 662.22,488.69 L 703.70,488.69 Z" fill="#2171b5" stroke="#ffffff" stroke-width="0.8"><title>cell 274: MAI_B=14.5588</title></path><path d="M 703.70,449.97 L 703.70,411.24 L 662.22,411.24 L 662.22,449.97 L 703.70,449.97 Z" fill="#2171b5" stroke="#ffffff" stroke-width="0.8"><title>cell 275: MAI_B=14.7770</title></path><path d="M 703.70,411.24 L 703.70,372.51 L 662.22,372.51 L 662.22,411.24 L 703.70,411.24 Z" fill="#2171b5" stroke="#ffffff" stroke-width="0.8"><title>cell 276: MAI_B=15.0731</title></path><path d="M 703.70,372.51 L 703.70,333.79 L 662.22,333.79 L 662.22,372.51 L 703.70,372.51 Z" fill="#08306b" stroke="#ffffff" stroke-width="0.8"><title>cell 277: MAI_B=16.8481</title></path><path d="M 703.70,333.79 L 703.70,295.06 L 662.22,295.06 L 662.22,333.79 L 703.70,333.79 Z" fill="#08306b" stroke="#ffffff" stroke-width="0.8"><title>cell 278: MAI_B=17.1211</title></path><path d="M 703.70,295.06 L 703.70,256.34 L 662.22,256.34 L 662.22,295.06 L 703.70,295.06 Z" fill="#08306b" stroke="#ffffff" stroke-width="0.8"><title>cell 279: MAI_B=17.4143</title></path><path d="M 703.70,256.34 L 703.70,217.61 L 662.22,217.61 L 662.22,256.34 L 703.70,256.34 Z" fill="#08306b" stroke="#ffffff" stroke-width="0.8"><title>cell 280: MAI_B=17.2627</title></path><path d="M 703.70,217.61 L 703.70,178.89 L 662.22,178.89 L 662.22,217.61 L 703.70,217.61 Z" fill="#08306b" stroke="#ffffff" stroke-width="0.8"><title>cell 281: MAI_B=16.8690</title></path><path d="M 703.70,178.89 L 703.70,140.17 L 662.22,140.17 L 662.22,178.89 L 703.70,178.89 Z" fill="#08306b" stroke="#ffffff" stroke-width="0.8"><title>cell 282: MAI_B=15.8844</title></path><path d="M 703.70,140.17 L 703.70,101.44 L 662.22,101.44 L 662.22,140.17 L 703.70,140.17 Z" fill="#2171b5" stroke="#ffffff" stroke-width="0.8"><title>cell 283: MAI_B=15.1643</title></path><path d="M 703.70,101.44 L 703.70,62.72 L 662.22,62.72 L 662.22,101.44 L 703.70,101.44 Z" fill="#6baed6" stroke="#ffffff" stroke-width="0.8"><title>cell 284: MAI_B=10.0350</title></path><path d="M 703.70,62.72 L 703.70,24.00 L 662.22,24.00 L 662.22,62.72 L 703.70,62.72 Z" fill="#6baed6" stroke="#ffffff" stroke-width="0.8"><title>cell 285: MAI_B=10.0787</title></path><path d="M 745.18,876.00 L 745.18,837.27 L 703.70,837.27 L 703.70,876.00 L 745.18,876.00 Z" fill="#f7fbff" stroke="#ffffff" stroke-width="0.8"><title>cell 286: MAI_B=5.0985</title></path><path d="M 745.18,837.27 L 745.18,798.53 L 703.70,798.53 L 703.70,837.27 L 745.18,837.27 Z" fill="#f7fbff" stroke="#ffffff" stroke-width="0.8"><title>cell 287: MAI_B=4.7676</title></path><path d="M 745.18,798.53 L 745.18,759.80 L 703.70,759.80 L 703.70,798.53 L 745.18,798.53 Z" fill="#f7fbff" stroke="#ffffff" stroke-width="0.8"><title>cell 288: MAI_B=5.4264</title></path><path d="M 745.18,759.80 L 745.18,721.07 L 703.70,721.07 L 703.70,759.80 L 745.18,759.80 Z" fill="#f7fbff" stroke="#ffffff" stroke-width="0.8"><title>cell 289: MAI_B=4.5887</title></path><path d="M 745.18,721.07 L 745.18,682.34 L 703.70,682.34 L 703.70,721.07 L 745.18,721.07 Z" fill="#c6dbef" stroke="#ffffff" stroke-width="0.8"><title>cell 290: MAI_B=6.7192</title></path><path d="M 745.18,682.34 L 745.18,643.61 L 703.70,643.61 L 703.70,682.34 L 745.18,682.34 Z" fill="#c6dbef" stroke="#ffffff" stroke-width="0.8"><title>cell 291: MAI_B=7.4459</title></path><path d="M 745.18,643.61 L 745.18,604.88 L 703.70,604.88 L 703.70,643.61 L 745.18,643.61 Z" fill="#c6dbef" stroke="#ffffff" stroke-width="0.8"><title>cell 292: MAI_B=8.8885</title></path><path d="M 745.18,604.88 L 745.18,566.15 L 703.70,566.15 L 703.70,604.88 L 745.18,604.88 Z" fill="#6baed6" stroke="#ffffff" stroke-width="0.8"><title>cell 293: MAI_B=11.5899</title></path><path d="M 745.18,566.15 L 745.18,527.42 L 703.70,527.42 L 703.70,566.15 L 745.18,566.15 Z" fill="#6baed6" stroke="#ffffff" stroke-width="0.8"><title>cell 294: MAI_B=11.6783</title></path><path d="M 745.18,527.42 L 745.18,488.69 L 703.70,488.69 L 703.70,527.42 L 745.18,527.42 Z" fill="#6baed6" stroke="#ffffff" stroke-width="0.8"><title>cell 295: MAI_B=12.4935</title></path><path d="M 745.18,488.69 L 745.18,449.97 L 703.70,449.97 L 703.70,488.69 L 745.18,488.69 Z" fill="#2171b5" stroke="#ffffff" stroke-width="0.8"><title>cell 296: MAI_B=13.4747</title></path><path d="M 745.18,449.97 L 745.18,411.24 L 703.70,411.24 L 703.70,449.97 L 745.18,449.97 Z" fill="#2171b5" stroke="#ffffff" stroke-width="0.8"><title>cell 297: MAI_B=15.1145</title></path><path d="M 745.18,411.24 L 745.18,372.51 L 703.70,372.51 L 703.70,411.24 L 745.18,411.24 Z" fill="#08306b" stroke="#ffffff" stroke-width="0.8"><title>cell 298: MAI_B=15.7580</title></path><path d="M 745.18,372.51 L 745.18,333.79 L 703.70,333.79 L 703.70,372.51 L 745.18,372.51 Z" fill="#08306b" stroke="#ffffff" stroke-width="0.8"><title>cell 299: MAI_B=16.6892</title></path><path d="M 745.18,333.79 L 745.18,295.06 L 703.70,295.06 L 703.70,333.79 L 745.18,333.79 Z" fill="#2171b5" stroke="#ffffff" stroke-width="0.8"><title>cell 300: MAI_B=15.1742</title></path><path d="M 745.18,295.06 L 745.18,256.34 L 703.70,256.34 L 703.70,295.06 L 745.18,295.06 Z" fill="#08306b" stroke="#ffffff" stroke-width="0.8"><title>cell 301: MAI_B=15.8901</title></path><path d="M 745.18,256.34 L 745.18,217.61 L 703.70,217.61 L 703.70,256.34 L 745.18,256.34 Z" fill="#08306b" stroke="#ffffff" stroke-width="0.8"><title>cell 302: MAI_B=16.2596</title></path><path d="M 745.18,217.61 L 745.18,178.89 L 703.70,178.89 L 703.70,217.61 L 745.18,217.61 Z" fill="#08306b" stroke="#ffffff" stroke-width="0.8"><title>cell 303: MAI_B=16.6355</title></path><path d="M 745.18,178.89 L 745.18,140.17 L 703.70,140.17 L 703.70,178.89 L 745.18,178.89 Z" fill="#08306b" stroke="#ffffff" stroke-width="0.8"><title>cell 304: MAI_B=15.6297</title></path><path d="M 745.18,140.17 L 745.18,101.44 L 703.70,101.44 L 703.70,140.17 L 745.18,140.17 Z" fill="#2171b5" stroke="#ffffff" stroke-width="0.8"><title>cell 305: MAI_B=15.2446</title></path><path d="M 745.18,101.44 L 745.18,62.72 L 703.70,62.72 L 703.70,101.44 L 745.18,101.44 Z" fill="#6baed6" stroke="#ffffff" stroke-width="0.8"><title>cell 306: MAI_B=11.8020</title></path><path d="M 745.18,62.72 L 745.18,24.00 L 703.70,24.00 L 703.70,62.72 L 745.18,62.72 Z" fill="#6baed6" stroke="#ffffff" stroke-width="0.8"><title>cell 307: MAI_B=11.2824</title></path><path d="M 786.66,876.00 L 786.66,837.27 L 745.18,837.27 L 745.18,876.00 L 786.66,876.00 Z" fill="#f7fbff" stroke="#ffffff" stroke-width="0.8"><title>cell 308: MAI_B=4.0315</title></path><path d="M 786.66,837.27 L 786.66,798.53 L 745.18,798.53 L 745.18,837.27 L 786.66,837.27 Z" fill="#f7fbff" stroke="#ffffff" stroke-width="0.8"><title>cell 309: MAI_B=4.0136</title></path><path d="M 786.66,798.53 L 786.66,759.80 L 745.18,759.80 L 745.18,798.53 L 786.66,798.53 Z" fill="#f7fbff" stroke="#ffffff" stroke-width="0.8"><title>cell 310: MAI_B=5.0426</title></path><path d="M 786.66,759.80 L 786.66,721.07 L 745.18,721.07 L 745.18,759.80 L 786.66,759.80 Z" fill="#f7fbff" stroke="#ffffff" stroke-width="0.8"><title>cell 311: MAI_B=5.4928</title></path><path d="M 786.66,721.07 L 786.66,682.34 L 745.18,682.34 L 745.18,721.07 L 786.66,721.07 Z" fill="#f7fbff" stroke="#ffffff" stroke-width="0.8"><title>cell 312: MAI_B=6.2187</title></path><path d="M 786.66,682.34 L 786.66,643.61 L 745.18,643.61 L 745.18,682.34 L 786.66,682.34 Z" fill="#c6dbef" stroke="#ffffff" stroke-width="0.8"><title>cell 313: MAI_B=7.7177</title></path><path d="M 786.66,643.61 L 786.66,604.88 L 745.18,604.88 L 745.18,643.61 L 786.66,643.61 Z" fill="#c6dbef" stroke="#ffffff" stroke-width="0.8"><title>cell 314: MAI_B=7.8950</title></path><path d="M 786.66,604.88 L 786.66,566.15 L 745.18,566.15 L 745.18,604.88 L 786.66,604.88 Z" fill="#6baed6" stroke="#ffffff" stroke-width="0.8"><title>cell 315: MAI_B=9.6931</title></path><path d="M 786.66,566.15 L 786.66,527.42 L 745.18,527.42 L 745.18,566.15 L 786.66,566.15 Z" fill="#6baed6" stroke="#ffffff" stroke-width="0.8"><title>cell 316: MAI_B=11.8643</title></path><path d="M 786.66,527.42 L 786.66,488.69 L 745.18,488.69 L 745.18,527.42 L 786.66,527.42 Z" fill="#6baed6" stroke="#ffffff" stroke-width="0.8"><title>cell 317: MAI_B=12.1179</title></path><path d="M 786.66,488.69 L 786.66,449.97 L 745.18,449.97 L 745.18,488.69 L 786.66,488.69 Z" fill="#6baed6" stroke="#ffffff" stroke-width="0.8"><title>cell 318: MAI_B=12.7524</title></path><path d="M 786.66,449.97 L 786.66,411.24 L 745.18,411.24 L 745.18,449.97 L 786.66,449.97 Z" fill="#2171b5" stroke="#ffffff" stroke-width="0.8"><title>cell 319: MAI_B=14.3673</title></path><path d="M 786.66,411.24 L 786.66,372.51 L 745.18,372.51 L 745.18,411.24 L 786.66,411.24 Z" fill="#2171b5" stroke="#ffffff" stroke-width="0.8"><title>cell 320: MAI_B=15.2933</title></path><path d="M 786.66,372.51 L 786.66,333.79 L 745.18,333.79 L 745.18,372.51 L 786.66,372.51 Z" fill="#08306b" stroke="#ffffff" stroke-width="0.8"><title>cell 321: MAI_B=16.2582</title></path><path d="M 786.66,333.79 L 786.66,295.06 L 745.18,295.06 L 745.18,333.79 L 786.66,333.79 Z" fill="#08306b" stroke="#ffffff" stroke-width="0.8"><title>cell 322: MAI_B=16.2500</title></path><path d="M 786.66,295.06 L 786.66,256.34 L 745.18,256.34 L 745.18,295.06 L 786.66,295.06 Z" fill="#2171b5" stroke="#ffffff" stroke-width="0.8"><title>cell 323: MAI_B=13.2172</title></path><path d="M 786.66,256.34 L 786.66,217.61 L 745.18,217.61 L 745.18,256.34 L 786.66,256.34 Z" fill="#08306b" stroke="#ffffff" stroke-width="0.8"><title>cell 324: MAI_B=16.2596</title></path><path d="M 786.66,217.61 L 786.66,178.89 L 745.18,178.89 L 745.18,217.61 L 786.66,217.61 Z" fill="#2171b5" stroke="#ffffff" stroke-width="0.8"><title>cell 325: MAI_B=14.8867</title></path><path d="M 786.66,178.89 L 786.66,140.17 L 745.18,140.17 L 745.18,178.89 L 786.66,178.89 Z" fill="#2171b5" stroke="#ffffff" stroke-width="0.8"><title>cell 326: MAI_B=15.2324</title></path><path d="M 786.66,140.17 L 786.66,101.44 L 745.18,101.44 L 745.18,140.17 L 786.66,140.17 Z" fill="#2171b5" stroke="#ffffff" stroke-width="0.8"><title>cell 327: MAI_B=13.6111</title></path><path d="M 786.66,101.44 L 786.66,62.72 L 745.18,62.72 L 745.18,101.44 L 786.66,101.44 Z" fill="#2171b5" stroke="#ffffff" stroke-width="0.8"><title>cell 328: MAI_B=13.1038</title></path><path d="M 786.66,62.72 L 786.66,24.00 L 745.18,24.00 L 745.18,62.72 L 786.66,62.72 Z" fill="#6baed6" stroke="#ffffff" stroke-width="0.8"><title>cell 329: MAI_B=11.3777</title></path><path d="M 828.14,876.00 L 828.14,837.27 L 786.66,837.27 L 786.66,876.00 L 828.14,876.00 Z" fill="#f7fbff" stroke="#ffffff" stroke-width="0.8"><title>cell 330: MAI_B=3.7532</title></path><path d="M 828.14,837.27 L 828.14,798.53 L 786.66,798.53 L 786.66,837.27 L 828.14,837.27 Z" fill="#f7fbff" stroke="#ffffff" stroke-width="0.8"><title>cell 331: MAI_B=4.8095</title></path><path d="M 828.14,798.53 L 828.14,759.80 L 786.66,759.80 L 786.66,798.53 L 828.14,798.53 Z" fill="#f7fbff" stroke="#ffffff" stroke-width="0.8"><title>cell 332: MAI_B=4.6707</title></path><path d="M 828.14,759.80 L 828.14,721.07 L 786.66,721.07 L 786.66,759.80 L 828.14,759.80 Z" fill="#f7fbff" stroke="#ffffff" stroke-width="0.8"><title>cell 333: MAI_B=5.2594</title></path><path d="M 828.14,721.07 L 828.14,682.34 L 786.66,682.34 L 786.66,721.07 L 828.14,721.07 Z" fill="#c6dbef" stroke="#ffffff" stroke-width="0.8"><title>cell 334: MAI_B=6.4329</title></path><path d="M 828.14,682.34 L 828.14,643.61 L 786.66,643.61 L 786.66,682.34 L 828.14,682.34 Z" fill="#c6dbef" stroke="#ffffff" stroke-width="0.8"><title>cell 335: MAI_B=7.2728</title></path><path d="M 828.14,643.61 L 828.14,604.88 L 786.66,604.88 L 786.66,643.61 L 828.14,643.61 Z" fill="#c6dbef" stroke="#ffffff" stroke-width="0.8"><title>cell 336: MAI_B=8.3705</title></path><path d="M 828.14,604.88 L 828.14,566.15 L 786.66,566.15 L 786.66,604.88 L 828.14,604.88 Z" fill="#c6dbef" stroke="#ffffff" stroke-width="0.8"><title>cell 337: MAI_B=9.3316</title></path><path d="M 828.14,566.15 L 828.14,527.42 L 786.66,527.42 L 786.66,566.15 L 828.14,566.15 Z" fill="#6baed6" stroke="#ffffff" stroke-width="0.8"><title>cell 338: MAI_B=10.9941</title></path><path d="M 828.14,527.42 L 828.14,488.69 L 786.66,488.69 L 786.66,527.42 L 828.14,527.42 Z" fill="#6baed6" stroke="#ffffff" stroke-width="0.8"><title>cell 339: MAI_B=11.4683</title></path><path d="M 828.14,488.69 L 828.14,449.97 L 786.66,449.97 L 786.66,488.69 L 828.14,488.69 Z" fill="#6baed6" stroke="#ffffff" stroke-width="0.8"><title>cell 340: MAI_B=11.8710</title></path><path d="M 828.14,449.97 L 828.14,411.24 L 786.66,411.24 L 786.66,449.97 L 828.14,449.97 Z" fill="#2171b5" stroke="#ffffff" stroke-width="0.8"><title>cell 341: MAI_B=13.7604</title></path><path d="M 828.14,411.24 L 828.14,372.51 L 786.66,372.51 L 786.66,411.24 L 828.14,411.24 Z" fill="#2171b5" stroke="#ffffff" stroke-width="0.8"><title>cell 342: MAI_B=14.7963</title></path><path d="M 828.14,372.51 L 828.14,333.79 L 786.66,333.79 L 786.66,372.51 L 828.14,372.51 Z" fill="#08306b" stroke="#ffffff" stroke-width="0.8"><title>cell 343: MAI_B=15.3878</title></path><path d="M 828.14,333.79 L 828.14,295.06 L 786.66,295.06 L 786.66,333.79 L 828.14,333.79 Z" fill="#08306b" stroke="#ffffff" stroke-width="0.8"><title>cell 344: MAI_B=15.3753</title></path><path d="M 828.14,295.06 L 828.14,256.34 L 786.66,256.34 L 786.66,295.06 L 828.14,295.06 Z" fill="#2171b5" stroke="#ffffff" stroke-width="0.8"><title>cell 345: MAI_B=15.2353</title></path><path d="M 828.14,256.34 L 828.14,217.61 L 786.66,217.61 L 786.66,256.34 L 828.14,256.34 Z" fill="#2171b5" stroke="#ffffff" stroke-width="0.8"><title>cell 346: MAI_B=13.8533</title></path><path d="M 828.14,217.61 L 828.14,178.89 L 786.66,178.89 L 786.66,217.61 L 828.14,217.61 Z" fill="#2171b5" stroke="#ffffff" stroke-width="0.8"><title>cell 347: MAI_B=13.8965</title></path><path d="M 828.14,178.89 L 828.14,140.17 L 786.66,140.17 L 786.66,178.89 L 828.14,178.89 Z" fill="#6baed6" stroke="#ffffff" stroke-width="0.8"><title>cell 348: MAI_B=12.9262</title></path><path d="M 828.14,140.17 L 828.14,101.44 L 786.66,101.44 L 786.66,140.17 L 828.14,140.17 Z" fill="#6baed6" stroke="#ffffff" stroke-width="0.8"><title>cell 349: MAI_B=12.9262</title></path><path d="M 828.14,101.44 L 828.14,62.72 L 786.66,62.72 L 786.66,101.44 L 828.14,101.44 Z" fill="#6baed6" stroke="#ffffff" stroke-width="0.8"><title>cell 350: MAI_B=12.6223</title></path><path d="M 828.14,62.72 L 828.14,24.00 L 786.66,24.00 L 786.66,62.72 L 828.14,62.72 Z" fill="#6baed6" stroke="#ffffff" stroke-width="0.8"><title>cell 351: MAI_B=11.2295</title></path><path d="M 869.62,876.00 L 869.62,837.27 L 828.14,837.27 L 828.14,876.00 L 869.62,876.00 Z" fill="#f7fbff" stroke="#ffffff" stroke-width="0.8"><title>cell 352: MAI_B=3.4798</title></path><path d="M 869.62,837.27 L 869.62,798.53 L 828.14,798.53 L 828.14,837.27 L 869.62,837.27 Z" fill="#f7fbff" stroke="#ffffff" stroke-width="0.8"><title>cell 353: MAI_B=4.1389</title></path><path d="M 869.62,798.53 L 869.62,759.80 L 828.14,759.80 L 828.14,798.53 L 869.62,798.53 Z" fill="#f7fbff" stroke="#ffffff" stroke-width="0.8"><title>cell 354: MAI_B=4.3738</title></path><path d="M 869.62,759.80 L 869.62,721.07 L 828.14,721.07 L 828.14,759.80 L 869.62,759.80 Z" fill="#f7fbff" stroke="#ffffff" stroke-width="0.8"><title>cell 355: MAI_B=5.5867</title></path><path d="M 869.62,721.07 L 869.62,682.34 L 828.14,682.34 L 828.14,721.07 L 869.62,721.07 Z" fill="#f7fbff" stroke="#ffffff" stroke-width="0.8"><title>cell 356: MAI_B=5.9815</title></path><path d="M 869.62,682.34 L 869.62,643.61 L 828.14,643.61 L 828.14,682.34 L 869.62,682.34 Z" fill="#c6dbef" stroke="#ffffff" stroke-width="0.8"><title>cell 357: MAI_B=7.2244</title></path><path d="M 869.62,643.61 L 869.62,604.88 L 828.14,604.88 L 828.14,643.61 L 869.62,643.61 Z" fill="#c6dbef" stroke="#ffffff" stroke-width="0.8"><title>cell 358: MAI_B=7.8847</title></path><path d="M 869.62,604.88 L 869.62,566.15 L 828.14,566.15 L 828.14,604.88 L 869.62,604.88 Z" fill="#c6dbef" stroke="#ffffff" stroke-width="0.8"><title>cell 359: MAI_B=9.1489</title></path><path d="M 869.62,566.15 L 869.62,527.42 L 828.14,527.42 L 828.14,566.15 L 869.62,566.15 Z" fill="#6baed6" stroke="#ffffff" stroke-width="0.8"><title>cell 360: MAI_B=10.7667</title></path><path d="M 869.62,527.42 L 869.62,488.69 L 828.14,488.69 L 828.14,527.42 L 869.62,527.42 Z" fill="#6baed6" stroke="#ffffff" stroke-width="0.8"><title>cell 361: MAI_B=11.0719</title></path><path d="M 869.62,488.69 L 869.62,449.97 L 828.14,449.97 L 828.14,488.69 L 869.62,488.69 Z" fill="#6baed6" stroke="#ffffff" stroke-width="0.8"><title>cell 362: MAI_B=12.2216</title></path><path d="M 869.62,449.97 L 869.62,411.24 L 828.14,411.24 L 828.14,449.97 L 869.62,449.97 Z" fill="#2171b5" stroke="#ffffff" stroke-width="0.8"><title>cell 363: MAI_B=13.3209</title></path><path d="M 869.62,411.24 L 869.62,372.51 L 828.14,372.51 L 828.14,411.24 L 869.62,411.24 Z" fill="#2171b5" stroke="#ffffff" stroke-width="0.8"><title>cell 364: MAI_B=13.8192</title></path><path d="M 869.62,372.51 L 869.62,333.79 L 828.14,333.79 L 828.14,372.51 L 869.62,372.51 Z" fill="#6baed6" stroke="#ffffff" stroke-width="0.8"><title>cell 365: MAI_B=11.9756</title></path><path d="M 869.62,333.79 L 869.62,295.06 L 828.14,295.06 L 828.14,333.79 L 869.62,333.79 Z" fill="#6baed6" stroke="#ffffff" stroke-width="0.8"><title>cell 366: MAI_B=11.9756</title></path><path d="M 869.62,295.06 L 869.62,256.34 L 828.14,256.34 L 828.14,295.06 L 869.62,295.06 Z" fill="#2171b5" stroke="#ffffff" stroke-width="0.8"><title>cell 367: MAI_B=14.2082</title></path><path d="M 869.62,256.34 L 869.62,217.61 L 828.14,217.61 L 828.14,256.34 L 869.62,256.34 Z" fill="#2171b5" stroke="#ffffff" stroke-width="0.8"><title>cell 368: MAI_B=13.6414</title></path><path d="M 869.62,217.61 L 869.62,178.89 L 828.14,178.89 L 828.14,217.61 L 869.62,217.61 Z" fill="#2171b5" stroke="#ffffff" stroke-width="0.8"><title>cell 369: MAI_B=13.5593</title></path><path d="M 869.62,178.89 L 869.62,140.17 L 828.14,140.17 L 828.14,178.89 L 869.62,178.89 Z" fill="#6baed6" stroke="#ffffff" stroke-width="0.8"><title>cell 370: MAI_B=12.2761</title></path><path d="M 869.62,140.17 L 869.62,101.44 L 828.14,101.44 L 828.14,140.17 L 869.62,140.17 Z" fill="#6baed6" stroke="#ffffff" stroke-width="0.8"><title>cell 371: MAI_B=11.5910</title></path><path d="M 869.62,101.44 L 869.62,62.72 L 828.14,62.72 L 828.14,101.44 L 869.62,101.44 Z" fill="#6baed6" stroke="#ffffff" stroke-width="0.8"><title>cell 372: MAI_B=11.1135</title></path><path d="M 869.62,62.72 L 869.62,24.00 L 828.14,24.00 L 828.14,62.72 L 869.62,62.72 Z" fill="#6baed6" stroke="#ffffff" stroke-width="0.8"><title>cell 373: MAI_B=10.6052</title></path><path d="M 911.11,876.00 L 911.11,837.27 L 869.62,837.27 L 869.62,876.00 L 911.11,876.00 Z" fill="#f7fbff" stroke="#ffffff" stroke-width="0.8"><title>cell 374: MAI_B=3.3823</title></path><path d="M 911.11,837.27 L 911.11,798.53 L 869.62,798.53 L 869.62,837.27 L 911.11,837.27 Z" fill="#f7fbff" stroke="#ffffff" stroke-width="0.8"><title>cell 375: MAI_B=3.3135</title></path><path d="M 911.11,798.53 L 911.11,759.80 L 869.62,759.80 L 869.62,798.53 L 911.11,798.53 Z" fill="#f7fbff" stroke="#ffffff" stroke-width="0.8"><title>cell 376: MAI_B=3.2184</title></path><path d="M 911.11,759.80 L 911.11,721.07 L 869.62,721.07 L 869.62,759.80 L 911.11,759.80 Z" fill="#f7fbff" stroke="#ffffff" stroke-width="0.8"><title>cell 377: MAI_B=3.1172</title></path><path d="M 911.11,721.07 L 911.11,682.34 L 869.62,682.34 L 869.62,721.07 L 911.11,721.07 Z" fill="#f7fbff" stroke="#ffffff" stroke-width="0.8"><title>cell 378: MAI_B=5.3645</title></path><path d="M 911.11,682.34 L 911.11,643.61 L 869.62,643.61 L 869.62,682.34 L 911.11,682.34 Z" fill="#c6dbef" stroke="#ffffff" stroke-width="0.8"><title>cell 379: MAI_B=6.6148</title></path><path d="M 911.11,643.61 L 911.11,604.88 L 869.62,604.88 L 869.62,643.61 L 911.11,643.61 Z" fill="#c6dbef" stroke="#ffffff" stroke-width="0.8"><title>cell 380: MAI_B=7.9664</title></path><path d="M 911.11,604.88 L 911.11,566.15 L 869.62,566.15 L 869.62,604.88 L 911.11,604.88 Z" fill="#c6dbef" stroke="#ffffff" stroke-width="0.8"><title>cell 381: MAI_B=9.3147</title></path><path d="M 911.11,566.15 L 911.11,527.42 L 869.62,527.42 L 869.62,566.15 L 911.11,566.15 Z" fill="#2171b5" stroke="#ffffff" stroke-width="0.8"><title>cell 382: MAI_B=13.5671</title></path><path d="M 911.11,527.42 L 911.11,488.69 L 869.62,488.69 L 869.62,527.42 L 911.11,527.42 Z" fill="#6baed6" stroke="#ffffff" stroke-width="0.8"><title>cell 383: MAI_B=12.0700</title></path><path d="M 911.11,488.69 L 911.11,449.97 L 869.62,449.97 L 869.62,488.69 L 911.11,488.69 Z" fill="#6baed6" stroke="#ffffff" stroke-width="0.8"><title>cell 384: MAI_B=12.4833</title></path><path d="M 911.11,449.97 L 911.11,411.24 L 869.62,411.24 L 869.62,449.97 L 911.11,449.97 Z" fill="#6baed6" stroke="#ffffff" stroke-width="0.8"><title>cell 385: MAI_B=12.6754</title></path><path d="M 911.11,411.24 L 911.11,372.51 L 869.62,372.51 L 869.62,411.24 L 911.11,411.24 Z" fill="#c6dbef" stroke="#ffffff" stroke-width="0.8"><title>cell 386: MAI_B=8.1045</title></path><path d="M 911.11,372.51 L 911.11,333.79 L 869.62,333.79 L 869.62,372.51 L 911.11,372.51 Z" fill="#6baed6" stroke="#ffffff" stroke-width="0.8"><title>cell 387: MAI_B=11.9756</title></path><path d="M 911.11,333.79 L 911.11,295.06 L 869.62,295.06 L 869.62,333.79 L 911.11,333.79 Z" fill="#6baed6" stroke="#ffffff" stroke-width="0.8"><title>cell 388: MAI_B=11.9756</title></path><path d="M 911.11,295.06 L 911.11,256.34 L 869.62,256.34 L 869.62,295.06 L 911.11,295.06 Z" fill="#6baed6" stroke="#ffffff" stroke-width="0.8"><title>cell 389: MAI_B=11.1311</title></path><path d="M 911.11,256.34 L 911.11,217.61 L 869.62,217.61 L 869.62,256.34 L 911.11,256.34 Z" fill="#6baed6" stroke="#ffffff" stroke-width="0.8"><title>cell 390: MAI_B=11.6569</title></path><path d="M 911.11,217.61 L 911.11,178.89 L 869.62,178.89 L 869.62,217.61 L 911.11,217.61 Z" fill="#6baed6" stroke="#ffffff" stroke-width="0.8"><title>cell 391: MAI_B=10.9112</title></path><path d="M 911.11,178.89 L 911.11,140.17 L 869.62,140.17 L 869.62,178.89 L 911.11,178.89 Z" fill="#6baed6" stroke="#ffffff" stroke-width="0.8"><title>cell 392: MAI_B=10.8722</title></path><path d="M 911.11,140.17 L 911.11,101.44 L 869.62,101.44 L 869.62,140.17 L 911.11,140.17 Z" fill="#6baed6" stroke="#ffffff" stroke-width="0.8"><title>cell 393: MAI_B=10.1768</title></path><path d="M 911.11,101.44 L 911.11,62.72 L 869.62,62.72 L 869.62,101.44 L 911.11,101.44 Z" fill="#c6dbef" stroke="#ffffff" stroke-width="0.8"><title>cell 394: MAI_B=7.0117</title></path><path d="M 911.11,62.72 L 911.11,24.00 L 869.62,24.00 L 869.62,62.72 L 911.11,62.72 Z" fill="#c6dbef" stroke="#ffffff" stroke-width="0.8"><title>cell 395: MAI_B=7.9677</title></path><path d="M 952.59,876.00 L 952.59,837.27 L 911.11,837.27 L 911.11,876.00 L 952.59,876.00 Z" fill="#f7fbff" stroke="#ffffff" stroke-width="0.8"><title>cell 396: MAI_B=2.9234</title></path><path d="M 952.59,837.27 L 952.59,798.53 L 911.11,798.53 L 911.11,837.27 L 952.59,837.27 Z" fill="#f7fbff" stroke="#ffffff" stroke-width="0.8"><title>cell 397: MAI_B=3.3331</title></path><path d="M 952.59,798.53 L 952.59,759.80 L 911.11,759.80 L 911.11,798.53 L 952.59,798.53 Z" fill="#f7fbff" stroke="#ffffff" stroke-width="0.8"><title>cell 398: MAI_B=3.4527</title></path><path d="M 952.59,759.80 L 952.59,721.07 L 911.11,721.07 L 911.11,759.80 L 952.59,759.80 Z" fill="#f7fbff" stroke="#ffffff" stroke-width="0.8"><title>cell 399: MAI_B=4.1711</title></path><path d="M 952.59,721.07 L 952.59,682.34 L 911.11,682.34 L 911.11,721.07 L 952.59,721.07 Z" fill="#f7fbff" stroke="#ffffff" stroke-width="0.8"><title>cell 400: MAI_B=4.1251</title></path><path d="M 952.59,682.34 L 952.59,643.61 L 911.11,643.61 L 911.11,682.34 L 952.59,682.34 Z" fill="#f7fbff" stroke="#ffffff" stroke-width="0.8"><title>cell 401: MAI_B=5.9856</title></path><path d="M 952.59,643.61 L 952.59,604.88 L 911.11,604.88 L 911.11,643.61 L 952.59,643.61 Z" fill="#c6dbef" stroke="#ffffff" stroke-width="0.8"><title>cell 402: MAI_B=6.6551</title></path><path d="M 952.59,604.88 L 952.59,566.15 L 911.11,566.15 L 911.11,604.88 L 952.59,604.88 Z" fill="#c6dbef" stroke="#ffffff" stroke-width="0.8"><title>cell 403: MAI_B=7.8226</title></path><path d="M 952.59,566.15 L 952.59,527.42 L 911.11,527.42 L 911.11,566.15 L 952.59,566.15 Z" fill="#c6dbef" stroke="#ffffff" stroke-width="0.8"><title>cell 404: MAI_B=8.7606</title></path><path d="M 952.59,527.42 L 952.59,488.69 L 911.11,488.69 L 911.11,527.42 L 952.59,527.42 Z" fill="#c6dbef" stroke="#ffffff" stroke-width="0.8"><title>cell 405: MAI_B=8.5350</title></path><path d="M 952.59,488.69 L 952.59,449.97 L 911.11,449.97 L 911.11,488.69 L 952.59,488.69 Z" fill="#2171b5" stroke="#ffffff" stroke-width="0.8"><title>cell 406: MAI_B=14.0229</title></path><path d="M 952.59,449.97 L 952.59,411.24 L 911.11,411.24 L 911.11,449.97 L 952.59,449.97 Z" fill="#2171b5" stroke="#ffffff" stroke-width="0.8"><title>cell 407: MAI_B=13.6198</title></path><path d="M 952.59,411.24 L 952.59,372.51 L 911.11,372.51 L 911.11,411.24 L 952.59,411.24 Z" fill="#2171b5" stroke="#ffffff" stroke-width="0.8"><title>cell 408: MAI_B=13.9865</title></path><path d="M 952.59,372.51 L 952.59,333.79 L 911.11,333.79 L 911.11,372.51 L 952.59,372.51 Z" fill="#6baed6" stroke="#ffffff" stroke-width="0.8"><title>cell 409: MAI_B=9.8075</title></path><path d="M 952.59,333.79 L 952.59,295.06 L 911.11,295.06 L 911.11,333.79 L 952.59,333.79 Z" fill="#c6dbef" stroke="#ffffff" stroke-width="0.8"><title>cell 410: MAI_B=8.5714</title></path><path d="M 952.59,295.06 L 952.59,256.34 L 911.11,256.34 L 911.11,295.06 L 952.59,295.06 Z" fill="#6baed6" stroke="#ffffff" stroke-width="0.8"><title>cell 411: MAI_B=10.7177</title></path><path d="M 952.59,256.34 L 952.59,217.61 L 911.11,217.61 L 911.11,256.34 L 952.59,256.34 Z" fill="#6baed6" stroke="#ffffff" stroke-width="0.8"><title>cell 412: MAI_B=9.9746</title></path><path d="M 952.59,217.61 L 952.59,178.89 L 911.11,178.89 L 911.11,217.61 L 952.59,217.61 Z" fill="#6baed6" stroke="#ffffff" stroke-width="0.8"><title>cell 413: MAI_B=10.3509</title></path><path d="M 952.59,178.89 L 952.59,140.17 L 911.11,140.17 L 911.11,178.89 L 952.59,178.89 Z" fill="#6baed6" stroke="#ffffff" stroke-width="0.8"><title>cell 414: MAI_B=9.6825</title></path><path d="M 952.59,140.17 L 952.59,101.44 L 911.11,101.44 L 911.11,140.17 L 952.59,140.17 Z" fill="#c6dbef" stroke="#ffffff" stroke-width="0.8"><title>cell 415: MAI_B=8.6635</title></path><path d="M 952.59,101.44 L 952.59,62.72 L 911.11,62.72 L 911.11,101.44 L 952.59,101.44 Z" fill="#c6dbef" stroke="#ffffff" stroke-width="0.8"><title>cell 416: MAI_B=9.1918</title></path><path d="M 952.59,62.72 L 952.59,24.00 L 911.11,24.00 L 911.11,62.72 L 952.59,62.72 Z" fill="#c6dbef" stroke="#ffffff" stroke-width="0.8"><title>cell 417: MAI_B=7.8633</title></path><path d="M 994.07,876.00 L 994.07,837.27 L 952.59,837.27 L 952.59,876.00 L 994.07,876.00 Z" fill="#f7fbff" stroke="#ffffff" stroke-width="0.8"><title>cell 418: MAI_B=2.7287</title></path><path d="M 994.07,837.27 L 994.07,798.53 L 952.59,798.53 L 952.59,837.27 L 994.07,837.27 Z" fill="#f7fbff" stroke="#ffffff" stroke-width="0.8"><title>cell 419: MAI_B=3.2295</title></path><path d="M 994.07,798.53 L 994.07,759.80 L 952.59,759.80 L 952.59,798.53 L 994.07,798.53 Z" fill="#f7fbff" stroke="#ffffff" stroke-width="0.8"><title>cell 420: MAI_B=3.2295</title></path><path d="M 994.07,759.80 L 994.07,721.07 L 952.59,721.07 L 952.59,759.80 L 994.07,759.80 Z" fill="#f7fbff" stroke="#ffffff" stroke-width="0.8"><title>cell 421: MAI_B=3.7194</title></path><path d="M 994.07,721.07 L 994.07,682.34 L 952.59,682.34 L 952.59,721.07 L 994.07,721.07 Z" fill="#f7fbff" stroke="#ffffff" stroke-width="0.8"><title>cell 422: MAI_B=4.4635</title></path><path d="M 994.07,682.34 L 994.07,643.61 L 952.59,643.61 L 952.59,682.34 L 994.07,682.34 Z" fill="#f7fbff" stroke="#ffffff" stroke-width="0.8"><title>cell 423: MAI_B=5.6035</title></path><path d="M 994.07,643.61 L 994.07,604.88 L 952.59,604.88 L 952.59,643.61 L 994.07,643.61 Z" fill="#c6dbef" stroke="#ffffff" stroke-width="0.8"><title>cell 424: MAI_B=6.4749</title></path><path d="M 994.07,604.88 L 994.07,566.15 L 952.59,566.15 L 952.59,604.88 L 994.07,604.88 Z" fill="#f7fbff" stroke="#ffffff" stroke-width="0.8"><title>cell 425: MAI_B=6.1415</title></path><path d="M 994.07,566.15 L 994.07,527.42 L 952.59,527.42 L 952.59,566.15 L 994.07,566.15 Z" fill="#c6dbef" stroke="#ffffff" stroke-width="0.8"><title>cell 426: MAI_B=7.1696</title></path><path d="M 994.07,527.42 L 994.07,488.69 L 952.59,488.69 L 952.59,527.42 L 994.07,527.42 Z" fill="#f7fbff" stroke="#ffffff" stroke-width="0.8"><title>cell 427: MAI_B=5.8194</title></path><path d="M 994.07,488.69 L 994.07,449.97 L 952.59,449.97 L 952.59,488.69 L 994.07,488.69 Z" fill="#c6dbef" stroke="#ffffff" stroke-width="0.8"><title>cell 428: MAI_B=8.7167</title></path><path d="M 994.07,449.97 L 994.07,411.24 L 952.59,411.24 L 952.59,449.97 L 994.07,449.97 Z" fill="#c6dbef" stroke="#ffffff" stroke-width="0.8"><title>cell 429: MAI_B=7.5672</title></path><path d="M 994.07,411.24 L 994.07,372.51 L 952.59,372.51 L 952.59,411.24 L 994.07,411.24 Z" fill="#c6dbef" stroke="#ffffff" stroke-width="0.8"><title>cell 430: MAI_B=8.7129</title></path><path d="M 994.07,372.51 L 994.07,333.79 L 952.59,333.79 L 952.59,372.51 L 994.07,372.51 Z" fill="#6baed6" stroke="#ffffff" stroke-width="0.8"><title>cell 431: MAI_B=9.6930</title></path><path d="M 994.07,333.79 L 994.07,295.06 L 952.59,295.06 L 952.59,333.79 L 994.07,333.79 Z" fill="#c6dbef" stroke="#ffffff" stroke-width="0.8"><title>cell 432: MAI_B=9.2584</title></path><path d="M 994.07,295.06 L 994.07,256.34 L 952.59,256.34 L 952.59,295.06 L 994.07,295.06 Z" fill="#6baed6" stroke="#ffffff" stroke-width="0.8"><title>cell 433: MAI_B=9.6575</title></path><path d="M 994.07,256.34 L 994.07,217.61 L 952.59,217.61 L 952.59,256.34 L 994.07,256.34 Z" fill="#c6dbef" stroke="#ffffff" stroke-width="0.8"><title>cell 434: MAI_B=9.1372</title></path><path d="M 994.07,217.61 L 994.07,178.89 L 952.59,178.89 L 952.59,217.61 L 994.07,217.61 Z" fill="#c6dbef" stroke="#ffffff" stroke-width="0.8"><title>cell 435: MAI_B=9.0719</title></path><path d="M 994.07,178.89 L 994.07,140.17 L 952.59,140.17 L 952.59,178.89 L 994.07,178.89 Z" fill="#c6dbef" stroke="#ffffff" stroke-width="0.8"><title>cell 436: MAI_B=8.4776</title></path><path d="M 994.07,140.17 L 994.07,101.44 L 952.59,101.44 L 952.59,140.17 L 994.07,140.17 Z" fill="#c6dbef" stroke="#ffffff" stroke-width="0.8"><title>cell 437: MAI_B=7.8550</title></path><path d="M 994.07,101.44 L 994.07,62.72 L 952.59,62.72 L 952.59,101.44 L 994.07,101.44 Z" fill="#c6dbef" stroke="#ffffff" stroke-width="0.8"><title>cell 438: MAI_B=7.7328</title></path><path d="M 994.07,62.72 L 994.07,24.00 L 952.59,24.00 L 952.59,62.72 L 994.07,62.72 Z" fill="#c6dbef" stroke="#ffffff" stroke-width="0.8"><title>cell 439: MAI_B=7.7566</title></path><path d="M 1035.55,876.00 L 1035.55,837.27 L 994.07,837.27 L 994.07,876.00 L 1035.55,876.00 Z" fill="#f7fbff" stroke="#ffffff" stroke-width="0.8"><title>cell 440: MAI_B=2.7287</title></path><path d="M 1035.55,837.27 L 1035.55,798.53 L 994.07,798.53 L 994.07,837.27 L 1035.55,837.27 Z" fill="#f7fbff" stroke="#ffffff" stroke-width="0.8"><title>cell 441: MAI_B=3.2295</title></path><path d="M 1035.55,798.53 L 1035.55,759.80 L 994.07,759.80 L 994.07,798.53 L 1035.55,798.53 Z" fill="#f7fbff" stroke="#ffffff" stroke-width="0.8"><title>cell 442: MAI_B=3.5506</title></path><path d="M 1035.55,759.80 L 1035.55,721.07 L 994.07,721.07 L 994.07,759.80 L 1035.55,759.80 Z" fill="#f7fbff" stroke="#ffffff" stroke-width="0.8"><title>cell 443: MAI_B=3.5875</title></path><path d="M 1035.55,721.07 L 1035.55,682.34 L 994.07,682.34 L 994.07,721.07 L 1035.55,721.07 Z" fill="#f7fbff" stroke="#ffffff" stroke-width="0.8"><title>cell 444: MAI_B=4.5273</title></path><path d="M 1035.55,682.34 L 1035.55,643.61 L 994.07,643.61 L 994.07,682.34 L 1035.55,682.34 Z" fill="#f7fbff" stroke="#ffffff" stroke-width="0.8"><title>cell 445: MAI_B=5.5265</title></path><path d="M 1035.55,643.61 L 1035.55,604.88 L 994.07,604.88 L 994.07,643.61 L 1035.55,643.61 Z" fill="#f7fbff" stroke="#ffffff" stroke-width="0.8"><title>cell 446: MAI_B=5.8727</title></path><path d="M 1035.55,604.88 L 1035.55,566.15 L 994.07,566.15 L 994.07,604.88 L 1035.55,604.88 Z" fill="#f7fbff" stroke="#ffffff" stroke-width="0.8"><title>cell 447: MAI_B=6.1389</title></path><path d="M 1035.55,566.15 L 1035.55,527.42 L 994.07,527.42 L 994.07,566.15 L 1035.55,566.15 Z" fill="#f7fbff" stroke="#ffffff" stroke-width="0.8"><title>cell 448: MAI_B=6.1389</title></path><path d="M 1035.55,527.42 L 1035.55,488.69 L 994.07,488.69 L 994.07,527.42 L 1035.55,527.42 Z" fill="#f7fbff" stroke="#ffffff" stroke-width="0.8"><title>cell 449: MAI_B=6.2295</title></path><path d="M 1035.55,488.69 L 1035.55,449.97 L 994.07,449.97 L 994.07,488.69 L 1035.55,488.69 Z" fill="#c6dbef" stroke="#ffffff" stroke-width="0.8"><title>cell 450: MAI_B=8.4249</title></path><path d="M 1035.55,449.97 L 1035.55,411.24 L 994.07,411.24 L 994.07,449.97 L 1035.55,449.97 Z" fill="#c6dbef" stroke="#ffffff" stroke-width="0.8"><title>cell 451: MAI_B=7.8614</title></path><path d="M 1035.55,411.24 L 1035.55,372.51 L 994.07,372.51 L 994.07,411.24 L 1035.55,411.24 Z" fill="#c6dbef" stroke="#ffffff" stroke-width="0.8"><title>cell 452: MAI_B=8.7514</title></path><path d="M 1035.55,372.51 L 1035.55,333.79 L 994.07,333.79 L 994.07,372.51 L 1035.55,372.51 Z" fill="#c6dbef" stroke="#ffffff" stroke-width="0.8"><title>cell 453: MAI_B=8.6837</title></path><path d="M 1035.55,333.79 L 1035.55,295.06 L 994.07,295.06 L 994.07,333.79 L 1035.55,333.79 Z" fill="#c6dbef" stroke="#ffffff" stroke-width="0.8"><title>cell 454: MAI_B=8.6086</title></path><path d="M 1035.55,295.06 L 1035.55,256.34 L 994.07,256.34 L 994.07,295.06 L 1035.55,295.06 Z" fill="#c6dbef" stroke="#ffffff" stroke-width="0.8"><title>cell 455: MAI_B=9.1720</title></path><path d="M 1035.55,256.34 L 1035.55,217.61 L 994.07,217.61 L 994.07,256.34 L 1035.55,256.34 Z" fill="#c6dbef" stroke="#ffffff" stroke-width="0.8"><title>cell 456: MAI_B=8.6086</title></path><path d="M 1035.55,217.61 L 1035.55,178.89 L 994.07,178.89 L 994.07,217.61 L 1035.55,217.61 Z" fill="#c6dbef" stroke="#ffffff" stroke-width="0.8"><title>cell 457: MAI_B=8.2504</title></path><path d="M 1035.55,178.89 L 1035.55,140.17 L 994.07,140.17 L 994.07,178.89 L 1035.55,178.89 Z" fill="#c6dbef" stroke="#ffffff" stroke-width="0.8"><title>cell 458: MAI_B=8.2504</title></path><path d="M 1035.55,140.17 L 1035.55,101.44 L 994.07,101.44 L 994.07,140.17 L 1035.55,140.17 Z" fill="#c6dbef" stroke="#ffffff" stroke-width="0.8"><title>cell 459: MAI_B=7.7330</title></path><path d="M 1035.55,101.44 L 1035.55,62.72 L 994.07,62.72 L 994.07,101.44 L 1035.55,101.44 Z" fill="#c6dbef" stroke="#ffffff" stroke-width="0.8"><title>cell 460: MAI_B=7.6855</title></path><path d="M 1035.55,62.72 L 1035.55,24.00 L 994.07,24.00 L 994.07,62.72 L 1035.55,62.72 Z" fill="#c6dbef" stroke="#ffffff" stroke-width="0.8"><title>cell 461: MAI_B=7.3903</title></path></g>
<text x="40" y="44" font-family="Arial" font-size="28" font-weight="700">MAI_B</text>
<rect x="40" y="80" width="22" height="18" fill="#e0e0e0"/><text x="72" y="94" font-size="16">Zero access</text><rect x="40" y="108" width="22" height="18" fill="#f7fbff"/><text x="72" y="122" font-size="16">positive quantile 1</text><rect x="40" y="136" width="22" height="18" fill="#c6dbef"/><text x="72" y="150" font-size="16">positive quantile 2</text><rect x="40" y="164" width="22" height="18" fill="#6baed6"/><text x="72" y="178" font-size="16">positive quantile 3</text><rect x="40" y="192" width="22" height="18" fill="#2171b5"/><text x="72" y="206" font-size="16">positive quantile 4</text><rect x="40" y="220" width="22" height="18" fill="#08306b"/><text x="72" y="234" font-size="16">positive quantile 5</text>
</svg>
