<svg xmlns="http://www.w3.org/2000/svg" width="1200" height="900" viewBox="0 0 1200 900">
<rect width="100%" height="100%" fill="#ffffff"/>
<g><path d="M 205.93,876.00 L 205.93,837.27 L 164.45,837.27 L 164.45,876.00 L 205.93,876.00 Z" fill="#6baed6" stroke="#ffffff" stroke-width="0.8"><title>cell 0: NAI=5.0000</title></path><path d="M 205.93,837.27 L 205.93,798.53 L 164.45,798.53 L 164.45,837.27 L 205.93,837.27 Z" fill="#2171b5" stroke="#ffffff" stroke-width="0.8"><title>cell 1: NAI=8.0000</title></path><path d="M 205.93,798.53 L 205.93,759.80 L 164.45,759.80 L 164.45,798.53 L 205.93,798.53 Z" fill="#c6dbef" stroke="#ffffff" stroke-width="0.8"><title>cell 2: NAI=2.0000</title></path><path d="M 205.93,759.80 L 205.93,721.07 L 164.45,721.07 L 164.45,759.80 L 205.93,759.80 Z" fill="#c6dbef" stroke="#ffffff" stroke-width="0.8"><title>cell 3: NAI=2.0000</title></path><path d="M 205.93,721.07 L 205.93,682.34 L 164.45,682.34 L 164.45,721.07 L 205.93,721.07 Z" fill="#f7fbff" stroke="#ffffff" stroke-width="0.8"><title>cell 4: NAI=1.0000</title></path><path d="M 205.93,682.34 L 205.93,643.61 L 164.45,643.61 L 164.45,682.34 L 205.93,682.34 Z" fill="#f7fbff" stroke="#ffffff" stroke-width="0.8"><title>cell 5: NAI=1.0000</title></path><path d="M 205.93,643.61 L 205.93,604.88 L 164.45,604.88 L 164.45,643.61 L 205.93,643.61 Z" fill="#c6dbef" stroke="#ffffff" stroke-width="0.8"><title>cell 6: NAI=3.0000</title></path><path d="M 205.93,604.88 L 205.93,566.15 L 164.45,566.15 L 164.45,604.88 L 205.93,604.88 Z" fill="#6baed6" stroke="#ffffff" stroke-width="0.8"><title>cell 7: NAI=6.0000</title></path><path d="M 205.93,566.15 L 205.93,527.42 L 164.45,527.42 L 164.45,566.15 L 205.93,566.15 Z" fill="#6baed6" stroke="#ffffff" stroke-width="0.8"><title>cell 8: NAI=6.0000</title></path><path d="M 205.93,527.42 L 205.93,488.69 L 164.45,488.69 L 164.45,527.42 L 205.93,527.42 Z" fill="#c6dbef" stroke="#ffffff" stroke-width="0.8"><title>cell 9: NAI=2.0000</title></path><path d="M 205.93,488.69 L 205.93,449.97 L 164.45,449.97 L 164.45,488.69 L 205.93,488.69 Z" fill="#e0e0e0" stroke="#ffffff" stroke-width="0.8"><title>cell 10: NAI=0.0000</title></path><path d="M 205.93,449.97 L 205.93,411.24 L 164.45,411.24 L 164.45,449.97 L 205.93,449.97 Z" fill="#e0e0e0" stroke="#ffffff" stroke-width="0.8"><title>cell 11: NAI=0.0000</title></path><path d="M 205.93,411.24 L 205.93,372.51 L 164.45,372.51 L 164.45,411.24 L 205.93,411.24 Z" fill="#e0e0e0" stroke="#ffffff" stroke-width="0.8"><title>cell 12: NAI=0.0000</title></path><path d="M 205.93,372.51 L 205.93,333.79 L 164.45,333.79 L 164.45,372.51 L 205.93,372.51 Z" fill="#e0e0e0" stroke="#ffffff" stroke-width="0.8"><title>cell 13: NAI=0.0000</title></path><path d="M 205.93,333.79 L 205.93,295.06 L 164.45,295.06 L 164.45,333.79 L 205.93,333.79 Z" fill="#e0e0e0" stroke="#ffffff" stroke-width="0.8"><title>cell 14: NAI=0.0000</title></path><path d="M 205.93,295.06 L 205.93,256.34 L 164.45,256.34 L 164.45,295.06 L 205.93,295.06 Z" fill="#f7fbff" stroke="#ffffff" stroke-width="0.8"><title>cell 15: NAI=1.0000</title></path><path d="M 205.93,256.34 L 205.93,217.61 L 164.45,217.61 L 164.45,256.34 L 205.93,256.34 Z" fill="#f7fbff" stroke="#ffffff" stroke-width="0.8"><title>cell 16: NAI=1.0000</title></path><path d="M 205.93,217.61 L 205.93,178.89 L 164.45,178.89 L 164.45,217.61 L 205.93,217.61 Z" fill="#c6dbef" stroke="#ffffff" stroke-width="0.8"><title>cell 17: NAI=4.0000</title></path><path d="M 205.93,178.89 L 205.93,140.17 L 164.45,140.17 L 164.45,178.89 L 205.93,178.89 Z" fill="#6baed6" stroke="#ffffff" stroke-width="0.8"><title>cell 18: NAI=5.0000</title></path><path d="M 205.93,140.17 L 205.93,101.44 L 164.45,101.44 L 164.45,140.17 L 205.93,140.17 Z" fill="#c6dbef" stroke="#ffffff" stroke-width="0.8"><title>cell 19: NAI=3.0000</title></path><path d="M 205.93,101.44 L 205.93,62.72 L 164.45,62.72 L 164.45,101.44 L 205.93,101.44 Z" fill="#f7fbff" stroke="#ffffff" stroke-width="0.8"><title>cell 20: NAI=1.0000</title></path><path d="M 205.93,62.72 L 205.93,24.00 L 164.45,24.00 L 164.45,62.72 L 205.93,62.72 Z" fill="#c6dbef" stroke="#ffffff" stroke-width="0.8"><title>cell 21: NAI=2.0000</title></path><path d="M 247.41,876.00 L 247.41,837.27 L 205.93,837.27 L 205.93,876.00 L 247.41,876.00 Z" fill="#6baed6" stroke="#ffffff" stroke-width="0.8"><title>cell 22: NAI=6.0000</title></path><path d="M 247.41,837.27 L 247.41,798.53 L 205.93,798.53 L 205.93,837.27 L 247.41,837.27 Z" fill="#2171b5" stroke="#ffffff" stroke-width="0.8"><title>cell 23: NAI=8.0000</title></path><path d="M 247.41,798.53 L 247.41,759.80 L 205.93,759.80 L 205.93,798.53 L 247.41,798.53 Z" fill="#c6dbef" stroke="#ffffff" stroke-width="0.8"><title>cell 24: NAI=2.0000</title></path><path d="M 247.41,759.80 L 247.41,721.07 L 205.93,721.07 L 205.93,759.80 L 247.41,759.80 Z" fill="#c6dbef" stroke="#ffffff" stroke-width="0.8"><title>cell 25: NAI=3.0000</title></path><path d="M 247.41,721.07 L 247.41,682.34 L 205.93,682.34 L 205.93,721.07 L 247.41,721.07 Z" fill="#c6dbef" stroke="#ffffff" stroke-width="0.8"><title>cell 26: NAI=3.0000</title></path><path d="M 247.41,682.34 L 247.41,643.61 L 205.93,643.61 L 205.93,682.34 L 247.41,682.34 Z" fill="#6baed6" stroke="#ffffff" stroke-width="0.8"><title>cell 27: NAI=5.0000</title></path><path d="M 247.41,643.61 L 247.41,604.88 L 205.93,604.88 L 205.93,643.61 L 247.41,643.61 Z" fill="#2171b5" stroke="#ffffff" stroke-width="0.8"><title>cell 28: NAI=8.0000</title></path><path d="M 247.41,604.88 L 247.41,566.15 L 205.93,566.15 L 205.93,604.88 L 247.41,604.88 Z" fill="#6baed6" stroke="#ffffff" stroke-width="0.8"><title>cell 29: NAI=6.0000</title></path><path d="M 247.41,566.15 L 247.41,527.42 L 205.93,527.42 L 205.93,566.15 L 247.41,566.15 Z" fill="#c6dbef" stroke="#ffffff" stroke-width="0.8"><title>cell 30: NAI=4.0000</title></path><path d="M 247.41,527.42 L 247.41,488.69 L 205.93,488.69 L 205.93,527.42 L 247.41,527.42 Z" fill="#c6dbef" stroke="#ffffff" stroke-width="0.8"><title>cell 31: NAI=2.0000</title></path><path d="M 247.41,488.69 L 247.41,449.97 L 205.93,449.97 L 205.93,488.69 L 247.41,488.69 Z" fill="#e0e0e0" stroke="#ffffff" stroke-width="0.8"><title>cell 32: NAI=0.0000</title></path><path d="M 247.41,449.97 L 247.41,411.24 L 205.93,411.24 L 205.93,449.97 L 247.41,449.97 Z" fill="#e0e0e0" stroke="#ffffff" stroke-width="0.8"><title>cell 33: NAI=0.0000</title></path><path d="M 247.41,411.24 L 247.41,372.51 L 205.93,372.51 L 205.93,411.24 L 247.41,411.24 Z" fill="#e0e0e0" stroke="#ffffff" stroke-width="0.8"><title>cell 34: NAI=0.0000</title></path><path d="M 247.41,372.51 L 247.41,333.79 L 205.93,333.79 L 205.93,372.51 L 247.41,372.51 Z" fill="#e0e0e0" stroke="#ffffff" stroke-width="0.8"><title>cell 35: NAI=0.0000</title></path><path d="M 247.41,333.79 L 247.41,295.06 L 205.93,295.06 L 205.93,333.79 L 247.41,333.79 Z" fill="#e0e0e0" stroke="#ffffff" stroke-width="0.8"><title>cell 36: NAI=0.0000</title></path><path d="M 247.41,295.06 L 247.41,256.34 L 205.93,256.34 L 205.93,295.06 L 247.41,295.06 Z" fill="#c6dbef" stroke="#ffffff" stroke-width="0.8"><title>cell 37: NAI=2.0000</title></path><path d="M 247.41,256.34 L 247.41,217.61 L 205.93,217.61 L 205.93,256.34 L 247.41,256.34 Z" fill="#c6dbef" stroke="#ffffff" stroke-width="0.8"><title>cell 38: NAI=4.0000</title></path><path d="M 247.41,217.61 L 247.41,178.89 L 205.93,178.89 L 205.93,217.61 L 247.41,217.61 Z" fill="#c6dbef" stroke="#ffffff" stroke-width="0.8"><title>cell 39: NAI=4.0000</title></path><path d="M 247.41,178.89 L 247.41,140.17 L 205.93,140.17 L 205.93,178.89 L 247.41,178.89 Z" fill="#c6dbef" stroke="#ffffff" stroke-width="0.8"><title>cell 40: NAI=4.0000</title></path><path d="M 247.41,140.17 L 247.41,101.44 L 205.93,101.44 L 205.93,140.17 L 247.41,140.17 Z" fill="#c6dbef" stroke="#ffffff" stroke-width="0.8"><title>cell 41: NAI=3.0000</title></path><path d="M 247.41,101.44 L 247.41,62.72 L 205.93,62.72 L 205.93,101.44 L 247.41,101.44 Z" fill="#f7fbff" stroke="#ffffff" stroke-width="0.8"><title>cell 42: NAI=1.0000</title></path><path d="M 247.41,62.72 L 247.41,24.00 L 205.93,24.00 L 205.93,62.72 L 247.41,62.72 Z" fill="#c6dbef" stroke="#ffffff" stroke-width="0.8"><title>cell 43: NAI=4.0000</title></path><path d="M 288.89,876.00 L 288.89,837.27 L 247.41,837.27 L 247.41,876.00 L 288.89,876.00 Z" fill="#6baed6" stroke="#ffffff" stroke-width="0.8"><title>cell 44: NAI=6.0000</title></path><path d="M 288.89,837.27 L 288.89,798.53 L 247.41,798.53 L 247.41,837.27 L 288.89,837.27 Z" fill="#6baed6" stroke="#ffffff" stroke-width="0.8"><title>cell 45: NAI=6.0000</title></path><path d="M 288.89,798.53 L 288.89,759.80 L 247.41,759.80 L 247.41,798.53 L 288.89,798.53 Z" fill="#c6dbef" stroke="#ffffff" stroke-width="0.8"><title>cell 46: NAI=4.0000</title></path><path d="M 288.89,759.80 L 288.89,721.07 L 247.41,721.07 L 247.41,759.80 L 288.89,759.80 Z" fill="#e0e0e0" stroke="#ffffff" stroke-width="0.8"><title>cell 47: NAI=0.0000</title></path><path d="M 288.89,721.07 L 288.89,682.34 L 247.41,682.34 L 247.41,721.07 L 288.89,721.07 Z" fill="#e0e0e0" stroke="#ffffff" stroke-width="0.8"><title>cell 48: NAI=0.0000</title></path><path d="M 288.89,682.34 L 288.89,643.61 L 247.41,643.61 L 247.41,682.34 L 288.89,682.34 Z" fill="#6baed6" stroke="#ffffff" stroke-width="0.8"><title>cell 49: NAI=5.0000</title></path><path d="M 288.89,643.61 L 288.89,604.88 L 247.41,604.88 L 247.41,643.61 L 288.89,643.61 Z" fill="#2171b5" stroke="#ffffff" stroke-width="0.8"><title>cell 50: NAI=8.0000</title></path><path d="M 288.89,604.88 L 288.89,566.15 L 247.41,566.15 L 247.41,604.88 L 288.89,604.88 Z" fill="#08306b" stroke="#ffffff" stroke-width="0.8"><title>cell 51: NAI=11.0000</title></path><path d="M 288.89,566.15 L 288.89,527.42 L 247.41,527.42 L 247.41,566.15 L 288.89,566.15 Z" fill="#2171b5" stroke="#ffffff" stroke-width="0.8"><title>cell 52: NAI=7.0000</title></path><path d="M 288.89,527.42 L 288.89,488.69 L 247.41,488.69 L 247.41,527.42 L 288.89,527.42 Z" fill="#6baed6" stroke="#ffffff" stroke-width="0.8"><title>cell 53: NAI=5.0000</title></path><path d="M 288.89,488.69 L 288.89,449.97 L 247.41,449.97 L 247.41,488.69 L 288.89,488.69 Z" fill="#e0e0e0" stroke="#ffffff" stroke-width="0.8"><title>cell 54: NAI=0.0000</title></path><path d="M 288.89,449.97 L 288.89,411.24 L 247.41,411.24 L 247.41,449.97 L 288.89,449.97 Z" fill="#e0e0e0" stroke="#ffffff" stroke-width="0.8"><title>cell 55: NAI=0.0000</title></path><path d="M 288.89,411.24 L 288.89,372.51 L 247.41,372.51 L 247.41,411.24 L 288.89,411.24 Z" fill="#e0e0e0" stroke="#ffffff" stroke-width="0.8"><title>cell 56: NAI=0.0000</title></path><path d="M 288.89,372.51 L 288.89,333.79 L 247.41,333.79 L 247.41,372.51 L 288.89,372.51 Z" fill="#e0e0e0" stroke="#ffffff" stroke-width="0.8"><title>cell 57: NAI=0.0000</title></path><path d="M 288.89,333.79 L 288.89,295.06 L 247.41,295.06 L 247.41,333.79 L 288.89,333.79 Z" fill="#c6dbef" stroke="#ffffff" stroke-width="0.8"><title>cell 58: NAI=3.0000</title></path><path d="M 288.89,295.06 L 288.89,256.34 L 247.41,256.34 L 247.41,295.06 L 288.89,295.06 Z" fill="#c6dbef" stroke="#ffffff" stroke-width="0.8"><title>cell 59: NAI=4.0000</title></path><path d="M 288.89,256.34 L 288.89,217.61 L 247.41,217.61 L 247.41,256.34 L 288.89,256.34 Z" fill="#c6dbef" stroke="#ffffff" stroke-width="0.8"><title>cell 60: NAI=3.0000</title></path><path d="M 288.89,217.61 L 288.89,178.89 L 247.41,178.89 L 247.41,217.61 L 288.89,217.61 Z" fill="#6baed6" stroke="#ffffff" stroke-width="0.8"><title>cell 61: NAI=5.0000</title></path><path d="M 288.89,178.89 L 288.89,140.17 L 247.41,140.17 L 247.41,178.89 L 288.89,178.89 Z" fill="#08306b" stroke="#ffffff" stroke-width="0.8"><title>cell 62: NAI=14.0000</title></path><path d="M 288.89,140.17 L 288.89,101.44 L 247.41,101.44 L 247.41,140.17 L 288.89,140.17 Z" fill="#2171b5" stroke="#ffffff" stroke-width="0.8"><title>cell 63: NAI=10.0000</title></path><path d="M 288.89,101.44 L 288.89,62.72 L 247.41,62.72 L 247.41,101.44 L 288.89,101.44 Z" fill="#2171b5" stroke="#ffffff" stroke-width="0.8"><title>cell 64: NAI=7.0000</title></path><path d="M 288.89,62.72 L 288.89,24.00 L 247.41,24.00 L 247.41,62.72 L 288.89,62.72 Z" fill="#c6dbef" stroke="#ffffff" stroke-width="0.8"><title>cell 65: NAI=4.0000</title></path><path d="M 330.38,876.00 L 330.38,837.27 L 288.89,837.27 L 288.89,876.00 L 330.38,876.00 Z" fill="#2171b5" stroke="#ffffff" stroke-width="0.8"><title>cell 66: NAI=7.0000</title></path><path d="M 330.38,837.27 L 330.38,798.53 L 288.89,798.53 L 288.89,837.27 L 330.38,837.27 Z" fill="#2171b5" stroke="#ffffff" stroke-width="0.8"><title>cell 67: NAI=7.0000</title></path><path d="M 330.38,798.53 L 330.38,759.80 L 288.89,759.80 L 288.89,798.53 L 330.38,798.53 Z" fill="#e0e0e0" stroke="#ffffff" stroke-width="0.8"><title>cell 68: NAI=0.0000</title></path><path d="M 330.38,759.80 L 330.38,721.07 L 288.89,721.07 L 288.89,759.80 L 330.38,759.80 Z" fill="#e0e0e0" stroke="#ffffff" stroke-width="0.8"><title>cell 69: NAI=0.0000</title></path><path d="M 330.38,721.07 L 330.38,682.34 L 288.89,682.34 L 288.89,721.07 L 330.38,721.07 Z" fill="#f7fbff" stroke="#ffffff" stroke-width="0.8"><title>cell 70: NAI=1.0000</title></path><path d="M 330.38,682.34 L 330.38,643.61 L 288.89,643.61 L 288.89,682.34 L 330.38,682.34 Z" fill="#6baed6" stroke="#ffffff" stroke-width="0.8"><title>cell 71: NAI=6.0000</title></path><path d="M 330.38,643.61 L 330.38,604.88 L 288.89,604.88 L 288.89,643.61 L 330.38,643.61 Z" fill="#2171b5" stroke="#ffffff" stroke-width="0.8"><title>cell 72: NAI=9.0000</title></path><path d="M 330.38,604.88 L 330.38,566.15 L 288.89,566.15 L 288.89,604.88 L 330.38,604.88 Z" fill="#2171b5" stroke="#ffffff" stroke-width="0.8"><title>cell 73: NAI=10.0000</title></path><path d="M 330.38,566.15 L 330.38,527.42 L 288.89,527.42 L 288.89,566.15 L 330.38,566.15 Z" fill="#2171b5" stroke="#ffffff" stroke-width="0.8"><title>cell 74: NAI=9.0000</title></path><path d="M 330.38,527.42 L 330.38,488.69 L 288.89,488.69 L 288.89,527.42 L 330.38,527.42 Z" fill="#2171b5" stroke="#ffffff" stroke-width="0.8"><title>cell 75: NAI=7.0000</title></path><path d="M 330.38,488.69 L 330.38,449.97 L 288.89,449.97 L 288.89,488.69 L 330.38,488.69 Z" fill="#e0e0e0" stroke="#ffffff" stroke-width="0.8"><title>cell 76: NAI=0.0000</title></path><path d="M 330.38,449.97 L 330.38,411.24 L 288.89,411.24 L 288.89,449.97 L 330.38,449.97 Z" fill="#e0e0e0" stroke="#ffffff" stroke-width="0.8"><title>cell 77: NAI=0.0000</title></path><path d="M 330.38,411.24 L 330.38,372.51 L 288.89,372.51 L 288.89,411.24 L 330.38,411.24 Z" fill="#e0e0e0" stroke="#ffffff" stroke-width="0.8"><title>cell 78: NAI=0.0000</title></path><path d="M 330.38,372.51 L 330.38,333.79 L 288.89,333.79 L 288.89,372.51 L 330.38,372.51 Z" fill="#f7fbff" stroke="#ffffff" stroke-width="0.8"><title>cell 79: NAI=1.0000</title></path><path d="M 330.38,333.79 L 330.38,295.06 L 288.89,295.06 L 288.89,333.79 L 330.38,333.79 Z" fill="#2171b5" stroke="#ffffff" stroke-width="0.8"><title>cell 80: NAI=9.0000</title></path><path d="M 330.38,295.06 L 330.38,256.34 L 288.89,256.34 L 288.89,295.06 L 330.38,295.06 Z" fill="#2171b5" stroke="#ffffff" stroke-width="0.8"><title>cell 81: NAI=9.0000</title></path><path d="M 330.38,256.34 L 330.38,217.61 L 288.89,217.61 L 288.89,256.34 L 330.38,256.34 Z" fill="#08306b" stroke="#ffffff" stroke-width="0.8"><title>cell 82: NAI=18.0000</title></path><path d="M 330.38,217.61 L 330.38,178.89 L 288.89,178.89 L 288.89,217.61 L 330.38,217.61 Z" fill="#08306b" stroke="#ffffff" stroke-width="0.8"><title>cell 83: NAI=22.0000</title></path><path d="M 330.38,178.89 L 330.38,140.17 L 288.89,140.17 L 288.89,178.89 L 330.38,178.89 Z" fill="#f7fbff" stroke="#ffffff" stroke-width="0.8"><title>cell 84: NAI=1.0000</title></path><path d="M 330.38,140.17 L 330.38,101.44 L 288.89,101.44 L 288.89,140.17 L 330.38,140.17 Z" fill="#08306b" stroke="#ffffff" stroke-width="0.8"><title>cell 85: NAI=12.0000</title></path><path d="M 330.38,101.44 L 330.38,62.72 L 288.89,62.72 L 288.89,101.44 L 330.38,101.44 Z" fill="#2171b5" stroke="#ffffff" stroke-width="0.8"><title>cell 86: NAI=7.0000</title></path><path d="M 330.38,62.72 L 330.38,24.00 L 288.89,24.00 L 288.89,62.72 L 330.38,62.72 Z" fill="#6baed6" stroke="#ffffff" stroke-width="0.8"><title>cell 87: NAI=6.0000</title></path><path d="M 371.86,876.00 L 371.86,837.27 L 330.38,837.27 L 330.38,876.00 L 371.86,876.00 Z" fill="#c6dbef" stroke="#ffffff" stroke-width="0.8"><title>cell 88: NAI=4.0000</title></path><path d="M 371.86,837.27 L 371.86,798.53 L 330.38,798.53 L 330.38,837.27 L 371.86,837.27 Z" fill="#6baed6" stroke="#ffffff" stroke-width="0.8"><title>cell 89: NAI=5.0000</title></path><path d="M 371.86,798.53 L 371.86,759.80 L 330.38,759.80 L 330.38,798.53 L 371.86,798.53 Z" fill="#e0e0e0" stroke="#ffffff" stroke-width="0.8"><title>cell 90: NAI=0.0000</title></path><path d="M 371.86,759.80 L 371.86,721.07 L 330.38,721.07 L 330.38,759.80 L 371.86,759.80 Z" fill="#e0e0e0" stroke="#ffffff" stroke-width="0.8"><title>cell 91: NAI=0.0000</title></path><path d="M 371.86,721.07 L 371.86,682.34 L 330.38,682.34 L 330.38,721.07 L 371.86,721.07 Z" fill="#f7fbff" stroke="#ffffff" stroke-width="0.8"><title>cell 92: NAI=1.0000</title></path><path d="M 371.86,682.34 L 371.86,643.61 L 330.38,643.61 L 330.38,682.34 L 371.86,682.34 Z" fill="#2171b5" stroke="#ffffff" stroke-width="0.8"><title>cell 93: NAI=7.0000</title></path><path d="M 371.86,643.61 L 371.86,604.88 L 330.38,604.88 L 330.38,643.61 L 371.86,643.61 Z" fill="#2171b5" stroke="#ffffff" stroke-width="0.8"><title>cell 94: NAI=10.0000</title></path><path d="M 371.86,604.88 L 371.86,566.15 L 330.38,566.15 L 330.38,604.88 L 371.86,604.88 Z" fill="#2171b5" stroke="#ffffff" stroke-width="0.8"><title>cell 95: NAI=10.0000</title></path><path d="M 371.86,566.15 L 371.86,527.42 L 330.38,527.42 L 330.38,566.15 L 371.86,566.15 Z" fill="#2171b5" stroke="#ffffff" stroke-width="0.8"><title>cell 96: NAI=9.0000</title></path><path d="M 371.86,527.42 L 371.86,488.69 L 330.38,488.69 L 330.38,527.42 L 371.86,527.42 Z" fill="#6baed6" stroke="#ffffff" stroke-width="0.8"><title>cell 97: NAI=6.0000</title></path><path d="M 371.86,488.69 L 371.86,449.97 L 330.38,449.97 L 330.38,488.69 L 371.86,488.69 Z" fill="#c6dbef" stroke="#ffffff" stroke-width="0.8"><title>cell 98: NAI=4.0000</title></path><path d="M 371.86,449.97 L 371.86,411.24 L 330.38,411.24 L 330.38,449.97 L 371.86,449.97 Z" fill="#e0e0e0" stroke="#ffffff" stroke-width="0.8"><title>cell 99: NAI=0.0000</title></path><path d="M 371.86,411.24 L 371.86,372.51 L 330.38,372.51 L 330.38,411.24 L 371.86,411.24 Z" fill="#c6dbef" stroke="#ffffff" stroke-width="0.8"><title>cell 100: NAI=2.0000</title></path><path d="M 371.86,372.51 L 371.86,333.79 L 330.38,333.79 L 330.38,372.51 L 371.86,372.51 Z" fill="#e0e0e0" stroke="#ffffff" stroke-width="0.8"><title>cell 101: NAI=0.0000</title></path><path d="M 371.86,333.79 L 371.86,295.06 L 330.38,295.06 L 330.38,333.79 L 371.86,333.79 Z" fill="#08306b" stroke="#ffffff" stroke-width="0.8"><title>cell 102: NAI=12.0000</title></path><path d="M 371.86,295.06 L 371.86,256.34 L 330.38,256.34 L 330.38,295.06 L 371.86,295.06 Z" fill="#08306b" stroke="#ffffff" stroke-width="0.8"><title>cell 103: NAI=20.0000</title></path><path d="M 371.86,256.34 L 371.86,217.61 L 330.38,217.61 L 330.38,256.34 L 371.86,256.34 Z" fill="#08306b" stroke="#ffffff" stroke-width="0.8"><title>cell 104: NAI=23.0000</title></path><path d="M 371.86,217.61 L 371.86,178.89 L 330.38,178.89 L 330.38,217.61 L 371.86,217.61 Z" fill="#08306b" stroke="#ffffff" stroke-width="0.8"><title>cell 105: NAI=22.0000</title></path><path d="M 371.86,178.89 L 371.86,140.17 L 330.38,140.17 L 330.38,178.89 L 371.86,178.89 Z" fill="#08306b" stroke="#ffffff" stroke-width="0.8"><title>cell 106: NAI=24.0000</title></path><path d="M 371.86,140.17 L 371.86,101.44 L 330.38,101.44 L 330.38,140.17 L 371.86,140.17 Z" fill="#08306b" stroke="#ffffff" stroke-width="0.8"><title>cell 107: NAI=27.0000</title></path><path d="M 371.86,101.44 L 371.86,62.72 L 330.38,62.72 L 330.38,101.44 L 371.86,101.44 Z" fill="#08306b" stroke="#ffffff" stroke-width="0.8"><title>cell 108: NAI=20.0000</title></path><path d="M 371.86,62.72 L 371.86,24.00 L 330.38,24.00 L 330.38,62.72 L 371.86,62.72 Z" fill="#6baed6" stroke="#ffffff" stroke-width="0.8"><title>cell 109: NAI=5.0000</title></path><path d="M 413.34,876.00 L 413.34,837.27 L 371.86,837.27 L 371.86,876.00 L 413.34,876.00 Z" fill="#6baed6" stroke="#ffffff" stroke-width="0.8"><title>cell 110: NAI=5.0000</title></path><path d="M 413.34,837.27 L 413.34,798.53 L 371.86,798.53 L 371.86,837.27 L 413.34,837.27 Z" fill="#e0e0e0" stroke="#ffffff" stroke-width="0.8"><title>cell 111: NAI=0.0000</title></path><path d="M 413.34,798.53 L 413.34,759.80 L 371.86,759.80 L 371.86,798.53 L 413.34,798.53 Z" fill="#e0e0e0" stroke="#ffffff" stroke-width="0.8"><title>cell 112: NAI=0.0000</title></path><path d="M 413.34,759.80 L 413.34,721.07 L 371.86,721.07 L 371.86,759.80 L 413.34,759.80 Z" fill="#e0e0e0" stroke="#ffffff" stroke-width="0.8"><title>cell 113: NAI=0.0000</title></path><path d="M 413.34,721.07 L 413.34,682.34 L 371.86,682.34 L 371.86,721.07 L 413.34,721.07 Z" fill="#e0e0e0" stroke="#ffffff" stroke-width="0.8"><title>cell 114: NAI=0.0000</title></path><path d="M 413.34,682.34 L 413.34,643.61 L 371.86,643.61 L 371.86,682.34 L 413.34,682.34 Z" fill="#f7fbff" stroke="#ffffff" stroke-width="0.8"><title>cell 115: NAI=1.0000</title></path><path d="M 413.34,643.61 L 413.34,604.88 L 371.86,604.88 L 371.86,643.61 L 413.34,643.61 Z" fill="#6baed6" stroke="#ffffff" stroke-width="0.8"><title>cell 116: NAI=6.0000</title></path><path d="M 413.34,604.88 L 413.34,566.15 L 371.86,566.15 L 371.86,604.88 L 413.34,604.88 Z" fill="#2171b5" stroke="#ffffff" stroke-width="0.8"><title>cell 117: NAI=8.0000</title></path><path d="M 413.34,566.15 L 413.34,527.42 L 371.86,527.42 L 371.86,566.15 L 413.34,566.15 Z" fill="#2171b5" stroke="#ffffff" stroke-width="0.8"><title>cell 118: NAI=7.0000</title></path><path d="M 413.34,527.42 L 413.34,488.69 L 371.86,488.69 L 371.86,527.42 L 413.34,527.42 Z" fill="#6baed6" stroke="#ffffff" stroke-width="0.8"><title>cell 119: NAI=6.0000</title></path><path d="M 413.34,488.69 L 413.34,449.97 L 371.86,449.97 L 371.86,488.69 L 413.34,488.69 Z" fill="#e0e0e0" stroke="#ffffff" stroke-width="0.8"><title>cell 120: NAI=0.0000</title></path><path d="M 413.34,449.97 L 413.34,411.24 L 371.86,411.24 L 371.86,449.97 L 413.34,449.97 Z" fill="#e0e0e0" stroke="#ffffff" stroke-width="0.8"><title>cell 121: NAI=0.0000</title></path><path d="M 413.34,411.24 L 413.34,372.51 L 371.86,372.51 L 371.86,411.24 L 413.34,411.24 Z" fill="#6baed6" stroke="#ffffff" stroke-width="0.8"><title>cell 122: NAI=6.0000</title></path><path d="M 413.34,372.51 L 413.34,333.79 L 371.86,333.79 L 371.86,372.51 L 413.34,372.51 Z" fill="#6baed6" stroke="#ffffff" stroke-width="0.8"><title>cell 123: NAI=5.0000</title></path><path d="M 413.34,333.79 L 413.34,295.06 L 371.86,295.06 L 371.86,333.79 L 413.34,333.79 Z" fill="#08306b" stroke="#ffffff" stroke-width="0.8"><title>cell 124: NAI=11.0000</title></path><path d="M 413.34,295.06 L 413.34,256.34 L 371.86,256.34 L 371.86,295.06 L 413.34,295.06 Z" fill="#08306b" stroke="#ffffff" stroke-width="0.8"><title>cell 125: NAI=24.0000</title></path><path d="M 413.34,256.34 L 413.34,217.61 L 371.86,217.61 L 371.86,256.34 L 413.34,256.34 Z" fill="#08306b" stroke="#ffffff" stroke-width="0.8"><title>cell 126: NAI=29.0000</title></path><path d="M 413.34,217.61 L 413.34,178.89 L 371.86,178.89 L 371.86,217.61 L 413.34,217.61 Z" fill="#08306b" stroke="#ffffff" stroke-width="0.8"><title>cell 127: NAI=31.0000</title></path><path d="M 413.34,178.89 L 413.34,140.17 L 371.86,140.17 L 371.86,178.89 L 413.34,178.89 Z" fill="#08306b" stroke="#ffffff" stroke-width="0.8"><title>cell 128: NAI=24.0000</title></path><path d="M 413.34,140.17 L 413.34,101.44 L 371.86,101.44 L 371.86,140.17 L 413.34,140.17 Z" fill="#08306b" stroke="#ffffff" stroke-width="0.8"><title>cell 129: NAI=30.0000</title></path><path d="M 413.34,101.44 L 413.34,62.72 L 371.86,62.72 L 371.86,101.44 L 413.34,101.44 Z" fill="#08306b" stroke="#ffffff" stroke-width="0.8"><title>cell 130: NAI=19.0000</title></path><path d="M 413.34,62.72 L 413.34,24.00 L 371.86,24.00 L 371.86,62.72 L 413.34,62.72 Z" fill="#2171b5" stroke="#ffffff" stroke-width="0.8"><title>cell 131: NAI=10.0000</title></path><path d="M 454.82,876.00 L 454.82,837.27 L 413.34,837.27 L 413.34,876.00 L 454.82,876.00 Z" fill="#e0e0e0" stroke="#ffffff" stroke-width="0.8"><title>cell 132: NAI=0.0000</title></path><path d="M 454.82,837.27 L 454.82,798.53 L 413.34,798.53 L 413.34,837.27 L 454.82,837.27 Z" fill="#e0e0e0" stroke="#ffffff" stroke-width="0.8"><title>cell 133: NAI=0.0000</title></path><path d="M 454.82,798.53 L 454.82,759.80 L 413.34,759.80 L 413.34,798.53 L 454.82,798.53 Z" fill="#e0e0e0" stroke="#ffffff" stroke-width="0.8"><title>cell 134: NAI=0.0000</title></path><path d="M 454.82,759.80 L 454.82,721.07 L 413.34,721.07 L 413.34,759.80 L 454.82,759.80 Z" fill="#e0e0e0" stroke="#ffffff" stroke-width="0.8"><title>cell 135: NAI=0.0000</title></path><path d="M 454.82,721.07 L 454.82,682.34 L 413.34,682.34 L 413.34,721.07 L 454.82,721.07 Z" fill="#e0e0e0" stroke="#ffffff" stroke-width="0.8"><title>cell 136: NAI=0.0000</title></path><path d="M 454.82,682.34 L 454.82,643.61 L 413.34,643.61 L 413.34,682.34 L 454.82,682.34 Z" fill="#c6dbef" stroke="#ffffff" stroke-width="0.8"><title>cell 137: NAI=2.0000</title></path><path d="M 454.82,643.61 L 454.82,604.88 L 413.34,604.88 L 413.34,643.61 L 454.82,643.61 Z" fill="#6baed6" stroke="#ffffff" stroke-width="0.8"><title>cell 138: NAI=6.0000</title></path><path d="M 454.82,604.88 L 454.82,566.15 L 413.34,566.15 L 413.34,604.88 L 454.82,604.88 Z" fill="#c6dbef" stroke="#ffffff" stroke-width="0.8"><title>cell 139: NAI=3.0000</title></path><path d="M 454.82,566.15 L 454.82,527.42 L 413.34,527.42 L 413.34,566.15 L 454.82,566.15 Z" fill="#6baed6" stroke="#ffffff" stroke-width="0.8"><title>cell 140: NAI=5.0000</title></path><path d="M 454.82,527.42 L 454.82,488.69 L 413.34,488.69 L 413.34,527.42 L 454.82,527.42 Z" fill="#f7fbff" stroke="#ffffff" stroke-width="0.8"><title>cell 141: NAI=1.0000</title></path><path d="M 454.82,488.69 L 454.82,449.97 L 413.34,449.97 L 413.34,488.69 L 454.82,488.69 Z" fill="#08306b" stroke="#ffffff" stroke-width="0.8"><title>cell 142: NAI=14.0000</title></path><path d="M 454.82,449.97 L 454.82,411.24 L 413.34,411.24 L 413.34,449.97 L 454.82,449.97 Z" fill="#08306b" stroke="#ffffff" stroke-width="0.8"><title>cell 143: NAI=13.0000</title></path><path d="M 454.82,411.24 L 454.82,372.51 L 413.34,372.51 L 413.34,411.24 L 454.82,411.24 Z" fill="#08306b" stroke="#ffffff" stroke-width="0.8"><title>cell 144: NAI=11.0000</title></path><path d="M 454.82,372.51 L 454.82,333.79 L 413.34,333.79 L 413.34,372.51 L 454.82,372.51 Z" fill="#c6dbef" stroke="#ffffff" stroke-width="0.8"><title>cell 145: NAI=3.0000</title></path><path d="M 454.82,333.79 L 454.82,295.06 L 413.34,295.06 L 413.34,333.79 L 454.82,333.79 Z" fill="#08306b" stroke="#ffffff" stroke-width="0.8"><title>cell 146: NAI=16.0000</title></path><path d="M 454.82,295.06 L 454.82,256.34 L 413.34,256.34 L 413.34,295.06 L 454.82,295.06 Z" fill="#08306b" stroke="#ffffff" stroke-width="0.8"><title>cell 147: NAI=22.0000</title></path><path d="M 454.82,256.34 L 454.82,217.61 L 413.34,217.61 L 413.34,256.34 L 454.82,256.34 Z" fill="#08306b" stroke="#ffffff" stroke-width="0.8"><title>cell 148: NAI=29.0000</title></path><path d="M 454.82,217.61 L 454.82,178.89 L 413.34,178.89 L 413.34,217.61 L 454.82,217.61 Z" fill="#08306b" stroke="#ffffff" stroke-width="0.8"><title>cell 149: NAI=31.0000</title></path><path d="M 454.82,178.89 L 454.82,140.17 L 413.34,140.17 L 413.34,178.89 L 454.82,178.89 Z" fill="#08306b" stroke="#ffffff" stroke-width="0.8"><title>cell 150: NAI=32.0000</title></path><path d="M 454.82,140.17 L 454.82,101.44 L 413.34,101.44 L 413.34,140.17 L 454.82,140.17 Z" fill="#08306b" stroke="#ffffff" stroke-width="0.8"><title>cell 151: NAI=25.0000</title></path><path d="M 454.82,101.44 L 454.82,62.72 L 413.34,62.72 L 413.34,101.44 L 454.82,101.44 Z" fill="#08306b" stroke="#ffffff" stroke-width="0.8"><title>cell 152: NAI=23.0000</title></path><path d="M 454.82,62.72 L 454.82,24.00 L 413.34,24.00 L 413.34,62.72 L 454.82,62.72 Z" fill="#08306b" stroke="#ffffff" stroke-width="0.8"><title>cell 153: NAI=11.0000</title></path><path d="M 496.30,876.00 L 496.30,837.27 L 454.82,837.27 L 454.82,876.00 L 496.30,876.00 Z" fill="#e0e0e0" stroke="#ffffff" stroke-width="0.8"><title>cell 154: NAI=0.0000</title></path><path d="M 496.30,837.27 L 496.30,798.53 L 454.82,798.53 L 454.82,837.27 L 496.30,837.27 Z" fill="#e0e0e0" stroke="#ffffff" stroke-width="0.8"><title>cell 155: NAI=0.0000</title></path><path d="M 496.30,798.53 L 496.30,759.80 L 454.82,759.80 L 454.82,798.53 L 496.30,798.53 Z" fill="#e0e0e0" stroke="#ffffff" stroke-width="0.8"><title>cell 156: NAI=0.0000</title></path><path d="M 496.30,759.80 L 496.30,721.07 L 454.82,721.07 L 454.82,759.80 L 496.30,759.80 Z" fill="#f7fbff" stroke="#ffffff" stroke-width="0.8"><title>cell 157: NAI=1.0000</title></path><path d="M 496.30,721.07 L 496.30,682.34 L 454.82,682.34 L 454.82,721.07 L 496.30,721.07 Z" fill="#f7fbff" stroke="#ffffff" stroke-width="0.8"><title>cell 158: NAI=1.0000</title></path><path d="M 496.30,682.34 L 496.30,643.61 L 454.82,643.61 L 454.82,682.34 L 496.30,682.34 Z" fill="#c6dbef" stroke="#ffffff" stroke-width="0.8"><title>cell 159: NAI=2.0000</title></path><path d="M 496.30,643.61 L 496.30,604.88 L 454.82,604.88 L 454.82,643.61 L 496.30,643.61 Z" fill="#c6dbef" stroke="#ffffff" stroke-width="0.8"><title>cell 160: NAI=2.0000</title></path><path d="M 496.30,604.88 L 496.30,566.15 L 454.82,566.15 L 454.82,604.88 L 496.30,604.88 Z" fill="#f7fbff" stroke="#ffffff" stroke-width="0.8"><title>cell 161: NAI=1.0000</title></path><path d="M 496.30,566.15 L 496.30,527.42 L 454.82,527.42 L 454.82,566.15 L 496.30,566.15 Z" fill="#f7fbff" stroke="#ffffff" stroke-width="0.8"><title>cell 162: NAI=1.0000</title></path><path d="M 496.30,527.42 L 496.30,488.69 L 454.82,488.69 L 454.82,527.42 L 496.30,527.42 Z" fill="#08306b" stroke="#ffffff" stroke-width="0.8"><title>cell 163: NAI=15.0000</title></path><path d="M 496.30,488.69 L 496.30,449.97 L 454.82,449.97 L 454.82,488.69 L 496.30,488.69 Z" fill="#08306b" stroke="#ffffff" stroke-width="0.8"><title>cell 164: NAI=18.0000</title></path><path d="M 496.30,449.97 L 496.30,411.24 L 454.82,411.24 L 454.82,449.97 L 496.30,449.97 Z" fill="#08306b" stroke="#ffffff" stroke-width="0.8"><title>cell 165: NAI=20.0000</title></path><path d="M 496.30,411.24 L 496.30,372.51 L 454.82,372.51 L 454.82,411.24 L 496.30,411.24 Z" fill="#08306b" stroke="#ffffff" stroke-width="0.8"><title>cell 166: NAI=19.0000</title></path><path d="M 496.30,372.51 L 496.30,333.79 L 454.82,333.79 L 454.82,372.51 L 496.30,372.51 Z" fill="#2171b5" stroke="#ffffff" stroke-width="0.8"><title>cell 167: NAI=10.0000</title></path><path d="M 496.30,333.79 L 496.30,295.06 L 454.82,295.06 L 454.82,333.79 L 496.30,333.79 Z" fill="#2171b5" stroke="#ffffff" stroke-width="0.8"><title>cell 168: NAI=8.0000</title></path><path d="M 496.30,295.06 L 496.30,256.34 L 454.82,256.34 L 454.82,295.06 L 496.30,295.06 Z" fill="#2171b5" stroke="#ffffff" stroke-width="0.8"><title>cell 169: NAI=7.0000</title></path><path d="M 496.30,256.34 L 496.30,217.61 L 454.82,217.61 L 454.82,256.34 L 496.30,256.34 Z" fill="#08306b" stroke="#ffffff" stroke-width="0.8"><title>cell 170: NAI=17.0000</title></path><path d="M 496.30,217.61 L 496.30,178.89 L 454.82,178.89 L 454.82,217.61 L 496.30,217.61 Z" fill="#08306b" stroke="#ffffff" stroke-width="0.8"><title>cell 171: NAI=20.0000</title></path><path d="M 496.30,178.89 L 496.30,140.17 L 454.82,140.17 L 454.82,178.89 L 496.30,178.89 Z" fill="#08306b" stroke="#ffffff" stroke-width="0.8"><title>cell 172: NAI=23.0000</title></path><path d="M 496.30,140.17 L 496.30,101.44 L 454.82,101.44 L 454.82,140.17 L 496.30,140.17 Z" fill="#08306b" stroke="#ffffff" stroke-width="0.8"><title>cell 173: NAI=27.0000</title></path><path d="M 496.30,101.44 L 496.30,62.72 L 454.82,62.72 L 454.82,101.44 L 496.30,101.44 Z" fill="#08306b" stroke="#ffffff" stroke-width="0.8"><title>cell 174: NAI=21.0000</title></path><path d="M 496.30,62.72 L 496.30,24.00 L 454.82,24.00 L 454.82,62.72 L 496.30,62.72 Z" fill="#08306b" stroke="#ffffff" stroke-width="0.8"><title>cell 175: NAI=16.0000</title></path><path d="M 537.78,876.00 L 537.78,837.27 L 496.30,837.27 L 496.30,876.00 L 537.78,876.00 Z" fill="#e0e0e0" stroke="#ffffff" stroke-width="0.8"><title>cell 176: NAI=0.0000</title></path><path d="M 537.78,837.27 L 537.78,798.53 L 496.30,798.53 L 496.30,837.27 L 537.78,837.27 Z" fill="#e0e0e0" stroke="#ffffff" stroke-width="0.8"><title>cell 177: NAI=0.0000</title></path><path d="M 537.78,798.53 L 537.78,759.80 L 496.30,759.80 L 496.30,798.53 L 537.78,798.53 Z" fill="#e0e0e0" stroke="#ffffff" stroke-width="0.8"><title>cell 178: NAI=0.0000</title></path><path d="M 537.78,759.80 L 537.78,721.07 L 496.30,721.07 L 496.30,759.80 L 537.78,759.80 Z" fill="#f7fbff" stroke="#ffffff" stroke-width="0.8"><title>cell 179: NAI=1.0000</title></path><path d="M 537.78,721.07 L 537.78,682.34 L 496.30,682.34 L 496.30,721.07 L 537.78,721.07 Z" fill="#f7fbff" stroke="#ffffff" stroke-width="0.8"><title>cell 180: NAI=1.0000</title></path><path d="M 537.78,682.34 L 537.78,643.61 L 496.30,643.61 L 496.30,682.34 L 537.78,682.34 Z" fill="#c6dbef" stroke="#ffffff" stroke-width="0.8"><title>cell 181: NAI=2.0000</title></path><path d="M 537.78,643.61 L 537.78,604.88 L 496.30,604.88 L 496.30,643.61 L 537.78,643.61 Z" fill="#f7fbff" stroke="#ffffff" stroke-width="0.8"><title>cell 182: NAI=1.0000</title></path><path d="M 537.78,604.88 L 537.78,566.15 L 496.30,566.15 L 496.30,604.88 L 537.78,604.88 Z" fill="#2171b5" stroke="#ffffff" stroke-width="0.8"><title>cell 183: NAI=7.0000</title></path><path d="M 537.78,566.15 L 537.78,527.42 L 496.30,527.42 L 496.30,566.15 L 537.78,566.15 Z" fill="#08306b" stroke="#ffffff" stroke-width="0.8"><title>cell 184: NAI=13.0000</title></path><path d="M 537.78,527.42 L 537.78,488.69 L 496.30,488.69 L 496.30,527.42 L 537.78,527.42 Z" fill="#08306b" stroke="#ffffff" stroke-width="0.8"><title>cell 185: NAI=21.0000</title></path><path d="M 537.78,488.69 L 537.78,449.97 L 496.30,449.97 L 496.30,488.69 L 537.78,488.69 Z" fill="#08306b" stroke="#ffffff" stroke-width="0.8"><title>cell 186: NAI=24.0000</title></path><path d="M 537.78,449.97 L 537.78,411.24 L 496.30,411.24 L 496.30,449.97 L 537.78,449.97 Z" fill="#08306b" stroke="#ffffff" stroke-width="0.8"><title>cell 187: NAI=23.0000</title></path><path d="M 537.78,411.24 L 537.78,372.51 L 496.30,372.51 L 496.30,411.24 L 537.78,411.24 Z" fill="#08306b" stroke="#ffffff" stroke-width="0.8"><title>cell 188: NAI=15.0000</title></path><path d="M 537.78,372.51 L 537.78,333.79 L 496.30,333.79 L 496.30,372.51 L 537.78,372.51 Z" fill="#08306b" stroke="#ffffff" stroke-width="0.8"><title>cell 189: NAI=11.0000</title></path><path d="M 537.78,333.79 L 537.78,295.06 L 496.30,295.06 L 496.30,333.79 L 537.78,333.79 Z" fill="#08306b" stroke="#ffffff" stroke-width="0.8"><title>cell 190: NAI=11.0000</title></path><path d="M 537.78,295.06 L 537.78,256.34 L 496.30,256.34 L 496.30,295.06 L 537.78,295.06 Z" fill="#08306b" stroke="#ffffff" stroke-width="0.8"><title>cell 191: NAI=11.0000</title></path><path d="M 537.78,256.34 L 537.78,217.61 L 496.30,217.61 L 496.30,256.34 L 537.78,256.34 Z" fill="#c6dbef" stroke="#ffffff" stroke-width="0.8"><title>cell 192: NAI=2.0000</title></path><path d="M 537.78,217.61 L 537.78,178.89 L 496.30,178.89 L 496.30,217.61 L 537.78,217.61 Z" fill="#2171b5" stroke="#ffffff" stroke-width="0.8"><title>cell 193: NAI=7.0000</title></path><path d="M 537.78,178.89 L 537.78,140.17 L 496.30,140.17 L 496.30,178.89 L 537.78,178.89 Z" fill="#08306b" stroke="#ffffff" stroke-width="0.8"><title>cell 194: NAI=22.0000</title></path><path d="M 537.78,140.17 L 537.78,101.44 L 496.30,101.44 L 496.30,140.17 L 537.78,140.17 Z" fill="#08306b" stroke="#ffffff" stroke-width="0.8"><title>cell 195: NAI=22.0000</title></path><path d="M 537.78,101.44 L 537.78,62.72 L 496.30,62.72 L 496.30,101.44 L 537.78,101.44 Z" fill="#08306b" stroke="#ffffff" stroke-width="0.8"><title>cell 196: NAI=20.0000</title></path><path d="M 537.78,62.72 L 537.78,24.00 L 496.30,24.00 L 496.30,62.72 L 537.78,62.72 Z" fill="#6baed6" stroke="#ffffff" stroke-width="0.8"><title>cell 197: NAI=6.0000</title></path><path d="M 579.26,876.00 L 579.26,837.27 L 537.78,837.27 L 537.78,876.00 L 579.26,876.00 Z" fill="#e0e0e0" stroke="#ffffff" stroke-width="0.8"><title>cell 198: NAI=0.0000</title></path><path d="M 579.26,837.27 L 579.26,798.53 L 537.78,798.53 L 537.78,837.27 L 579.26,837.27 Z" fill="#e0e0e0" stroke="#ffffff" stroke-width="0.8"><title>cell 199: NAI=0.0000</title></path><path d="M 579.26,798.53 L 579.26,759.80 L 537.78,759.80 L 537.78,798.53 L 579.26,798.53 Z" fill="#e0e0e0" stroke="#ffffff" stroke-width="0.8"><title>cell 200: NAI=0.0000</title></path><path d="M 579.26,759.80 L 579.26,721.07 L 537.78,721.07 L 537.78,759.80 L 579.26,759.80 Z" fill="#f7fbff" stroke="#ffffff" stroke-width="0.8"><title>cell 201: NAI=1.0000</title></path><path d="M 579.26,721.07 L 579.26,682.34 L 537.78,682.34 L 537.78,721.07 L 579.26,721.07 Z" fill="#f7fbff" stroke="#ffffff" stroke-width="0.8"><title>cell 202: NAI=1.0000</title></path><path d="M 579.26,682.34 L 579.26,643.61 L 537.78,643.61 L 537.78,682.34 L 579.26,682.34 Z" fill="#f7fbff" stroke="#ffffff" stroke-width="0.8"><title>cell 203: NAI=1.0000</title></path><path d="M 579.26,643.61 L 579.26,604.88 L 537.78,604.88 L 537.78,643.61 L 579.26,643.61 Z" fill="#f7fbff" stroke="#ffffff" stroke-width="0.8"><title>cell 204: NAI=1.0000</title></path><path d="M 579.26,604.88 L 579.26,566.15 L 537.78,566.15 L 537.78,604.88 L 579.26,604.88 Z" fill="#6baed6" stroke="#ffffff" stroke-width="0.8"><title>cell 205: NAI=6.0000</title></path><path d="M 579.26,566.15 L 579.26,527.42 L 537.78,527.42 L 537.78,566.15 L 579.26,566.15 Z" fill="#2171b5" stroke="#ffffff" stroke-width="0.8"><title>cell 206: NAI=7.0000</title></path><path d="M 579.26,527.42 L 579.26,488.69 L 537.78,488.69 L 537.78,527.42 L 579.26,527.42 Z" fill="#08306b" stroke="#ffffff" stroke-width="0.8"><title>cell 207: NAI=19.0000</title></path><path d="M 579.26,488.69 L 579.26,449.97 L 537.78,449.97 L 537.78,488.69 L 579.26,488.69 Z" fill="#08306b" stroke="#ffffff" stroke-width="0.8"><title>cell 208: NAI=27.0000</title></path><path d="M 579.26,449.97 L 579.26,411.24 L 537.78,411.24 L 537.78,449.97 L 579.26,449.97 Z" fill="#08306b" stroke="#ffffff" stroke-width="0.8"><title>cell 209: NAI=23.0000</title></path><path d="M 579.26,411.24 L 579.26,372.51 L 537.78,372.51 L 537.78,411.24 L 579.26,411.24 Z" fill="#08306b" stroke="#ffffff" stroke-width="0.8"><title>cell 210: NAI=19.0000</title></path><path d="M 579.26,372.51 L 579.26,333.79 L 537.78,333.79 L 537.78,372.51 L 579.26,372.51 Z" fill="#08306b" stroke="#ffffff" stroke-width="0.8"><title>cell 211: NAI=20.0000</title></path><path d="M 579.26,333.79 L 579.26,295.06 L 537.78,295.06 L 537.78,333.79 L 579.26,333.79 Z" fill="#08306b" stroke="#ffffff" stroke-width="0.8"><title>cell 212: NAI=13.0000</title></path><path d="M 579.26,295.06 L 579.26,256.34 L 537.78,256.34 L 537.78,295.06 L 579.26,295.06 Z" fill="#2171b5" stroke="#ffffff" stroke-width="0.8"><title>cell 213: NAI=9.0000</title></path><path d="M 579.26,256.34 L 579.26,217.61 L 537.78,217.61 L 537.78,256.34 L 579.26,256.34 Z" fill="#6baed6" stroke="#ffffff" stroke-width="0.8"><title>cell 214: NAI=5.0000</title></path><path d="M 579.26,217.61 L 579.26,178.89 L 537.78,178.89 L 537.78,217.61 L 579.26,217.61 Z" fill="#08306b" stroke="#ffffff" stroke-width="0.8"><title>cell 215: NAI=15.0000</title></path><path d="M 579.26,178.89 L 579.26,140.17 L 537.78,140.17 L 537.78,178.89 L 579.26,178.89 Z" fill="#2171b5" stroke="#ffffff" stroke-width="0.8"><title>cell 216: NAI=10.0000</title></path><path d="M 579.26,140.17 L 579.26,101.44 L 537.78,101.44 L 537.78,140.17 L 579.26,140.17 Z" fill="#6baed6" stroke="#ffffff" stroke-width="0.8"><title>cell 217: NAI=6.0000</title></path><path d="M 579.26,101.44 L 579.26,62.72 L 537.78,62.72 L 537.78,101.44 L 579.26,101.44 Z" fill="#08306b" stroke="#ffffff" stroke-width="0.8"><title>cell 218: NAI=13.0000</title></path><path d="M 579.26,62.72 L 579.26,24.00 L 537.78,24.00 L 537.78,62.72 L 579.26,62.72 Z" fill="#08306b" stroke="#ffffff" stroke-width="0.8"><title>cell 219: NAI=11.0000</title></path><path d="M 620.74,876.00 L 620.74,837.27 L 579.26,837.27 L 579.26,876.00 L 620.74,876.00 Z" fill="#e0e0e0" stroke="#ffffff" stroke-width="0.8"><title>cell 220: NAI=0.0000</title></path><path d="M 620.74,837.27 L 620.74,798.53 L 579.26,798.53 L 579.26,837.27 L 620.74,837.27 Z" fill="#e0e0e0" stroke="#ffffff" stroke-width="0.8"><title>cell 221: NAI=0.0000</title></path><path d="M 620.74,798.53 L 620.74,759.80 L 579.26,759.80 L 579.26,798.53 L 620.74,798.53 Z" fill="#e0e0e0" stroke="#ffffff" stroke-width="0.8"><title>cell 222: NAI=0.0000</title></path><path d="M 620.74,759.80 L 620.74,721.07 L 579.26,721.07 L 579.26,759.80 L 620.74,759.80 Z" fill="#e0e0e0" stroke="#ffffff" stroke-width="0.8"><title>cell 223: NAI=0.0000</title></path><path d="M 620.74,721.07 L 620.74,682.34 L 579.26,682.34 L 579.26,721.07 L 620.74,721.07 Z" fill="#e0e0e0" stroke="#ffffff" stroke-width="0.8"><title>cell 224: NAI=0.0000</title></path><path d="M 620.74,682.34 L 620.74,643.61 L 579.26,643.61 L 579.26,682.34 L 620.74,682.34 Z" fill="#e0e0e0" stroke="#ffffff" stroke-width="0.8"><title>cell 225: NAI=0.0000</title></path><path d="M 620.74,643.61 L 620.74,604.88 L 579.26,604.88 L 579.26,643.61 L 620.74,643.61 Z" fill="#f7fbff" stroke="#ffffff" stroke-width="0.8"><title>cell 226: NAI=1.0000</title></path><path d="M 620.74,604.88 L 620.74,566.15 L 579.26,566.15 L 579.26,604.88 L 620.74,604.88 Z" fill="#c6dbef" stroke="#ffffff" stroke-width="0.8"><title>cell 227: NAI=3.0000</title></path><path d="M 620.74,566.15 L 620.74,527.42 L 579.26,527.42 L 579.26,566.15 L 620.74,566.15 Z" fill="#2171b5" stroke="#ffffff" stroke-width="0.8"><title>cell 228: NAI=10.0000</title></path><path d="M 620.74,527.42 L 620.74,488.69 L 579.26,488.69 L 579.26,527.42 L 620.74,527.42 Z" fill="#08306b" stroke="#ffffff" stroke-width="0.8"><title>cell 229: NAI=13.0000</title></path><path d="M 620.74,488.69 L 620.74,449.97 L 579.26,449.97 L 579.26,488.69 L 620.74,488.69 Z" fill="#08306b" stroke="#ffffff" stroke-width="0.8"><title>cell 230: NAI=27.0000</title></path><path d="M 620.74,449.97 L 620.74,411.24 L 579.26,411.24 L 579.26,449.97 L 620.74,449.97 Z" fill="#08306b" stroke="#ffffff" stroke-width="0.8"><title>cell 231: NAI=25.0000</title></path><path d="M 620.74,411.24 L 620.74,372.51 L 579.26,372.51 L 579.26,411.24 L 620.74,411.24 Z" fill="#2171b5" stroke="#ffffff" stroke-width="0.8"><title>cell 232: NAI=8.0000</title></path><path d="M 620.74,372.51 L 620.74,333.79 L 579.26,333.79 L 579.26,372.51 L 620.74,372.51 Z" fill="#2171b5" stroke="#ffffff" stroke-width="0.8"><title>cell 233: NAI=8.0000</title></path><path d="M 620.74,333.79 L 620.74,295.06 L 579.26,295.06 L 579.26,333.79 L 620.74,333.79 Z" fill="#08306b" stroke="#ffffff" stroke-width="0.8"><title>cell 234: NAI=12.0000</title></path><path d="M 620.74,295.06 L 620.74,256.34 L 579.26,256.34 L 579.26,295.06 L 620.74,295.06 Z" fill="#2171b5" stroke="#ffffff" stroke-width="0.8"><title>cell 235: NAI=10.0000</title></path><path d="M 620.74,256.34 L 620.74,217.61 L 579.26,217.61 L 579.26,256.34 L 620.74,256.34 Z" fill="#2171b5" stroke="#ffffff" stroke-width="0.8"><title>cell 236: NAI=10.0000</title></path><path d="M 620.74,217.61 L 620.74,178.89 L 579.26,178.89 L 579.26,217.61 L 620.74,217.61 Z" fill="#2171b5" stroke="#ffffff" stroke-width="0.8"><title>cell 237: NAI=7.0000</title></path><path d="M 620.74,178.89 L 620.74,140.17 L 579.26,140.17 L 579.26,178.89 L 620.74,178.89 Z" fill="#6baed6" stroke="#ffffff" stroke-width="0.8"><title>cell 238: NAI=5.0000</title></path><path d="M 620.74,140.17 L 620.74,101.44 L 579.26,101.44 L 579.26,140.17 L 620.74,140.17 Z" fill="#6baed6" stroke="#ffffff" stroke-width="0.8"><title>cell 239: NAI=6.0000</title></path><path d="M 620.74,101.44 L 620.74,62.72 L 579.26,62.72 L 579.26,101.44 L 620.74,101.44 Z" fill="#6baed6" stroke="#ffffff" stroke-width="0.8"><title>cell 240: NAI=6.0000</title></path><path d="M 620.74,62.72 L 620.74,24.00 L 579.26,24.00 L 579.26,62.72 L 620.74,62.72 Z" fill="#6baed6" stroke="#ffffff" stroke-width="0.8"><title>cell 241: NAI=6.0000</title></path><path d="M 662.22,876.00 L 662.22,837.27 L 620.74,837.27 L 620.74,876.00 L 662.22,876.00 Z" fill="#e0e0e0" stroke="#ffffff" stroke-width="0.8"><title>cell 242: NAI=0.0000</title></path><path d="M 662.22,837.27 L 662.22,798.53 L 620.74,798.53 L 620.74,837.27 L 662.22,837.27 Z" fill="#e0e0e0" stroke="#ffffff" stroke-width="0.8"><title>cell 243: NAI=0.0000</title></path><path d="M 662.22,798.53 L 662.22,759.80 L 620.74,759.80 L 620.74,798.53 L 662.22,798.53 Z" fill="#e0e0e0" stroke="#ffffff" stroke-width="0.8"><title>cell 244: NAI=0.0000</title></path><path d="M 662.22,759.80 L 662.22,721.07 L 620.74,721.07 L 620.74,759.80 L 662.22,759.80 Z" fill="#e0e0e0" stroke="#ffffff" stroke-width="0.8"><title>cell 245: NAI=0.0000</title></path><path d="M 662.22,721.07 L 662.22,682.34 L 620.74,682.34 L 620.74,721.07 L 662.22,721.07 Z" fill="#f7fbff" stroke="#ffffff" stroke-width="0.8"><title>cell 246: NAI=1.0000</title></path><path d="M 662.22,682.34 L 662.22,643.61 L 620.74,643.61 L 620.74,682.34 L 662.22,682.34 Z" fill="#e0e0e0" stroke="#ffffff" stroke-width="0.8"><title>cell 247: NAI=0.0000</title></path><path d="M 662.22,643.61 L 662.22,604.88 L 620.74,604.88 L 620.74,643.61 L 662.22,643.61 Z" fill="#e0e0e0" stroke="#ffffff" stroke-width="0.8"><title>cell 248: NAI=0.0000</title></path><path d="M 662.22,604.88 L 662.22,566.15 L 620.74,566.15 L 620.74,604.88 L 662.22,604.88 Z" fill="#2171b5" stroke="#ffffff" stroke-width="0.8"><title>cell 249: NAI=9.0000</title></path><path d="M 662.22,566.15 L 662.22,527.42 L 620.74,527.42 L 620.74,566.15 L 662.22,566.15 Z" fill="#2171b5" stroke="#ffffff" stroke-width="0.8"><title>cell 250: NAI=10.0000</title></path><path d="M 662.22,527.42 L 662.22,488.69 L 620.74,488.69 L 620.74,527.42 L 662.22,527.42 Z" fill="#08306b" stroke="#ffffff" stroke-width="0.8"><title>cell 251: NAI=15.0000</title></path><path d="M 662.22,488.69 L 662.22,449.97 L 620.74,449.97 L 620.74,488.69 L 662.22,488.69 Z" fill="#08306b" stroke="#ffffff" stroke-width="0.8"><title>cell 252: NAI=16.0000</title></path><path d="M 662.22,449.97 L 662.22,411.24 L 620.74,411.24 L 620.74,449.97 L 662.22,449.97 Z" fill="#2171b5" stroke="#ffffff" stroke-width="0.8"><title>cell 253: NAI=8.0000</title></path><path d="M 662.22,411.24 L 662.22,372.51 L 620.74,372.51 L 620.74,411.24 L 662.22,411.24 Z" fill="#08306b" stroke="#ffffff" stroke-width="0.8"><title>cell 254: NAI=20.0000</title></path><path d="M 662.22,372.51 L 662.22,333.79 L 620.74,333.79 L 620.74,372.51 L 662.22,372.51 Z" fill="#08306b" stroke="#ffffff" stroke-width="0.8"><title>cell 255: NAI=11.0000</title></path><path d="M 662.22,333.79 L 662.22,295.06 L 620.74,295.06 L 620.74,333.79 L 662.22,333.79 Z" fill="#08306b" stroke="#ffffff" stroke-width="0.8"><title>cell 256: NAI=12.0000</title></path><path d="M 662.22,295.06 L 662.22,256.34 L 620.74,256.34 L 620.74,295.06 L 662.22,295.06 Z" fill="#08306b" stroke="#ffffff" stroke-width="0.8"><title>cell 257: NAI=12.0000</title></path><path d="M 662.22,256.34 L 662.22,217.61 L 620.74,217.61 L 620.74,256.34 L 662.22,256.34 Z" fill="#2171b5" stroke="#ffffff" stroke-width="0.8"><title>cell 258: NAI=10.0000</title></path><path d="M 662.22,217.61 L 662.22,178.89 L 620.74,178.89 L 620.74,217.61 L 662.22,217.61 Z" fill="#2171b5" stroke="#ffffff" stroke-width="0.8"><title>cell 259: NAI=9.0000</title></path><path d="M 662.22,178.89 L 662.22,140.17 L 620.74,140.17 L 620.74,178.89 L 662.22,178.89 Z" fill="#6baed6" stroke="#ffffff" stroke-width="0.8"><title>cell 260: NAI=5.0000</title></path><path d="M 662.22,140.17 L 662.22,101.44 L 620.74,101.44 L 620.74,140.17 L 662.22,140.17 Z" fill="#c6dbef" stroke="#ffffff" stroke-width="0.8"><title>cell 261: NAI=4.0000</title></path><path d="M 662.22,101.44 L 662.22,62.72 L 620.74,62.72 L 620.74,101.44 L 662.22,101.44 Z" fill="#c6dbef" stroke="#ffffff" stroke-width="0.8"><title>cell 262: NAI=4.0000</title></path><path d="M 662.22,62.72 L 662.22,24.00 L 620.74,24.00 L 620.74,62.72 L 662.22,62.72 Z" fill="#c6dbef" stroke="#ffffff" stroke-width="0.8"><title>cell 263: NAI=4.0000</title></path><path d="M 703.70,876.00 L 703.70,837.27 L 662.22,837.27 L 662.22,876.00 L 703.70,876.00 Z" fill="#e0e0e0" stroke="#ffffff" stroke-width="0.8"><title>cell 264: NAI=0.0000</title></path><path d="M 703.70,837.27 L 703.70,798.53 L 662.22,798.53 L 662.22,837.27 L 703.70,837.27 Z" fill="#e0e0e0" stroke="#ffffff" stroke-width="0.8"><title>cell 265: NAI=0.0000</title></path><path d="M 703.70,798.53 L 703.70,759.80 L 662.22,759.80 L 662.22,798.53 L 703.70,798.53 Z" fill="#e0e0e0" stroke="#ffffff" stroke-width="0.8"><title>cell 266: NAI=0.0000</title></path><path d="M 703.70,759.80 L 703.70,721.07 L 662.22,721.07 L 662.22,759.80 L 703.70,759.80 Z" fill="#e0e0e0" stroke="#ffffff" stroke-width="0.8"><title>cell 267: NAI=0.0000</title></path><path d="M 703.70,721.07 L 703.70,682.34 L 662.22,682.34 L 662.22,721.07 L 703.70,721.07 Z" fill="#f7fbff" stroke="#ffffff" stroke-width="0.8"><title>cell 268: NAI=1.0000</title></path><path d="M 703.70,682.34 L 703.70,643.61 L 662.22,643.61 L 662.22,682.34 L 703.70,682.34 Z" fill="#c6dbef" stroke="#ffffff" stroke-width="0.8"><title>cell 269: NAI=2.0000</title></path><path d="M 703.70,643.61 L 703.70,604.88 L 662.22,604.88 L 662.22,643.61 L 703.70,643.61 Z" fill="#c6dbef" stroke="#ffffff" stroke-width="0.8"><title>cell 270: NAI=4.0000</title></path><path d="M 703.70,604.88 L 703.70,566.15 L 662.22,566.15 L 662.22,604.88 L 703.70,604.88 Z" fill="#2171b5" stroke="#ffffff" stroke-width="0.8"><title>cell 271: NAI=8.0000</title></path><path d="M 703.70,566.15 L 703.70,527.42 L 662.22,527.42 L 662.22,566.15 L 703.70,566.15 Z" fill="#08306b" stroke="#ffffff" stroke-width="0.8"><title>cell 272: NAI=14.0000</title></path><path d="M 703.70,527.42 L 703.70,488.69 L 662.22,488.69 L 662.22,527.42 L 703.70,527.42 Z" fill="#08306b" stroke="#ffffff" stroke-width="0.8"><title>cell 273: NAI=14.0000</title></path><path d="M 703.70,488.69 L 703.70,449.97 L 662.22,449.97 L 662.22,488.69 L 703.70,488.69 Z" fill="#08306b" stroke="#ffffff" stroke-width="0.8"><title>cell 274: NAI=14.0000</title></path><path d="M 703.70,449.97 L 703.70,411.24 L 662.22,411.24 L 662.22,449.97 L 703.70,449.97 Z" fill="#2171b5" stroke="#ffffff" stroke-width="0.8"><title>cell 275: NAI=10.0000</title></path><path d="M 703.70,411.24 L 703.70,372.51 L 662.22,372.51 L 662.22,411.24 L 703.70,411.24 Z" fill="#2171b5" stroke="#ffffff" stroke-width="0.8"><title>cell 276: NAI=10.0000</title></path><path d="M 703.70,372.51 L 703.70,333.79 L 662.22,333.79 L 662.22,372.51 L 703.70,372.51 Z" fill="#08306b" stroke="#ffffff" stroke-width="0.8"><title>cell 277: NAI=14.0000</title></path><path d="M 703.70,333.79 L 703.70,295.06 L 662.22,295.06 L 662.22,333.79 L 703.70,333.79 Z" fill="#6baed6" stroke="#ffffff" stroke-width="0.8"><title>cell 278: NAI=6.0000</title></path><path d="M 703.70,295.06 L 703.70,256.34 L 662.22,256.34 L 662.22,295.06 L 703.70,295.06 Z" fill="#2171b5" stroke="#ffffff" stroke-width="0.8"><title>cell 279: NAI=7.0000</title></path><path d="M 703.70,256.34 L 703.70,217.61 L 662.22,217.61 L 662.22,256.34 L 703.70,256.34 Z" fill="#2171b5" stroke="#ffffff" stroke-width="0.8"><title>cell 280: NAI=9.0000</title></path><path d="M 703.70,217.61 L 703.70,178.89 L 662.22,178.89 L 662.22,217.61 L 703.70,217.61 Z" fill="#6baed6" stroke="#ffffff" stroke-width="0.8"><title>cell 281: NAI=6.0000</title></path><path d="M 703.70,178.89 L 703.70,140.17 L 662.22,140.17 L 662.22,178.89 L 703.70,178.89 Z" fill="#c6dbef" stroke="#ffffff" stroke-width="0.8"><title>cell 282: NAI=3.0000</title></path><path d="M 703.70,140.17 L 703.70,101.44 L 662.22,101.44 L 662.22,140.17 L 703.70,140.17 Z" fill="#c6dbef" stroke="#ffffff" stroke-width="0.8"><title>cell 283: NAI=3.0000</title></path><path d="M 703.70,101.44 L 703.70,62.72 L 662.22,62.72 L 662.22,101.44 L 703.70,101.44 Z" fill="#6baed6" stroke="#ffffff" stroke-width="0.8"><title>cell 284: NAI=5.0000</title></path><path d="M 703.70,62.72 L 703.70,24.00 L 662.22,24.00 L 662.22,62.72 L 703.70,62.72 Z" fill="#6baed6" stroke="#ffffff" stroke-width="0.8"><title>cell 285: NAI=5.0000</title></path><path d="M 745.18,876.00 L 745.18,837.27 L 703.70,837.27 L 703.70,876.00 L 745.18,876.00 Z" fill="#e0e0e0" stroke="#ffffff" stroke-width="0.8"><title>cell 286: NAI=0.0000</title></path><path d="M 745.18,837.27 L 745.18,798.53 L 703.70,798.53 L 703.70,837.27 L 745.18,837.27 Z" fill="#e0e0e0" stroke="#ffffff" stroke-width="0.8"><title>cell 287: NAI=0.0000</title></path><path d="M 745.18,798.53 L 745.18,759.80 L 703.70,759.80 L 703.70,798.53 L 745.18,798.53 Z" fill="#f7fbff" stroke="#ffffff" stroke-width="0.8"><title>cell 288: NAI=1.0000</title></path><path d="M 745.18,759.80 L 745.18,721.07 L 703.70,721.07 L 703.70,759.80 L 745.18,759.80 Z" fill="#e0e0e0" stroke="#ffffff" stroke-width="0.8"><title>cell 289: NAI=0.0000</title></path><path d="M 745.18,721.07 L 745.18,682.34 L 703.70,682.34 L 703.70,721.07 L 745.18,721.07 Z" fill="#f7fbff" stroke="#ffffff" stroke-width="0.8"><title>cell 290: NAI=1.0000</title></path><path d="M 745.18,682.34 L 745.18,643.61 L 703.70,643.61 L 703.70,682.34 L 745.18,682.34 Z" fill="#c6dbef" stroke="#ffffff" stroke-width="0.8"><title>cell 291: NAI=2.0000</title></path><path d="M 745.18,643.61 L 745.18,604.88 L 703.70,604.88 L 703.70,643.61 L 745.18,643.61 Z" fill="#c6dbef" stroke="#ffffff" stroke-width="0.8"><title>cell 292: NAI=2.0000</title></path><path d="M 745.18,604.88 L 745.18,566.15 L 703.70,566.15 L 703.70,604.88 L 745.18,604.88 Z" fill="#08306b" stroke="#ffffff" stroke-width="0.8"><title>cell 293: NAI=12.0000</title></path><path d="M 745.18,566.15 L 745.18,527.42 L 703.70,527.42 L 703.70,566.15 L 745.18,566.15 Z" fill="#08306b" stroke="#ffffff" stroke-width="0.8"><title>cell 294: NAI=12.0000</title></path><path d="M 745.18,527.42 L 745.18,488.69 L 703.70,488.69 L 703.70,527.42 L 745.18,527.42 Z" fill="#2171b5" stroke="#ffffff" stroke-width="0.8"><title>cell 295: NAI=10.0000</title></path><path d="M 745.18,488.69 L 745.18,449.97 L 703.70,449.97 L 703.70,488.69 L 745.18,488.69 Z" fill="#2171b5" stroke="#ffffff" stroke-width="0.8"><title>cell 296: NAI=10.0000</title></path><path d="M 745.18,449.97 L 745.18,411.24 L 703.70,411.24 L 703.70,449.97 L 745.18,449.97 Z" fill="#08306b" stroke="#ffffff" stroke-width="0.8"><title>cell 297: NAI=12.0000</title></path><path d="M 745.18,411.24 L 745.18,372.51 L 703.70,372.51 L 703.70,411.24 L 745.18,411.24 Z" fill="#08306b" stroke="#ffffff" stroke-width="0.8"><title>cell 298: NAI=13.0000</title></path><path d="M 745.18,372.51 L 745.18,333.79 L 703.70,333.79 L 703.70,372.51 L 745.18,372.51 Z" fill="#08306b" stroke="#ffffff" stroke-width="0.8"><title>cell 299: NAI=11.0000</title></path><path d="M 745.18,333.79 L 745.18,295.06 L 703.70,295.06 L 703.70,333.79 L 745.18,333.79 Z" fill="#e0e0e0" stroke="#ffffff" stroke-width="0.8"><title>cell 300: NAI=0.0000</title></path><path d="M 745.18,295.06 L 745.18,256.34 L 703.70,256.34 L 703.70,295.06 L 745.18,295.06 Z" fill="#e0e0e0" stroke="#ffffff" stroke-width="0.8"><title>cell 301: NAI=0.0000</title></path><path d="M 745.18,256.34 L 745.18,217.61 L 703.70,217.61 L 703.70,256.34 L 745.18,256.34 Z" fill="#e0e0e0" stroke="#ffffff" stroke-width="0.8"><title>cell 302: NAI=0.0000</title></path><path d="M 745.18,217.61 L 745.18,178.89 L 703.70,178.89 L 703.70,217.61 L 745.18,217.61 Z" fill="#6baed6" stroke="#ffffff" stroke-width="0.8"><title>cell 303: NAI=5.0000</title></path><path d="M 745.18,178.89 L 745.18,140.17 L 703.70,140.17 L 703.70,178.89 L 745.18,178.89 Z" fill="#c6dbef" stroke="#ffffff" stroke-width="0.8"><title>cell 304: NAI=4.0000</title></path><path d="M 745.18,140.17 L 745.18,101.44 L 703.70,101.44 L 703.70,140.17 L 745.18,140.17 Z" fill="#c6dbef" stroke="#ffffff" stroke-width="0.8"><title>cell 305: NAI=3.0000</title></path><path d="M 745.18,101.44 L 745.18,62.72 L 703.70,62.72 L 703.70,101.44 L 745.18,101.44 Z" fill="#2171b5" stroke="#ffffff" stroke-width="0.8"><title>cell 306: NAI=7.0000</title></path><path d="M 745.18,62.72 L 745.18,24.00 L 703.70,24.00 L 703.70,62.72 L 745.18,62.72 Z" fill="#2171b5" stroke="#ffffff" stroke-width="0.8"><title>cell 307: NAI=7.0000</title></path><path d="M 786.66,876.00 L 786.66,837.27 L 745.18,837.27 L 745.18,876.00 L 786.66,876.00 Z" fill="#f7fbff" stroke="#ffffff" stroke-width="0.8"><title>cell 308: NAI=1.0000</title></path><path d="M 786.66,837.27 L 786.66,798.53 L 745.18,798.53 L 745.18,837.27 L 786.66,837.27 Z" fill="#f7fbff" stroke="#ffffff" stroke-width="0.8"><title>cell 309: NAI=1.0000</title></path><path d="M 786.66,798.53 L 786.66,759.80 L 745.18,759.80 L 745.18,798.53 L 786.66,798.53 Z" fill="#c6dbef" stroke="#ffffff" stroke-width="0.8"><title>cell 310: NAI=2.0000</title></path><path d="M 786.66,759.80 L 786.66,721.07 L 745.18,721.07 L 745.18,759.80 L 786.66,759.80 Z" fill="#c6dbef" stroke="#ffffff" stroke-width="0.8"><title>cell 311: NAI=4.0000</title></path><path d="M 786.66,721.07 L 786.66,682.34 L 745.18,682.34 L 745.18,721.07 L 786.66,721.07 Z" fill="#6baed6" stroke="#ffffff" stroke-width="0.8"><title>cell 312: NAI=5.0000</title></path><path d="M 786.66,682.34 L 786.66,643.61 L 745.18,643.61 L 745.18,682.34 L 786.66,682.34 Z" fill="#6baed6" stroke="#ffffff" stroke-width="0.8"><title>cell 313: NAI=5.0000</title></path><path d="M 786.66,643.61 L 786.66,604.88 L 745.18,604.88 L 745.18,643.61 L 786.66,643.61 Z" fill="#6baed6" stroke="#ffffff" stroke-width="0.8"><title>cell 314: NAI=5.0000</title></path><path d="M 786.66,604.88 L 786.66,566.15 L 745.18,566.15 L 745.18,604.88 L 786.66,604.88 Z" fill="#2171b5" stroke="#ffffff" stroke-width="0.8"><title>cell 315: NAI=7.0000</title></path><path d="M 786.66,566.15 L 786.66,527.42 L 745.18,527.42 L 745.18,566.15 L 786.66,566.15 Z" fill="#08306b" stroke="#ffffff" stroke-width="0.8"><title>cell 316: NAI=12.0000</title></path><path d="M 786.66,527.42 L 786.66,488.69 L 745.18,488.69 L 745.18,527.42 L 786.66,527.42 Z" fill="#08306b" stroke="#ffffff" stroke-width="0.8"><title>cell 317: NAI=11.0000</title></path><path d="M 786.66,488.69 L 786.66,449.97 L 745.18,449.97 L 745.18,488.69 L 786.66,488.69 Z" fill="#08306b" stroke="#ffffff" stroke-width="0.8"><title>cell 318: NAI=12.0000</title></path><path d="M 786.66,449.97 L 786.66,411.24 L 745.18,411.24 L 745.18,449.97 L 786.66,449.97 Z" fill="#08306b" stroke="#ffffff" stroke-width="0.8"><title>cell 319: NAI=11.0000</title></path><path d="M 786.66,411.24 L 786.66,372.51 L 745.18,372.51 L 745.18,411.24 L 786.66,411.24 Z" fill="#2171b5" stroke="#ffffff" stroke-width="0.8"><title>cell 320: NAI=8.0000</title></path><path d="M 786.66,372.51 L 786.66,333.79 L 745.18,333.79 L 745.18,372.51 L 786.66,372.51 Z" fill="#6baed6" stroke="#ffffff" stroke-width="0.8"><title>cell 321: NAI=6.0000</title></path><path d="M 786.66,333.79 L 786.66,295.06 L 745.18,295.06 L 745.18,333.79 L 786.66,333.79 Z" fill="#c6dbef" stroke="#ffffff" stroke-width="0.8"><title>cell 322: NAI=4.0000</title></path><path d="M 786.66,295.06 L 786.66,256.34 L 745.18,256.34 L 745.18,295.06 L 786.66,295.06 Z" fill="#e0e0e0" stroke="#ffffff" stroke-width="0.8"><title>cell 323: NAI=0.0000</title></path><path d="M 786.66,256.34 L 786.66,217.61 L 745.18,217.61 L 745.18,256.34 L 786.66,256.34 Z" fill="#e0e0e0" stroke="#ffffff" stroke-width="0.8"><title>cell 324: NAI=0.0000</title></path><path d="M 786.66,217.61 L 786.66,178.89 L 745.18,178.89 L 745.18,217.61 L 786.66,217.61 Z" fill="#c6dbef" stroke="#ffffff" stroke-width="0.8"><title>cell 325: NAI=3.0000</title></path><path d="M 786.66,178.89 L 786.66,140.17 L 745.18,140.17 L 745.18,178.89 L 786.66,178.89 Z" fill="#c6dbef" stroke="#ffffff" stroke-width="0.8"><title>cell 326: NAI=4.0000</title></path><path d="M 786.66,140.17 L 786.66,101.44 L 745.18,101.44 L 745.18,140.17 L 786.66,140.17 Z" fill="#c6dbef" stroke="#ffffff" stroke-width="0.8"><title>cell 327: NAI=2.0000</title></path><path d="M 786.66,101.44 L 786.66,62.72 L 745.18,62.72 L 745.18,101.44 L 786.66,101.44 Z" fill="#6baed6" stroke="#ffffff" stroke-width="0.8"><title>cell 328: NAI=6.0000</title></path><path d="M 786.66,62.72 L 786.66,24.00 L 745.18,24.00 L 745.18,62.72 L 786.66,62.72 Z" fill="#2171b5" stroke="#ffffff" stroke-width="0.8"><title>cell 329: NAI=7.0000</title></path><path d="M 828.14,876.00 L 828.14,837.27 L 786.66,837.27 L 786.66,876.00 L 828.14,876.00 Z" fill="#e0e0e0" stroke="#ffffff" stroke-width="0.8"><title>cell 330: NAI=0.0000</title></path><path d="M 828.14,837.27 L 828.14,798.53 L 786.66,798.53 L 786.66,837.27 L 828.14,837.27 Z" fill="#c6dbef" stroke="#ffffff" stroke-width="0.8"><title>cell 331: NAI=2.0000</title></path><path d="M 828.14,798.53 L 828.14,759.80 L 786.66,759.80 L 786.66,798.53 L 828.14,798.53 Z" fill="#c6dbef" stroke="#ffffff" stroke-width="0.8"><title>cell 332: NAI=3.0000</title></path><path d="M 828.14,759.80 L 828.14,721.07 L 786.66,721.07 L 786.66,759.80 L 828.14,759.80 Z" fill="#6baed6" stroke="#ffffff" stroke-width="0.8"><title>cell 333: NAI=5.0000</title></path><path d="M 828.14,721.07 L 828.14,682.34 L 786.66,682.34 L 786.66,721.07 L 828.14,721.07 Z" fill="#6baed6" stroke="#ffffff" stroke-width="0.8"><title>cell 334: NAI=6.0000</title></path><path d="M 828.14,682.34 L 828.14,643.61 L 786.66,643.61 L 786.66,682.34 L 828.14,682.34 Z" fill="#2171b5" stroke="#ffffff" stroke-width="0.8"><title>cell 335: NAI=8.0000</title></path><path d="M 828.14,643.61 L 828.14,604.88 L 786.66,604.88 L 786.66,643.61 L 828.14,643.61 Z" fill="#2171b5" stroke="#ffffff" stroke-width="0.8"><title>cell 336: NAI=8.0000</title></path><path d="M 828.14,604.88 L 828.14,566.15 L 786.66,566.15 L 786.66,604.88 L 828.14,604.88 Z" fill="#6baed6" stroke="#ffffff" stroke-width="0.8"><title>cell 337: NAI=5.0000</title></path><path d="M 828.14,566.15 L 828.14,527.42 L 786.66,527.42 L 786.66,566.15 L 828.14,566.15 Z" fill="#2171b5" stroke="#ffffff" stroke-width="0.8"><title>cell 338: NAI=7.0000</title></path><path d="M 828.14,527.42 L 828.14,488.69 L 786.66,488.69 L 786.66,527.42 L 828.14,527.42 Z" fill="#2171b5" stroke="#ffffff" stroke-width="0.8"><title>cell 339: NAI=8.0000</title></path><path d="M 828.14,488.69 L 828.14,449.97 L 786.66,449.97 L 786.66,488.69 L 828.14,488.69 Z" fill="#2171b5" stroke="#ffffff" stroke-width="0.8"><title>cell 340: NAI=9.0000</title></path><path d="M 828.14,449.97 L 828.14,411.24 L 786.66,411.24 L 786.66,449.97 L 828.14,449.97 Z" fill="#2171b5" stroke="#ffffff" stroke-width="0.8"><title>cell 341: NAI=8.0000</title></path><path d="M 828.14,411.24 L 828.14,372.51 L 786.66,372.51 L 786.66,411.24 L 828.14,411.24 Z" fill="#2171b5" stroke="#ffffff" stroke-width="0.8"><title>cell 342: NAI=7.0000</title></path><path d="M 828.14,372.51 L 828.14,333.79 L 786.66,333.79 L 786.66,372.51 L 828.14,372.51 Z" fill="#2171b5" stroke="#ffffff" stroke-width="0.8"><title>cell 343: NAI=7.0000</title></path><path d="M 828.14,333.79 L 828.14,295.06 L 786.66,295.06 L 786.66,333.79 L 828.14,333.79 Z" fill="#c6dbef" stroke="#ffffff" stroke-width="0.8"><title>cell 344: NAI=4.0000</title></path><path d="M 828.14,295.06 L 828.14,256.34 L 786.66,256.34 L 786.66,295.06 L 828.14,295.06 Z" fill="#c6dbef" stroke="#ffffff" stroke-width="0.8"><title>cell 345: NAI=2.0000</title></path><path d="M 828.14,256.34 L 828.14,217.61 L 786.66,217.61 L 786.66,256.34 L 828.14,256.34 Z" fill="#e0e0e0" stroke="#ffffff" stroke-width="0.8"><title>cell 346: NAI=0.0000</title></path><path d="M 828.14,217.61 L 828.14,178.89 L 786.66,178.89 L 786.66,217.61 L 828.14,217.61 Z" fill="#f7fbff" stroke="#ffffff" stroke-width="0.8"><title>cell 347: NAI=1.0000</title></path><path d="M 828.14,178.89 L 828.14,140.17 L 786.66,140.17 L 786.66,178.89 L 828.14,178.89 Z" fill="#6baed6" stroke="#ffffff" stroke-width="0.8"><title>cell 348: NAI=6.0000</title></path><path d="M 828.14,140.17 L 828.14,101.44 L 786.66,101.44 L 786.66,140.17 L 828.14,140.17 Z" fill="#6baed6" stroke="#ffffff" stroke-width="0.8"><title>cell 349: NAI=6.0000</title></path><path d="M 828.14,101.44 L 828.14,62.72 L 786.66,62.72 L 786.66,101.44 L 828.14,101.44 Z" fill="#6baed6" stroke="#ffffff" stroke-width="0.8"><title>cell 350: NAI=6.0000</title></path><path d="M 828.14,62.72 L 828.14,24.00 L 786.66,24.00 L 786.66,62.72 L 828.14,62.72 Z" fill="#c6dbef" stroke="#ffffff" stroke-width="0.8"><title>cell 351: NAI=4.0000</title></path><path d="M 869.62,876.00 L 869.62,837.27 L 828.14,837.27 L 828.14,876.00 L 869.62,876.00 Z" fill="#e0e0e0" stroke="#ffffff" stroke-width="0.8"><title>cell 352: NAI=0.0000</title></path><path d="M 869.62,837.27 L 869.62,798.53 L 828.14,798.53 L 828.14,837.27 L 869.62,837.27 Z" fill="#c6dbef" stroke="#ffffff" stroke-width="0.8"><title>cell 353: NAI=2.0000</title></path><path d="M 869.62,798.53 L 869.62,759.80 L 828.14,759.80 L 828.14,798.53 L 869.62,798.53 Z" fill="#c6dbef" stroke="#ffffff" stroke-width="0.8"><title>cell 354: NAI=2.0000</title></path><path d="M 869.62,759.80 L 869.62,721.07 L 828.14,721.07 L 828.14,759.80 L 869.62,759.80 Z" fill="#6baed6" stroke="#ffffff" stroke-width="0.8"><title>cell 355: NAI=5.0000</title></path><path d="M 869.62,721.07 L 869.62,682.34 L 828.14,682.34 L 828.14,721.07 L 869.62,721.07 Z" fill="#6baed6" stroke="#ffffff" stroke-width="0.8"><title>cell 356: NAI=5.0000</title></path><path d="M 869.62,682.34 L 869.62,643.61 L 828.14,643.61 L 828.14,682.34 L 869.62,682.34 Z" fill="#2171b5" stroke="#ffffff" stroke-width="0.8"><title>cell 357: NAI=7.0000</title></path><path d="M 869.62,643.61 L 869.62,604.88 L 828.14,604.88 L 828.14,643.61 L 869.62,643.61 Z" fill="#2171b5" stroke="#ffffff" stroke-width="0.8"><title>cell 358: NAI=7.0000</title></path><path d="M 869.62,604.88 L 869.62,566.15 L 828.14,566.15 L 828.14,604.88 L 869.62,604.88 Z" fill="#6baed6" stroke="#ffffff" stroke-width="0.8"><title>cell 359: NAI=6.0000</title></path><path d="M 869.62,566.15 L 869.62,527.42 L 828.14,527.42 L 828.14,566.15 L 869.62,566.15 Z" fill="#6baed6" stroke="#ffffff" stroke-width="0.8"><title>cell 360: NAI=5.0000</title></path><path d="M 869.62,527.42 L 869.62,488.69 L 828.14,488.69 L 828.14,527.42 L 869.62,527.42 Z" fill="#2171b5" stroke="#ffffff" stroke-width="0.8"><title>cell 361: NAI=9.0000</title></path><path d="M 869.62,488.69 L 869.62,449.97 L 828.14,449.97 L 828.14,488.69 L 869.62,488.69 Z" fill="#2171b5" stroke="#ffffff" stroke-width="0.8"><title>cell 362: NAI=9.0000</title></path><path d="M 869.62,449.97 L 869.62,411.24 L 828.14,411.24 L 828.14,449.97 L 869.62,449.97 Z" fill="#6baed6" stroke="#ffffff" stroke-width="0.8"><title>cell 363: NAI=6.0000</title></path><path d="M 869.62,411.24 L 869.62,372.51 L 828.14,372.51 L 828.14,411.24 L 869.62,411.24 Z" fill="#6baed6" stroke="#ffffff" stroke-width="0.8"><title>cell 364: NAI=5.0000</title></path><path d="M 869.62,372.51 L 869.62,333.79 L 828.14,333.79 L 828.14,372.51 L 869.62,372.51 Z" fill="#e0e0e0" stroke="#ffffff" stroke-width="0.8"><title>cell 365: NAI=0.0000</title></path><path d="M 869.62,333.79 L 869.62,295.06 L 828.14,295.06 L 828.14,333.79 L 869.62,333.79 Z" fill="#e0e0e0" stroke="#ffffff" stroke-width="0.8"><title>cell 366: NAI=0.0000</title></path><path d="M 869.62,295.06 L 869.62,256.34 L 828.14,256.34 L 828.14,295.06 L 869.62,295.06 Z" fill="#e0e0e0" stroke="#ffffff" stroke-width="0.8"><title>cell 367: NAI=0.0000</title></path><path d="M 869.62,256.34 L 869.62,217.61 L 828.14,217.61 L 828.14,256.34 L 869.62,256.34 Z" fill="#e0e0e0" stroke="#ffffff" stroke-width="0.8"><title>cell 368: NAI=0.0000</title></path><path d="M 869.62,217.61 L 869.62,178.89 L 828.14,178.89 L 828.14,217.61 L 869.62,217.61 Z" fill="#f7fbff" stroke="#ffffff" stroke-width="0.8"><title>cell 369: NAI=1.0000</title></path><path d="M 869.62,178.89 L 869.62,140.17 L 828.14,140.17 L 828.14,178.89 L 869.62,178.89 Z" fill="#c6dbef" stroke="#ffffff" stroke-width="0.8"><title>cell 370: NAI=4.0000</title></path><path d="M 869.62,140.17 L 869.62,101.44 L 828.14,101.44 L 828.14,140.17 L 869.62,140.17 Z" fill="#c6dbef" stroke="#ffffff" stroke-width="0.8"><title>cell 371: NAI=3.0000</title></path><path d="M 869.62,101.44 L 869.62,62.72 L 828.14,62.72 L 828.14,101.44 L 869.62,101.44 Z" fill="#c6dbef" stroke="#ffffff" stroke-width="0.8"><title>cell 372: NAI=4.0000</title></path><path d="M 869.62,62.72 L 869.62,24.00 L 828.14,24.00 L 828.14,62.72 L 869.62,62.72 Z" fill="#c6dbef" stroke="#ffffff" stroke-width="0.8"><title>cell 373: NAI=3.0000</title></path><path d="M 911.11,876.00 L 911.11,837.27 L 869.62,837.27 L 869.62,876.00 L 911.11,876.00 Z" fill="#e0e0e0" stroke="#ffffff" stroke-width="0.8"><title>cell 374: NAI=0.0000</title></path><path d="M 911.11,837.27 L 911.11,798.53 L 869.62,798.53 L 869.62,837.27 L 911.11,837.27 Z" fill="#e0e0e0" stroke="#ffffff" stroke-width="0.8"><title>cell 375: NAI=0.0000</title></path><path d="M 911.11,798.53 L 911.11,759.80 L 869.62,759.80 L 869.62,798.53 L 911.11,798.53 Z" fill="#e0e0e0" stroke="#ffffff" stroke-width="0.8"><title>cell 376: NAI=0.0000</title></path><path d="M 911.11,759.80 L 911.11,721.07 L 869.62,721.07 L 869.62,759.80 L 911.11,759.80 Z" fill="#f7fbff" stroke="#ffffff" stroke-width="0.8"><title>cell 377: NAI=1.0000</title></path><path d="M 911.11,721.07 L 911.11,682.34 L 869.62,682.34 L 869.62,721.07 L 911.11,721.07 Z" fill="#6baed6" stroke="#ffffff" stroke-width="0.8"><title>cell 378: NAI=5.0000</title></path><path d="M 911.11,682.34 L 911.11,643.61 L 869.62,643.61 L 869.62,682.34 L 911.11,682.34 Z" fill="#6baed6" stroke="#ffffff" stroke-width="0.8"><title>cell 379: NAI=6.0000</title></path><path d="M 911.11,643.61 L 911.11,604.88 L 869.62,604.88 L 869.62,643.61 L 911.11,643.61 Z" fill="#c6dbef" stroke="#ffffff" stroke-width="0.8"><title>cell 380: NAI=4.0000</title></path><path d="M 911.11,604.88 L 911.11,566.15 L 869.62,566.15 L 869.62,604.88 L 911.11,604.88 Z" fill="#6baed6" stroke="#ffffff" stroke-width="0.8"><title>cell 381: NAI=6.0000</title></path><path d="M 911.11,566.15 L 911.11,527.42 L 869.62,527.42 L 869.62,566.15 L 911.11,566.15 Z" fill="#c6dbef" stroke="#ffffff" stroke-width="0.8"><title>cell 382: NAI=4.0000</title></path><path d="M 911.11,527.42 L 911.11,488.69 L 869.62,488.69 L 869.62,527.42 L 911.11,527.42 Z" fill="#c6dbef" stroke="#ffffff" stroke-width="0.8"><title>cell 383: NAI=4.0000</title></path><path d="M 911.11,488.69 L 911.11,449.97 L 869.62,449.97 L 869.62,488.69 L 911.11,488.69 Z" fill="#2171b5" stroke="#ffffff" stroke-width="0.8"><title>cell 384: NAI=9.0000</title></path><path d="M 911.11,449.97 L 911.11,411.24 L 869.62,411.24 L 869.62,449.97 L 911.11,449.97 Z" fill="#2171b5" stroke="#ffffff" stroke-width="0.8"><title>cell 385: NAI=8.0000</title></path><path d="M 911.11,411.24 L 911.11,372.51 L 869.62,372.51 L 869.62,411.24 L 911.11,411.24 Z" fill="#e0e0e0" stroke="#ffffff" stroke-width="0.8"><title>cell 386: NAI=0.0000</title></path><path d="M 911.11,372.51 L 911.11,333.79 L 869.62,333.79 L 869.62,372.51 L 911.11,372.51 Z" fill="#e0e0e0" stroke="#ffffff" stroke-width="0.8"><title>cell 387: NAI=0.0000</title></path><path d="M 911.11,333.79 L 911.11,295.06 L 869.62,295.06 L 869.62,333.79 L 911.11,333.79 Z" fill="#e0e0e0" stroke="#ffffff" stroke-width="0.8"><title>cell 388: NAI=0.0000</title></path><path d="M 911.11,295.06 L 911.11,256.34 L 869.62,256.34 L 869.62,295.06 L 911.11,295.06 Z" fill="#e0e0e0" stroke="#ffffff" stroke-width="0.8"><title>cell 389: NAI=0.0000</title></path><path d="M 911.11,256.34 L 911.11,217.61 L 869.62,217.61 L 869.62,256.34 L 911.11,256.34 Z" fill="#c6dbef" stroke="#ffffff" stroke-width="0.8"><title>cell 390: NAI=3.0000</title></path><path d="M 911.11,217.61 L 911.11,178.89 L 869.62,178.89 L 869.62,217.61 L 911.11,217.61 Z" fill="#f7fbff" stroke="#ffffff" stroke-width="0.8"><title>cell 391: NAI=1.0000</title></path><path d="M 911.11,178.89 L 911.11,140.17 L 869.62,140.17 L 869.62,178.89 L 911.11,178.89 Z" fill="#f7fbff" stroke="#ffffff" stroke-width="0.8"><title>cell 392: NAI=1.0000</title></path><path d="M 911.11,140.17 L 911.11,101.44 L 869.62,101.44 L 869.62,140.17 L 911.11,140.17 Z" fill="#c6dbef" stroke="#ffffff" stroke-width="0.8"><title>cell 393: NAI=4.0000</title></path><path d="M 911.11,101.44 L 911.11,62.72 L 869.62,62.72 L 869.62,101.44 L 911.11,101.44 Z" fill="#e0e0e0" stroke="#ffffff" stroke-width="0.8"><title>cell 394: NAI=0.0000</title></path><path d="M 911.11,62.72 L 911.11,24.00 L 869.62,24.00 L 869.62,62.72 L 911.11,62.72 Z" fill="#f7fbff" stroke="#ffffff" stroke-width="0.8"><title>cell 395: NAI=1.0000</title></path><path d="M 952.59,876.00 L 952.59,837.27 L 911.11,837.27 L 911.11,876.00 L 952.59,876.00 Z" fill="#e0e0e0" stroke="#ffffff" stroke-width="0.8"><title>cell 396: NAI=0.0000</title></path><path d="M 952.59,837.27 L 952.59,798.53 L 911.11,798.53 L 911.11,837.27 L 952.59,837.27 Z" fill="#f7fbff" stroke="#ffffff" stroke-width="0.8"><title>cell 397: NAI=1.0000</title></path><path d="M 952.59,798.53 L 952.59,759.80 L 911.11,759.80 L 911.11,798.53 L 952.59,798.53 Z" fill="#f7fbff" stroke="#ffffff" stroke-width="0.8"><title>cell 398: NAI=1.0000</title></path><path d="M 952.59,759.80 L 952.59,721.07 L 911.11,721.07 L 911.11,759.80 L 952.59,759.80 Z" fill="#c6dbef" stroke="#ffffff" stroke-width="0.8"><title>cell 399: NAI=2.0000</title></path><path d="M 952.59,721.07 L 952.59,682.34 L 911.11,682.34 L 911.11,721.07 L 952.59,721.07 Z" fill="#c6dbef" stroke="#ffffff" stroke-width="0.8"><title>cell 400: NAI=2.0000</title></path><path d="M 952.59,682.34 L 952.59,643.61 L 911.11,643.61 L 911.11,682.34 L 952.59,682.34 Z" fill="#c6dbef" stroke="#ffffff" stroke-width="0.8"><title>cell 401: NAI=3.0000</title></path><path d="M 952.59,643.61 L 952.59,604.88 L 911.11,604.88 L 911.11,643.61 L 952.59,643.61 Z" fill="#f7fbff" stroke="#ffffff" stroke-width="0.8"><title>cell 402: NAI=1.0000</title></path><path d="M 952.59,604.88 L 952.59,566.15 L 911.11,566.15 L 911.11,604.88 L 952.59,604.88 Z" fill="#c6dbef" stroke="#ffffff" stroke-width="0.8"><title>cell 403: NAI=3.0000</title></path><path d="M 952.59,566.15 L 952.59,527.42 L 911.11,527.42 L 911.11,566.15 L 952.59,566.15 Z" fill="#c6dbef" stroke="#ffffff" stroke-width="0.8"><title>cell 404: NAI=4.0000</title></path><path d="M 952.59,527.42 L 952.59,488.69 L 911.11,488.69 L 911.11,527.42 L 952.59,527.42 Z" fill="#c6dbef" stroke="#ffffff" stroke-width="0.8"><title>cell 405: NAI=2.0000</title></path><path d="M 952.59,488.69 L 952.59,449.97 L 911.11,449.97 L 911.11,488.69 L 952.59,488.69 Z" fill="#2171b5" stroke="#ffffff" stroke-width="0.8"><title>cell 406: NAI=7.0000</title></path><path d="M 952.59,449.97 L 952.59,411.24 L 911.11,411.24 L 911.11,449.97 L 952.59,449.97 Z" fill="#c6dbef" stroke="#ffffff" stroke-width="0.8"><title>cell 407: NAI=3.0000</title></path><path d="M 952.59,411.24 L 952.59,372.51 L 911.11,372.51 L 911.11,411.24 L 952.59,411.24 Z" fill="#c6dbef" stroke="#ffffff" stroke-width="0.8"><title>cell 408: NAI=3.0000</title></path><path d="M 952.59,372.51 L 952.59,333.79 L 911.11,333.79 L 911.11,372.51 L 952.59,372.51 Z" fill="#c6dbef" stroke="#ffffff" stroke-width="0.8"><title>cell 409: NAI=4.0000</title></path><path d="M 952.59,333.79 L 952.59,295.06 L 911.11,295.06 L 911.11,333.79 L 952.59,333.79 Z" fill="#f7fbff" stroke="#ffffff" stroke-width="0.8"><title>cell 410: NAI=1.0000</title></path><path d="M 952.59,295.06 L 952.59,256.34 L 911.11,256.34 L 911.11,295.06 L 952.59,295.06 Z" fill="#6baed6" stroke="#ffffff" stroke-width="0.8"><title>cell 411: NAI=6.0000</title></path><path d="M 952.59,256.34 L 952.59,217.61 L 911.11,217.61 L 911.11,256.34 L 952.59,256.34 Z" fill="#6baed6" stroke="#ffffff" stroke-width="0.8"><title>cell 412: NAI=5.0000</title></path><path d="M 952.59,217.61 L 952.59,178.89 L 911.11,178.89 L 911.11,217.61 L 952.59,217.61 Z" fill="#2171b5" stroke="#ffffff" stroke-width="0.8"><title>cell 413: NAI=7.0000</title></path><path d="M 952.59,178.89 L 952.59,140.17 L 911.11,140.17 L 911.11,178.89 L 952.59,178.89 Z" fill="#f7fbff" stroke="#ffffff" stroke-width="0.8"><title>cell 414: NAI=1.0000</title></path><path d="M 952.59,140.17 L 952.59,101.44 L 911.11,101.44 L 911.11,140.17 L 952.59,140.17 Z" fill="#6baed6" stroke="#ffffff" stroke-width="0.8"><title>cell 415: NAI=6.0000</title></path><path d="M 952.59,101.44 L 952.59,62.72 L 911.11,62.72 L 911.11,101.44 L 952.59,101.44 Z" fill="#6baed6" stroke="#ffffff" stroke-width="0.8"><title>cell 416: NAI=6.0000</title></path><path d="M 952.59,62.72 L 952.59,24.00 L 911.11,24.00 L 911.11,62.72 L 952.59,62.72 Z" fill="#c6dbef" stroke="#ffffff" stroke-width="0.8"><title>cell 417: NAI=2.0000</title></path><path d="M 994.07,876.00 L 994.07,837.27 L 952.59,837.27 L 952.59,876.00 L 994.07,876.00 Z" fill="#e0e0e0" stroke="#ffffff" stroke-width="0.8"><title>cell 418: NAI=0.0000</title></path><path d="M 994.07,837.27 L 994.07,798.53 L 952.59,798.53 L 952.59,837.27 L 994.07,837.27 Z" fill="#f7fbff" stroke="#ffffff" stroke-width="0.8"><title>cell 419: NAI=1.0000</title></path><path d="M 994.07,798.53 L 994.07,759.80 L 952.59,759.80 L 952.59,798.53 L 994.07,798.53 Z" fill="#f7fbff" stroke="#ffffff" stroke-width="0.8"><title>cell 420: NAI=1.0000</title></path><path d="M 994.07,759.80 L 994.07,721.07 L 952.59,721.07 L 952.59,759.80 L 994.07,759.80 Z" fill="#c6dbef" stroke="#ffffff" stroke-width="0.8"><title>cell 421: NAI=2.0000</title></path><path d="M 994.07,721.07 L 994.07,682.34 L 952.59,682.34 L 952.59,721.07 L 994.07,721.07 Z" fill="#c6dbef" stroke="#ffffff" stroke-width="0.8"><title>cell 422: NAI=2.0000</title></path><path d="M 994.07,682.34 L 994.07,643.61 L 952.59,643.61 L 952.59,682.34 L 994.07,682.34 Z" fill="#c6dbef" stroke="#ffffff" stroke-width="0.8"><title>cell 423: NAI=2.0000</title></path><path d="M 994.07,643.61 L 994.07,604.88 L 952.59,604.88 L 952.59,643.61 L 994.07,643.61 Z" fill="#f7fbff" stroke="#ffffff" stroke-width="0.8"><title>cell 424: NAI=1.0000</title></path><path d="M 994.07,604.88 L 994.07,566.15 L 952.59,566.15 L 952.59,604.88 L 994.07,604.88 Z" fill="#f7fbff" stroke="#ffffff" stroke-width="0.8"><title>cell 425: NAI=1.0000</title></path><path d="M 994.07,566.15 L 994.07,527.42 L 952.59,527.42 L 952.59,566.15 L 994.07,566.15 Z" fill="#c6dbef" stroke="#ffffff" stroke-width="0.8"><title>cell 426: NAI=2.0000</title></path><path d="M 994.07,527.42 L 994.07,488.69 L 952.59,488.69 L 952.59,527.42 L 994.07,527.42 Z" fill="#f7fbff" stroke="#ffffff" stroke-width="0.8"><title>cell 427: NAI=1.0000</title></path><path d="M 994.07,488.69 L 994.07,449.97 L 952.59,449.97 L 952.59,488.69 L 994.07,488.69 Z" fill="#f7fbff" stroke="#ffffff" stroke-width="0.8"><title>cell 428: NAI=1.0000</title></path><path d="M 994.07,449.97 L 994.07,411.24 L 952.59,411.24 L 952.59,449.97 L 994.07,449.97 Z" fill="#e0e0e0" stroke="#ffffff" stroke-width="0.8"><title>cell 429: NAI=0.0000</title></path><path d="M 994.07,411.24 L 994.07,372.51 L 952.59,372.51 L 952.59,411.24 L 994.07,411.24 Z" fill="#f7fbff" stroke="#ffffff" stroke-width="0.8"><title>cell 430: NAI=1.0000</title></path><path d="M 994.07,372.51 L 994.07,333.79 L 952.59,333.79 L 952.59,372.51 L 994.07,372.51 Z" fill="#6baed6" stroke="#ffffff" stroke-width="0.8"><title>cell 431: NAI=6.0000</title></path><path d="M 994.07,333.79 L 994.07,295.06 L 952.59,295.06 L 952.59,333.79 L 994.07,333.79 Z" fill="#c6dbef" stroke="#ffffff" stroke-width="0.8"><title>cell 432: NAI=4.0000</title></path><path d="M 994.07,295.06 L 994.07,256.34 L 952.59,256.34 L 952.59,295.06 L 994.07,295.06 Z" fill="#2171b5" stroke="#ffffff" stroke-width="0.8"><title>cell 433: NAI=8.0000</title></path><path d="M 994.07,256.34 L 994.07,217.61 L 952.59,217.61 L 952.59,256.34 L 994.07,256.34 Z" fill="#2171b5" stroke="#ffffff" stroke-width="0.8"><title>cell 434: NAI=7.0000</title></path><path d="M 994.07,217.61 L 994.07,178.89 L 952.59,178.89 L 952.59,217.61 L 994.07,217.61 Z" fill="#2171b5" stroke="#ffffff" stroke-width="0.8"><title>cell 435: NAI=7.0000</title></path><path d="M 994.07,178.89 L 994.07,140.17 L 952.59,140.17 L 952.59,178.89 L 994.07,178.89 Z" fill="#2171b5" stroke="#ffffff" stroke-width="0.8"><title>cell 436: NAI=7.0000</title></path><path d="M 994.07,140.17 L 994.07,101.44 L 952.59,101.44 L 952.59,140.17 L 994.07,140.17 Z" fill="#6baed6" stroke="#ffffff" stroke-width="0.8"><title>cell 437: NAI=5.0000</title></path><path d="M 994.07,101.44 L 994.07,62.72 L 952.59,62.72 L 952.59,101.44 L 994.07,101.44 Z" fill="#c6dbef" stroke="#ffffff" stroke-width="0.8"><title>cell 438: NAI=4.0000</title></path><path d="M 994.07,62.72 L 994.07,24.00 L 952.59,24.00 L 952.59,62.72 L 994.07,62.72 Z" fill="#c6dbef" stroke="#ffffff" stroke-width="0.8"><title>cell 439: NAI=2.0000</title></path><path d="M 1035.55,876.00 L 1035.55,837.27 L 994.07,837.27 L 994.07,876.00 L 1035.55,876.00 Z" fill="#e0e0e0" stroke="#ffffff" stroke-width="0.8"><title>cell 440: NAI=0.0000</title></path><path d="M 1035.55,837.27 L 1035.55,798.53 L 994.07,798.53 L 994.07,837.27 L 1035.55,837.27 Z" fill="#f7fbff" stroke="#ffffff" stroke-width="0.8"><title>cell 441: NAI=1.0000</title></path><path d="M 1035.55,798.53 L 1035.55,759.80 L 994.07,759.80 L 994.07,798.53 L 1035.55,798.53 Z" fill="#f7fbff" stroke="#ffffff" stroke-width="0.8"><title>cell 442: NAI=1.0000</title></path><path d="M 1035.55,759.80 L 1035.55,721.07 L 994.07,721.07 L 994.07,759.80 L 1035.55,759.80 Z" fill="#f7fbff" stroke="#ffffff" stroke-width="0.8"><title>cell 443: NAI=1.0000</title></path><path d="M 1035.55,721.07 L 1035.55,682.34 L 994.07,682.34 L 994.07,721.07 L 1035.55,721.07 Z" fill="#f7fbff" stroke="#ffffff" stroke-width="0.8"><title>cell 444: NAI=1.0000</title></path><path d="M 1035.55,682.34 L 1035.55,643.61 L 994.07,643.61 L 994.07,682.34 L 1035.55,682.34 Z" fill="#c6dbef" stroke="#ffffff" stroke-width="0.8"><title>cell 445: NAI=2.0000</title></path><path d="M 1035.55,643.61 L 1035.55,604.88 L 994.07,604.88 L 994.07,643.61 L 1035.55,643.61 Z" fill="#f7fbff" stroke="#ffffff" stroke-width="0.8"><title>cell 446: NAI=1.0000</title></path><path d="M 1035.55,604.88 L 1035.55,566.15 L 994.07,566.15 L 994.07,604.88 L 1035.55,604.88 Z" fill="#f7fbff" stroke="#ffffff" stroke-width="0.8"><title>cell 447: NAI=1.0000</title></path><path d="M 1035.55,566.15 L 1035.55,527.42 L 994.07,527.42 L 994.07,566.15 L 1035.55,566.15 Z" fill="#f7fbff" stroke="#ffffff" stroke-width="0.8"><title>cell 448: NAI=1.0000</title></path><path d="M 1035.55,527.42 L 1035.55,488.69 L 994.07,488.69 L 994.07,527.42 L 1035.55,527.42 Z" fill="#f7fbff" stroke="#ffffff" stroke-width="0.8"><title>cell 449: NAI=1.0000</title></path><path d="M 1035.55,488.69 L 1035.55,449.97 L 994.07,449.97 L 994.07,488.69 L 1035.55,488.69 Z" fill="#f7fbff" stroke="#ffffff" stroke-width="0.8"><title>cell 450: NAI=1.0000</title></path><path d="M 1035.55,449.97 L 1035.55,411.24 L 994.07,411.24 L 994.07,449.97 L 1035.55,449.97 Z" fill="#f7fbff" stroke="#ffffff" stroke-width="0.8"><title>cell 451: NAI=1.0000</title></path><path d="M 1035.55,411.24 L 1035.55,372.51 L 994.07,372.51 L 994.07,411.24 L 1035.55,411.24 Z" fill="#f7fbff" stroke="#ffffff" stroke-width="0.8"><title>cell 452: NAI=1.0000</title></path><path d="M 1035.55,372.51 L 1035.55,333.79 L 994.07,333.79 L 994.07,372.51 L 1035.55,372.51 Z" fill="#c6dbef" stroke="#ffffff" stroke-width="0.8"><title>cell 453: NAI=4.0000</title></path><path d="M 1035.55,333.79 L 1035.55,295.06 L 994.07,295.06 L 994.07,333.79 L 1035.55,333.79 Z" fill="#c6dbef" stroke="#ffffff" stroke-width="0.8"><title>cell 454: NAI=4.0000</title></path><path d="M 1035.55,295.06 L 1035.55,256.34 L 994.07,256.34 L 994.07,295.06 L 1035.55,295.06 Z" fill="#2171b5" stroke="#ffffff" stroke-width="0.8"><title>cell 455: NAI=8.0000</title></path><path d="M 1035.55,256.34 L 1035.55,217.61 L 994.07,217.61 L 994.07,256.34 L 1035.55,256.34 Z" fill="#2171b5" stroke="#ffffff" stroke-width="0.8"><title>cell 456: NAI=7.0000</title></path><path d="M 1035.55,217.61 L 1035.55,178.89 L 994.07,178.89 L 994.07,217.61 L 1035.55,217.61 Z" fill="#6baed6" stroke="#ffffff" stroke-width="0.8"><title>cell 457: NAI=5.0000</title></path><path d="M 1035.55,178.89 L 1035.55,140.17 L 994.07,140.17 L 994.07,178.89 L 1035.55,178.89 Z" fill="#6baed6" stroke="#ffffff" stroke-width="0.8"><title>cell 458: NAI=5.0000</title></path><path d="M 1035.55,140.17 L 1035.55,101.44 L 994.07,101.44 L 994.07,140.17 L 1035.55,140.17 Z" fill="#c6dbef" stroke="#ffffff" stroke-width="0.8"><title>cell 459: NAI=4.0000</title></path><path d="M 1035.55,101.44 L 1035.55,62.72 L 994.07,62.72 L 994.07,101.44 L 1035.55,101.44 Z" fill="#c6dbef" stroke="#ffffff" stroke-width="0.8"><title>cell 460: NAI=4.0000</title></path><path d="M 1035.55,62.72 L 1035.55,24.00 L 994.07,24.00 L 994.07,62.72 L 1035.55,62.72 Z" fill="#f7fbff" stroke="#ffffff" stroke-width="0.8"><title>cell 461: NAI=1.0000</title></path></g>
<text x="40" y="44" font-family="Arial" font-size="28" font-weight="700">NAI</text>
<rect x="40" y="80" width="22" height="18" fill="#e0e0e0"/><text x="72" y="94" font-size="16">Zero access</text><rect x="40" y="108" width="22" height="18" fill="#f7fbff"/><text x="72" y="122" font-size="16">positive quantile 1</text><rect x="40" y="136" width="22" height="18" fill="#c6dbef"/><text x="72" y="150" font-size="16">positive quantile 2</text><rect x="40" y="164" width="22" height="18" fill="#6baed6"/><text x="72" y="178" font-size="16">positive quantile 3</text><rect x="40" y="192" width="22" height="18" fill="#2171b5"/><text x="72" y="206" font-size="16">positive quantile 4</text><rect x="40" y="220" width="22" height="18" fill="#08306b"/><text x="72" y="234" font-size="16">positive quantile 5</text>
</svg>
