<svg xmlns="http://www.w3.org/2000/svg" width="1200" height="900" viewBox="0 0 1200 900">
<rect width="100%" height="100%" fill="#ffffff"/>
<g><path d="M 205.93,876.00 L 205.93,837.27 L 164.45,837.27 L 164.45,876.00 L 205.93,876.00 Z" fill="#f7fbff" stroke="#ffffff" stroke-width="0.8"><title>cell 0: RAC_B=0.1018</title></path><path d="M 205.93,837.27 L 205.93,798.53 L 164.45,798.53 L 164.45,837.27 L 205.93,837.27 Z" fill="#f7fbff" stroke="#ffffff" stroke-width="0.8"><title>cell 1: RAC_B=0.1303</title></path><path d="M 205.93,798.53 L 205.93,759.80 L 164.45,759.80 L 164.45,798.53 L 205.93,798.53 Z" fill="#f7fbff" stroke="#ffffff" stroke-width="0.8"><title>cell 2: RAC_B=0.2327</title></path><path d="M 205.93,759.80 L 205.93,721.07 L 164.45,721.07 L 164.45,759.80 L 205.93,759.80 Z" fill="#f7fbff" stroke="#ffffff" stroke-width="0.8"><title>cell 3: RAC_B=0.2001</title></path><path d="M 205.93,721.07 L 205.93,682.34 L 164.45,682.34 L 164.45,721.07 L 205.93,721.07 Z" fill="#c6dbef" stroke="#ffffff" stroke-width="0.8"><title>cell 4: RAC_B=0.3118</title></path><path d="M 205.93,682.34 L 205.93,643.61 L 164.45,643.61 L 164.45,682.34 L 205.93,682.34 Z" fill="#6baed6" stroke="#ffffff" stroke-width="0.8"><title>cell 5: RAC_B=0.3355</title></path><path d="M 205.93,643.61 L 205.93,604.88 L 164.45,604.88 L 164.45,643.61 L 205.93,643.61 Z" fill="#6baed6" stroke="#ffffff" stroke-width="0.8"><title>cell 6: RAC_B=0.3738</title></path><path d="M 205.93,604.88 L 205.93,566.15 L 164.45,566.15 L 164.45,604.88 L 205.93,604.88 Z" fill="#6baed6" stroke="#ffffff" stroke-width="0.8"><title>cell 7: RAC_B=0.4826</title></path><path d="M 205.93,566.15 L 205.93,527.42 L 164.45,527.42 L 164.45,566.15 L 205.93,566.15 Z" fill="#6baed6" stroke="#ffffff" stroke-width="0.8"><title>cell 8: RAC_B=0.4624</title></path><path d="M 205.93,527.42 L 205.93,488.69 L 164.45,488.69 L 164.45,527.42 L 205.93,527.42 Z" fill="#6baed6" stroke="#ffffff" stroke-width="0.8"><title>cell 9: RAC_B=0.4162</title></path><path d="M 205.93,488.69 L 205.93,449.97 L 164.45,449.97 L 164.45,488.69 L 205.93,488.69 Z" fill="#6baed6" stroke="#ffffff" stroke-width="0.8"><title>cell 10: RAC_B=0.3867</title></path><path d="M 205.93,449.97 L 205.93,411.24 L 164.45,411.24 L 164.45,449.97 L 205.93,449.97 Z" fill="#6baed6" stroke="#ffffff" stroke-width="0.8"><title>cell 11: RAC_B=0.3997</title></path><path d="M 205.93,411.24 L 205.93,372.51 L 164.45,372.51 L 164.45,411.24 L 205.93,411.24 Z" fill="#6baed6" stroke="#ffffff" stroke-width="0.8"><title>cell 12: RAC_B=0.4336</title></path><path d="M 205.93,372.51 L 205.93,333.79 L 164.45,333.79 L 164.45,372.51 L 205.93,372.51 Z" fill="#c6dbef" stroke="#ffffff" stroke-width="0.8"><title>cell 13: RAC_B=0.3173</title></path><path d="M 205.93,333.79 L 205.93,295.06 L 164.45,295.06 L 164.45,333.79 L 205.93,333.79 Z" fill="#c6dbef" stroke="#ffffff" stroke-width="0.8"><title>cell 14: RAC_B=0.3288</title></path><path d="M 205.93,295.06 L 205.93,256.34 L 164.45,256.34 L 164.45,295.06 L 205.93,295.06 Z" fill="#c6dbef" stroke="#ffffff" stroke-width="0.8"><title>cell 15: RAC_B=0.2938</title></path><path d="M 205.93,256.34 L 205.93,217.61 L 164.45,217.61 L 164.45,256.34 L 205.93,256.34 Z" fill="#c6dbef" stroke="#ffffff" stroke-width="0.8"><title>cell 16: RAC_B=0.3214</title></path><path d="M 205.93,217.61 L 205.93,178.89 L 164.45,178.89 L 164.45,217.61 L 205.93,217.61 Z" fill="#6baed6" stroke="#ffffff" stroke-width="0.8"><title>cell 17: RAC_B=0.4710</title></path><path d="M 205.93,178.89 L 205.93,140.17 L 164.45,140.17 L 164.45,178.89 L 205.93,178.89 Z" fill="#6baed6" stroke="#ffffff" stroke-width="0.8"><title>cell 18: RAC_B=0.3444</title></path><path d="M 205.93,140.17 L 205.93,101.44 L 164.45,101.44 L 164.45,140.17 L 205.93,140.17 Z" fill="#c6dbef" stroke="#ffffff" stroke-width="0.8"><title>cell 19: RAC_B=0.3111</title></path><path d="M 205.93,101.44 L 205.93,62.72 L 164.45,62.72 L 164.45,101.44 L 205.93,101.44 Z" fill="#c6dbef" stroke="#ffffff" stroke-width="0.8"><title>cell 20: RAC_B=0.2899</title></path><path d="M 205.93,62.72 L 205.93,24.00 L 164.45,24.00 L 164.45,62.72 L 205.93,62.72 Z" fill="#c6dbef" stroke="#ffffff" stroke-width="0.8"><title>cell 21: RAC_B=0.3055</title></path><path d="M 247.41,876.00 L 247.41,837.27 L 205.93,837.27 L 205.93,876.00 L 247.41,876.00 Z" fill="#f7fbff" stroke="#ffffff" stroke-width="0.8"><title>cell 22: RAC_B=0.1220</title></path><path d="M 247.41,837.27 L 247.41,798.53 L 205.93,798.53 L 205.93,837.27 L 247.41,837.27 Z" fill="#f7fbff" stroke="#ffffff" stroke-width="0.8"><title>cell 23: RAC_B=0.1584</title></path><path d="M 247.41,798.53 L 247.41,759.80 L 205.93,759.80 L 205.93,798.53 L 247.41,798.53 Z" fill="#f7fbff" stroke="#ffffff" stroke-width="0.8"><title>cell 24: RAC_B=0.2287</title></path><path d="M 247.41,759.80 L 247.41,721.07 L 205.93,721.07 L 205.93,759.80 L 247.41,759.80 Z" fill="#c6dbef" stroke="#ffffff" stroke-width="0.8"><title>cell 25: RAC_B=0.2487</title></path><path d="M 247.41,721.07 L 247.41,682.34 L 205.93,682.34 L 205.93,721.07 L 247.41,721.07 Z" fill="#6baed6" stroke="#ffffff" stroke-width="0.8"><title>cell 26: RAC_B=0.3362</title></path><path d="M 247.41,682.34 L 247.41,643.61 L 205.93,643.61 L 205.93,682.34 L 247.41,682.34 Z" fill="#6baed6" stroke="#ffffff" stroke-width="0.8"><title>cell 27: RAC_B=0.3724</title></path><path d="M 247.41,643.61 L 247.41,604.88 L 205.93,604.88 L 205.93,643.61 L 247.41,643.61 Z" fill="#6baed6" stroke="#ffffff" stroke-width="0.8"><title>cell 28: RAC_B=0.4059</title></path><path d="M 247.41,604.88 L 247.41,566.15 L 205.93,566.15 L 205.93,604.88 L 247.41,604.88 Z" fill="#6baed6" stroke="#ffffff" stroke-width="0.8"><title>cell 29: RAC_B=0.3484</title></path><path d="M 247.41,566.15 L 247.41,527.42 L 205.93,527.42 L 205.93,566.15 L 247.41,566.15 Z" fill="#c6dbef" stroke="#ffffff" stroke-width="0.8"><title>cell 30: RAC_B=0.2568</title></path><path d="M 247.41,527.42 L 247.41,488.69 L 205.93,488.69 L 205.93,527.42 L 247.41,527.42 Z" fill="#f7fbff" stroke="#ffffff" stroke-width="0.8"><title>cell 31: RAC_B=0.2274</title></path><path d="M 247.41,488.69 L 247.41,449.97 L 205.93,449.97 L 205.93,488.69 L 247.41,488.69 Z" fill="#6baed6" stroke="#ffffff" stroke-width="0.8"><title>cell 32: RAC_B=0.3918</title></path><path d="M 247.41,449.97 L 247.41,411.24 L 205.93,411.24 L 205.93,449.97 L 247.41,449.97 Z" fill="#6baed6" stroke="#ffffff" stroke-width="0.8"><title>cell 33: RAC_B=0.3989</title></path><path d="M 247.41,411.24 L 247.41,372.51 L 205.93,372.51 L 205.93,411.24 L 247.41,411.24 Z" fill="#c6dbef" stroke="#ffffff" stroke-width="0.8"><title>cell 34: RAC_B=0.3251</title></path><path d="M 247.41,372.51 L 247.41,333.79 L 205.93,333.79 L 205.93,372.51 L 247.41,372.51 Z" fill="#c6dbef" stroke="#ffffff" stroke-width="0.8"><title>cell 35: RAC_B=0.3268</title></path><path d="M 247.41,333.79 L 247.41,295.06 L 205.93,295.06 L 205.93,333.79 L 247.41,333.79 Z" fill="#c6dbef" stroke="#ffffff" stroke-width="0.8"><title>cell 36: RAC_B=0.3024</title></path><path d="M 247.41,295.06 L 247.41,256.34 L 205.93,256.34 L 205.93,295.06 L 247.41,295.06 Z" fill="#c6dbef" stroke="#ffffff" stroke-width="0.8"><title>cell 37: RAC_B=0.3084</title></path><path d="M 247.41,256.34 L 247.41,217.61 L 205.93,217.61 L 205.93,256.34 L 247.41,256.34 Z" fill="#08306b" stroke="#ffffff" stroke-width="0.8"><title>cell 38: RAC_B=0.7275</title></path><path d="M 247.41,217.61 L 247.41,178.89 L 205.93,178.89 L 205.93,217.61 L 247.41,217.61 Z" fill="#08306b" stroke="#ffffff" stroke-width="0.8"><title>cell 39: RAC_B=0.7261</title></path><path d="M 247.41,178.89 L 247.41,140.17 L 205.93,140.17 L 205.93,178.89 L 247.41,178.89 Z" fill="#6baed6" stroke="#ffffff" stroke-width="0.8"><title>cell 40: RAC_B=0.3410</title></path><path d="M 247.41,140.17 L 247.41,101.44 L 205.93,101.44 L 205.93,140.17 L 247.41,140.17 Z" fill="#c6dbef" stroke="#ffffff" stroke-width="0.8"><title>cell 41: RAC_B=0.3158</title></path><path d="M 247.41,101.44 L 247.41,62.72 L 205.93,62.72 L 205.93,101.44 L 247.41,101.44 Z" fill="#c6dbef" stroke="#ffffff" stroke-width="0.8"><title>cell 42: RAC_B=0.2986</title></path><path d="M 247.41,62.72 L 247.41,24.00 L 205.93,24.00 L 205.93,62.72 L 247.41,62.72 Z" fill="#c6dbef" stroke="#ffffff" stroke-width="0.8"><title>cell 43: RAC_B=0.3127</title></path><path d="M 288.89,876.00 L 288.89,837.27 L 247.41,837.27 L 247.41,876.00 L 288.89,876.00 Z" fill="#f7fbff" stroke="#ffffff" stroke-width="0.8"><title>cell 44: RAC_B=0.1379</title></path><path d="M 288.89,837.27 L 288.89,798.53 L 247.41,798.53 L 247.41,837.27 L 288.89,837.27 Z" fill="#f7fbff" stroke="#ffffff" stroke-width="0.8"><title>cell 45: RAC_B=0.1527</title></path><path d="M 288.89,798.53 L 288.89,759.80 L 247.41,759.80 L 247.41,798.53 L 288.89,798.53 Z" fill="#f7fbff" stroke="#ffffff" stroke-width="0.8"><title>cell 46: RAC_B=0.2403</title></path><path d="M 288.89,759.80 L 288.89,721.07 L 247.41,721.07 L 247.41,759.80 L 288.89,759.80 Z" fill="#f7fbff" stroke="#ffffff" stroke-width="0.8"><title>cell 47: RAC_B=0.2447</title></path><path d="M 288.89,721.07 L 288.89,682.34 L 247.41,682.34 L 247.41,721.07 L 288.89,721.07 Z" fill="#c6dbef" stroke="#ffffff" stroke-width="0.8"><title>cell 48: RAC_B=0.2899</title></path><path d="M 288.89,682.34 L 288.89,643.61 L 247.41,643.61 L 247.41,682.34 L 288.89,682.34 Z" fill="#c6dbef" stroke="#ffffff" stroke-width="0.8"><title>cell 49: RAC_B=0.3262</title></path><path d="M 288.89,643.61 L 288.89,604.88 L 247.41,604.88 L 247.41,643.61 L 288.89,643.61 Z" fill="#6baed6" stroke="#ffffff" stroke-width="0.8"><title>cell 50: RAC_B=0.3566</title></path><path d="M 288.89,604.88 L 288.89,566.15 L 247.41,566.15 L 247.41,604.88 L 288.89,604.88 Z" fill="#6baed6" stroke="#ffffff" stroke-width="0.8"><title>cell 51: RAC_B=0.3875</title></path><path d="M 288.89,566.15 L 288.89,527.42 L 247.41,527.42 L 247.41,566.15 L 288.89,566.15 Z" fill="#6baed6" stroke="#ffffff" stroke-width="0.8"><title>cell 52: RAC_B=0.3819</title></path><path d="M 288.89,527.42 L 288.89,488.69 L 247.41,488.69 L 247.41,527.42 L 288.89,527.42 Z" fill="#c6dbef" stroke="#ffffff" stroke-width="0.8"><title>cell 53: RAC_B=0.2615</title></path><path d="M 288.89,488.69 L 288.89,449.97 L 247.41,449.97 L 247.41,488.69 L 288.89,488.69 Z" fill="#c6dbef" stroke="#ffffff" stroke-width="0.8"><title>cell 54: RAC_B=0.2610</title></path><path d="M 288.89,449.97 L 288.89,411.24 L 247.41,411.24 L 247.41,449.97 L 288.89,449.97 Z" fill="#6baed6" stroke="#ffffff" stroke-width="0.8"><title>cell 55: RAC_B=0.4349</title></path><path d="M 288.89,411.24 L 288.89,372.51 L 247.41,372.51 L 247.41,411.24 L 288.89,411.24 Z" fill="#f7fbff" stroke="#ffffff" stroke-width="0.8"><title>cell 56: RAC_B=0.2230</title></path><path d="M 288.89,372.51 L 288.89,333.79 L 247.41,333.79 L 247.41,372.51 L 288.89,372.51 Z" fill="#f7fbff" stroke="#ffffff" stroke-width="0.8"><title>cell 57: RAC_B=0.2375</title></path><path d="M 288.89,333.79 L 288.89,295.06 L 247.41,295.06 L 247.41,333.79 L 288.89,333.79 Z" fill="#2171b5" stroke="#ffffff" stroke-width="0.8"><title>cell 58: RAC_B=0.5409</title></path><path d="M 288.89,295.06 L 288.89,256.34 L 247.41,256.34 L 247.41,295.06 L 288.89,295.06 Z" fill="#2171b5" stroke="#ffffff" stroke-width="0.8"><title>cell 59: RAC_B=0.5792</title></path><path d="M 288.89,256.34 L 288.89,217.61 L 247.41,217.61 L 247.41,256.34 L 288.89,256.34 Z" fill="#2171b5" stroke="#ffffff" stroke-width="0.8"><title>cell 60: RAC_B=0.5367</title></path><path d="M 288.89,217.61 L 288.89,178.89 L 247.41,178.89 L 247.41,217.61 L 288.89,217.61 Z" fill="#2171b5" stroke="#ffffff" stroke-width="0.8"><title>cell 61: RAC_B=0.5820</title></path><path d="M 288.89,178.89 L 288.89,140.17 L 247.41,140.17 L 247.41,178.89 L 288.89,178.89 Z" fill="#08306b" stroke="#ffffff" stroke-width="0.8"><title>cell 62: RAC_B=0.7445</title></path><path d="M 288.89,140.17 L 288.89,101.44 L 247.41,101.44 L 247.41,140.17 L 288.89,140.17 Z" fill="#2171b5" stroke="#ffffff" stroke-width="0.8"><title>cell 63: RAC_B=0.5523</title></path><path d="M 288.89,101.44 L 288.89,62.72 L 247.41,62.72 L 247.41,101.44 L 288.89,101.44 Z" fill="#c6dbef" stroke="#ffffff" stroke-width="0.8"><title>cell 64: RAC_B=0.3047</title></path><path d="M 288.89,62.72 L 288.89,24.00 L 247.41,24.00 L 247.41,62.72 L 288.89,62.72 Z" fill="#c6dbef" stroke="#ffffff" stroke-width="0.8"><title>cell 65: RAC_B=0.3141</title></path><path d="M 330.38,876.00 L 330.38,837.27 L 288.89,837.27 L 288.89,876.00 L 330.38,876.00 Z" fill="#f7fbff" stroke="#ffffff" stroke-width="0.8"><title>cell 66: RAC_B=0.1707</title></path><path d="M 330.38,837.27 L 330.38,798.53 L 288.89,798.53 L 288.89,837.27 L 330.38,837.27 Z" fill="#f7fbff" stroke="#ffffff" stroke-width="0.8"><title>cell 67: RAC_B=0.1882</title></path><path d="M 330.38,798.53 L 330.38,759.80 L 288.89,759.80 L 288.89,798.53 L 330.38,798.53 Z" fill="#f7fbff" stroke="#ffffff" stroke-width="0.8"><title>cell 68: RAC_B=0.1832</title></path><path d="M 330.38,759.80 L 330.38,721.07 L 288.89,721.07 L 288.89,759.80 L 330.38,759.80 Z" fill="#f7fbff" stroke="#ffffff" stroke-width="0.8"><title>cell 69: RAC_B=0.1474</title></path><path d="M 330.38,721.07 L 330.38,682.34 L 288.89,682.34 L 288.89,721.07 L 330.38,721.07 Z" fill="#f7fbff" stroke="#ffffff" stroke-width="0.8"><title>cell 70: RAC_B=0.2353</title></path><path d="M 330.38,682.34 L 330.38,643.61 L 288.89,643.61 L 288.89,682.34 L 330.38,682.34 Z" fill="#c6dbef" stroke="#ffffff" stroke-width="0.8"><title>cell 71: RAC_B=0.3315</title></path><path d="M 330.38,643.61 L 330.38,604.88 L 288.89,604.88 L 288.89,643.61 L 330.38,643.61 Z" fill="#6baed6" stroke="#ffffff" stroke-width="0.8"><title>cell 72: RAC_B=0.3549</title></path><path d="M 330.38,604.88 L 330.38,566.15 L 288.89,566.15 L 288.89,604.88 L 330.38,604.88 Z" fill="#6baed6" stroke="#ffffff" stroke-width="0.8"><title>cell 73: RAC_B=0.3932</title></path><path d="M 330.38,566.15 L 330.38,527.42 L 288.89,527.42 L 288.89,566.15 L 330.38,566.15 Z" fill="#c6dbef" stroke="#ffffff" stroke-width="0.8"><title>cell 74: RAC_B=0.2778</title></path><path d="M 330.38,527.42 L 330.38,488.69 L 288.89,488.69 L 288.89,527.42 L 330.38,527.42 Z" fill="#c6dbef" stroke="#ffffff" stroke-width="0.8"><title>cell 75: RAC_B=0.2780</title></path><path d="M 330.38,488.69 L 330.38,449.97 L 288.89,449.97 L 288.89,488.69 L 330.38,488.69 Z" fill="#c6dbef" stroke="#ffffff" stroke-width="0.8"><title>cell 76: RAC_B=0.3016</title></path><path d="M 330.38,449.97 L 330.38,411.24 L 288.89,411.24 L 288.89,449.97 L 330.38,449.97 Z" fill="#6baed6" stroke="#ffffff" stroke-width="0.8"><title>cell 77: RAC_B=0.3409</title></path><path d="M 330.38,411.24 L 330.38,372.51 L 288.89,372.51 L 288.89,411.24 L 330.38,411.24 Z" fill="#f7fbff" stroke="#ffffff" stroke-width="0.8"><title>cell 78: RAC_B=0.2454</title></path><path d="M 330.38,372.51 L 330.38,333.79 L 288.89,333.79 L 288.89,372.51 L 330.38,372.51 Z" fill="#c6dbef" stroke="#ffffff" stroke-width="0.8"><title>cell 79: RAC_B=0.2757</title></path><path d="M 330.38,333.79 L 330.38,295.06 L 288.89,295.06 L 288.89,333.79 L 330.38,333.79 Z" fill="#08306b" stroke="#ffffff" stroke-width="0.8"><title>cell 80: RAC_B=0.7553</title></path><path d="M 330.38,295.06 L 330.38,256.34 L 288.89,256.34 L 288.89,295.06 L 330.38,295.06 Z" fill="#08306b" stroke="#ffffff" stroke-width="0.8"><title>cell 81: RAC_B=0.7121</title></path><path d="M 330.38,256.34 L 330.38,217.61 L 288.89,217.61 L 288.89,256.34 L 330.38,256.34 Z" fill="#08306b" stroke="#ffffff" stroke-width="0.8"><title>cell 82: RAC_B=0.7707</title></path><path d="M 330.38,217.61 L 330.38,178.89 L 288.89,178.89 L 288.89,217.61 L 330.38,217.61 Z" fill="#08306b" stroke="#ffffff" stroke-width="0.8"><title>cell 83: RAC_B=0.7488</title></path><path d="M 330.38,178.89 L 330.38,140.17 L 288.89,140.17 L 288.89,178.89 L 330.38,178.89 Z" fill="#2171b5" stroke="#ffffff" stroke-width="0.8"><title>cell 84: RAC_B=0.5318</title></path><path d="M 330.38,140.17 L 330.38,101.44 L 288.89,101.44 L 288.89,140.17 L 330.38,140.17 Z" fill="#08306b" stroke="#ffffff" stroke-width="0.8"><title>cell 85: RAC_B=0.6823</title></path><path d="M 330.38,101.44 L 330.38,62.72 L 288.89,62.72 L 288.89,101.44 L 330.38,101.44 Z" fill="#2171b5" stroke="#ffffff" stroke-width="0.8"><title>cell 86: RAC_B=0.5345</title></path><path d="M 330.38,62.72 L 330.38,24.00 L 288.89,24.00 L 288.89,62.72 L 330.38,62.72 Z" fill="#2171b5" stroke="#ffffff" stroke-width="0.8"><title>cell 87: RAC_B=0.5059</title></path><path d="M 371.86,876.00 L 371.86,837.27 L 330.38,837.27 L 330.38,876.00 L 371.86,876.00 Z" fill="#f7fbff" stroke="#ffffff" stroke-width="0.8"><title>cell 88: RAC_B=0.1278</title></path><path d="M 371.86,837.27 L 371.86,798.53 L 330.38,798.53 L 330.38,837.27 L 371.86,837.27 Z" fill="#f7fbff" stroke="#ffffff" stroke-width="0.8"><title>cell 89: RAC_B=0.1478</title></path><path d="M 371.86,798.53 L 371.86,759.80 L 330.38,759.80 L 330.38,798.53 L 371.86,798.53 Z" fill="#f7fbff" stroke="#ffffff" stroke-width="0.8"><title>cell 90: RAC_B=0.2000</title></path><path d="M 371.86,759.80 L 371.86,721.07 L 330.38,721.07 L 330.38,759.80 L 371.86,759.80 Z" fill="#f7fbff" stroke="#ffffff" stroke-width="0.8"><title>cell 91: RAC_B=0.2127</title></path><path d="M 371.86,721.07 L 371.86,682.34 L 330.38,682.34 L 330.38,721.07 L 371.86,721.07 Z" fill="#c6dbef" stroke="#ffffff" stroke-width="0.8"><title>cell 92: RAC_B=0.2459</title></path><path d="M 371.86,682.34 L 371.86,643.61 L 330.38,643.61 L 330.38,682.34 L 371.86,682.34 Z" fill="#c6dbef" stroke="#ffffff" stroke-width="0.8"><title>cell 93: RAC_B=0.2660</title></path><path d="M 371.86,643.61 L 371.86,604.88 L 330.38,604.88 L 330.38,643.61 L 371.86,643.61 Z" fill="#c6dbef" stroke="#ffffff" stroke-width="0.8"><title>cell 94: RAC_B=0.2838</title></path><path d="M 371.86,604.88 L 371.86,566.15 L 330.38,566.15 L 330.38,604.88 L 371.86,604.88 Z" fill="#c6dbef" stroke="#ffffff" stroke-width="0.8"><title>cell 95: RAC_B=0.2802</title></path><path d="M 371.86,566.15 L 371.86,527.42 L 330.38,527.42 L 330.38,566.15 L 371.86,566.15 Z" fill="#c6dbef" stroke="#ffffff" stroke-width="0.8"><title>cell 96: RAC_B=0.2975</title></path><path d="M 371.86,527.42 L 371.86,488.69 L 330.38,488.69 L 330.38,527.42 L 371.86,527.42 Z" fill="#c6dbef" stroke="#ffffff" stroke-width="0.8"><title>cell 97: RAC_B=0.2885</title></path><path d="M 371.86,488.69 L 371.86,449.97 L 330.38,449.97 L 330.38,488.69 L 371.86,488.69 Z" fill="#c6dbef" stroke="#ffffff" stroke-width="0.8"><title>cell 98: RAC_B=0.2913</title></path><path d="M 371.86,449.97 L 371.86,411.24 L 330.38,411.24 L 330.38,449.97 L 371.86,449.97 Z" fill="#c6dbef" stroke="#ffffff" stroke-width="0.8"><title>cell 99: RAC_B=0.2935</title></path><path d="M 371.86,411.24 L 371.86,372.51 L 330.38,372.51 L 330.38,411.24 L 371.86,411.24 Z" fill="#2171b5" stroke="#ffffff" stroke-width="0.8"><title>cell 100: RAC_B=0.5989</title></path><path d="M 371.86,372.51 L 371.86,333.79 L 330.38,333.79 L 330.38,372.51 L 371.86,372.51 Z" fill="#2171b5" stroke="#ffffff" stroke-width="0.8"><title>cell 101: RAC_B=0.6025</title></path><path d="M 371.86,333.79 L 371.86,295.06 L 330.38,295.06 L 330.38,333.79 L 371.86,333.79 Z" fill="#08306b" stroke="#ffffff" stroke-width="0.8"><title>cell 102: RAC_B=0.7912</title></path><path d="M 371.86,295.06 L 371.86,256.34 L 330.38,256.34 L 330.38,295.06 L 371.86,295.06 Z" fill="#08306b" stroke="#ffffff" stroke-width="0.8"><title>cell 103: RAC_B=0.8428</title></path><path d="M 371.86,256.34 L 371.86,217.61 L 330.38,217.61 L 330.38,256.34 L 371.86,256.34 Z" fill="#08306b" stroke="#ffffff" stroke-width="0.8"><title>cell 104: RAC_B=0.9256</title></path><path d="M 371.86,217.61 L 371.86,178.89 L 330.38,178.89 L 330.38,217.61 L 371.86,217.61 Z" fill="#08306b" stroke="#ffffff" stroke-width="0.8"><title>cell 105: RAC_B=0.7701</title></path><path d="M 371.86,178.89 L 371.86,140.17 L 330.38,140.17 L 330.38,178.89 L 371.86,178.89 Z" fill="#08306b" stroke="#ffffff" stroke-width="0.8"><title>cell 106: RAC_B=0.6127</title></path><path d="M 371.86,140.17 L 371.86,101.44 L 330.38,101.44 L 330.38,140.17 L 371.86,140.17 Z" fill="#2171b5" stroke="#ffffff" stroke-width="0.8"><title>cell 107: RAC_B=0.5838</title></path><path d="M 371.86,101.44 L 371.86,62.72 L 330.38,62.72 L 330.38,101.44 L 371.86,101.44 Z" fill="#08306b" stroke="#ffffff" stroke-width="0.8"><title>cell 108: RAC_B=0.6452</title></path><path d="M 371.86,62.72 L 371.86,24.00 L 330.38,24.00 L 330.38,62.72 L 371.86,62.72 Z" fill="#2171b5" stroke="#ffffff" stroke-width="0.8"><title>cell 109: RAC_B=0.5381</title></path><path d="M 413.34,876.00 L 413.34,837.27 L 371.86,837.27 L 371.86,876.00 L 413.34,876.00 Z" fill="#f7fbff" stroke="#ffffff" stroke-width="0.8"><title>cell 110: RAC_B=0.1294</title></path><path d="M 413.34,837.27 L 413.34,798.53 L 371.86,798.53 L 371.86,837.27 L 413.34,837.27 Z" fill="#f7fbff" stroke="#ffffff" stroke-width="0.8"><title>cell 111: RAC_B=0.2020</title></path><path d="M 413.34,798.53 L 413.34,759.80 L 371.86,759.80 L 371.86,798.53 L 413.34,798.53 Z" fill="#f7fbff" stroke="#ffffff" stroke-width="0.8"><title>cell 112: RAC_B=0.2217</title></path><path d="M 413.34,759.80 L 413.34,721.07 L 371.86,721.07 L 371.86,759.80 L 413.34,759.80 Z" fill="#f7fbff" stroke="#ffffff" stroke-width="0.8"><title>cell 113: RAC_B=0.2334</title></path><path d="M 413.34,721.07 L 413.34,682.34 L 371.86,682.34 L 371.86,721.07 L 413.34,721.07 Z" fill="#c6dbef" stroke="#ffffff" stroke-width="0.8"><title>cell 114: RAC_B=0.2579</title></path><path d="M 413.34,682.34 L 413.34,643.61 L 371.86,643.61 L 371.86,682.34 L 413.34,682.34 Z" fill="#c6dbef" stroke="#ffffff" stroke-width="0.8"><title>cell 115: RAC_B=0.2665</title></path><path d="M 413.34,643.61 L 413.34,604.88 L 371.86,604.88 L 371.86,643.61 L 413.34,643.61 Z" fill="#c6dbef" stroke="#ffffff" stroke-width="0.8"><title>cell 116: RAC_B=0.2905</title></path><path d="M 413.34,604.88 L 413.34,566.15 L 371.86,566.15 L 371.86,604.88 L 413.34,604.88 Z" fill="#c6dbef" stroke="#ffffff" stroke-width="0.8"><title>cell 117: RAC_B=0.3065</title></path><path d="M 413.34,566.15 L 413.34,527.42 L 371.86,527.42 L 371.86,566.15 L 413.34,566.15 Z" fill="#c6dbef" stroke="#ffffff" stroke-width="0.8"><title>cell 118: RAC_B=0.3081</title></path><path d="M 413.34,527.42 L 413.34,488.69 L 371.86,488.69 L 371.86,527.42 L 413.34,527.42 Z" fill="#c6dbef" stroke="#ffffff" stroke-width="0.8"><title>cell 119: RAC_B=0.3068</title></path><path d="M 413.34,488.69 L 413.34,449.97 L 371.86,449.97 L 371.86,488.69 L 413.34,488.69 Z" fill="#c6dbef" stroke="#ffffff" stroke-width="0.8"><title>cell 120: RAC_B=0.2737</title></path><path d="M 413.34,449.97 L 413.34,411.24 L 371.86,411.24 L 371.86,449.97 L 413.34,449.97 Z" fill="#2171b5" stroke="#ffffff" stroke-width="0.8"><title>cell 121: RAC_B=0.5667</title></path><path d="M 413.34,411.24 L 413.34,372.51 L 371.86,372.51 L 371.86,411.24 L 413.34,411.24 Z" fill="#08306b" stroke="#ffffff" stroke-width="0.8"><title>cell 122: RAC_B=0.6561</title></path><path d="M 413.34,372.51 L 413.34,333.79 L 371.86,333.79 L 371.86,372.51 L 413.34,372.51 Z" fill="#08306b" stroke="#ffffff" stroke-width="0.8"><title>cell 123: RAC_B=0.8123</title></path><path d="M 413.34,333.79 L 413.34,295.06 L 371.86,295.06 L 371.86,333.79 L 413.34,333.79 Z" fill="#08306b" stroke="#ffffff" stroke-width="0.8"><title>cell 124: RAC_B=0.8211</title></path><path d="M 413.34,295.06 L 413.34,256.34 L 371.86,256.34 L 371.86,295.06 L 413.34,295.06 Z" fill="#08306b" stroke="#ffffff" stroke-width="0.8"><title>cell 125: RAC_B=0.7289</title></path><path d="M 413.34,256.34 L 413.34,217.61 L 371.86,217.61 L 371.86,256.34 L 413.34,256.34 Z" fill="#08306b" stroke="#ffffff" stroke-width="0.8"><title>cell 126: RAC_B=0.8100</title></path><path d="M 413.34,217.61 L 413.34,178.89 L 371.86,178.89 L 371.86,217.61 L 413.34,217.61 Z" fill="#08306b" stroke="#ffffff" stroke-width="0.8"><title>cell 127: RAC_B=0.6508</title></path><path d="M 413.34,178.89 L 413.34,140.17 L 371.86,140.17 L 371.86,178.89 L 413.34,178.89 Z" fill="#08306b" stroke="#ffffff" stroke-width="0.8"><title>cell 128: RAC_B=0.6161</title></path><path d="M 413.34,140.17 L 413.34,101.44 L 371.86,101.44 L 371.86,140.17 L 413.34,140.17 Z" fill="#08306b" stroke="#ffffff" stroke-width="0.8"><title>cell 129: RAC_B=0.6100</title></path><path d="M 413.34,101.44 L 413.34,62.72 L 371.86,62.72 L 371.86,101.44 L 413.34,101.44 Z" fill="#08306b" stroke="#ffffff" stroke-width="0.8"><title>cell 130: RAC_B=0.6422</title></path><path d="M 413.34,62.72 L 413.34,24.00 L 371.86,24.00 L 371.86,62.72 L 413.34,62.72 Z" fill="#2171b5" stroke="#ffffff" stroke-width="0.8"><title>cell 131: RAC_B=0.6025</title></path><path d="M 454.82,876.00 L 454.82,837.27 L 413.34,837.27 L 413.34,876.00 L 454.82,876.00 Z" fill="#f7fbff" stroke="#ffffff" stroke-width="0.8"><title>cell 132: RAC_B=0.1926</title></path><path d="M 454.82,837.27 L 454.82,798.53 L 413.34,798.53 L 413.34,837.27 L 454.82,837.27 Z" fill="#f7fbff" stroke="#ffffff" stroke-width="0.8"><title>cell 133: RAC_B=0.1953</title></path><path d="M 454.82,798.53 L 454.82,759.80 L 413.34,759.80 L 413.34,798.53 L 454.82,798.53 Z" fill="#f7fbff" stroke="#ffffff" stroke-width="0.8"><title>cell 134: RAC_B=0.2203</title></path><path d="M 454.82,759.80 L 454.82,721.07 L 413.34,721.07 L 413.34,759.80 L 454.82,759.80 Z" fill="#f7fbff" stroke="#ffffff" stroke-width="0.8"><title>cell 135: RAC_B=0.2259</title></path><path d="M 454.82,721.07 L 454.82,682.34 L 413.34,682.34 L 413.34,721.07 L 454.82,721.07 Z" fill="#f7fbff" stroke="#ffffff" stroke-width="0.8"><title>cell 136: RAC_B=0.2100</title></path><path d="M 454.82,682.34 L 454.82,643.61 L 413.34,643.61 L 413.34,682.34 L 454.82,682.34 Z" fill="#c6dbef" stroke="#ffffff" stroke-width="0.8"><title>cell 137: RAC_B=0.2543</title></path><path d="M 454.82,643.61 L 454.82,604.88 L 413.34,604.88 L 413.34,643.61 L 454.82,643.61 Z" fill="#c6dbef" stroke="#ffffff" stroke-width="0.8"><title>cell 138: RAC_B=0.2964</title></path><path d="M 454.82,604.88 L 454.82,566.15 L 413.34,566.15 L 413.34,604.88 L 454.82,604.88 Z" fill="#c6dbef" stroke="#ffffff" stroke-width="0.8"><title>cell 139: RAC_B=0.3066</title></path><path d="M 454.82,566.15 L 454.82,527.42 L 413.34,527.42 L 413.34,566.15 L 454.82,566.15 Z" fill="#c6dbef" stroke="#ffffff" stroke-width="0.8"><title>cell 140: RAC_B=0.2886</title></path><path d="M 454.82,527.42 L 454.82,488.69 L 413.34,488.69 L 413.34,527.42 L 454.82,527.42 Z" fill="#c6dbef" stroke="#ffffff" stroke-width="0.8"><title>cell 141: RAC_B=0.2559</title></path><path d="M 454.82,488.69 L 454.82,449.97 L 413.34,449.97 L 413.34,488.69 L 454.82,488.69 Z" fill="#08306b" stroke="#ffffff" stroke-width="0.8"><title>cell 142: RAC_B=0.7091</title></path><path d="M 454.82,449.97 L 454.82,411.24 L 413.34,411.24 L 413.34,449.97 L 454.82,449.97 Z" fill="#08306b" stroke="#ffffff" stroke-width="0.8"><title>cell 143: RAC_B=0.7429</title></path><path d="M 454.82,411.24 L 454.82,372.51 L 413.34,372.51 L 413.34,411.24 L 454.82,411.24 Z" fill="#08306b" stroke="#ffffff" stroke-width="0.8"><title>cell 144: RAC_B=0.6459</title></path><path d="M 454.82,372.51 L 454.82,333.79 L 413.34,333.79 L 413.34,372.51 L 454.82,372.51 Z" fill="#2171b5" stroke="#ffffff" stroke-width="0.8"><title>cell 145: RAC_B=0.5254</title></path><path d="M 454.82,333.79 L 454.82,295.06 L 413.34,295.06 L 413.34,333.79 L 454.82,333.79 Z" fill="#2171b5" stroke="#ffffff" stroke-width="0.8"><title>cell 146: RAC_B=0.5787</title></path><path d="M 454.82,295.06 L 454.82,256.34 L 413.34,256.34 L 413.34,295.06 L 454.82,295.06 Z" fill="#2171b5" stroke="#ffffff" stroke-width="0.8"><title>cell 147: RAC_B=0.6033</title></path><path d="M 454.82,256.34 L 454.82,217.61 L 413.34,217.61 L 413.34,256.34 L 454.82,256.34 Z" fill="#08306b" stroke="#ffffff" stroke-width="0.8"><title>cell 148: RAC_B=0.7142</title></path><path d="M 454.82,217.61 L 454.82,178.89 L 413.34,178.89 L 413.34,217.61 L 454.82,217.61 Z" fill="#08306b" stroke="#ffffff" stroke-width="0.8"><title>cell 149: RAC_B=0.6406</title></path><path d="M 454.82,178.89 L 454.82,140.17 L 413.34,140.17 L 413.34,178.89 L 454.82,178.89 Z" fill="#08306b" stroke="#ffffff" stroke-width="0.8"><title>cell 150: RAC_B=0.6692</title></path><path d="M 454.82,140.17 L 454.82,101.44 L 413.34,101.44 L 413.34,140.17 L 454.82,140.17 Z" fill="#08306b" stroke="#ffffff" stroke-width="0.8"><title>cell 151: RAC_B=0.6083</title></path><path d="M 454.82,101.44 L 454.82,62.72 L 413.34,62.72 L 413.34,101.44 L 454.82,101.44 Z" fill="#08306b" stroke="#ffffff" stroke-width="0.8"><title>cell 152: RAC_B=0.6856</title></path><path d="M 454.82,62.72 L 454.82,24.00 L 413.34,24.00 L 413.34,62.72 L 454.82,62.72 Z" fill="#08306b" stroke="#ffffff" stroke-width="0.8"><title>cell 153: RAC_B=0.7014</title></path><path d="M 496.30,876.00 L 496.30,837.27 L 454.82,837.27 L 454.82,876.00 L 496.30,876.00 Z" fill="#e0e0e0" stroke="#ffffff" stroke-width="0.8"><title>cell 154: RAC_B=0.0000</title></path><path d="M 496.30,837.27 L 496.30,798.53 L 454.82,798.53 L 454.82,837.27 L 496.30,837.27 Z" fill="#f7fbff" stroke="#ffffff" stroke-width="0.8"><title>cell 155: RAC_B=0.1923</title></path><path d="M 496.30,798.53 L 496.30,759.80 L 454.82,759.80 L 454.82,798.53 L 496.30,798.53 Z" fill="#f7fbff" stroke="#ffffff" stroke-width="0.8"><title>cell 156: RAC_B=0.2009</title></path><path d="M 496.30,759.80 L 496.30,721.07 L 454.82,721.07 L 454.82,759.80 L 496.30,759.80 Z" fill="#f7fbff" stroke="#ffffff" stroke-width="0.8"><title>cell 157: RAC_B=0.2406</title></path><path d="M 496.30,721.07 L 496.30,682.34 L 454.82,682.34 L 454.82,721.07 L 496.30,721.07 Z" fill="#f7fbff" stroke="#ffffff" stroke-width="0.8"><title>cell 158: RAC_B=0.2443</title></path><path d="M 496.30,682.34 L 496.30,643.61 L 454.82,643.61 L 454.82,682.34 L 496.30,682.34 Z" fill="#c6dbef" stroke="#ffffff" stroke-width="0.8"><title>cell 159: RAC_B=0.2593</title></path><path d="M 496.30,643.61 L 496.30,604.88 L 454.82,604.88 L 454.82,643.61 L 496.30,643.61 Z" fill="#c6dbef" stroke="#ffffff" stroke-width="0.8"><title>cell 160: RAC_B=0.2685</title></path><path d="M 496.30,604.88 L 496.30,566.15 L 454.82,566.15 L 454.82,604.88 L 496.30,604.88 Z" fill="#c6dbef" stroke="#ffffff" stroke-width="0.8"><title>cell 161: RAC_B=0.2525</title></path><path d="M 496.30,566.15 L 496.30,527.42 L 454.82,527.42 L 454.82,566.15 L 496.30,566.15 Z" fill="#2171b5" stroke="#ffffff" stroke-width="0.8"><title>cell 162: RAC_B=0.5824</title></path><path d="M 496.30,527.42 L 496.30,488.69 L 454.82,488.69 L 454.82,527.42 L 496.30,527.42 Z" fill="#08306b" stroke="#ffffff" stroke-width="0.8"><title>cell 163: RAC_B=0.8061</title></path><path d="M 496.30,488.69 L 496.30,449.97 L 454.82,449.97 L 454.82,488.69 L 496.30,488.69 Z" fill="#08306b" stroke="#ffffff" stroke-width="0.8"><title>cell 164: RAC_B=0.6131</title></path><path d="M 496.30,449.97 L 496.30,411.24 L 454.82,411.24 L 454.82,449.97 L 496.30,449.97 Z" fill="#2171b5" stroke="#ffffff" stroke-width="0.8"><title>cell 165: RAC_B=0.5986</title></path><path d="M 496.30,411.24 L 496.30,372.51 L 454.82,372.51 L 454.82,411.24 L 496.30,411.24 Z" fill="#08306b" stroke="#ffffff" stroke-width="0.8"><title>cell 166: RAC_B=0.6788</title></path><path d="M 496.30,372.51 L 496.30,333.79 L 454.82,333.79 L 454.82,372.51 L 496.30,372.51 Z" fill="#08306b" stroke="#ffffff" stroke-width="0.8"><title>cell 167: RAC_B=0.6049</title></path><path d="M 496.30,333.79 L 496.30,295.06 L 454.82,295.06 L 454.82,333.79 L 496.30,333.79 Z" fill="#08306b" stroke="#ffffff" stroke-width="0.8"><title>cell 168: RAC_B=0.6037</title></path><path d="M 496.30,295.06 L 496.30,256.34 L 454.82,256.34 L 454.82,295.06 L 496.30,295.06 Z" fill="#08306b" stroke="#ffffff" stroke-width="0.8"><title>cell 169: RAC_B=0.6566</title></path><path d="M 496.30,256.34 L 496.30,217.61 L 454.82,217.61 L 454.82,256.34 L 496.30,256.34 Z" fill="#2171b5" stroke="#ffffff" stroke-width="0.8"><title>cell 170: RAC_B=0.5443</title></path><path d="M 496.30,217.61 L 496.30,178.89 L 454.82,178.89 L 454.82,217.61 L 496.30,217.61 Z" fill="#2171b5" stroke="#ffffff" stroke-width="0.8"><title>cell 171: RAC_B=0.5805</title></path><path d="M 496.30,178.89 L 496.30,140.17 L 454.82,140.17 L 454.82,178.89 L 496.30,178.89 Z" fill="#08306b" stroke="#ffffff" stroke-width="0.8"><title>cell 172: RAC_B=0.6364</title></path><path d="M 496.30,140.17 L 496.30,101.44 L 454.82,101.44 L 454.82,140.17 L 496.30,140.17 Z" fill="#08306b" stroke="#ffffff" stroke-width="0.8"><title>cell 173: RAC_B=0.6126</title></path><path d="M 496.30,101.44 L 496.30,62.72 L 454.82,62.72 L 454.82,101.44 L 496.30,101.44 Z" fill="#08306b" stroke="#ffffff" stroke-width="0.8"><title>cell 174: RAC_B=0.6206</title></path><path d="M 496.30,62.72 L 496.30,24.00 L 454.82,24.00 L 454.82,62.72 L 496.30,62.72 Z" fill="#08306b" stroke="#ffffff" stroke-width="0.8"><title>cell 175: RAC_B=0.6622</title></path><path d="M 537.78,876.00 L 537.78,837.27 L 496.30,837.27 L 496.30,876.00 L 537.78,876.00 Z" fill="#f7fbff" stroke="#ffffff" stroke-width="0.8"><title>cell 176: RAC_B=0.0397</title></path><path d="M 537.78,837.27 L 537.78,798.53 L 496.30,798.53 L 496.30,837.27 L 537.78,837.27 Z" fill="#f7fbff" stroke="#ffffff" stroke-width="0.8"><title>cell 177: RAC_B=0.0897</title></path><path d="M 537.78,798.53 L 537.78,759.80 L 496.30,759.80 L 496.30,798.53 L 537.78,798.53 Z" fill="#f7fbff" stroke="#ffffff" stroke-width="0.8"><title>cell 178: RAC_B=0.2083</title></path><path d="M 537.78,759.80 L 537.78,721.07 L 496.30,721.07 L 496.30,759.80 L 537.78,759.80 Z" fill="#f7fbff" stroke="#ffffff" stroke-width="0.8"><title>cell 179: RAC_B=0.2403</title></path><path d="M 537.78,721.07 L 537.78,682.34 L 496.30,682.34 L 496.30,721.07 L 537.78,721.07 Z" fill="#c6dbef" stroke="#ffffff" stroke-width="0.8"><title>cell 180: RAC_B=0.2600</title></path><path d="M 537.78,682.34 L 537.78,643.61 L 496.30,643.61 L 496.30,682.34 L 537.78,682.34 Z" fill="#c6dbef" stroke="#ffffff" stroke-width="0.8"><title>cell 181: RAC_B=0.2578</title></path><path d="M 537.78,643.61 L 537.78,604.88 L 496.30,604.88 L 496.30,643.61 L 537.78,643.61 Z" fill="#c6dbef" stroke="#ffffff" stroke-width="0.8"><title>cell 182: RAC_B=0.2825</title></path><path d="M 537.78,604.88 L 537.78,566.15 L 496.30,566.15 L 496.30,604.88 L 537.78,604.88 Z" fill="#2171b5" stroke="#ffffff" stroke-width="0.8"><title>cell 183: RAC_B=0.5468</title></path><path d="M 537.78,566.15 L 537.78,527.42 L 496.30,527.42 L 496.30,566.15 L 537.78,566.15 Z" fill="#2171b5" stroke="#ffffff" stroke-width="0.8"><title>cell 184: RAC_B=0.5548</title></path><path d="M 537.78,527.42 L 537.78,488.69 L 496.30,488.69 L 496.30,527.42 L 537.78,527.42 Z" fill="#08306b" stroke="#ffffff" stroke-width="0.8"><title>cell 185: RAC_B=0.6381</title></path><path d="M 537.78,488.69 L 537.78,449.97 L 496.30,449.97 L 496.30,488.69 L 537.78,488.69 Z" fill="#08306b" stroke="#ffffff" stroke-width="0.8"><title>cell 186: RAC_B=0.6175</title></path><path d="M 537.78,449.97 L 537.78,411.24 L 496.30,411.24 L 496.30,449.97 L 537.78,449.97 Z" fill="#08306b" stroke="#ffffff" stroke-width="0.8"><title>cell 187: RAC_B=0.6297</title></path><path d="M 537.78,411.24 L 537.78,372.51 L 496.30,372.51 L 496.30,411.24 L 537.78,411.24 Z" fill="#08306b" stroke="#ffffff" stroke-width="0.8"><title>cell 188: RAC_B=0.6602</title></path><path d="M 537.78,372.51 L 537.78,333.79 L 496.30,333.79 L 496.30,372.51 L 537.78,372.51 Z" fill="#08306b" stroke="#ffffff" stroke-width="0.8"><title>cell 189: RAC_B=0.6637</title></path><path d="M 537.78,333.79 L 537.78,295.06 L 496.30,295.06 L 496.30,333.79 L 537.78,333.79 Z" fill="#2171b5" stroke="#ffffff" stroke-width="0.8"><title>cell 190: RAC_B=0.5903</title></path><path d="M 537.78,295.06 L 537.78,256.34 L 496.30,256.34 L 496.30,295.06 L 537.78,295.06 Z" fill="#08306b" stroke="#ffffff" stroke-width="0.8"><title>cell 191: RAC_B=0.7410</title></path><path d="M 537.78,256.34 L 537.78,217.61 L 496.30,217.61 L 496.30,256.34 L 537.78,256.34 Z" fill="#2171b5" stroke="#ffffff" stroke-width="0.8"><title>cell 192: RAC_B=0.5445</title></path><path d="M 537.78,217.61 L 537.78,178.89 L 496.30,178.89 L 496.30,217.61 L 537.78,217.61 Z" fill="#2171b5" stroke="#ffffff" stroke-width="0.8"><title>cell 193: RAC_B=0.5238</title></path><path d="M 537.78,178.89 L 537.78,140.17 L 496.30,140.17 L 496.30,178.89 L 537.78,178.89 Z" fill="#08306b" stroke="#ffffff" stroke-width="0.8"><title>cell 194: RAC_B=0.6176</title></path><path d="M 537.78,140.17 L 537.78,101.44 L 496.30,101.44 L 496.30,140.17 L 537.78,140.17 Z" fill="#2171b5" stroke="#ffffff" stroke-width="0.8"><title>cell 195: RAC_B=0.5983</title></path><path d="M 537.78,101.44 L 537.78,62.72 L 496.30,62.72 L 496.30,101.44 L 537.78,101.44 Z" fill="#2171b5" stroke="#ffffff" stroke-width="0.8"><title>cell 196: RAC_B=0.5884</title></path><path d="M 537.78,62.72 L 537.78,24.00 L 496.30,24.00 L 496.30,62.72 L 537.78,62.72 Z" fill="#08306b" stroke="#ffffff" stroke-width="0.8"><title>cell 197: RAC_B=0.7783</title></path><path d="M 579.26,876.00 L 579.26,837.27 L 537.78,837.27 L 537.78,876.00 L 579.26,876.00 Z" fill="#f7fbff" stroke="#ffffff" stroke-width="0.8"><title>cell 198: RAC_B=0.1194</title></path><path d="M 579.26,837.27 L 579.26,798.53 L 537.78,798.53 L 537.78,837.27 L 579.26,837.27 Z" fill="#f7fbff" stroke="#ffffff" stroke-width="0.8"><title>cell 199: RAC_B=0.1319</title></path><path d="M 579.26,798.53 L 579.26,759.80 L 537.78,759.80 L 537.78,798.53 L 579.26,798.53 Z" fill="#f7fbff" stroke="#ffffff" stroke-width="0.8"><title>cell 200: RAC_B=0.1215</title></path><path d="M 579.26,759.80 L 579.26,721.07 L 537.78,721.07 L 537.78,759.80 L 579.26,759.80 Z" fill="#c6dbef" stroke="#ffffff" stroke-width="0.8"><title>cell 201: RAC_B=0.2501</title></path><path d="M 579.26,721.07 L 579.26,682.34 L 537.78,682.34 L 537.78,721.07 L 579.26,721.07 Z" fill="#c6dbef" stroke="#ffffff" stroke-width="0.8"><title>cell 202: RAC_B=0.2690</title></path><path d="M 579.26,682.34 L 579.26,643.61 L 537.78,643.61 L 537.78,682.34 L 579.26,682.34 Z" fill="#c6dbef" stroke="#ffffff" stroke-width="0.8"><title>cell 203: RAC_B=0.3293</title></path><path d="M 579.26,643.61 L 579.26,604.88 L 537.78,604.88 L 537.78,643.61 L 579.26,643.61 Z" fill="#c6dbef" stroke="#ffffff" stroke-width="0.8"><title>cell 204: RAC_B=0.2917</title></path><path d="M 579.26,604.88 L 579.26,566.15 L 537.78,566.15 L 537.78,604.88 L 579.26,604.88 Z" fill="#2171b5" stroke="#ffffff" stroke-width="0.8"><title>cell 205: RAC_B=0.5166</title></path><path d="M 579.26,566.15 L 579.26,527.42 L 537.78,527.42 L 537.78,566.15 L 579.26,566.15 Z" fill="#2171b5" stroke="#ffffff" stroke-width="0.8"><title>cell 206: RAC_B=0.5140</title></path><path d="M 579.26,527.42 L 579.26,488.69 L 537.78,488.69 L 537.78,527.42 L 579.26,527.42 Z" fill="#08306b" stroke="#ffffff" stroke-width="0.8"><title>cell 207: RAC_B=0.7015</title></path><path d="M 579.26,488.69 L 579.26,449.97 L 537.78,449.97 L 537.78,488.69 L 579.26,488.69 Z" fill="#08306b" stroke="#ffffff" stroke-width="0.8"><title>cell 208: RAC_B=0.6470</title></path><path d="M 579.26,449.97 L 579.26,411.24 L 537.78,411.24 L 537.78,449.97 L 579.26,449.97 Z" fill="#08306b" stroke="#ffffff" stroke-width="0.8"><title>cell 209: RAC_B=0.6381</title></path><path d="M 579.26,411.24 L 579.26,372.51 L 537.78,372.51 L 537.78,411.24 L 579.26,411.24 Z" fill="#08306b" stroke="#ffffff" stroke-width="0.8"><title>cell 210: RAC_B=0.6159</title></path><path d="M 579.26,372.51 L 579.26,333.79 L 537.78,333.79 L 537.78,372.51 L 579.26,372.51 Z" fill="#08306b" stroke="#ffffff" stroke-width="0.8"><title>cell 211: RAC_B=0.6536</title></path><path d="M 579.26,333.79 L 579.26,295.06 L 537.78,295.06 L 537.78,333.79 L 579.26,333.79 Z" fill="#08306b" stroke="#ffffff" stroke-width="0.8"><title>cell 212: RAC_B=0.7022</title></path><path d="M 579.26,295.06 L 579.26,256.34 L 537.78,256.34 L 537.78,295.06 L 579.26,295.06 Z" fill="#08306b" stroke="#ffffff" stroke-width="0.8"><title>cell 213: RAC_B=0.6544</title></path><path d="M 579.26,256.34 L 579.26,217.61 L 537.78,217.61 L 537.78,256.34 L 579.26,256.34 Z" fill="#2171b5" stroke="#ffffff" stroke-width="0.8"><title>cell 214: RAC_B=0.5242</title></path><path d="M 579.26,217.61 L 579.26,178.89 L 537.78,178.89 L 537.78,217.61 L 579.26,217.61 Z" fill="#08306b" stroke="#ffffff" stroke-width="0.8"><title>cell 215: RAC_B=0.6848</title></path><path d="M 579.26,178.89 L 579.26,140.17 L 537.78,140.17 L 537.78,178.89 L 579.26,178.89 Z" fill="#08306b" stroke="#ffffff" stroke-width="0.8"><title>cell 216: RAC_B=0.6058</title></path><path d="M 579.26,140.17 L 579.26,101.44 L 537.78,101.44 L 537.78,140.17 L 579.26,140.17 Z" fill="#6baed6" stroke="#ffffff" stroke-width="0.8"><title>cell 217: RAC_B=0.4908</title></path><path d="M 579.26,101.44 L 579.26,62.72 L 537.78,62.72 L 537.78,101.44 L 579.26,101.44 Z" fill="#08306b" stroke="#ffffff" stroke-width="0.8"><title>cell 218: RAC_B=0.7170</title></path><path d="M 579.26,62.72 L 579.26,24.00 L 537.78,24.00 L 537.78,62.72 L 579.26,62.72 Z" fill="#08306b" stroke="#ffffff" stroke-width="0.8"><title>cell 219: RAC_B=0.7346</title></path><path d="M 620.74,876.00 L 620.74,837.27 L 579.26,837.27 L 579.26,876.00 L 620.74,876.00 Z" fill="#f7fbff" stroke="#ffffff" stroke-width="0.8"><title>cell 220: RAC_B=0.1691</title></path><path d="M 620.74,837.27 L 620.74,798.53 L 579.26,798.53 L 579.26,837.27 L 620.74,837.27 Z" fill="#f7fbff" stroke="#ffffff" stroke-width="0.8"><title>cell 221: RAC_B=0.2321</title></path><path d="M 620.74,798.53 L 620.74,759.80 L 579.26,759.80 L 579.26,798.53 L 620.74,798.53 Z" fill="#f7fbff" stroke="#ffffff" stroke-width="0.8"><title>cell 222: RAC_B=0.2448</title></path><path d="M 620.74,759.80 L 620.74,721.07 L 579.26,721.07 L 579.26,759.80 L 620.74,759.80 Z" fill="#c6dbef" stroke="#ffffff" stroke-width="0.8"><title>cell 223: RAC_B=0.2477</title></path><path d="M 620.74,721.07 L 620.74,682.34 L 579.26,682.34 L 579.26,721.07 L 620.74,721.07 Z" fill="#f7fbff" stroke="#ffffff" stroke-width="0.8"><title>cell 224: RAC_B=0.2293</title></path><path d="M 620.74,682.34 L 620.74,643.61 L 579.26,643.61 L 579.26,682.34 L 620.74,682.34 Z" fill="#c6dbef" stroke="#ffffff" stroke-width="0.8"><title>cell 225: RAC_B=0.2564</title></path><path d="M 620.74,643.61 L 620.74,604.88 L 579.26,604.88 L 579.26,643.61 L 620.74,643.61 Z" fill="#c6dbef" stroke="#ffffff" stroke-width="0.8"><title>cell 226: RAC_B=0.2484</title></path><path d="M 620.74,604.88 L 620.74,566.15 L 579.26,566.15 L 579.26,604.88 L 620.74,604.88 Z" fill="#6baed6" stroke="#ffffff" stroke-width="0.8"><title>cell 227: RAC_B=0.4701</title></path><path d="M 620.74,566.15 L 620.74,527.42 L 579.26,527.42 L 579.26,566.15 L 620.74,566.15 Z" fill="#2171b5" stroke="#ffffff" stroke-width="0.8"><title>cell 228: RAC_B=0.5244</title></path><path d="M 620.74,527.42 L 620.74,488.69 L 579.26,488.69 L 579.26,527.42 L 620.74,527.42 Z" fill="#2171b5" stroke="#ffffff" stroke-width="0.8"><title>cell 229: RAC_B=0.5942</title></path><path d="M 620.74,488.69 L 620.74,449.97 L 579.26,449.97 L 579.26,488.69 L 620.74,488.69 Z" fill="#08306b" stroke="#ffffff" stroke-width="0.8"><title>cell 230: RAC_B=0.6779</title></path><path d="M 620.74,449.97 L 620.74,411.24 L 579.26,411.24 L 579.26,449.97 L 620.74,449.97 Z" fill="#08306b" stroke="#ffffff" stroke-width="0.8"><title>cell 231: RAC_B=0.6215</title></path><path d="M 620.74,411.24 L 620.74,372.51 L 579.26,372.51 L 579.26,411.24 L 620.74,411.24 Z" fill="#08306b" stroke="#ffffff" stroke-width="0.8"><title>cell 232: RAC_B=0.6450</title></path><path d="M 620.74,372.51 L 620.74,333.79 L 579.26,333.79 L 579.26,372.51 L 620.74,372.51 Z" fill="#08306b" stroke="#ffffff" stroke-width="0.8"><title>cell 233: RAC_B=0.6275</title></path><path d="M 620.74,333.79 L 620.74,295.06 L 579.26,295.06 L 579.26,333.79 L 620.74,333.79 Z" fill="#08306b" stroke="#ffffff" stroke-width="0.8"><title>cell 234: RAC_B=0.6542</title></path><path d="M 620.74,295.06 L 620.74,256.34 L 579.26,256.34 L 579.26,295.06 L 620.74,295.06 Z" fill="#2171b5" stroke="#ffffff" stroke-width="0.8"><title>cell 235: RAC_B=0.6015</title></path><path d="M 620.74,256.34 L 620.74,217.61 L 579.26,217.61 L 579.26,256.34 L 620.74,256.34 Z" fill="#2171b5" stroke="#ffffff" stroke-width="0.8"><title>cell 236: RAC_B=0.5762</title></path><path d="M 620.74,217.61 L 620.74,178.89 L 579.26,178.89 L 579.26,217.61 L 620.74,217.61 Z" fill="#08306b" stroke="#ffffff" stroke-width="0.8"><title>cell 237: RAC_B=0.6146</title></path><path d="M 620.74,178.89 L 620.74,140.17 L 579.26,140.17 L 579.26,178.89 L 620.74,178.89 Z" fill="#08306b" stroke="#ffffff" stroke-width="0.8"><title>cell 238: RAC_B=0.6372</title></path><path d="M 620.74,140.17 L 620.74,101.44 L 579.26,101.44 L 579.26,140.17 L 620.74,140.17 Z" fill="#08306b" stroke="#ffffff" stroke-width="0.8"><title>cell 239: RAC_B=0.6563</title></path><path d="M 620.74,101.44 L 620.74,62.72 L 579.26,62.72 L 579.26,101.44 L 620.74,101.44 Z" fill="#08306b" stroke="#ffffff" stroke-width="0.8"><title>cell 240: RAC_B=0.6550</title></path><path d="M 620.74,62.72 L 620.74,24.00 L 579.26,24.00 L 579.26,62.72 L 620.74,62.72 Z" fill="#08306b" stroke="#ffffff" stroke-width="0.8"><title>cell 241: RAC_B=0.6150</title></path><path d="M 662.22,876.00 L 662.22,837.27 L 620.74,837.27 L 620.74,876.00 L 662.22,876.00 Z" fill="#f7fbff" stroke="#ffffff" stroke-width="0.8"><title>cell 242: RAC_B=0.1954</title></path><path d="M 662.22,837.27 L 662.22,798.53 L 620.74,798.53 L 620.74,837.27 L 662.22,837.27 Z" fill="#c6dbef" stroke="#ffffff" stroke-width="0.8"><title>cell 243: RAC_B=0.2842</title></path><path d="M 662.22,798.53 L 662.22,759.80 L 620.74,759.80 L 620.74,798.53 L 662.22,798.53 Z" fill="#f7fbff" stroke="#ffffff" stroke-width="0.8"><title>cell 244: RAC_B=0.2387</title></path><path d="M 662.22,759.80 L 662.22,721.07 L 620.74,721.07 L 620.74,759.80 L 662.22,759.80 Z" fill="#f7fbff" stroke="#ffffff" stroke-width="0.8"><title>cell 245: RAC_B=0.2114</title></path><path d="M 662.22,721.07 L 662.22,682.34 L 620.74,682.34 L 620.74,721.07 L 662.22,721.07 Z" fill="#f7fbff" stroke="#ffffff" stroke-width="0.8"><title>cell 246: RAC_B=0.2123</title></path><path d="M 662.22,682.34 L 662.22,643.61 L 620.74,643.61 L 620.74,682.34 L 662.22,682.34 Z" fill="#f7fbff" stroke="#ffffff" stroke-width="0.8"><title>cell 247: RAC_B=0.2359</title></path><path d="M 662.22,643.61 L 662.22,604.88 L 620.74,604.88 L 620.74,643.61 L 662.22,643.61 Z" fill="#f7fbff" stroke="#ffffff" stroke-width="0.8"><title>cell 248: RAC_B=0.2186</title></path><path d="M 662.22,604.88 L 662.22,566.15 L 620.74,566.15 L 620.74,604.88 L 662.22,604.88 Z" fill="#2171b5" stroke="#ffffff" stroke-width="0.8"><title>cell 249: RAC_B=0.5770</title></path><path d="M 662.22,566.15 L 662.22,527.42 L 620.74,527.42 L 620.74,566.15 L 662.22,566.15 Z" fill="#2171b5" stroke="#ffffff" stroke-width="0.8"><title>cell 250: RAC_B=0.5306</title></path><path d="M 662.22,527.42 L 662.22,488.69 L 620.74,488.69 L 620.74,527.42 L 662.22,527.42 Z" fill="#08306b" stroke="#ffffff" stroke-width="0.8"><title>cell 251: RAC_B=0.6167</title></path><path d="M 662.22,488.69 L 662.22,449.97 L 620.74,449.97 L 620.74,488.69 L 662.22,488.69 Z" fill="#08306b" stroke="#ffffff" stroke-width="0.8"><title>cell 252: RAC_B=0.6057</title></path><path d="M 662.22,449.97 L 662.22,411.24 L 620.74,411.24 L 620.74,449.97 L 662.22,449.97 Z" fill="#08306b" stroke="#ffffff" stroke-width="0.8"><title>cell 253: RAC_B=0.6460</title></path><path d="M 662.22,411.24 L 662.22,372.51 L 620.74,372.51 L 620.74,411.24 L 662.22,411.24 Z" fill="#2171b5" stroke="#ffffff" stroke-width="0.8"><title>cell 254: RAC_B=0.5803</title></path><path d="M 662.22,372.51 L 662.22,333.79 L 620.74,333.79 L 620.74,372.51 L 662.22,372.51 Z" fill="#08306b" stroke="#ffffff" stroke-width="0.8"><title>cell 255: RAC_B=0.6412</title></path><path d="M 662.22,333.79 L 662.22,295.06 L 620.74,295.06 L 620.74,333.79 L 662.22,333.79 Z" fill="#08306b" stroke="#ffffff" stroke-width="0.8"><title>cell 256: RAC_B=0.6118</title></path><path d="M 662.22,295.06 L 662.22,256.34 L 620.74,256.34 L 620.74,295.06 L 662.22,295.06 Z" fill="#2171b5" stroke="#ffffff" stroke-width="0.8"><title>cell 257: RAC_B=0.5786</title></path><path d="M 662.22,256.34 L 662.22,217.61 L 620.74,217.61 L 620.74,256.34 L 662.22,256.34 Z" fill="#2171b5" stroke="#ffffff" stroke-width="0.8"><title>cell 258: RAC_B=0.5251</title></path><path d="M 662.22,217.61 L 662.22,178.89 L 620.74,178.89 L 620.74,217.61 L 662.22,217.61 Z" fill="#2171b5" stroke="#ffffff" stroke-width="0.8"><title>cell 259: RAC_B=0.5561</title></path><path d="M 662.22,178.89 L 662.22,140.17 L 620.74,140.17 L 620.74,178.89 L 662.22,178.89 Z" fill="#2171b5" stroke="#ffffff" stroke-width="0.8"><title>cell 260: RAC_B=0.5806</title></path><path d="M 662.22,140.17 L 662.22,101.44 L 620.74,101.44 L 620.74,140.17 L 662.22,140.17 Z" fill="#08306b" stroke="#ffffff" stroke-width="0.8"><title>cell 261: RAC_B=0.6596</title></path><path d="M 662.22,101.44 L 662.22,62.72 L 620.74,62.72 L 620.74,101.44 L 662.22,101.44 Z" fill="#08306b" stroke="#ffffff" stroke-width="0.8"><title>cell 262: RAC_B=0.7458</title></path><path d="M 662.22,62.72 L 662.22,24.00 L 620.74,24.00 L 620.74,62.72 L 662.22,62.72 Z" fill="#2171b5" stroke="#ffffff" stroke-width="0.8"><title>cell 263: RAC_B=0.5529</title></path><path d="M 703.70,876.00 L 703.70,837.27 L 662.22,837.27 L 662.22,876.00 L 703.70,876.00 Z" fill="#c6dbef" stroke="#ffffff" stroke-width="0.8"><title>cell 264: RAC_B=0.2566</title></path><path d="M 703.70,837.27 L 703.70,798.53 L 662.22,798.53 L 662.22,837.27 L 703.70,837.27 Z" fill="#f7fbff" stroke="#ffffff" stroke-width="0.8"><title>cell 265: RAC_B=0.2029</title></path><path d="M 703.70,798.53 L 703.70,759.80 L 662.22,759.80 L 662.22,798.53 L 703.70,798.53 Z" fill="#f7fbff" stroke="#ffffff" stroke-width="0.8"><title>cell 266: RAC_B=0.1922</title></path><path d="M 703.70,759.80 L 703.70,721.07 L 662.22,721.07 L 662.22,759.80 L 703.70,759.80 Z" fill="#f7fbff" stroke="#ffffff" stroke-width="0.8"><title>cell 267: RAC_B=0.1922</title></path><path d="M 703.70,721.07 L 703.70,682.34 L 662.22,682.34 L 662.22,721.07 L 703.70,721.07 Z" fill="#f7fbff" stroke="#ffffff" stroke-width="0.8"><title>cell 268: RAC_B=0.2043</title></path><path d="M 703.70,682.34 L 703.70,643.61 L 662.22,643.61 L 662.22,682.34 L 703.70,682.34 Z" fill="#f7fbff" stroke="#ffffff" stroke-width="0.8"><title>cell 269: RAC_B=0.2160</title></path><path d="M 703.70,643.61 L 703.70,604.88 L 662.22,604.88 L 662.22,643.61 L 703.70,643.61 Z" fill="#6baed6" stroke="#ffffff" stroke-width="0.8"><title>cell 270: RAC_B=0.4737</title></path><path d="M 703.70,604.88 L 703.70,566.15 L 662.22,566.15 L 662.22,604.88 L 703.70,604.88 Z" fill="#6baed6" stroke="#ffffff" stroke-width="0.8"><title>cell 271: RAC_B=0.4748</title></path><path d="M 703.70,566.15 L 703.70,527.42 L 662.22,527.42 L 662.22,566.15 L 703.70,566.15 Z" fill="#2171b5" stroke="#ffffff" stroke-width="0.8"><title>cell 272: RAC_B=0.5656</title></path><path d="M 703.70,527.42 L 703.70,488.69 L 662.22,488.69 L 662.22,527.42 L 703.70,527.42 Z" fill="#2171b5" stroke="#ffffff" stroke-width="0.8"><title>cell 273: RAC_B=0.5966</title></path><path d="M 703.70,488.69 L 703.70,449.97 L 662.22,449.97 L 662.22,488.69 L 703.70,488.69 Z" fill="#2171b5" stroke="#ffffff" stroke-width="0.8"><title>cell 274: RAC_B=0.5707</title></path><path d="M 703.70,449.97 L 703.70,411.24 L 662.22,411.24 L 662.22,449.97 L 703.70,449.97 Z" fill="#08306b" stroke="#ffffff" stroke-width="0.8"><title>cell 275: RAC_B=0.6469</title></path><path d="M 703.70,411.24 L 703.70,372.51 L 662.22,372.51 L 662.22,411.24 L 703.70,411.24 Z" fill="#08306b" stroke="#ffffff" stroke-width="0.8"><title>cell 276: RAC_B=0.6658</title></path><path d="M 703.70,372.51 L 703.70,333.79 L 662.22,333.79 L 662.22,372.51 L 703.70,372.51 Z" fill="#08306b" stroke="#ffffff" stroke-width="0.8"><title>cell 277: RAC_B=0.7029</title></path><path d="M 703.70,333.79 L 703.70,295.06 L 662.22,295.06 L 662.22,333.79 L 703.70,333.79 Z" fill="#08306b" stroke="#ffffff" stroke-width="0.8"><title>cell 278: RAC_B=0.7015</title></path><path d="M 703.70,295.06 L 703.70,256.34 L 662.22,256.34 L 662.22,295.06 L 703.70,295.06 Z" fill="#2171b5" stroke="#ffffff" stroke-width="0.8"><title>cell 279: RAC_B=0.5702</title></path><path d="M 703.70,256.34 L 703.70,217.61 L 662.22,217.61 L 662.22,256.34 L 703.70,256.34 Z" fill="#2171b5" stroke="#ffffff" stroke-width="0.8"><title>cell 280: RAC_B=0.5196</title></path><path d="M 703.70,217.61 L 703.70,178.89 L 662.22,178.89 L 662.22,217.61 L 703.70,217.61 Z" fill="#2171b5" stroke="#ffffff" stroke-width="0.8"><title>cell 281: RAC_B=0.5513</title></path><path d="M 703.70,178.89 L 703.70,140.17 L 662.22,140.17 L 662.22,178.89 L 703.70,178.89 Z" fill="#08306b" stroke="#ffffff" stroke-width="0.8"><title>cell 282: RAC_B=0.6461</title></path><path d="M 703.70,140.17 L 703.70,101.44 L 662.22,101.44 L 662.22,140.17 L 703.70,140.17 Z" fill="#08306b" stroke="#ffffff" stroke-width="0.8"><title>cell 283: RAC_B=0.6754</title></path><path d="M 703.70,101.44 L 703.70,62.72 L 662.22,62.72 L 662.22,101.44 L 703.70,101.44 Z" fill="#2171b5" stroke="#ffffff" stroke-width="0.8"><title>cell 284: RAC_B=0.5711</title></path><path d="M 703.70,62.72 L 703.70,24.00 L 662.22,24.00 L 662.22,62.72 L 703.70,62.72 Z" fill="#08306b" stroke="#ffffff" stroke-width="0.8"><title>cell 285: RAC_B=0.6156</title></path><path d="M 745.18,876.00 L 745.18,837.27 L 703.70,837.27 L 703.70,876.00 L 745.18,876.00 Z" fill="#c6dbef" stroke="#ffffff" stroke-width="0.8"><title>cell 286: RAC_B=0.2606</title></path><path d="M 745.18,837.27 L 745.18,798.53 L 703.70,798.53 L 703.70,837.27 L 745.18,837.27 Z" fill="#c6dbef" stroke="#ffffff" stroke-width="0.8"><title>cell 287: RAC_B=0.2494</title></path><path d="M 745.18,798.53 L 745.18,759.80 L 703.70,759.80 L 703.70,798.53 L 745.18,798.53 Z" fill="#c6dbef" stroke="#ffffff" stroke-width="0.8"><title>cell 288: RAC_B=0.2765</title></path><path d="M 745.18,759.80 L 745.18,721.07 L 703.70,721.07 L 703.70,759.80 L 745.18,759.80 Z" fill="#f7fbff" stroke="#ffffff" stroke-width="0.8"><title>cell 289: RAC_B=0.2327</title></path><path d="M 745.18,721.07 L 745.18,682.34 L 703.70,682.34 L 703.70,721.07 L 745.18,721.07 Z" fill="#c6dbef" stroke="#ffffff" stroke-width="0.8"><title>cell 290: RAC_B=0.2891</title></path><path d="M 745.18,682.34 L 745.18,643.61 L 703.70,643.61 L 703.70,682.34 L 745.18,682.34 Z" fill="#f7fbff" stroke="#ffffff" stroke-width="0.8"><title>cell 291: RAC_B=0.2138</title></path><path d="M 745.18,643.61 L 745.18,604.88 L 703.70,604.88 L 703.70,643.61 L 745.18,643.61 Z" fill="#f7fbff" stroke="#ffffff" stroke-width="0.8"><title>cell 292: RAC_B=0.2208</title></path><path d="M 745.18,604.88 L 745.18,566.15 L 703.70,566.15 L 703.70,604.88 L 745.18,604.88 Z" fill="#2171b5" stroke="#ffffff" stroke-width="0.8"><title>cell 293: RAC_B=0.5072</title></path><path d="M 745.18,566.15 L 745.18,527.42 L 703.70,527.42 L 703.70,566.15 L 745.18,566.15 Z" fill="#2171b5" stroke="#ffffff" stroke-width="0.8"><title>cell 294: RAC_B=0.5115</title></path><path d="M 745.18,527.42 L 745.18,488.69 L 703.70,488.69 L 703.70,527.42 L 745.18,527.42 Z" fill="#2171b5" stroke="#ffffff" stroke-width="0.8"><title>cell 295: RAC_B=0.5488</title></path><path d="M 745.18,488.69 L 745.18,449.97 L 703.70,449.97 L 703.70,488.69 L 745.18,488.69 Z" fill="#2171b5" stroke="#ffffff" stroke-width="0.8"><title>cell 296: RAC_B=0.5497</title></path><path d="M 745.18,449.97 L 745.18,411.24 L 703.70,411.24 L 703.70,449.97 L 745.18,449.97 Z" fill="#2171b5" stroke="#ffffff" stroke-width="0.8"><title>cell 297: RAC_B=0.5554</title></path><path d="M 745.18,411.24 L 745.18,372.51 L 703.70,372.51 L 703.70,411.24 L 745.18,411.24 Z" fill="#2171b5" stroke="#ffffff" stroke-width="0.8"><title>cell 298: RAC_B=0.5360</title></path><path d="M 745.18,372.51 L 745.18,333.79 L 703.70,333.79 L 703.70,372.51 L 745.18,372.51 Z" fill="#08306b" stroke="#ffffff" stroke-width="0.8"><title>cell 299: RAC_B=0.6799</title></path><path d="M 745.18,333.79 L 745.18,295.06 L 703.70,295.06 L 703.70,333.79 L 745.18,333.79 Z" fill="#f7fbff" stroke="#ffffff" stroke-width="0.8"><title>cell 300: RAC_B=0.1915</title></path><path d="M 745.18,295.06 L 745.18,256.34 L 703.70,256.34 L 703.70,295.06 L 745.18,295.06 Z" fill="#6baed6" stroke="#ffffff" stroke-width="0.8"><title>cell 301: RAC_B=0.4476</title></path><path d="M 745.18,256.34 L 745.18,217.61 L 703.70,217.61 L 703.70,256.34 L 745.18,256.34 Z" fill="#6baed6" stroke="#ffffff" stroke-width="0.8"><title>cell 302: RAC_B=0.4790</title></path><path d="M 745.18,217.61 L 745.18,178.89 L 703.70,178.89 L 703.70,217.61 L 745.18,217.61 Z" fill="#2171b5" stroke="#ffffff" stroke-width="0.8"><title>cell 303: RAC_B=0.5647</title></path><path d="M 745.18,178.89 L 745.18,140.17 L 703.70,140.17 L 703.70,178.89 L 745.18,178.89 Z" fill="#08306b" stroke="#ffffff" stroke-width="0.8"><title>cell 304: RAC_B=0.6306</title></path><path d="M 745.18,140.17 L 745.18,101.44 L 703.70,101.44 L 703.70,140.17 L 745.18,140.17 Z" fill="#08306b" stroke="#ffffff" stroke-width="0.8"><title>cell 305: RAC_B=0.7426</title></path><path d="M 745.18,101.44 L 745.18,62.72 L 703.70,62.72 L 703.70,101.44 L 745.18,101.44 Z" fill="#08306b" stroke="#ffffff" stroke-width="0.8"><title>cell 306: RAC_B=0.6302</title></path><path d="M 745.18,62.72 L 745.18,24.00 L 703.70,24.00 L 703.70,62.72 L 745.18,62.72 Z" fill="#2171b5" stroke="#ffffff" stroke-width="0.8"><title>cell 307: RAC_B=0.5700</title></path><path d="M 786.66,876.00 L 786.66,837.27 L 745.18,837.27 L 745.18,876.00 L 786.66,876.00 Z" fill="#c6dbef" stroke="#ffffff" stroke-width="0.8"><title>cell 308: RAC_B=0.2476</title></path><path d="M 786.66,837.27 L 786.66,798.53 L 745.18,798.53 L 745.18,837.27 L 786.66,837.27 Z" fill="#f7fbff" stroke="#ffffff" stroke-width="0.8"><title>cell 309: RAC_B=0.2364</title></path><path d="M 786.66,798.53 L 786.66,759.80 L 745.18,759.80 L 745.18,798.53 L 786.66,798.53 Z" fill="#c6dbef" stroke="#ffffff" stroke-width="0.8"><title>cell 310: RAC_B=0.2718</title></path><path d="M 786.66,759.80 L 786.66,721.07 L 745.18,721.07 L 745.18,759.80 L 786.66,759.80 Z" fill="#c6dbef" stroke="#ffffff" stroke-width="0.8"><title>cell 311: RAC_B=0.2799</title></path><path d="M 786.66,721.07 L 786.66,682.34 L 745.18,682.34 L 745.18,721.07 L 786.66,721.07 Z" fill="#c6dbef" stroke="#ffffff" stroke-width="0.8"><title>cell 312: RAC_B=0.2863</title></path><path d="M 786.66,682.34 L 786.66,643.61 L 745.18,643.61 L 745.18,682.34 L 786.66,682.34 Z" fill="#c6dbef" stroke="#ffffff" stroke-width="0.8"><title>cell 313: RAC_B=0.3144</title></path><path d="M 786.66,643.61 L 786.66,604.88 L 745.18,604.88 L 745.18,643.61 L 786.66,643.61 Z" fill="#c6dbef" stroke="#ffffff" stroke-width="0.8"><title>cell 314: RAC_B=0.3134</title></path><path d="M 786.66,604.88 L 786.66,566.15 L 745.18,566.15 L 745.18,604.88 L 786.66,604.88 Z" fill="#6baed6" stroke="#ffffff" stroke-width="0.8"><title>cell 315: RAC_B=0.3902</title></path><path d="M 786.66,566.15 L 786.66,527.42 L 745.18,527.42 L 745.18,566.15 L 786.66,566.15 Z" fill="#2171b5" stroke="#ffffff" stroke-width="0.8"><title>cell 316: RAC_B=0.5350</title></path><path d="M 786.66,527.42 L 786.66,488.69 L 745.18,488.69 L 745.18,527.42 L 786.66,527.42 Z" fill="#2171b5" stroke="#ffffff" stroke-width="0.8"><title>cell 317: RAC_B=0.5585</title></path><path d="M 786.66,488.69 L 786.66,449.97 L 745.18,449.97 L 745.18,488.69 L 786.66,488.69 Z" fill="#2171b5" stroke="#ffffff" stroke-width="0.8"><title>cell 318: RAC_B=0.5959</title></path><path d="M 786.66,449.97 L 786.66,411.24 L 745.18,411.24 L 745.18,449.97 L 786.66,449.97 Z" fill="#2171b5" stroke="#ffffff" stroke-width="0.8"><title>cell 319: RAC_B=0.5416</title></path><path d="M 786.66,411.24 L 786.66,372.51 L 745.18,372.51 L 745.18,411.24 L 786.66,411.24 Z" fill="#2171b5" stroke="#ffffff" stroke-width="0.8"><title>cell 320: RAC_B=0.5482</title></path><path d="M 786.66,372.51 L 786.66,333.79 L 745.18,333.79 L 745.18,372.51 L 786.66,372.51 Z" fill="#08306b" stroke="#ffffff" stroke-width="0.8"><title>cell 321: RAC_B=0.6789</title></path><path d="M 786.66,333.79 L 786.66,295.06 L 745.18,295.06 L 745.18,333.79 L 786.66,333.79 Z" fill="#2171b5" stroke="#ffffff" stroke-width="0.8"><title>cell 322: RAC_B=0.5836</title></path><path d="M 786.66,295.06 L 786.66,256.34 L 745.18,256.34 L 745.18,295.06 L 786.66,295.06 Z" fill="#6baed6" stroke="#ffffff" stroke-width="0.8"><title>cell 323: RAC_B=0.4172</title></path><path d="M 786.66,256.34 L 786.66,217.61 L 745.18,217.61 L 745.18,256.34 L 786.66,256.34 Z" fill="#2171b5" stroke="#ffffff" stroke-width="0.8"><title>cell 324: RAC_B=0.5459</title></path><path d="M 786.66,217.61 L 786.66,178.89 L 745.18,178.89 L 745.18,217.61 L 786.66,217.61 Z" fill="#2171b5" stroke="#ffffff" stroke-width="0.8"><title>cell 325: RAC_B=0.5553</title></path><path d="M 786.66,178.89 L 786.66,140.17 L 745.18,140.17 L 745.18,178.89 L 786.66,178.89 Z" fill="#2171b5" stroke="#ffffff" stroke-width="0.8"><title>cell 326: RAC_B=0.5851</title></path><path d="M 786.66,140.17 L 786.66,101.44 L 745.18,101.44 L 745.18,140.17 L 786.66,140.17 Z" fill="#2171b5" stroke="#ffffff" stroke-width="0.8"><title>cell 327: RAC_B=0.5139</title></path><path d="M 786.66,101.44 L 786.66,62.72 L 745.18,62.72 L 745.18,101.44 L 786.66,101.44 Z" fill="#2171b5" stroke="#ffffff" stroke-width="0.8"><title>cell 328: RAC_B=0.5114</title></path><path d="M 786.66,62.72 L 786.66,24.00 L 745.18,24.00 L 745.18,62.72 L 786.66,62.72 Z" fill="#08306b" stroke="#ffffff" stroke-width="0.8"><title>cell 329: RAC_B=0.6082</title></path><path d="M 828.14,876.00 L 828.14,837.27 L 786.66,837.27 L 786.66,876.00 L 828.14,876.00 Z" fill="#f7fbff" stroke="#ffffff" stroke-width="0.8"><title>cell 330: RAC_B=0.2333</title></path><path d="M 828.14,837.27 L 828.14,798.53 L 786.66,798.53 L 786.66,837.27 L 828.14,837.27 Z" fill="#c6dbef" stroke="#ffffff" stroke-width="0.8"><title>cell 331: RAC_B=0.2714</title></path><path d="M 828.14,798.53 L 828.14,759.80 L 786.66,759.80 L 786.66,798.53 L 828.14,798.53 Z" fill="#c6dbef" stroke="#ffffff" stroke-width="0.8"><title>cell 332: RAC_B=0.2640</title></path><path d="M 828.14,759.80 L 828.14,721.07 L 786.66,721.07 L 786.66,759.80 L 828.14,759.80 Z" fill="#c6dbef" stroke="#ffffff" stroke-width="0.8"><title>cell 333: RAC_B=0.2794</title></path><path d="M 828.14,721.07 L 828.14,682.34 L 786.66,682.34 L 786.66,721.07 L 828.14,721.07 Z" fill="#c6dbef" stroke="#ffffff" stroke-width="0.8"><title>cell 334: RAC_B=0.3066</title></path><path d="M 828.14,682.34 L 828.14,643.61 L 786.66,643.61 L 786.66,682.34 L 828.14,682.34 Z" fill="#6baed6" stroke="#ffffff" stroke-width="0.8"><title>cell 335: RAC_B=0.3341</title></path><path d="M 828.14,643.61 L 828.14,604.88 L 786.66,604.88 L 786.66,643.61 L 828.14,643.61 Z" fill="#c6dbef" stroke="#ffffff" stroke-width="0.8"><title>cell 336: RAC_B=0.3296</title></path><path d="M 828.14,604.88 L 828.14,566.15 L 786.66,566.15 L 786.66,604.88 L 828.14,604.88 Z" fill="#6baed6" stroke="#ffffff" stroke-width="0.8"><title>cell 337: RAC_B=0.3397</title></path><path d="M 828.14,566.15 L 828.14,527.42 L 786.66,527.42 L 786.66,566.15 L 828.14,566.15 Z" fill="#2171b5" stroke="#ffffff" stroke-width="0.8"><title>cell 338: RAC_B=0.5208</title></path><path d="M 828.14,527.42 L 828.14,488.69 L 786.66,488.69 L 786.66,527.42 L 828.14,527.42 Z" fill="#2171b5" stroke="#ffffff" stroke-width="0.8"><title>cell 339: RAC_B=0.5390</title></path><path d="M 828.14,488.69 L 828.14,449.97 L 786.66,449.97 L 786.66,488.69 L 828.14,488.69 Z" fill="#2171b5" stroke="#ffffff" stroke-width="0.8"><title>cell 340: RAC_B=0.5228</title></path><path d="M 828.14,449.97 L 828.14,411.24 L 786.66,411.24 L 786.66,449.97 L 828.14,449.97 Z" fill="#2171b5" stroke="#ffffff" stroke-width="0.8"><title>cell 341: RAC_B=0.5209</title></path><path d="M 828.14,411.24 L 828.14,372.51 L 786.66,372.51 L 786.66,411.24 L 828.14,411.24 Z" fill="#6baed6" stroke="#ffffff" stroke-width="0.8"><title>cell 342: RAC_B=0.5027</title></path><path d="M 828.14,372.51 L 828.14,333.79 L 786.66,333.79 L 786.66,372.51 L 828.14,372.51 Z" fill="#08306b" stroke="#ffffff" stroke-width="0.8"><title>cell 343: RAC_B=0.6186</title></path><path d="M 828.14,333.79 L 828.14,295.06 L 786.66,295.06 L 786.66,333.79 L 828.14,333.79 Z" fill="#2171b5" stroke="#ffffff" stroke-width="0.8"><title>cell 344: RAC_B=0.5160</title></path><path d="M 828.14,295.06 L 828.14,256.34 L 786.66,256.34 L 786.66,295.06 L 828.14,295.06 Z" fill="#2171b5" stroke="#ffffff" stroke-width="0.8"><title>cell 345: RAC_B=0.5097</title></path><path d="M 828.14,256.34 L 828.14,217.61 L 786.66,217.61 L 786.66,256.34 L 828.14,256.34 Z" fill="#2171b5" stroke="#ffffff" stroke-width="0.8"><title>cell 346: RAC_B=0.6034</title></path><path d="M 828.14,217.61 L 828.14,178.89 L 786.66,178.89 L 786.66,217.61 L 828.14,217.61 Z" fill="#2171b5" stroke="#ffffff" stroke-width="0.8"><title>cell 347: RAC_B=0.5865</title></path><path d="M 828.14,178.89 L 828.14,140.17 L 786.66,140.17 L 786.66,178.89 L 828.14,178.89 Z" fill="#2171b5" stroke="#ffffff" stroke-width="0.8"><title>cell 348: RAC_B=0.5199</title></path><path d="M 828.14,140.17 L 828.14,101.44 L 786.66,101.44 L 786.66,140.17 L 828.14,140.17 Z" fill="#6baed6" stroke="#ffffff" stroke-width="0.8"><title>cell 349: RAC_B=0.5042</title></path><path d="M 828.14,101.44 L 828.14,62.72 L 786.66,62.72 L 786.66,101.44 L 828.14,101.44 Z" fill="#2171b5" stroke="#ffffff" stroke-width="0.8"><title>cell 350: RAC_B=0.5117</title></path><path d="M 828.14,62.72 L 828.14,24.00 L 786.66,24.00 L 786.66,62.72 L 828.14,62.72 Z" fill="#6baed6" stroke="#ffffff" stroke-width="0.8"><title>cell 351: RAC_B=0.4805</title></path><path d="M 869.62,876.00 L 869.62,837.27 L 828.14,837.27 L 828.14,876.00 L 869.62,876.00 Z" fill="#f7fbff" stroke="#ffffff" stroke-width="0.8"><title>cell 352: RAC_B=0.2119</title></path><path d="M 869.62,837.27 L 869.62,798.53 L 828.14,798.53 L 828.14,837.27 L 869.62,837.27 Z" fill="#f7fbff" stroke="#ffffff" stroke-width="0.8"><title>cell 353: RAC_B=0.2331</title></path><path d="M 869.62,798.53 L 869.62,759.80 L 828.14,759.80 L 828.14,798.53 L 869.62,798.53 Z" fill="#f7fbff" stroke="#ffffff" stroke-width="0.8"><title>cell 354: RAC_B=0.2346</title></path><path d="M 869.62,759.80 L 869.62,721.07 L 828.14,721.07 L 828.14,759.80 L 869.62,759.80 Z" fill="#c6dbef" stroke="#ffffff" stroke-width="0.8"><title>cell 355: RAC_B=0.2933</title></path><path d="M 869.62,721.07 L 869.62,682.34 L 828.14,682.34 L 828.14,721.07 L 869.62,721.07 Z" fill="#c6dbef" stroke="#ffffff" stroke-width="0.8"><title>cell 356: RAC_B=0.2885</title></path><path d="M 869.62,682.34 L 869.62,643.61 L 828.14,643.61 L 828.14,682.34 L 869.62,682.34 Z" fill="#6baed6" stroke="#ffffff" stroke-width="0.8"><title>cell 357: RAC_B=0.3394</title></path><path d="M 869.62,643.61 L 869.62,604.88 L 828.14,604.88 L 828.14,643.61 L 869.62,643.61 Z" fill="#c6dbef" stroke="#ffffff" stroke-width="0.8"><title>cell 358: RAC_B=0.3279</title></path><path d="M 869.62,604.88 L 869.62,566.15 L 828.14,566.15 L 828.14,604.88 L 869.62,604.88 Z" fill="#6baed6" stroke="#ffffff" stroke-width="0.8"><title>cell 359: RAC_B=0.3670</title></path><path d="M 869.62,566.15 L 869.62,527.42 L 828.14,527.42 L 828.14,566.15 L 869.62,566.15 Z" fill="#2171b5" stroke="#ffffff" stroke-width="0.8"><title>cell 360: RAC_B=0.5058</title></path><path d="M 869.62,527.42 L 869.62,488.69 L 828.14,488.69 L 828.14,527.42 L 869.62,527.42 Z" fill="#2171b5" stroke="#ffffff" stroke-width="0.8"><title>cell 361: RAC_B=0.5225</title></path><path d="M 869.62,488.69 L 869.62,449.97 L 828.14,449.97 L 828.14,488.69 L 869.62,488.69 Z" fill="#6baed6" stroke="#ffffff" stroke-width="0.8"><title>cell 362: RAC_B=0.4617</title></path><path d="M 869.62,449.97 L 869.62,411.24 L 828.14,411.24 L 828.14,449.97 L 869.62,449.97 Z" fill="#2171b5" stroke="#ffffff" stroke-width="0.8"><title>cell 363: RAC_B=0.5125</title></path><path d="M 869.62,411.24 L 869.62,372.51 L 828.14,372.51 L 828.14,411.24 L 869.62,411.24 Z" fill="#6baed6" stroke="#ffffff" stroke-width="0.8"><title>cell 364: RAC_B=0.4879</title></path><path d="M 869.62,372.51 L 869.62,333.79 L 828.14,333.79 L 828.14,372.51 L 869.62,372.51 Z" fill="#6baed6" stroke="#ffffff" stroke-width="0.8"><title>cell 365: RAC_B=0.4891</title></path><path d="M 869.62,333.79 L 869.62,295.06 L 828.14,295.06 L 828.14,333.79 L 869.62,333.79 Z" fill="#2171b5" stroke="#ffffff" stroke-width="0.8"><title>cell 366: RAC_B=0.5186</title></path><path d="M 869.62,295.06 L 869.62,256.34 L 828.14,256.34 L 828.14,295.06 L 869.62,295.06 Z" fill="#2171b5" stroke="#ffffff" stroke-width="0.8"><title>cell 367: RAC_B=0.5573</title></path><path d="M 869.62,256.34 L 869.62,217.61 L 828.14,217.61 L 828.14,256.34 L 869.62,256.34 Z" fill="#2171b5" stroke="#ffffff" stroke-width="0.8"><title>cell 368: RAC_B=0.5439</title></path><path d="M 869.62,217.61 L 869.62,178.89 L 828.14,178.89 L 828.14,217.61 L 869.62,217.61 Z" fill="#08306b" stroke="#ffffff" stroke-width="0.8"><title>cell 369: RAC_B=0.6334</title></path><path d="M 869.62,178.89 L 869.62,140.17 L 828.14,140.17 L 828.14,178.89 L 869.62,178.89 Z" fill="#2171b5" stroke="#ffffff" stroke-width="0.8"><title>cell 370: RAC_B=0.5146</title></path><path d="M 869.62,140.17 L 869.62,101.44 L 828.14,101.44 L 828.14,140.17 L 869.62,140.17 Z" fill="#6baed6" stroke="#ffffff" stroke-width="0.8"><title>cell 371: RAC_B=0.4621</title></path><path d="M 869.62,101.44 L 869.62,62.72 L 828.14,62.72 L 828.14,101.44 L 869.62,101.44 Z" fill="#6baed6" stroke="#ffffff" stroke-width="0.8"><title>cell 372: RAC_B=0.4266</title></path><path d="M 869.62,62.72 L 869.62,24.00 L 828.14,24.00 L 828.14,62.72 L 869.62,62.72 Z" fill="#2171b5" stroke="#ffffff" stroke-width="0.8"><title>cell 373: RAC_B=0.5400</title></path><path d="M 911.11,876.00 L 911.11,837.27 L 869.62,837.27 L 869.62,876.00 L 911.11,876.00 Z" fill="#f7fbff" stroke="#ffffff" stroke-width="0.8"><title>cell 374: RAC_B=0.1771</title></path><path d="M 911.11,837.27 L 911.11,798.53 L 869.62,798.53 L 869.62,837.27 L 911.11,837.27 Z" fill="#f7fbff" stroke="#ffffff" stroke-width="0.8"><title>cell 375: RAC_B=0.1211</title></path><path d="M 911.11,798.53 L 911.11,759.80 L 869.62,759.80 L 869.62,798.53 L 911.11,798.53 Z" fill="#f7fbff" stroke="#ffffff" stroke-width="0.8"><title>cell 376: RAC_B=0.1700</title></path><path d="M 911.11,759.80 L 911.11,721.07 L 869.62,721.07 L 869.62,759.80 L 911.11,759.80 Z" fill="#f7fbff" stroke="#ffffff" stroke-width="0.8"><title>cell 377: RAC_B=0.1059</title></path><path d="M 911.11,721.07 L 911.11,682.34 L 869.62,682.34 L 869.62,721.07 L 911.11,721.07 Z" fill="#c6dbef" stroke="#ffffff" stroke-width="0.8"><title>cell 378: RAC_B=0.2741</title></path><path d="M 911.11,682.34 L 911.11,643.61 L 869.62,643.61 L 869.62,682.34 L 911.11,682.34 Z" fill="#c6dbef" stroke="#ffffff" stroke-width="0.8"><title>cell 379: RAC_B=0.2982</title></path><path d="M 911.11,643.61 L 911.11,604.88 L 869.62,604.88 L 869.62,643.61 L 911.11,643.61 Z" fill="#c6dbef" stroke="#ffffff" stroke-width="0.8"><title>cell 380: RAC_B=0.3287</title></path><path d="M 911.11,604.88 L 911.11,566.15 L 869.62,566.15 L 869.62,604.88 L 911.11,604.88 Z" fill="#6baed6" stroke="#ffffff" stroke-width="0.8"><title>cell 381: RAC_B=0.3730</title></path><path d="M 911.11,566.15 L 911.11,527.42 L 869.62,527.42 L 869.62,566.15 L 911.11,566.15 Z" fill="#6baed6" stroke="#ffffff" stroke-width="0.8"><title>cell 382: RAC_B=0.4650</title></path><path d="M 911.11,527.42 L 911.11,488.69 L 869.62,488.69 L 869.62,527.42 L 911.11,527.42 Z" fill="#6baed6" stroke="#ffffff" stroke-width="0.8"><title>cell 383: RAC_B=0.4361</title></path><path d="M 911.11,488.69 L 911.11,449.97 L 869.62,449.97 L 869.62,488.69 L 911.11,488.69 Z" fill="#6baed6" stroke="#ffffff" stroke-width="0.8"><title>cell 384: RAC_B=0.4582</title></path><path d="M 911.11,449.97 L 911.11,411.24 L 869.62,411.24 L 869.62,449.97 L 911.11,449.97 Z" fill="#6baed6" stroke="#ffffff" stroke-width="0.8"><title>cell 385: RAC_B=0.4546</title></path><path d="M 911.11,411.24 L 911.11,372.51 L 869.62,372.51 L 869.62,411.24 L 911.11,411.24 Z" fill="#6baed6" stroke="#ffffff" stroke-width="0.8"><title>cell 386: RAC_B=0.3815</title></path><path d="M 911.11,372.51 L 911.11,333.79 L 869.62,333.79 L 869.62,372.51 L 911.11,372.51 Z" fill="#2171b5" stroke="#ffffff" stroke-width="0.8"><title>cell 387: RAC_B=0.5200</title></path><path d="M 911.11,333.79 L 911.11,295.06 L 869.62,295.06 L 869.62,333.79 L 911.11,333.79 Z" fill="#2171b5" stroke="#ffffff" stroke-width="0.8"><title>cell 388: RAC_B=0.5395</title></path><path d="M 911.11,295.06 L 911.11,256.34 L 869.62,256.34 L 869.62,295.06 L 911.11,295.06 Z" fill="#2171b5" stroke="#ffffff" stroke-width="0.8"><title>cell 389: RAC_B=0.5125</title></path><path d="M 911.11,256.34 L 911.11,217.61 L 869.62,217.61 L 869.62,256.34 L 911.11,256.34 Z" fill="#2171b5" stroke="#ffffff" stroke-width="0.8"><title>cell 390: RAC_B=0.5361</title></path><path d="M 911.11,217.61 L 911.11,178.89 L 869.62,178.89 L 869.62,217.61 L 911.11,217.61 Z" fill="#6baed6" stroke="#ffffff" stroke-width="0.8"><title>cell 391: RAC_B=0.4754</title></path><path d="M 911.11,178.89 L 911.11,140.17 L 869.62,140.17 L 869.62,178.89 L 911.11,178.89 Z" fill="#6baed6" stroke="#ffffff" stroke-width="0.8"><title>cell 392: RAC_B=0.4390</title></path><path d="M 911.11,140.17 L 911.11,101.44 L 869.62,101.44 L 869.62,140.17 L 911.11,140.17 Z" fill="#6baed6" stroke="#ffffff" stroke-width="0.8"><title>cell 393: RAC_B=0.4304</title></path><path d="M 911.11,101.44 L 911.11,62.72 L 869.62,62.72 L 869.62,101.44 L 911.11,101.44 Z" fill="#6baed6" stroke="#ffffff" stroke-width="0.8"><title>cell 394: RAC_B=0.4140</title></path><path d="M 911.11,62.72 L 911.11,24.00 L 869.62,24.00 L 869.62,62.72 L 911.11,62.72 Z" fill="#6baed6" stroke="#ffffff" stroke-width="0.8"><title>cell 395: RAC_B=0.4586</title></path><path d="M 952.59,876.00 L 952.59,837.27 L 911.11,837.27 L 911.11,876.00 L 952.59,876.00 Z" fill="#f7fbff" stroke="#ffffff" stroke-width="0.8"><title>cell 396: RAC_B=0.1029</title></path><path d="M 952.59,837.27 L 952.59,798.53 L 911.11,798.53 L 911.11,837.27 L 952.59,837.27 Z" fill="#f7fbff" stroke="#ffffff" stroke-width="0.8"><title>cell 397: RAC_B=0.1220</title></path><path d="M 952.59,798.53 L 952.59,759.80 L 911.11,759.80 L 911.11,798.53 L 952.59,798.53 Z" fill="#f7fbff" stroke="#ffffff" stroke-width="0.8"><title>cell 398: RAC_B=0.1326</title></path><path d="M 952.59,759.80 L 952.59,721.07 L 911.11,721.07 L 911.11,759.80 L 952.59,759.80 Z" fill="#f7fbff" stroke="#ffffff" stroke-width="0.8"><title>cell 399: RAC_B=0.1450</title></path><path d="M 952.59,721.07 L 952.59,682.34 L 911.11,682.34 L 911.11,721.07 L 952.59,721.07 Z" fill="#f7fbff" stroke="#ffffff" stroke-width="0.8"><title>cell 400: RAC_B=0.1437</title></path><path d="M 952.59,682.34 L 952.59,643.61 L 911.11,643.61 L 911.11,682.34 L 952.59,682.34 Z" fill="#c6dbef" stroke="#ffffff" stroke-width="0.8"><title>cell 401: RAC_B=0.2714</title></path><path d="M 952.59,643.61 L 952.59,604.88 L 911.11,604.88 L 911.11,643.61 L 952.59,643.61 Z" fill="#c6dbef" stroke="#ffffff" stroke-width="0.8"><title>cell 402: RAC_B=0.2792</title></path><path d="M 952.59,604.88 L 952.59,566.15 L 911.11,566.15 L 911.11,604.88 L 952.59,604.88 Z" fill="#6baed6" stroke="#ffffff" stroke-width="0.8"><title>cell 403: RAC_B=0.3643</title></path><path d="M 952.59,566.15 L 952.59,527.42 L 911.11,527.42 L 911.11,566.15 L 952.59,566.15 Z" fill="#c6dbef" stroke="#ffffff" stroke-width="0.8"><title>cell 404: RAC_B=0.3026</title></path><path d="M 952.59,527.42 L 952.59,488.69 L 911.11,488.69 L 911.11,527.42 L 952.59,527.42 Z" fill="#c6dbef" stroke="#ffffff" stroke-width="0.8"><title>cell 405: RAC_B=0.2750</title></path><path d="M 952.59,488.69 L 952.59,449.97 L 911.11,449.97 L 911.11,488.69 L 952.59,488.69 Z" fill="#6baed6" stroke="#ffffff" stroke-width="0.8"><title>cell 406: RAC_B=0.4705</title></path><path d="M 952.59,449.97 L 952.59,411.24 L 911.11,411.24 L 911.11,449.97 L 952.59,449.97 Z" fill="#6baed6" stroke="#ffffff" stroke-width="0.8"><title>cell 407: RAC_B=0.4495</title></path><path d="M 952.59,411.24 L 952.59,372.51 L 911.11,372.51 L 911.11,411.24 L 952.59,411.24 Z" fill="#6baed6" stroke="#ffffff" stroke-width="0.8"><title>cell 408: RAC_B=0.4860</title></path><path d="M 952.59,372.51 L 952.59,333.79 L 911.11,333.79 L 911.11,372.51 L 952.59,372.51 Z" fill="#6baed6" stroke="#ffffff" stroke-width="0.8"><title>cell 409: RAC_B=0.4358</title></path><path d="M 952.59,333.79 L 952.59,295.06 L 911.11,295.06 L 911.11,333.79 L 952.59,333.79 Z" fill="#6baed6" stroke="#ffffff" stroke-width="0.8"><title>cell 410: RAC_B=0.4632</title></path><path d="M 952.59,295.06 L 952.59,256.34 L 911.11,256.34 L 911.11,295.06 L 952.59,295.06 Z" fill="#6baed6" stroke="#ffffff" stroke-width="0.8"><title>cell 411: RAC_B=0.4837</title></path><path d="M 952.59,256.34 L 952.59,217.61 L 911.11,217.61 L 911.11,256.34 L 952.59,256.34 Z" fill="#6baed6" stroke="#ffffff" stroke-width="0.8"><title>cell 412: RAC_B=0.4809</title></path><path d="M 952.59,217.61 L 952.59,178.89 L 911.11,178.89 L 911.11,217.61 L 952.59,217.61 Z" fill="#6baed6" stroke="#ffffff" stroke-width="0.8"><title>cell 413: RAC_B=0.4837</title></path><path d="M 952.59,178.89 L 952.59,140.17 L 911.11,140.17 L 911.11,178.89 L 952.59,178.89 Z" fill="#6baed6" stroke="#ffffff" stroke-width="0.8"><title>cell 414: RAC_B=0.4577</title></path><path d="M 952.59,140.17 L 952.59,101.44 L 911.11,101.44 L 911.11,140.17 L 952.59,140.17 Z" fill="#6baed6" stroke="#ffffff" stroke-width="0.8"><title>cell 415: RAC_B=0.4849</title></path><path d="M 952.59,101.44 L 952.59,62.72 L 911.11,62.72 L 911.11,101.44 L 952.59,101.44 Z" fill="#2171b5" stroke="#ffffff" stroke-width="0.8"><title>cell 416: RAC_B=0.5182</title></path><path d="M 952.59,62.72 L 952.59,24.00 L 911.11,24.00 L 911.11,62.72 L 952.59,62.72 Z" fill="#6baed6" stroke="#ffffff" stroke-width="0.8"><title>cell 417: RAC_B=0.4707</title></path><path d="M 994.07,876.00 L 994.07,837.27 L 952.59,837.27 L 952.59,876.00 L 994.07,876.00 Z" fill="#f7fbff" stroke="#ffffff" stroke-width="0.8"><title>cell 418: RAC_B=0.0924</title></path><path d="M 994.07,837.27 L 994.07,798.53 L 952.59,798.53 L 952.59,837.27 L 994.07,837.27 Z" fill="#f7fbff" stroke="#ffffff" stroke-width="0.8"><title>cell 419: RAC_B=0.1174</title></path><path d="M 994.07,798.53 L 994.07,759.80 L 952.59,759.80 L 952.59,798.53 L 994.07,798.53 Z" fill="#f7fbff" stroke="#ffffff" stroke-width="0.8"><title>cell 420: RAC_B=0.1107</title></path><path d="M 994.07,759.80 L 994.07,721.07 L 952.59,721.07 L 952.59,759.80 L 994.07,759.80 Z" fill="#f7fbff" stroke="#ffffff" stroke-width="0.8"><title>cell 421: RAC_B=0.1282</title></path><path d="M 994.07,721.07 L 994.07,682.34 L 952.59,682.34 L 952.59,721.07 L 994.07,721.07 Z" fill="#f7fbff" stroke="#ffffff" stroke-width="0.8"><title>cell 422: RAC_B=0.1524</title></path><path d="M 994.07,682.34 L 994.07,643.61 L 952.59,643.61 L 952.59,682.34 L 994.07,682.34 Z" fill="#f7fbff" stroke="#ffffff" stroke-width="0.8"><title>cell 423: RAC_B=0.1813</title></path><path d="M 994.07,643.61 L 994.07,604.88 L 952.59,604.88 L 952.59,643.61 L 994.07,643.61 Z" fill="#f7fbff" stroke="#ffffff" stroke-width="0.8"><title>cell 424: RAC_B=0.2157</title></path><path d="M 994.07,604.88 L 994.07,566.15 L 952.59,566.15 L 952.59,604.88 L 994.07,604.88 Z" fill="#f7fbff" stroke="#ffffff" stroke-width="0.8"><title>cell 425: RAC_B=0.2128</title></path><path d="M 994.07,566.15 L 994.07,527.42 L 952.59,527.42 L 952.59,566.15 L 994.07,566.15 Z" fill="#6baed6" stroke="#ffffff" stroke-width="0.8"><title>cell 426: RAC_B=0.3835</title></path><path d="M 994.07,527.42 L 994.07,488.69 L 952.59,488.69 L 952.59,527.42 L 994.07,527.42 Z" fill="#c6dbef" stroke="#ffffff" stroke-width="0.8"><title>cell 427: RAC_B=0.2801</title></path><path d="M 994.07,488.69 L 994.07,449.97 L 952.59,449.97 L 952.59,488.69 L 994.07,488.69 Z" fill="#6baed6" stroke="#ffffff" stroke-width="0.8"><title>cell 428: RAC_B=0.3806</title></path><path d="M 994.07,449.97 L 994.07,411.24 L 952.59,411.24 L 952.59,449.97 L 994.07,449.97 Z" fill="#6baed6" stroke="#ffffff" stroke-width="0.8"><title>cell 429: RAC_B=0.3826</title></path><path d="M 994.07,411.24 L 994.07,372.51 L 952.59,372.51 L 952.59,411.24 L 994.07,411.24 Z" fill="#6baed6" stroke="#ffffff" stroke-width="0.8"><title>cell 430: RAC_B=0.4169</title></path><path d="M 994.07,372.51 L 994.07,333.79 L 952.59,333.79 L 952.59,372.51 L 994.07,372.51 Z" fill="#6baed6" stroke="#ffffff" stroke-width="0.8"><title>cell 431: RAC_B=0.4348</title></path><path d="M 994.07,333.79 L 994.07,295.06 L 952.59,295.06 L 952.59,333.79 L 994.07,333.79 Z" fill="#6baed6" stroke="#ffffff" stroke-width="0.8"><title>cell 432: RAC_B=0.4589</title></path><path d="M 994.07,295.06 L 994.07,256.34 L 952.59,256.34 L 952.59,295.06 L 994.07,295.06 Z" fill="#6baed6" stroke="#ffffff" stroke-width="0.8"><title>cell 433: RAC_B=0.4633</title></path><path d="M 994.07,256.34 L 994.07,217.61 L 952.59,217.61 L 952.59,256.34 L 994.07,256.34 Z" fill="#6baed6" stroke="#ffffff" stroke-width="0.8"><title>cell 434: RAC_B=0.4422</title></path><path d="M 994.07,217.61 L 994.07,178.89 L 952.59,178.89 L 952.59,217.61 L 994.07,217.61 Z" fill="#6baed6" stroke="#ffffff" stroke-width="0.8"><title>cell 435: RAC_B=0.4849</title></path><path d="M 994.07,178.89 L 994.07,140.17 L 952.59,140.17 L 952.59,178.89 L 994.07,178.89 Z" fill="#6baed6" stroke="#ffffff" stroke-width="0.8"><title>cell 436: RAC_B=0.4693</title></path><path d="M 994.07,140.17 L 994.07,101.44 L 952.59,101.44 L 952.59,140.17 L 994.07,140.17 Z" fill="#6baed6" stroke="#ffffff" stroke-width="0.8"><title>cell 437: RAC_B=0.4694</title></path><path d="M 994.07,101.44 L 994.07,62.72 L 952.59,62.72 L 952.59,101.44 L 994.07,101.44 Z" fill="#6baed6" stroke="#ffffff" stroke-width="0.8"><title>cell 438: RAC_B=0.4767</title></path><path d="M 994.07,62.72 L 994.07,24.00 L 952.59,24.00 L 952.59,62.72 L 994.07,62.72 Z" fill="#6baed6" stroke="#ffffff" stroke-width="0.8"><title>cell 439: RAC_B=0.4654</title></path><path d="M 1035.55,876.00 L 1035.55,837.27 L 994.07,837.27 L 994.07,876.00 L 1035.55,876.00 Z" fill="#f7fbff" stroke="#ffffff" stroke-width="0.8"><title>cell 440: RAC_B=0.0924</title></path><path d="M 1035.55,837.27 L 1035.55,798.53 L 994.07,798.53 L 994.07,837.27 L 1035.55,837.27 Z" fill="#f7fbff" stroke="#ffffff" stroke-width="0.8"><title>cell 441: RAC_B=0.1174</title></path><path d="M 1035.55,798.53 L 1035.55,759.80 L 994.07,759.80 L 994.07,798.53 L 1035.55,798.53 Z" fill="#f7fbff" stroke="#ffffff" stroke-width="0.8"><title>cell 442: RAC_B=0.1221</title></path><path d="M 1035.55,759.80 L 1035.55,721.07 L 994.07,721.07 L 994.07,759.80 L 1035.55,759.80 Z" fill="#f7fbff" stroke="#ffffff" stroke-width="0.8"><title>cell 443: RAC_B=0.1234</title></path><path d="M 1035.55,721.07 L 1035.55,682.34 L 994.07,682.34 L 994.07,721.07 L 1035.55,721.07 Z" fill="#f7fbff" stroke="#ffffff" stroke-width="0.8"><title>cell 444: RAC_B=0.1542</title></path><path d="M 1035.55,682.34 L 1035.55,643.61 L 994.07,643.61 L 994.07,682.34 L 1035.55,682.34 Z" fill="#f7fbff" stroke="#ffffff" stroke-width="0.8"><title>cell 445: RAC_B=0.1813</title></path><path d="M 1035.55,643.61 L 1035.55,604.88 L 994.07,604.88 L 994.07,643.61 L 1035.55,643.61 Z" fill="#f7fbff" stroke="#ffffff" stroke-width="0.8"><title>cell 446: RAC_B=0.2018</title></path><path d="M 1035.55,604.88 L 1035.55,566.15 L 994.07,566.15 L 994.07,604.88 L 1035.55,604.88 Z" fill="#c6dbef" stroke="#ffffff" stroke-width="0.8"><title>cell 447: RAC_B=0.3253</title></path><path d="M 1035.55,566.15 L 1035.55,527.42 L 994.07,527.42 L 994.07,566.15 L 1035.55,566.15 Z" fill="#c6dbef" stroke="#ffffff" stroke-width="0.8"><title>cell 448: RAC_B=0.3253</title></path><path d="M 1035.55,527.42 L 1035.55,488.69 L 994.07,488.69 L 994.07,527.42 L 1035.55,527.42 Z" fill="#c6dbef" stroke="#ffffff" stroke-width="0.8"><title>cell 449: RAC_B=0.3127</title></path><path d="M 1035.55,488.69 L 1035.55,449.97 L 994.07,449.97 L 994.07,488.69 L 1035.55,488.69 Z" fill="#6baed6" stroke="#ffffff" stroke-width="0.8"><title>cell 450: RAC_B=0.3854</title></path><path d="M 1035.55,449.97 L 1035.55,411.24 L 994.07,411.24 L 994.07,449.97 L 1035.55,449.97 Z" fill="#6baed6" stroke="#ffffff" stroke-width="0.8"><title>cell 451: RAC_B=0.3993</title></path><path d="M 1035.55,411.24 L 1035.55,372.51 L 994.07,372.51 L 994.07,411.24 L 1035.55,411.24 Z" fill="#6baed6" stroke="#ffffff" stroke-width="0.8"><title>cell 452: RAC_B=0.4479</title></path><path d="M 1035.55,372.51 L 1035.55,333.79 L 994.07,333.79 L 994.07,372.51 L 1035.55,372.51 Z" fill="#6baed6" stroke="#ffffff" stroke-width="0.8"><title>cell 453: RAC_B=0.4405</title></path><path d="M 1035.55,333.79 L 1035.55,295.06 L 994.07,295.06 L 994.07,333.79 L 1035.55,333.79 Z" fill="#6baed6" stroke="#ffffff" stroke-width="0.8"><title>cell 454: RAC_B=0.4119</title></path><path d="M 1035.55,295.06 L 1035.55,256.34 L 994.07,256.34 L 994.07,295.06 L 1035.55,295.06 Z" fill="#6baed6" stroke="#ffffff" stroke-width="0.8"><title>cell 455: RAC_B=0.4360</title></path><path d="M 1035.55,256.34 L 1035.55,217.61 L 994.07,217.61 L 994.07,256.34 L 1035.55,256.34 Z" fill="#6baed6" stroke="#ffffff" stroke-width="0.8"><title>cell 456: RAC_B=0.4157</title></path><path d="M 1035.55,217.61 L 1035.55,178.89 L 994.07,178.89 L 994.07,217.61 L 1035.55,217.61 Z" fill="#6baed6" stroke="#ffffff" stroke-width="0.8"><title>cell 457: RAC_B=0.4479</title></path><path d="M 1035.55,178.89 L 1035.55,140.17 L 994.07,140.17 L 994.07,178.89 L 1035.55,178.89 Z" fill="#6baed6" stroke="#ffffff" stroke-width="0.8"><title>cell 458: RAC_B=0.4450</title></path><path d="M 1035.55,140.17 L 1035.55,101.44 L 994.07,101.44 L 994.07,140.17 L 1035.55,140.17 Z" fill="#6baed6" stroke="#ffffff" stroke-width="0.8"><title>cell 459: RAC_B=0.4515</title></path><path d="M 1035.55,101.44 L 1035.55,62.72 L 994.07,62.72 L 994.07,101.44 L 1035.55,101.44 Z" fill="#6baed6" stroke="#ffffff" stroke-width="0.8"><title>cell 460: RAC_B=0.4486</title></path><path d="M 1035.55,62.72 L 1035.55,24.00 L 994.07,24.00 L 994.07,62.72 L 1035.55,62.72 Z" fill="#6baed6" stroke="#ffffff" stroke-width="0.8"><title>cell 461: RAC_B=0.4301</title></path></g>
<text x="40" y="44" font-family="Arial" font-size="28" font-weight="700">RAC_B</text>
<rect x="40" y="80" width="22" height="18" fill="#e0e0e0"/><text x="72" y="94" font-size="16">Zero access</text><rect x="40" y="108" width="22" height="18" fill="#f7fbff"/><text x="72" y="122" font-size="16">positive quantile 1</text><rect x="40" y="136" width="22" height="18" fill="#c6dbef"/><text x="72" y="150" font-size="16">positive quantile 2</text><rect x="40" y="164" width="22" height="18" fill="#6baed6"/><text x="72" y="178" font-size="16">positive quantile 3</text><rect x="40" y="192" width="22" height="18" fill="#2171b5"/><text x="72" y="206" font-size="16">positive quantile 4</text><rect x="40" y="220" width="22" height="18" fill="#08306b"/><text x="72" y="234" font-size="16">positive quantile 5</text>
</svg>
