<svg xmlns="http://www.w3.org/2000/svg" width="1200" height="900" viewBox="0 0 1200 900">
<rect width="100%" height="100%" fill="#ffffff"/>
<g><path d="M 205.93,876.00 L 205.93,837.27 L 164.45,837.27 L 164.45,876.00 L 205.93,876.00 Z" fill="#f7fbff" stroke="#ffffff" stroke-width="0.8"><title>cell 0: SMCI_B=0.0003</title></path><path d="M 205.93,837.27 L 205.93,798.53 L 164.45,798.53 L 164.45,837.27 L 205.93,837.27 Z" fill="#f7fbff" stroke="#ffffff" stroke-width="0.8"><title>cell 1: SMCI_B=0.0010</title></path><path d="M 205.93,798.53 L 205.93,759.80 L 164.45,759.80 L 164.45,798.53 L 205.93,798.53 Z" fill="#f7fbff" stroke="#ffffff" stroke-width="0.8"><title>cell 2: SMCI_B=0.0014</title></path><path d="M 205.93,759.80 L 205.93,721.07 L 164.45,721.07 L 164.45,759.80 L 205.93,759.80 Z" fill="#f7fbff" stroke="#ffffff" stroke-width="0.8"><title>cell 3: SMCI_B=0.0009</title></path><path d="M 205.93,721.07 L 205.93,682.34 L 164.45,682.34 L 164.45,721.07 L 205.93,721.07 Z" fill="#f7fbff" stroke="#ffffff" stroke-width="0.8"><title>cell 4: SMCI_B=0.0017</title></path><path d="M 205.93,682.34 L 205.93,643.61 L 164.45,643.61 L 164.45,682.34 L 205.93,682.34 Z" fill="#f7fbff" stroke="#ffffff" stroke-width="0.8"><title>cell 5: SMCI_B=0.0020</title></path><path d="M 205.93,643.61 L 205.93,604.88 L 164.45,604.88 L 164.45,643.61 L 205.93,643.61 Z" fill="#c6dbef" stroke="#ffffff" stroke-width="0.8"><title>cell 6: SMCI_B=0.0091</title></path><path d="M 205.93,604.88 L 205.93,566.15 L 164.45,566.15 L 164.45,604.88 L 205.93,604.88 Z" fill="#6baed6" stroke="#ffffff" stroke-width="0.8"><title>cell 7: SMCI_B=0.0442</title></path><path d="M 205.93,566.15 L 205.93,527.42 L 164.45,527.42 L 164.45,566.15 L 205.93,566.15 Z" fill="#6baed6" stroke="#ffffff" stroke-width="0.8"><title>cell 8: SMCI_B=0.0439</title></path><path d="M 205.93,527.42 L 205.93,488.69 L 164.45,488.69 L 164.45,527.42 L 205.93,527.42 Z" fill="#c6dbef" stroke="#ffffff" stroke-width="0.8"><title>cell 9: SMCI_B=0.0150</title></path><path d="M 205.93,488.69 L 205.93,449.97 L 164.45,449.97 L 164.45,488.69 L 205.93,488.69 Z" fill="#e0e0e0" stroke="#ffffff" stroke-width="0.8"><title>cell 10: SMCI_B=0.0000</title></path><path d="M 205.93,449.97 L 205.93,411.24 L 164.45,411.24 L 164.45,449.97 L 205.93,449.97 Z" fill="#e0e0e0" stroke="#ffffff" stroke-width="0.8"><title>cell 11: SMCI_B=0.0000</title></path><path d="M 205.93,411.24 L 205.93,372.51 L 164.45,372.51 L 164.45,411.24 L 205.93,411.24 Z" fill="#e0e0e0" stroke="#ffffff" stroke-width="0.8"><title>cell 12: SMCI_B=0.0000</title></path><path d="M 205.93,372.51 L 205.93,333.79 L 164.45,333.79 L 164.45,372.51 L 205.93,372.51 Z" fill="#e0e0e0" stroke="#ffffff" stroke-width="0.8"><title>cell 13: SMCI_B=0.0000</title></path><path d="M 205.93,333.79 L 205.93,295.06 L 164.45,295.06 L 164.45,333.79 L 205.93,333.79 Z" fill="#e0e0e0" stroke="#ffffff" stroke-width="0.8"><title>cell 14: SMCI_B=0.0000</title></path><path d="M 205.93,295.06 L 205.93,256.34 L 164.45,256.34 L 164.45,295.06 L 205.93,295.06 Z" fill="#c6dbef" stroke="#ffffff" stroke-width="0.8"><title>cell 15: SMCI_B=0.0068</title></path><path d="M 205.93,256.34 L 205.93,217.61 L 164.45,217.61 L 164.45,256.34 L 205.93,256.34 Z" fill="#c6dbef" stroke="#ffffff" stroke-width="0.8"><title>cell 16: SMCI_B=0.0075</title></path><path d="M 205.93,217.61 L 205.93,178.89 L 164.45,178.89 L 164.45,217.61 L 205.93,217.61 Z" fill="#6baed6" stroke="#ffffff" stroke-width="0.8"><title>cell 17: SMCI_B=0.0457</title></path><path d="M 205.93,178.89 L 205.93,140.17 L 164.45,140.17 L 164.45,178.89 L 205.93,178.89 Z" fill="#6baed6" stroke="#ffffff" stroke-width="0.8"><title>cell 18: SMCI_B=0.0404</title></path><path d="M 205.93,140.17 L 205.93,101.44 L 164.45,101.44 L 164.45,140.17 L 205.93,140.17 Z" fill="#c6dbef" stroke="#ffffff" stroke-width="0.8"><title>cell 19: SMCI_B=0.0215</title></path><path d="M 205.93,101.44 L 205.93,62.72 L 164.45,62.72 L 164.45,101.44 L 205.93,101.44 Z" fill="#f7fbff" stroke="#ffffff" stroke-width="0.8"><title>cell 20: SMCI_B=0.0056</title></path><path d="M 205.93,62.72 L 205.93,24.00 L 164.45,24.00 L 164.45,62.72 L 205.93,62.72 Z" fill="#c6dbef" stroke="#ffffff" stroke-width="0.8"><title>cell 21: SMCI_B=0.0126</title></path><path d="M 247.41,876.00 L 247.41,837.27 L 205.93,837.27 L 205.93,876.00 L 247.41,876.00 Z" fill="#f7fbff" stroke="#ffffff" stroke-width="0.8"><title>cell 22: SMCI_B=0.0007</title></path><path d="M 247.41,837.27 L 247.41,798.53 L 205.93,798.53 L 205.93,837.27 L 247.41,837.27 Z" fill="#f7fbff" stroke="#ffffff" stroke-width="0.8"><title>cell 23: SMCI_B=0.0019</title></path><path d="M 247.41,798.53 L 247.41,759.80 L 205.93,759.80 L 205.93,798.53 L 247.41,798.53 Z" fill="#f7fbff" stroke="#ffffff" stroke-width="0.8"><title>cell 24: SMCI_B=0.0015</title></path><path d="M 247.41,759.80 L 247.41,721.07 L 205.93,721.07 L 205.93,759.80 L 247.41,759.80 Z" fill="#f7fbff" stroke="#ffffff" stroke-width="0.8"><title>cell 25: SMCI_B=0.0045</title></path><path d="M 247.41,721.07 L 247.41,682.34 L 205.93,682.34 L 205.93,721.07 L 247.41,721.07 Z" fill="#c6dbef" stroke="#ffffff" stroke-width="0.8"><title>cell 26: SMCI_B=0.0078</title></path><path d="M 247.41,682.34 L 247.41,643.61 L 205.93,643.61 L 205.93,682.34 L 247.41,682.34 Z" fill="#c6dbef" stroke="#ffffff" stroke-width="0.8"><title>cell 27: SMCI_B=0.0180</title></path><path d="M 247.41,643.61 L 247.41,604.88 L 205.93,604.88 L 205.93,643.61 L 247.41,643.61 Z" fill="#6baed6" stroke="#ffffff" stroke-width="0.8"><title>cell 28: SMCI_B=0.0393</title></path><path d="M 247.41,604.88 L 247.41,566.15 L 205.93,566.15 L 205.93,604.88 L 247.41,604.88 Z" fill="#c6dbef" stroke="#ffffff" stroke-width="0.8"><title>cell 29: SMCI_B=0.0287</title></path><path d="M 247.41,566.15 L 247.41,527.42 L 205.93,527.42 L 205.93,566.15 L 247.41,566.15 Z" fill="#c6dbef" stroke="#ffffff" stroke-width="0.8"><title>cell 30: SMCI_B=0.0155</title></path><path d="M 247.41,527.42 L 247.41,488.69 L 205.93,488.69 L 205.93,527.42 L 247.41,527.42 Z" fill="#f7fbff" stroke="#ffffff" stroke-width="0.8"><title>cell 31: SMCI_B=0.0059</title></path><path d="M 247.41,488.69 L 247.41,449.97 L 205.93,449.97 L 205.93,488.69 L 247.41,488.69 Z" fill="#e0e0e0" stroke="#ffffff" stroke-width="0.8"><title>cell 32: SMCI_B=0.0000</title></path><path d="M 247.41,449.97 L 247.41,411.24 L 205.93,411.24 L 205.93,449.97 L 247.41,449.97 Z" fill="#e0e0e0" stroke="#ffffff" stroke-width="0.8"><title>cell 33: SMCI_B=0.0000</title></path><path d="M 247.41,411.24 L 247.41,372.51 L 205.93,372.51 L 205.93,411.24 L 247.41,411.24 Z" fill="#e0e0e0" stroke="#ffffff" stroke-width="0.8"><title>cell 34: SMCI_B=0.0000</title></path><path d="M 247.41,372.51 L 247.41,333.79 L 205.93,333.79 L 205.93,372.51 L 247.41,372.51 Z" fill="#e0e0e0" stroke="#ffffff" stroke-width="0.8"><title>cell 35: SMCI_B=0.0000</title></path><path d="M 247.41,333.79 L 247.41,295.06 L 205.93,295.06 L 205.93,333.79 L 247.41,333.79 Z" fill="#e0e0e0" stroke="#ffffff" stroke-width="0.8"><title>cell 36: SMCI_B=0.0000</title></path><path d="M 247.41,295.06 L 247.41,256.34 L 205.93,256.34 L 205.93,295.06 L 247.41,295.06 Z" fill="#c6dbef" stroke="#ffffff" stroke-width="0.8"><title>cell 37: SMCI_B=0.0158</title></path><path d="M 247.41,256.34 L 247.41,217.61 L 205.93,217.61 L 205.93,256.34 L 247.41,256.34 Z" fill="#6baed6" stroke="#ffffff" stroke-width="0.8"><title>cell 38: SMCI_B=0.0683</title></path><path d="M 247.41,217.61 L 247.41,178.89 L 205.93,178.89 L 205.93,217.61 L 247.41,217.61 Z" fill="#6baed6" stroke="#ffffff" stroke-width="0.8"><title>cell 39: SMCI_B=0.0691</title></path><path d="M 247.41,178.89 L 247.41,140.17 L 205.93,140.17 L 205.93,178.89 L 247.41,178.89 Z" fill="#6baed6" stroke="#ffffff" stroke-width="0.8"><title>cell 40: SMCI_B=0.0314</title></path><path d="M 247.41,140.17 L 247.41,101.44 L 205.93,101.44 L 205.93,140.17 L 247.41,140.17 Z" fill="#c6dbef" stroke="#ffffff" stroke-width="0.8"><title>cell 41: SMCI_B=0.0225</title></path><path d="M 247.41,101.44 L 247.41,62.72 L 205.93,62.72 L 205.93,101.44 L 247.41,101.44 Z" fill="#c6dbef" stroke="#ffffff" stroke-width="0.8"><title>cell 42: SMCI_B=0.0061</title></path><path d="M 247.41,62.72 L 247.41,24.00 L 205.93,24.00 L 205.93,62.72 L 247.41,62.72 Z" fill="#c6dbef" stroke="#ffffff" stroke-width="0.8"><title>cell 43: SMCI_B=0.0270</title></path><path d="M 288.89,876.00 L 288.89,837.27 L 247.41,837.27 L 247.41,876.00 L 288.89,876.00 Z" fill="#f7fbff" stroke="#ffffff" stroke-width="0.8"><title>cell 44: SMCI_B=0.0013</title></path><path d="M 288.89,837.27 L 288.89,798.53 L 247.41,798.53 L 247.41,837.27 L 288.89,837.27 Z" fill="#f7fbff" stroke="#ffffff" stroke-width="0.8"><title>cell 45: SMCI_B=0.0017</title></path><path d="M 288.89,798.53 L 288.89,759.80 L 247.41,759.80 L 247.41,798.53 L 288.89,798.53 Z" fill="#f7fbff" stroke="#ffffff" stroke-width="0.8"><title>cell 46: SMCI_B=0.0051</title></path><path d="M 288.89,759.80 L 288.89,721.07 L 247.41,721.07 L 247.41,759.80 L 288.89,759.80 Z" fill="#e0e0e0" stroke="#ffffff" stroke-width="0.8"><title>cell 47: SMCI_B=0.0000</title></path><path d="M 288.89,721.07 L 288.89,682.34 L 247.41,682.34 L 247.41,721.07 L 288.89,721.07 Z" fill="#e0e0e0" stroke="#ffffff" stroke-width="0.8"><title>cell 48: SMCI_B=0.0000</title></path><path d="M 288.89,682.34 L 288.89,643.61 L 247.41,643.61 L 247.41,682.34 L 288.89,682.34 Z" fill="#c6dbef" stroke="#ffffff" stroke-width="0.8"><title>cell 49: SMCI_B=0.0166</title></path><path d="M 288.89,643.61 L 288.89,604.88 L 247.41,604.88 L 247.41,643.61 L 288.89,643.61 Z" fill="#6baed6" stroke="#ffffff" stroke-width="0.8"><title>cell 50: SMCI_B=0.0409</title></path><path d="M 288.89,604.88 L 288.89,566.15 L 247.41,566.15 L 247.41,604.88 L 288.89,604.88 Z" fill="#6baed6" stroke="#ffffff" stroke-width="0.8"><title>cell 51: SMCI_B=0.0671</title></path><path d="M 288.89,566.15 L 288.89,527.42 L 247.41,527.42 L 247.41,566.15 L 288.89,566.15 Z" fill="#6baed6" stroke="#ffffff" stroke-width="0.8"><title>cell 52: SMCI_B=0.0484</title></path><path d="M 288.89,527.42 L 288.89,488.69 L 247.41,488.69 L 247.41,527.42 L 288.89,527.42 Z" fill="#c6dbef" stroke="#ffffff" stroke-width="0.8"><title>cell 53: SMCI_B=0.0268</title></path><path d="M 288.89,488.69 L 288.89,449.97 L 247.41,449.97 L 247.41,488.69 L 288.89,488.69 Z" fill="#e0e0e0" stroke="#ffffff" stroke-width="0.8"><title>cell 54: SMCI_B=0.0000</title></path><path d="M 288.89,449.97 L 288.89,411.24 L 247.41,411.24 L 247.41,449.97 L 288.89,449.97 Z" fill="#e0e0e0" stroke="#ffffff" stroke-width="0.8"><title>cell 55: SMCI_B=0.0000</title></path><path d="M 288.89,411.24 L 288.89,372.51 L 247.41,372.51 L 247.41,411.24 L 288.89,411.24 Z" fill="#e0e0e0" stroke="#ffffff" stroke-width="0.8"><title>cell 56: SMCI_B=0.0000</title></path><path d="M 288.89,372.51 L 288.89,333.79 L 247.41,333.79 L 247.41,372.51 L 288.89,372.51 Z" fill="#e0e0e0" stroke="#ffffff" stroke-width="0.8"><title>cell 57: SMCI_B=0.0000</title></path><path d="M 288.89,333.79 L 288.89,295.06 L 247.41,295.06 L 247.41,333.79 L 288.89,333.79 Z" fill="#6baed6" stroke="#ffffff" stroke-width="0.8"><title>cell 58: SMCI_B=0.0457</title></path><path d="M 288.89,295.06 L 288.89,256.34 L 247.41,256.34 L 247.41,295.06 L 288.89,295.06 Z" fill="#6baed6" stroke="#ffffff" stroke-width="0.8"><title>cell 59: SMCI_B=0.0662</title></path><path d="M 288.89,256.34 L 288.89,217.61 L 247.41,217.61 L 247.41,256.34 L 288.89,256.34 Z" fill="#6baed6" stroke="#ffffff" stroke-width="0.8"><title>cell 60: SMCI_B=0.0337</title></path><path d="M 288.89,217.61 L 288.89,178.89 L 247.41,178.89 L 247.41,217.61 L 288.89,217.61 Z" fill="#2171b5" stroke="#ffffff" stroke-width="0.8"><title>cell 61: SMCI_B=0.0737</title></path><path d="M 288.89,178.89 L 288.89,140.17 L 247.41,140.17 L 247.41,178.89 L 288.89,178.89 Z" fill="#08306b" stroke="#ffffff" stroke-width="0.8"><title>cell 62: SMCI_B=0.2821</title></path><path d="M 288.89,140.17 L 288.89,101.44 L 247.41,101.44 L 247.41,140.17 L 288.89,140.17 Z" fill="#2171b5" stroke="#ffffff" stroke-width="0.8"><title>cell 63: SMCI_B=0.1401</title></path><path d="M 288.89,101.44 L 288.89,62.72 L 247.41,62.72 L 247.41,101.44 L 288.89,101.44 Z" fill="#6baed6" stroke="#ffffff" stroke-width="0.8"><title>cell 64: SMCI_B=0.0523</title></path><path d="M 288.89,62.72 L 288.89,24.00 L 247.41,24.00 L 247.41,62.72 L 288.89,62.72 Z" fill="#c6dbef" stroke="#ffffff" stroke-width="0.8"><title>cell 65: SMCI_B=0.0274</title></path><path d="M 330.38,876.00 L 330.38,837.27 L 288.89,837.27 L 288.89,876.00 L 330.38,876.00 Z" fill="#f7fbff" stroke="#ffffff" stroke-width="0.8"><title>cell 66: SMCI_B=0.0028</title></path><path d="M 330.38,837.27 L 330.38,798.53 L 288.89,798.53 L 288.89,837.27 L 330.38,837.27 Z" fill="#f7fbff" stroke="#ffffff" stroke-width="0.8"><title>cell 67: SMCI_B=0.0035</title></path><path d="M 330.38,798.53 L 330.38,759.80 L 288.89,759.80 L 288.89,798.53 L 330.38,798.53 Z" fill="#e0e0e0" stroke="#ffffff" stroke-width="0.8"><title>cell 68: SMCI_B=0.0000</title></path><path d="M 330.38,759.80 L 330.38,721.07 L 288.89,721.07 L 288.89,759.80 L 330.38,759.80 Z" fill="#e0e0e0" stroke="#ffffff" stroke-width="0.8"><title>cell 69: SMCI_B=0.0000</title></path><path d="M 330.38,721.07 L 330.38,682.34 L 288.89,682.34 L 288.89,721.07 L 330.38,721.07 Z" fill="#f7fbff" stroke="#ffffff" stroke-width="0.8"><title>cell 70: SMCI_B=0.0022</title></path><path d="M 330.38,682.34 L 330.38,643.61 L 288.89,643.61 L 288.89,682.34 L 330.38,682.34 Z" fill="#c6dbef" stroke="#ffffff" stroke-width="0.8"><title>cell 71: SMCI_B=0.0220</title></path><path d="M 330.38,643.61 L 330.38,604.88 L 288.89,604.88 L 288.89,643.61 L 330.38,643.61 Z" fill="#6baed6" stroke="#ffffff" stroke-width="0.8"><title>cell 72: SMCI_B=0.0442</title></path><path d="M 330.38,604.88 L 330.38,566.15 L 288.89,566.15 L 288.89,604.88 L 330.38,604.88 Z" fill="#2171b5" stroke="#ffffff" stroke-width="0.8"><title>cell 73: SMCI_B=0.0698</title></path><path d="M 330.38,566.15 L 330.38,527.42 L 288.89,527.42 L 288.89,566.15 L 330.38,566.15 Z" fill="#6baed6" stroke="#ffffff" stroke-width="0.8"><title>cell 74: SMCI_B=0.0487</title></path><path d="M 330.38,527.42 L 330.38,488.69 L 288.89,488.69 L 288.89,527.42 L 330.38,527.42 Z" fill="#6baed6" stroke="#ffffff" stroke-width="0.8"><title>cell 75: SMCI_B=0.0412</title></path><path d="M 330.38,488.69 L 330.38,449.97 L 288.89,449.97 L 288.89,488.69 L 330.38,488.69 Z" fill="#e0e0e0" stroke="#ffffff" stroke-width="0.8"><title>cell 76: SMCI_B=0.0000</title></path><path d="M 330.38,449.97 L 330.38,411.24 L 288.89,411.24 L 288.89,449.97 L 330.38,449.97 Z" fill="#e0e0e0" stroke="#ffffff" stroke-width="0.8"><title>cell 77: SMCI_B=0.0000</title></path><path d="M 330.38,411.24 L 330.38,372.51 L 288.89,372.51 L 288.89,411.24 L 330.38,411.24 Z" fill="#e0e0e0" stroke="#ffffff" stroke-width="0.8"><title>cell 78: SMCI_B=0.0000</title></path><path d="M 330.38,372.51 L 330.38,333.79 L 288.89,333.79 L 288.89,372.51 L 330.38,372.51 Z" fill="#c6dbef" stroke="#ffffff" stroke-width="0.8"><title>cell 79: SMCI_B=0.0071</title></path><path d="M 330.38,333.79 L 330.38,295.06 L 288.89,295.06 L 288.89,333.79 L 330.38,333.79 Z" fill="#2171b5" stroke="#ffffff" stroke-width="0.8"><title>cell 80: SMCI_B=0.1888</title></path><path d="M 330.38,295.06 L 330.38,256.34 L 288.89,256.34 L 288.89,295.06 L 330.38,295.06 Z" fill="#2171b5" stroke="#ffffff" stroke-width="0.8"><title>cell 81: SMCI_B=0.1746</title></path><path d="M 330.38,256.34 L 330.38,217.61 L 288.89,217.61 L 288.89,256.34 L 330.38,256.34 Z" fill="#08306b" stroke="#ffffff" stroke-width="0.8"><title>cell 82: SMCI_B=0.3935</title></path><path d="M 330.38,217.61 L 330.38,178.89 L 288.89,178.89 L 288.89,217.61 L 330.38,217.61 Z" fill="#08306b" stroke="#ffffff" stroke-width="0.8"><title>cell 83: SMCI_B=0.4634</title></path><path d="M 330.38,178.89 L 330.38,140.17 L 288.89,140.17 L 288.89,178.89 L 330.38,178.89 Z" fill="#c6dbef" stroke="#ffffff" stroke-width="0.8"><title>cell 84: SMCI_B=0.0110</title></path><path d="M 330.38,140.17 L 330.38,101.44 L 288.89,101.44 L 288.89,140.17 L 330.38,140.17 Z" fill="#08306b" stroke="#ffffff" stroke-width="0.8"><title>cell 85: SMCI_B=0.2107</title></path><path d="M 330.38,101.44 L 330.38,62.72 L 288.89,62.72 L 288.89,101.44 L 330.38,101.44 Z" fill="#2171b5" stroke="#ffffff" stroke-width="0.8"><title>cell 86: SMCI_B=0.0905</title></path><path d="M 330.38,62.72 L 330.38,24.00 L 288.89,24.00 L 288.89,62.72 L 330.38,62.72 Z" fill="#2171b5" stroke="#ffffff" stroke-width="0.8"><title>cell 87: SMCI_B=0.0720</title></path><path d="M 371.86,876.00 L 371.86,837.27 L 330.38,837.27 L 330.38,876.00 L 371.86,876.00 Z" fill="#f7fbff" stroke="#ffffff" stroke-width="0.8"><title>cell 88: SMCI_B=0.0007</title></path><path d="M 371.86,837.27 L 371.86,798.53 L 330.38,798.53 L 330.38,837.27 L 371.86,837.27 Z" fill="#f7fbff" stroke="#ffffff" stroke-width="0.8"><title>cell 89: SMCI_B=0.0013</title></path><path d="M 371.86,798.53 L 371.86,759.80 L 330.38,759.80 L 330.38,798.53 L 371.86,798.53 Z" fill="#e0e0e0" stroke="#ffffff" stroke-width="0.8"><title>cell 90: SMCI_B=0.0000</title></path><path d="M 371.86,759.80 L 371.86,721.07 L 330.38,721.07 L 330.38,759.80 L 371.86,759.80 Z" fill="#e0e0e0" stroke="#ffffff" stroke-width="0.8"><title>cell 91: SMCI_B=0.0000</title></path><path d="M 371.86,721.07 L 371.86,682.34 L 330.38,682.34 L 330.38,721.07 L 371.86,721.07 Z" fill="#f7fbff" stroke="#ffffff" stroke-width="0.8"><title>cell 92: SMCI_B=0.0025</title></path><path d="M 371.86,682.34 L 371.86,643.61 L 330.38,643.61 L 330.38,682.34 L 371.86,682.34 Z" fill="#c6dbef" stroke="#ffffff" stroke-width="0.8"><title>cell 93: SMCI_B=0.0242</title></path><path d="M 371.86,643.61 L 371.86,604.88 L 330.38,604.88 L 330.38,643.61 L 371.86,643.61 Z" fill="#6baed6" stroke="#ffffff" stroke-width="0.8"><title>cell 94: SMCI_B=0.0427</title></path><path d="M 371.86,604.88 L 371.86,566.15 L 330.38,566.15 L 330.38,604.88 L 371.86,604.88 Z" fill="#6baed6" stroke="#ffffff" stroke-width="0.8"><title>cell 95: SMCI_B=0.0487</title></path><path d="M 371.86,566.15 L 371.86,527.42 L 330.38,527.42 L 330.38,566.15 L 371.86,566.15 Z" fill="#6baed6" stroke="#ffffff" stroke-width="0.8"><title>cell 96: SMCI_B=0.0552</title></path><path d="M 371.86,527.42 L 371.86,488.69 L 330.38,488.69 L 330.38,527.42 L 371.86,527.42 Z" fill="#6baed6" stroke="#ffffff" stroke-width="0.8"><title>cell 97: SMCI_B=0.0395</title></path><path d="M 371.86,488.69 L 371.86,449.97 L 330.38,449.97 L 330.38,488.69 L 371.86,488.69 Z" fill="#6baed6" stroke="#ffffff" stroke-width="0.8"><title>cell 98: SMCI_B=0.0302</title></path><path d="M 371.86,449.97 L 371.86,411.24 L 330.38,411.24 L 330.38,449.97 L 371.86,449.97 Z" fill="#e0e0e0" stroke="#ffffff" stroke-width="0.8"><title>cell 99: SMCI_B=0.0000</title></path><path d="M 371.86,411.24 L 371.86,372.51 L 330.38,372.51 L 330.38,411.24 L 371.86,411.24 Z" fill="#6baed6" stroke="#ffffff" stroke-width="0.8"><title>cell 100: SMCI_B=0.0375</title></path><path d="M 371.86,372.51 L 371.86,333.79 L 330.38,333.79 L 330.38,372.51 L 371.86,372.51 Z" fill="#e0e0e0" stroke="#ffffff" stroke-width="0.8"><title>cell 101: SMCI_B=0.0000</title></path><path d="M 371.86,333.79 L 371.86,295.06 L 330.38,295.06 L 330.38,333.79 L 371.86,333.79 Z" fill="#08306b" stroke="#ffffff" stroke-width="0.8"><title>cell 102: SMCI_B=0.2698</title></path><path d="M 371.86,295.06 L 371.86,256.34 L 330.38,256.34 L 330.38,295.06 L 371.86,295.06 Z" fill="#08306b" stroke="#ffffff" stroke-width="0.8"><title>cell 103: SMCI_B=0.4921</title></path><path d="M 371.86,256.34 L 371.86,217.61 L 330.38,217.61 L 330.38,256.34 L 371.86,256.34 Z" fill="#08306b" stroke="#ffffff" stroke-width="0.8"><title>cell 104: SMCI_B=0.6157</title></path><path d="M 371.86,217.61 L 371.86,178.89 L 330.38,178.89 L 330.38,217.61 L 371.86,217.61 Z" fill="#08306b" stroke="#ffffff" stroke-width="0.8"><title>cell 105: SMCI_B=0.4677</title></path><path d="M 371.86,178.89 L 371.86,140.17 L 330.38,140.17 L 330.38,178.89 L 371.86,178.89 Z" fill="#08306b" stroke="#ffffff" stroke-width="0.8"><title>cell 106: SMCI_B=0.4000</title></path><path d="M 371.86,140.17 L 371.86,101.44 L 330.38,101.44 L 330.38,140.17 L 371.86,140.17 Z" fill="#08306b" stroke="#ffffff" stroke-width="0.8"><title>cell 107: SMCI_B=0.4228</title></path><path d="M 371.86,101.44 L 371.86,62.72 L 330.38,62.72 L 330.38,101.44 L 371.86,101.44 Z" fill="#08306b" stroke="#ffffff" stroke-width="0.8"><title>cell 108: SMCI_B=0.3475</title></path><path d="M 371.86,62.72 L 371.86,24.00 L 330.38,24.00 L 330.38,62.72 L 371.86,62.72 Z" fill="#6baed6" stroke="#ffffff" stroke-width="0.8"><title>cell 109: SMCI_B=0.0626</title></path><path d="M 413.34,876.00 L 413.34,837.27 L 371.86,837.27 L 371.86,876.00 L 413.34,876.00 Z" fill="#f7fbff" stroke="#ffffff" stroke-width="0.8"><title>cell 110: SMCI_B=0.0010</title></path><path d="M 413.34,837.27 L 413.34,798.53 L 371.86,798.53 L 371.86,837.27 L 413.34,837.27 Z" fill="#e0e0e0" stroke="#ffffff" stroke-width="0.8"><title>cell 111: SMCI_B=0.0000</title></path><path d="M 413.34,798.53 L 413.34,759.80 L 371.86,759.80 L 371.86,798.53 L 413.34,798.53 Z" fill="#e0e0e0" stroke="#ffffff" stroke-width="0.8"><title>cell 112: SMCI_B=0.0000</title></path><path d="M 413.34,759.80 L 413.34,721.07 L 371.86,721.07 L 371.86,759.80 L 413.34,759.80 Z" fill="#e0e0e0" stroke="#ffffff" stroke-width="0.8"><title>cell 113: SMCI_B=0.0000</title></path><path d="M 413.34,721.07 L 413.34,682.34 L 371.86,682.34 L 371.86,721.07 L 413.34,721.07 Z" fill="#e0e0e0" stroke="#ffffff" stroke-width="0.8"><title>cell 114: SMCI_B=0.0000</title></path><path d="M 413.34,682.34 L 413.34,643.61 L 371.86,643.61 L 371.86,682.34 L 413.34,682.34 Z" fill="#f7fbff" stroke="#ffffff" stroke-width="0.8"><title>cell 115: SMCI_B=0.0034</title></path><path d="M 413.34,643.61 L 413.34,604.88 L 371.86,604.88 L 371.86,643.61 L 413.34,643.61 Z" fill="#c6dbef" stroke="#ffffff" stroke-width="0.8"><title>cell 116: SMCI_B=0.0290</title></path><path d="M 413.34,604.88 L 413.34,566.15 L 371.86,566.15 L 371.86,604.88 L 413.34,604.88 Z" fill="#6baed6" stroke="#ffffff" stroke-width="0.8"><title>cell 117: SMCI_B=0.0460</title></path><path d="M 413.34,566.15 L 413.34,527.42 L 371.86,527.42 L 371.86,566.15 L 413.34,566.15 Z" fill="#6baed6" stroke="#ffffff" stroke-width="0.8"><title>cell 118: SMCI_B=0.0446</title></path><path d="M 413.34,527.42 L 413.34,488.69 L 371.86,488.69 L 371.86,527.42 L 413.34,527.42 Z" fill="#6baed6" stroke="#ffffff" stroke-width="0.8"><title>cell 119: SMCI_B=0.0418</title></path><path d="M 413.34,488.69 L 413.34,449.97 L 371.86,449.97 L 371.86,488.69 L 413.34,488.69 Z" fill="#e0e0e0" stroke="#ffffff" stroke-width="0.8"><title>cell 120: SMCI_B=0.0000</title></path><path d="M 413.34,449.97 L 413.34,411.24 L 371.86,411.24 L 371.86,449.97 L 413.34,449.97 Z" fill="#e0e0e0" stroke="#ffffff" stroke-width="0.8"><title>cell 121: SMCI_B=0.0000</title></path><path d="M 413.34,411.24 L 413.34,372.51 L 371.86,372.51 L 371.86,411.24 L 413.34,411.24 Z" fill="#2171b5" stroke="#ffffff" stroke-width="0.8"><title>cell 122: SMCI_B=0.1152</title></path><path d="M 413.34,372.51 L 413.34,333.79 L 371.86,333.79 L 371.86,372.51 L 413.34,372.51 Z" fill="#2171b5" stroke="#ffffff" stroke-width="0.8"><title>cell 123: SMCI_B=0.1285</title></path><path d="M 413.34,333.79 L 413.34,295.06 L 371.86,295.06 L 371.86,333.79 L 413.34,333.79 Z" fill="#08306b" stroke="#ffffff" stroke-width="0.8"><title>cell 124: SMCI_B=0.2532</title></path><path d="M 413.34,295.06 L 413.34,256.34 L 371.86,256.34 L 371.86,295.06 L 413.34,295.06 Z" fill="#08306b" stroke="#ffffff" stroke-width="0.8"><title>cell 125: SMCI_B=0.5307</title></path><path d="M 413.34,256.34 L 413.34,217.61 L 371.86,217.61 L 371.86,256.34 L 413.34,256.34 Z" fill="#08306b" stroke="#ffffff" stroke-width="0.8"><title>cell 126: SMCI_B=0.7011</title></path><path d="M 413.34,217.61 L 413.34,178.89 L 371.86,178.89 L 371.86,217.61 L 413.34,217.61 Z" fill="#08306b" stroke="#ffffff" stroke-width="0.8"><title>cell 127: SMCI_B=0.5940</title></path><path d="M 413.34,178.89 L 413.34,140.17 L 371.86,140.17 L 371.86,178.89 L 413.34,178.89 Z" fill="#08306b" stroke="#ffffff" stroke-width="0.8"><title>cell 128: SMCI_B=0.4062</title></path><path d="M 413.34,140.17 L 413.34,101.44 L 371.86,101.44 L 371.86,140.17 L 413.34,140.17 Z" fill="#08306b" stroke="#ffffff" stroke-width="0.8"><title>cell 129: SMCI_B=0.5090</title></path><path d="M 413.34,101.44 L 413.34,62.72 L 371.86,62.72 L 371.86,101.44 L 413.34,101.44 Z" fill="#08306b" stroke="#ffffff" stroke-width="0.8"><title>cell 130: SMCI_B=0.3293</title></path><path d="M 413.34,62.72 L 413.34,24.00 L 371.86,24.00 L 371.86,62.72 L 413.34,62.72 Z" fill="#2171b5" stroke="#ffffff" stroke-width="0.8"><title>cell 131: SMCI_B=0.1623</title></path><path d="M 454.82,876.00 L 454.82,837.27 L 413.34,837.27 L 413.34,876.00 L 454.82,876.00 Z" fill="#e0e0e0" stroke="#ffffff" stroke-width="0.8"><title>cell 132: SMCI_B=0.0000</title></path><path d="M 454.82,837.27 L 454.82,798.53 L 413.34,798.53 L 413.34,837.27 L 454.82,837.27 Z" fill="#e0e0e0" stroke="#ffffff" stroke-width="0.8"><title>cell 133: SMCI_B=0.0000</title></path><path d="M 454.82,798.53 L 454.82,759.80 L 413.34,759.80 L 413.34,798.53 L 454.82,798.53 Z" fill="#e0e0e0" stroke="#ffffff" stroke-width="0.8"><title>cell 134: SMCI_B=0.0000</title></path><path d="M 454.82,759.80 L 454.82,721.07 L 413.34,721.07 L 413.34,759.80 L 454.82,759.80 Z" fill="#e0e0e0" stroke="#ffffff" stroke-width="0.8"><title>cell 135: SMCI_B=0.0000</title></path><path d="M 454.82,721.07 L 454.82,682.34 L 413.34,682.34 L 413.34,721.07 L 454.82,721.07 Z" fill="#e0e0e0" stroke="#ffffff" stroke-width="0.8"><title>cell 136: SMCI_B=0.0000</title></path><path d="M 454.82,682.34 L 454.82,643.61 L 413.34,643.61 L 413.34,682.34 L 454.82,682.34 Z" fill="#c6dbef" stroke="#ffffff" stroke-width="0.8"><title>cell 137: SMCI_B=0.0062</title></path><path d="M 454.82,643.61 L 454.82,604.88 L 413.34,604.88 L 413.34,643.61 L 454.82,643.61 Z" fill="#6baed6" stroke="#ffffff" stroke-width="0.8"><title>cell 138: SMCI_B=0.0308</title></path><path d="M 454.82,604.88 L 454.82,566.15 L 413.34,566.15 L 413.34,604.88 L 454.82,604.88 Z" fill="#c6dbef" stroke="#ffffff" stroke-width="0.8"><title>cell 139: SMCI_B=0.0170</title></path><path d="M 454.82,566.15 L 454.82,527.42 L 413.34,527.42 L 413.34,566.15 L 454.82,566.15 Z" fill="#6baed6" stroke="#ffffff" stroke-width="0.8"><title>cell 140: SMCI_B=0.0325</title></path><path d="M 454.82,527.42 L 454.82,488.69 L 413.34,488.69 L 413.34,527.42 L 454.82,527.42 Z" fill="#c6dbef" stroke="#ffffff" stroke-width="0.8"><title>cell 141: SMCI_B=0.0066</title></path><path d="M 454.82,488.69 L 454.82,449.97 L 413.34,449.97 L 413.34,488.69 L 454.82,488.69 Z" fill="#08306b" stroke="#ffffff" stroke-width="0.8"><title>cell 142: SMCI_B=0.2755</title></path><path d="M 454.82,449.97 L 454.82,411.24 L 413.34,411.24 L 413.34,449.97 L 454.82,449.97 Z" fill="#08306b" stroke="#ffffff" stroke-width="0.8"><title>cell 143: SMCI_B=0.2837</title></path><path d="M 454.82,411.24 L 454.82,372.51 L 413.34,372.51 L 413.34,411.24 L 454.82,411.24 Z" fill="#08306b" stroke="#ffffff" stroke-width="0.8"><title>cell 144: SMCI_B=0.2255</title></path><path d="M 454.82,372.51 L 454.82,333.79 L 413.34,333.79 L 413.34,372.51 L 454.82,372.51 Z" fill="#6baed6" stroke="#ffffff" stroke-width="0.8"><title>cell 145: SMCI_B=0.0523</title></path><path d="M 454.82,333.79 L 454.82,295.06 L 413.34,295.06 L 413.34,333.79 L 454.82,333.79 Z" fill="#08306b" stroke="#ffffff" stroke-width="0.8"><title>cell 146: SMCI_B=0.2838</title></path><path d="M 454.82,295.06 L 454.82,256.34 L 413.34,256.34 L 413.34,295.06 L 454.82,295.06 Z" fill="#08306b" stroke="#ffffff" stroke-width="0.8"><title>cell 147: SMCI_B=0.4224</title></path><path d="M 454.82,256.34 L 454.82,217.61 L 413.34,217.61 L 413.34,256.34 L 454.82,256.34 Z" fill="#08306b" stroke="#ffffff" stroke-width="0.8"><title>cell 148: SMCI_B=0.6423</title></path><path d="M 454.82,217.61 L 454.82,178.89 L 413.34,178.89 L 413.34,217.61 L 454.82,217.61 Z" fill="#08306b" stroke="#ffffff" stroke-width="0.8"><title>cell 149: SMCI_B=0.6003</title></path><path d="M 454.82,178.89 L 454.82,140.17 L 413.34,140.17 L 413.34,178.89 L 454.82,178.89 Z" fill="#08306b" stroke="#ffffff" stroke-width="0.8"><title>cell 150: SMCI_B=0.6396</title></path><path d="M 454.82,140.17 L 454.82,101.44 L 413.34,101.44 L 413.34,140.17 L 454.82,140.17 Z" fill="#08306b" stroke="#ffffff" stroke-width="0.8"><title>cell 151: SMCI_B=0.4307</title></path><path d="M 454.82,101.44 L 454.82,62.72 L 413.34,62.72 L 413.34,101.44 L 454.82,101.44 Z" fill="#08306b" stroke="#ffffff" stroke-width="0.8"><title>cell 152: SMCI_B=0.4294</title></path><path d="M 454.82,62.72 L 454.82,24.00 L 413.34,24.00 L 413.34,62.72 L 454.82,62.72 Z" fill="#08306b" stroke="#ffffff" stroke-width="0.8"><title>cell 153: SMCI_B=0.2084</title></path><path d="M 496.30,876.00 L 496.30,837.27 L 454.82,837.27 L 454.82,876.00 L 496.30,876.00 Z" fill="#e0e0e0" stroke="#ffffff" stroke-width="0.8"><title>cell 154: SMCI_B=0.0000</title></path><path d="M 496.30,837.27 L 496.30,798.53 L 454.82,798.53 L 454.82,837.27 L 496.30,837.27 Z" fill="#e0e0e0" stroke="#ffffff" stroke-width="0.8"><title>cell 155: SMCI_B=0.0000</title></path><path d="M 496.30,798.53 L 496.30,759.80 L 454.82,759.80 L 454.82,798.53 L 496.30,798.53 Z" fill="#e0e0e0" stroke="#ffffff" stroke-width="0.8"><title>cell 156: SMCI_B=0.0000</title></path><path d="M 496.30,759.80 L 496.30,721.07 L 454.82,721.07 L 454.82,759.80 L 496.30,759.80 Z" fill="#f7fbff" stroke="#ffffff" stroke-width="0.8"><title>cell 157: SMCI_B=0.0027</title></path><path d="M 496.30,721.07 L 496.30,682.34 L 454.82,682.34 L 454.82,721.07 L 496.30,721.07 Z" fill="#f7fbff" stroke="#ffffff" stroke-width="0.8"><title>cell 158: SMCI_B=0.0028</title></path><path d="M 496.30,682.34 L 496.30,643.61 L 454.82,643.61 L 454.82,682.34 L 496.30,682.34 Z" fill="#c6dbef" stroke="#ffffff" stroke-width="0.8"><title>cell 159: SMCI_B=0.0069</title></path><path d="M 496.30,643.61 L 496.30,604.88 L 454.82,604.88 L 454.82,643.61 L 496.30,643.61 Z" fill="#c6dbef" stroke="#ffffff" stroke-width="0.8"><title>cell 160: SMCI_B=0.0073</title></path><path d="M 496.30,604.88 L 496.30,566.15 L 454.82,566.15 L 454.82,604.88 L 496.30,604.88 Z" fill="#f7fbff" stroke="#ffffff" stroke-width="0.8"><title>cell 161: SMCI_B=0.0050</title></path><path d="M 496.30,566.15 L 496.30,527.42 L 454.82,527.42 L 454.82,566.15 L 496.30,566.15 Z" fill="#c6dbef" stroke="#ffffff" stroke-width="0.8"><title>cell 162: SMCI_B=0.0136</title></path><path d="M 496.30,527.42 L 496.30,488.69 L 454.82,488.69 L 454.82,527.42 L 496.30,527.42 Z" fill="#08306b" stroke="#ffffff" stroke-width="0.8"><title>cell 163: SMCI_B=0.3211</title></path><path d="M 496.30,488.69 L 496.30,449.97 L 454.82,449.97 L 454.82,488.69 L 496.30,488.69 Z" fill="#08306b" stroke="#ffffff" stroke-width="0.8"><title>cell 164: SMCI_B=0.3134</title></path><path d="M 496.30,449.97 L 496.30,411.24 L 454.82,411.24 L 454.82,449.97 L 496.30,449.97 Z" fill="#08306b" stroke="#ffffff" stroke-width="0.8"><title>cell 165: SMCI_B=0.3566</title></path><path d="M 496.30,411.24 L 496.30,372.51 L 454.82,372.51 L 454.82,411.24 L 496.30,411.24 Z" fill="#08306b" stroke="#ffffff" stroke-width="0.8"><title>cell 166: SMCI_B=0.3828</title></path><path d="M 496.30,372.51 L 496.30,333.79 L 454.82,333.79 L 454.82,372.51 L 496.30,372.51 Z" fill="#08306b" stroke="#ffffff" stroke-width="0.8"><title>cell 167: SMCI_B=0.1978</title></path><path d="M 496.30,333.79 L 496.30,295.06 L 454.82,295.06 L 454.82,333.79 L 496.30,333.79 Z" fill="#2171b5" stroke="#ffffff" stroke-width="0.8"><title>cell 168: SMCI_B=0.1618</title></path><path d="M 496.30,295.06 L 496.30,256.34 L 454.82,256.34 L 454.82,295.06 L 496.30,295.06 Z" fill="#2171b5" stroke="#ffffff" stroke-width="0.8"><title>cell 169: SMCI_B=0.1478</title></path><path d="M 496.30,256.34 L 496.30,217.61 L 454.82,217.61 L 454.82,256.34 L 496.30,256.34 Z" fill="#08306b" stroke="#ffffff" stroke-width="0.8"><title>cell 170: SMCI_B=0.2878</title></path><path d="M 496.30,217.61 L 496.30,178.89 L 454.82,178.89 L 454.82,217.61 L 496.30,217.61 Z" fill="#08306b" stroke="#ffffff" stroke-width="0.8"><title>cell 171: SMCI_B=0.3609</title></path><path d="M 496.30,178.89 L 496.30,140.17 L 454.82,140.17 L 454.82,178.89 L 496.30,178.89 Z" fill="#08306b" stroke="#ffffff" stroke-width="0.8"><title>cell 172: SMCI_B=0.4435</title></path><path d="M 496.30,140.17 L 496.30,101.44 L 454.82,101.44 L 454.82,140.17 L 496.30,140.17 Z" fill="#08306b" stroke="#ffffff" stroke-width="0.8"><title>cell 173: SMCI_B=0.4712</title></path><path d="M 496.30,101.44 L 496.30,62.72 L 454.82,62.72 L 454.82,101.44 L 496.30,101.44 Z" fill="#08306b" stroke="#ffffff" stroke-width="0.8"><title>cell 174: SMCI_B=0.3636</title></path><path d="M 496.30,62.72 L 496.30,24.00 L 454.82,24.00 L 454.82,62.72 L 496.30,62.72 Z" fill="#08306b" stroke="#ffffff" stroke-width="0.8"><title>cell 175: SMCI_B=0.2859</title></path><path d="M 537.78,876.00 L 537.78,837.27 L 496.30,837.27 L 496.30,876.00 L 537.78,876.00 Z" fill="#e0e0e0" stroke="#ffffff" stroke-width="0.8"><title>cell 176: SMCI_B=0.0000</title></path><path d="M 537.78,837.27 L 537.78,798.53 L 496.30,798.53 L 496.30,837.27 L 537.78,837.27 Z" fill="#e0e0e0" stroke="#ffffff" stroke-width="0.8"><title>cell 177: SMCI_B=0.0000</title></path><path d="M 537.78,798.53 L 537.78,759.80 L 496.30,759.80 L 496.30,798.53 L 537.78,798.53 Z" fill="#e0e0e0" stroke="#ffffff" stroke-width="0.8"><title>cell 178: SMCI_B=0.0000</title></path><path d="M 537.78,759.80 L 537.78,721.07 L 496.30,721.07 L 496.30,759.80 L 537.78,759.80 Z" fill="#f7fbff" stroke="#ffffff" stroke-width="0.8"><title>cell 179: SMCI_B=0.0027</title></path><path d="M 537.78,721.07 L 537.78,682.34 L 496.30,682.34 L 496.30,721.07 L 537.78,721.07 Z" fill="#f7fbff" stroke="#ffffff" stroke-width="0.8"><title>cell 180: SMCI_B=0.0037</title></path><path d="M 537.78,682.34 L 537.78,643.61 L 496.30,643.61 L 496.30,682.34 L 537.78,682.34 Z" fill="#c6dbef" stroke="#ffffff" stroke-width="0.8"><title>cell 181: SMCI_B=0.0072</title></path><path d="M 537.78,643.61 L 537.78,604.88 L 496.30,604.88 L 496.30,643.61 L 537.78,643.61 Z" fill="#f7fbff" stroke="#ffffff" stroke-width="0.8"><title>cell 182: SMCI_B=0.0046</title></path><path d="M 537.78,604.88 L 537.78,566.15 L 496.30,566.15 L 496.30,604.88 L 537.78,604.88 Z" fill="#2171b5" stroke="#ffffff" stroke-width="0.8"><title>cell 183: SMCI_B=0.0887</title></path><path d="M 537.78,566.15 L 537.78,527.42 L 496.30,527.42 L 496.30,566.15 L 537.78,566.15 Z" fill="#2171b5" stroke="#ffffff" stroke-width="0.8"><title>cell 184: SMCI_B=0.1797</title></path><path d="M 537.78,527.42 L 537.78,488.69 L 496.30,488.69 L 496.30,527.42 L 537.78,527.42 Z" fill="#08306b" stroke="#ffffff" stroke-width="0.8"><title>cell 185: SMCI_B=0.3716</title></path><path d="M 537.78,488.69 L 537.78,449.97 L 496.30,449.97 L 496.30,488.69 L 537.78,488.69 Z" fill="#08306b" stroke="#ffffff" stroke-width="0.8"><title>cell 186: SMCI_B=0.4207</title></path><path d="M 537.78,449.97 L 537.78,411.24 L 496.30,411.24 L 496.30,449.97 L 537.78,449.97 Z" fill="#08306b" stroke="#ffffff" stroke-width="0.8"><title>cell 187: SMCI_B=0.4331</title></path><path d="M 537.78,411.24 L 537.78,372.51 L 496.30,372.51 L 496.30,411.24 L 537.78,411.24 Z" fill="#08306b" stroke="#ffffff" stroke-width="0.8"><title>cell 188: SMCI_B=0.3033</title></path><path d="M 537.78,372.51 L 537.78,333.79 L 496.30,333.79 L 496.30,372.51 L 537.78,372.51 Z" fill="#08306b" stroke="#ffffff" stroke-width="0.8"><title>cell 189: SMCI_B=0.2368</title></path><path d="M 537.78,333.79 L 537.78,295.06 L 496.30,295.06 L 496.30,333.79 L 537.78,333.79 Z" fill="#08306b" stroke="#ffffff" stroke-width="0.8"><title>cell 190: SMCI_B=0.2148</title></path><path d="M 537.78,295.06 L 537.78,256.34 L 496.30,256.34 L 496.30,295.06 L 537.78,295.06 Z" fill="#08306b" stroke="#ffffff" stroke-width="0.8"><title>cell 191: SMCI_B=0.2752</title></path><path d="M 537.78,256.34 L 537.78,217.61 L 496.30,217.61 L 496.30,256.34 L 537.78,256.34 Z" fill="#6baed6" stroke="#ffffff" stroke-width="0.8"><title>cell 192: SMCI_B=0.0349</title></path><path d="M 537.78,217.61 L 537.78,178.89 L 496.30,178.89 L 496.30,217.61 L 537.78,217.61 Z" fill="#2171b5" stroke="#ffffff" stroke-width="0.8"><title>cell 193: SMCI_B=0.1067</title></path><path d="M 537.78,178.89 L 537.78,140.17 L 496.30,140.17 L 496.30,178.89 L 537.78,178.89 Z" fill="#08306b" stroke="#ffffff" stroke-width="0.8"><title>cell 194: SMCI_B=0.4171</title></path><path d="M 537.78,140.17 L 537.78,101.44 L 496.30,101.44 L 496.30,140.17 L 537.78,140.17 Z" fill="#08306b" stroke="#ffffff" stroke-width="0.8"><title>cell 195: SMCI_B=0.3832</title></path><path d="M 537.78,101.44 L 537.78,62.72 L 496.30,62.72 L 496.30,101.44 L 537.78,101.44 Z" fill="#08306b" stroke="#ffffff" stroke-width="0.8"><title>cell 196: SMCI_B=0.3332</title></path><path d="M 537.78,62.72 L 537.78,24.00 L 496.30,24.00 L 496.30,62.72 L 537.78,62.72 Z" fill="#2171b5" stroke="#ffffff" stroke-width="0.8"><title>cell 197: SMCI_B=0.1255</title></path><path d="M 579.26,876.00 L 579.26,837.27 L 537.78,837.27 L 537.78,876.00 L 579.26,876.00 Z" fill="#e0e0e0" stroke="#ffffff" stroke-width="0.8"><title>cell 198: SMCI_B=0.0000</title></path><path d="M 579.26,837.27 L 579.26,798.53 L 537.78,798.53 L 537.78,837.27 L 579.26,837.27 Z" fill="#e0e0e0" stroke="#ffffff" stroke-width="0.8"><title>cell 199: SMCI_B=0.0000</title></path><path d="M 579.26,798.53 L 579.26,759.80 L 537.78,759.80 L 537.78,798.53 L 579.26,798.53 Z" fill="#e0e0e0" stroke="#ffffff" stroke-width="0.8"><title>cell 200: SMCI_B=0.0000</title></path><path d="M 579.26,759.80 L 579.26,721.07 L 537.78,721.07 L 537.78,759.80 L 579.26,759.80 Z" fill="#f7fbff" stroke="#ffffff" stroke-width="0.8"><title>cell 201: SMCI_B=0.0032</title></path><path d="M 579.26,721.07 L 579.26,682.34 L 537.78,682.34 L 537.78,721.07 L 579.26,721.07 Z" fill="#f7fbff" stroke="#ffffff" stroke-width="0.8"><title>cell 202: SMCI_B=0.0040</title></path><path d="M 579.26,682.34 L 579.26,643.61 L 537.78,643.61 L 537.78,682.34 L 579.26,682.34 Z" fill="#f7fbff" stroke="#ffffff" stroke-width="0.8"><title>cell 203: SMCI_B=0.0051</title></path><path d="M 579.26,643.61 L 579.26,604.88 L 537.78,604.88 L 537.78,643.61 L 579.26,643.61 Z" fill="#f7fbff" stroke="#ffffff" stroke-width="0.8"><title>cell 204: SMCI_B=0.0056</title></path><path d="M 579.26,604.88 L 579.26,566.15 L 537.78,566.15 L 537.78,604.88 L 579.26,604.88 Z" fill="#6baed6" stroke="#ffffff" stroke-width="0.8"><title>cell 205: SMCI_B=0.0685</title></path><path d="M 579.26,566.15 L 579.26,527.42 L 537.78,527.42 L 537.78,566.15 L 579.26,566.15 Z" fill="#2171b5" stroke="#ffffff" stroke-width="0.8"><title>cell 206: SMCI_B=0.0807</title></path><path d="M 579.26,527.42 L 579.26,488.69 L 537.78,488.69 L 537.78,527.42 L 579.26,527.42 Z" fill="#08306b" stroke="#ffffff" stroke-width="0.8"><title>cell 207: SMCI_B=0.3691</title></path><path d="M 579.26,488.69 L 579.26,449.97 L 537.78,449.97 L 537.78,488.69 L 579.26,488.69 Z" fill="#08306b" stroke="#ffffff" stroke-width="0.8"><title>cell 208: SMCI_B=0.5180</title></path><path d="M 579.26,449.97 L 579.26,411.24 L 537.78,411.24 L 537.78,449.97 L 579.26,449.97 Z" fill="#08306b" stroke="#ffffff" stroke-width="0.8"><title>cell 209: SMCI_B=0.4544</title></path><path d="M 579.26,411.24 L 579.26,372.51 L 537.78,372.51 L 537.78,411.24 L 579.26,411.24 Z" fill="#08306b" stroke="#ffffff" stroke-width="0.8"><title>cell 210: SMCI_B=0.3611</title></path><path d="M 579.26,372.51 L 579.26,333.79 L 537.78,333.79 L 537.78,372.51 L 579.26,372.51 Z" fill="#08306b" stroke="#ffffff" stroke-width="0.8"><title>cell 211: SMCI_B=0.4237</title></path><path d="M 579.26,333.79 L 579.26,295.06 L 537.78,295.06 L 537.78,333.79 L 579.26,333.79 Z" fill="#08306b" stroke="#ffffff" stroke-width="0.8"><title>cell 212: SMCI_B=0.2983</title></path><path d="M 579.26,295.06 L 579.26,256.34 L 537.78,256.34 L 537.78,295.06 L 579.26,295.06 Z" fill="#08306b" stroke="#ffffff" stroke-width="0.8"><title>cell 213: SMCI_B=0.1969</title></path><path d="M 579.26,256.34 L 579.26,217.61 L 537.78,217.61 L 537.78,256.34 L 579.26,256.34 Z" fill="#2171b5" stroke="#ffffff" stroke-width="0.8"><title>cell 214: SMCI_B=0.0852</title></path><path d="M 579.26,217.61 L 579.26,178.89 L 537.78,178.89 L 537.78,217.61 L 579.26,217.61 Z" fill="#08306b" stroke="#ffffff" stroke-width="0.8"><title>cell 215: SMCI_B=0.3297</title></path><path d="M 579.26,178.89 L 579.26,140.17 L 537.78,140.17 L 537.78,178.89 L 579.26,178.89 Z" fill="#2171b5" stroke="#ffffff" stroke-width="0.8"><title>cell 216: SMCI_B=0.1816</title></path><path d="M 579.26,140.17 L 579.26,101.44 L 537.78,101.44 L 537.78,140.17 L 579.26,140.17 Z" fill="#2171b5" stroke="#ffffff" stroke-width="0.8"><title>cell 217: SMCI_B=0.0777</title></path><path d="M 579.26,101.44 L 579.26,62.72 L 537.78,62.72 L 537.78,101.44 L 579.26,101.44 Z" fill="#08306b" stroke="#ffffff" stroke-width="0.8"><title>cell 218: SMCI_B=0.2570</title></path><path d="M 579.26,62.72 L 579.26,24.00 L 537.78,24.00 L 537.78,62.72 L 579.26,62.72 Z" fill="#08306b" stroke="#ffffff" stroke-width="0.8"><title>cell 219: SMCI_B=0.2213</title></path><path d="M 620.74,876.00 L 620.74,837.27 L 579.26,837.27 L 579.26,876.00 L 620.74,876.00 Z" fill="#e0e0e0" stroke="#ffffff" stroke-width="0.8"><title>cell 220: SMCI_B=0.0000</title></path><path d="M 620.74,837.27 L 620.74,798.53 L 579.26,798.53 L 579.26,837.27 L 620.74,837.27 Z" fill="#e0e0e0" stroke="#ffffff" stroke-width="0.8"><title>cell 221: SMCI_B=0.0000</title></path><path d="M 620.74,798.53 L 620.74,759.80 L 579.26,759.80 L 579.26,798.53 L 620.74,798.53 Z" fill="#e0e0e0" stroke="#ffffff" stroke-width="0.8"><title>cell 222: SMCI_B=0.0000</title></path><path d="M 620.74,759.80 L 620.74,721.07 L 579.26,721.07 L 579.26,759.80 L 620.74,759.80 Z" fill="#e0e0e0" stroke="#ffffff" stroke-width="0.8"><title>cell 223: SMCI_B=0.0000</title></path><path d="M 620.74,721.07 L 620.74,682.34 L 579.26,682.34 L 579.26,721.07 L 620.74,721.07 Z" fill="#e0e0e0" stroke="#ffffff" stroke-width="0.8"><title>cell 224: SMCI_B=0.0000</title></path><path d="M 620.74,682.34 L 620.74,643.61 L 579.26,643.61 L 579.26,682.34 L 620.74,682.34 Z" fill="#e0e0e0" stroke="#ffffff" stroke-width="0.8"><title>cell 225: SMCI_B=0.0000</title></path><path d="M 620.74,643.61 L 620.74,604.88 L 579.26,604.88 L 579.26,643.61 L 620.74,643.61 Z" fill="#f7fbff" stroke="#ffffff" stroke-width="0.8"><title>cell 226: SMCI_B=0.0044</title></path><path d="M 620.74,604.88 L 620.74,566.15 L 579.26,566.15 L 579.26,604.88 L 620.74,604.88 Z" fill="#c6dbef" stroke="#ffffff" stroke-width="0.8"><title>cell 227: SMCI_B=0.0288</title></path><path d="M 620.74,566.15 L 620.74,527.42 L 579.26,527.42 L 579.26,566.15 L 620.74,566.15 Z" fill="#2171b5" stroke="#ffffff" stroke-width="0.8"><title>cell 228: SMCI_B=0.1243</title></path><path d="M 620.74,527.42 L 620.74,488.69 L 579.26,488.69 L 579.26,527.42 L 620.74,527.42 Z" fill="#08306b" stroke="#ffffff" stroke-width="0.8"><title>cell 229: SMCI_B=0.2041</title></path><path d="M 620.74,488.69 L 620.74,449.97 L 579.26,449.97 L 579.26,488.69 L 620.74,488.69 Z" fill="#08306b" stroke="#ffffff" stroke-width="0.8"><title>cell 230: SMCI_B=0.5328</title></path><path d="M 620.74,449.97 L 620.74,411.24 L 579.26,411.24 L 579.26,449.97 L 620.74,449.97 Z" fill="#08306b" stroke="#ffffff" stroke-width="0.8"><title>cell 231: SMCI_B=0.4846</title></path><path d="M 620.74,411.24 L 620.74,372.51 L 579.26,372.51 L 579.26,411.24 L 620.74,411.24 Z" fill="#2171b5" stroke="#ffffff" stroke-width="0.8"><title>cell 232: SMCI_B=0.1348</title></path><path d="M 620.74,372.51 L 620.74,333.79 L 579.26,333.79 L 579.26,372.51 L 620.74,372.51 Z" fill="#2171b5" stroke="#ffffff" stroke-width="0.8"><title>cell 233: SMCI_B=0.1293</title></path><path d="M 620.74,333.79 L 620.74,295.06 L 579.26,295.06 L 579.26,333.79 L 620.74,333.79 Z" fill="#08306b" stroke="#ffffff" stroke-width="0.8"><title>cell 234: SMCI_B=0.2540</title></path><path d="M 620.74,295.06 L 620.74,256.34 L 579.26,256.34 L 579.26,295.06 L 620.74,295.06 Z" fill="#08306b" stroke="#ffffff" stroke-width="0.8"><title>cell 235: SMCI_B=0.1958</title></path><path d="M 620.74,256.34 L 620.74,217.61 L 579.26,217.61 L 579.26,256.34 L 620.74,256.34 Z" fill="#2171b5" stroke="#ffffff" stroke-width="0.8"><title>cell 236: SMCI_B=0.1913</title></path><path d="M 620.74,217.61 L 620.74,178.89 L 579.26,178.89 L 579.26,217.61 L 620.74,217.61 Z" fill="#2171b5" stroke="#ffffff" stroke-width="0.8"><title>cell 237: SMCI_B=0.1389</title></path><path d="M 620.74,178.89 L 620.74,140.17 L 579.26,140.17 L 579.26,178.89 L 620.74,178.89 Z" fill="#2171b5" stroke="#ffffff" stroke-width="0.8"><title>cell 238: SMCI_B=0.0996</title></path><path d="M 620.74,140.17 L 620.74,101.44 L 579.26,101.44 L 579.26,140.17 L 620.74,140.17 Z" fill="#2171b5" stroke="#ffffff" stroke-width="0.8"><title>cell 239: SMCI_B=0.1103</title></path><path d="M 620.74,101.44 L 620.74,62.72 L 579.26,62.72 L 579.26,101.44 L 620.74,101.44 Z" fill="#2171b5" stroke="#ffffff" stroke-width="0.8"><title>cell 240: SMCI_B=0.1088</title></path><path d="M 620.74,62.72 L 620.74,24.00 L 579.26,24.00 L 579.26,62.72 L 620.74,62.72 Z" fill="#2171b5" stroke="#ffffff" stroke-width="0.8"><title>cell 241: SMCI_B=0.0980</title></path><path d="M 662.22,876.00 L 662.22,837.27 L 620.74,837.27 L 620.74,876.00 L 662.22,876.00 Z" fill="#e0e0e0" stroke="#ffffff" stroke-width="0.8"><title>cell 242: SMCI_B=0.0000</title></path><path d="M 662.22,837.27 L 662.22,798.53 L 620.74,798.53 L 620.74,837.27 L 662.22,837.27 Z" fill="#e0e0e0" stroke="#ffffff" stroke-width="0.8"><title>cell 243: SMCI_B=0.0000</title></path><path d="M 662.22,798.53 L 662.22,759.80 L 620.74,759.80 L 620.74,798.53 L 662.22,798.53 Z" fill="#e0e0e0" stroke="#ffffff" stroke-width="0.8"><title>cell 244: SMCI_B=0.0000</title></path><path d="M 662.22,759.80 L 662.22,721.07 L 620.74,721.07 L 620.74,759.80 L 662.22,759.80 Z" fill="#e0e0e0" stroke="#ffffff" stroke-width="0.8"><title>cell 245: SMCI_B=0.0000</title></path><path d="M 662.22,721.07 L 662.22,682.34 L 620.74,682.34 L 620.74,721.07 L 662.22,721.07 Z" fill="#f7fbff" stroke="#ffffff" stroke-width="0.8"><title>cell 246: SMCI_B=0.0026</title></path><path d="M 662.22,682.34 L 662.22,643.61 L 620.74,643.61 L 620.74,682.34 L 662.22,682.34 Z" fill="#e0e0e0" stroke="#ffffff" stroke-width="0.8"><title>cell 247: SMCI_B=0.0000</title></path><path d="M 662.22,643.61 L 662.22,604.88 L 620.74,604.88 L 620.74,643.61 L 662.22,643.61 Z" fill="#e0e0e0" stroke="#ffffff" stroke-width="0.8"><title>cell 248: SMCI_B=0.0000</title></path><path d="M 662.22,604.88 L 662.22,566.15 L 620.74,566.15 L 620.74,604.88 L 662.22,604.88 Z" fill="#2171b5" stroke="#ffffff" stroke-width="0.8"><title>cell 249: SMCI_B=0.1131</title></path><path d="M 662.22,566.15 L 662.22,527.42 L 620.74,527.42 L 620.74,566.15 L 662.22,566.15 Z" fill="#2171b5" stroke="#ffffff" stroke-width="0.8"><title>cell 250: SMCI_B=0.1197</title></path><path d="M 662.22,527.42 L 662.22,488.69 L 620.74,488.69 L 620.74,527.42 L 662.22,527.42 Z" fill="#08306b" stroke="#ffffff" stroke-width="0.8"><title>cell 251: SMCI_B=0.2393</title></path><path d="M 662.22,488.69 L 662.22,449.97 L 620.74,449.97 L 620.74,488.69 L 662.22,488.69 Z" fill="#08306b" stroke="#ffffff" stroke-width="0.8"><title>cell 252: SMCI_B=0.2712</title></path><path d="M 662.22,449.97 L 662.22,411.24 L 620.74,411.24 L 620.74,449.97 L 662.22,449.97 Z" fill="#2171b5" stroke="#ffffff" stroke-width="0.8"><title>cell 253: SMCI_B=0.1344</title></path><path d="M 662.22,411.24 L 662.22,372.51 L 620.74,372.51 L 620.74,411.24 L 662.22,411.24 Z" fill="#08306b" stroke="#ffffff" stroke-width="0.8"><title>cell 254: SMCI_B=0.3472</title></path><path d="M 662.22,372.51 L 662.22,333.79 L 620.74,333.79 L 620.74,372.51 L 662.22,372.51 Z" fill="#2171b5" stroke="#ffffff" stroke-width="0.8"><title>cell 255: SMCI_B=0.1934</title></path><path d="M 662.22,333.79 L 662.22,295.06 L 620.74,295.06 L 620.74,333.79 L 662.22,333.79 Z" fill="#08306b" stroke="#ffffff" stroke-width="0.8"><title>cell 256: SMCI_B=0.2341</title></path><path d="M 662.22,295.06 L 662.22,256.34 L 620.74,256.34 L 620.74,295.06 L 662.22,295.06 Z" fill="#08306b" stroke="#ffffff" stroke-width="0.8"><title>cell 257: SMCI_B=0.2249</title></path><path d="M 662.22,256.34 L 662.22,217.61 L 620.74,217.61 L 620.74,256.34 L 662.22,256.34 Z" fill="#2171b5" stroke="#ffffff" stroke-width="0.8"><title>cell 258: SMCI_B=0.1718</title></path><path d="M 662.22,217.61 L 662.22,178.89 L 620.74,178.89 L 620.74,217.61 L 662.22,217.61 Z" fill="#2171b5" stroke="#ffffff" stroke-width="0.8"><title>cell 259: SMCI_B=0.1596</title></path><path d="M 662.22,178.89 L 662.22,140.17 L 620.74,140.17 L 620.74,178.89 L 662.22,178.89 Z" fill="#2171b5" stroke="#ffffff" stroke-width="0.8"><title>cell 260: SMCI_B=0.0894</title></path><path d="M 662.22,140.17 L 662.22,101.44 L 620.74,101.44 L 620.74,140.17 L 662.22,140.17 Z" fill="#2171b5" stroke="#ffffff" stroke-width="0.8"><title>cell 261: SMCI_B=0.0752</title></path><path d="M 662.22,101.44 L 662.22,62.72 L 620.74,62.72 L 620.74,101.44 L 662.22,101.44 Z" fill="#2171b5" stroke="#ffffff" stroke-width="0.8"><title>cell 262: SMCI_B=0.0795</title></path><path d="M 662.22,62.72 L 662.22,24.00 L 620.74,24.00 L 620.74,62.72 L 662.22,62.72 Z" fill="#6baed6" stroke="#ffffff" stroke-width="0.8"><title>cell 263: SMCI_B=0.0394</title></path><path d="M 703.70,876.00 L 703.70,837.27 L 662.22,837.27 L 662.22,876.00 L 703.70,876.00 Z" fill="#e0e0e0" stroke="#ffffff" stroke-width="0.8"><title>cell 264: SMCI_B=0.0000</title></path><path d="M 703.70,837.27 L 703.70,798.53 L 662.22,798.53 L 662.22,837.27 L 703.70,837.27 Z" fill="#e0e0e0" stroke="#ffffff" stroke-width="0.8"><title>cell 265: SMCI_B=0.0000</title></path><path d="M 703.70,798.53 L 703.70,759.80 L 662.22,759.80 L 662.22,798.53 L 703.70,798.53 Z" fill="#e0e0e0" stroke="#ffffff" stroke-width="0.8"><title>cell 266: SMCI_B=0.0000</title></path><path d="M 703.70,759.80 L 703.70,721.07 L 662.22,721.07 L 662.22,759.80 L 703.70,759.80 Z" fill="#e0e0e0" stroke="#ffffff" stroke-width="0.8"><title>cell 267: SMCI_B=0.0000</title></path><path d="M 703.70,721.07 L 703.70,682.34 L 662.22,682.34 L 662.22,721.07 L 703.70,721.07 Z" fill="#f7fbff" stroke="#ffffff" stroke-width="0.8"><title>cell 268: SMCI_B=0.0021</title></path><path d="M 703.70,682.34 L 703.70,643.61 L 662.22,643.61 L 662.22,682.34 L 703.70,682.34 Z" fill="#f7fbff" stroke="#ffffff" stroke-width="0.8"><title>cell 269: SMCI_B=0.0052</title></path><path d="M 703.70,643.61 L 703.70,604.88 L 662.22,604.88 L 662.22,643.61 L 703.70,643.61 Z" fill="#6baed6" stroke="#ffffff" stroke-width="0.8"><title>cell 270: SMCI_B=0.0316</title></path><path d="M 703.70,604.88 L 703.70,566.15 L 662.22,566.15 L 662.22,604.88 L 703.70,604.88 Z" fill="#2171b5" stroke="#ffffff" stroke-width="0.8"><title>cell 271: SMCI_B=0.0699</title></path><path d="M 703.70,566.15 L 703.70,527.42 L 662.22,527.42 L 662.22,566.15 L 703.70,566.15 Z" fill="#2171b5" stroke="#ffffff" stroke-width="0.8"><title>cell 272: SMCI_B=0.1789</title></path><path d="M 703.70,527.42 L 703.70,488.69 L 662.22,488.69 L 662.22,527.42 L 703.70,527.42 Z" fill="#08306b" stroke="#ffffff" stroke-width="0.8"><title>cell 273: SMCI_B=0.2102</title></path><path d="M 703.70,488.69 L 703.70,449.97 L 662.22,449.97 L 662.22,488.69 L 703.70,488.69 Z" fill="#08306b" stroke="#ffffff" stroke-width="0.8"><title>cell 274: SMCI_B=0.2098</title></path><path d="M 703.70,449.97 L 703.70,411.24 L 662.22,411.24 L 662.22,449.97 L 703.70,449.97 Z" fill="#2171b5" stroke="#ffffff" stroke-width="0.8"><title>cell 275: SMCI_B=0.1728</title></path><path d="M 703.70,411.24 L 703.70,372.51 L 662.22,372.51 L 662.22,411.24 L 703.70,411.24 Z" fill="#2171b5" stroke="#ffffff" stroke-width="0.8"><title>cell 276: SMCI_B=0.1820</title></path><path d="M 703.70,372.51 L 703.70,333.79 L 662.22,333.79 L 662.22,372.51 L 703.70,372.51 Z" fill="#08306b" stroke="#ffffff" stroke-width="0.8"><title>cell 277: SMCI_B=0.3053</title></path><path d="M 703.70,333.79 L 703.70,295.06 L 662.22,295.06 L 662.22,333.79 L 703.70,333.79 Z" fill="#2171b5" stroke="#ffffff" stroke-width="0.8"><title>cell 278: SMCI_B=0.1329</title></path><path d="M 703.70,295.06 L 703.70,256.34 L 662.22,256.34 L 662.22,295.06 L 703.70,295.06 Z" fill="#2171b5" stroke="#ffffff" stroke-width="0.8"><title>cell 279: SMCI_B=0.1285</title></path><path d="M 703.70,256.34 L 703.70,217.61 L 662.22,217.61 L 662.22,256.34 L 703.70,256.34 Z" fill="#2171b5" stroke="#ffffff" stroke-width="0.8"><title>cell 280: SMCI_B=0.1491</title></path><path d="M 703.70,217.61 L 703.70,178.89 L 662.22,178.89 L 662.22,217.61 L 703.70,217.61 Z" fill="#2171b5" stroke="#ffffff" stroke-width="0.8"><title>cell 281: SMCI_B=0.1027</title></path><path d="M 703.70,178.89 L 703.70,140.17 L 662.22,140.17 L 662.22,178.89 L 703.70,178.89 Z" fill="#6baed6" stroke="#ffffff" stroke-width="0.8"><title>cell 282: SMCI_B=0.0562</title></path><path d="M 703.70,140.17 L 703.70,101.44 L 662.22,101.44 L 662.22,140.17 L 703.70,140.17 Z" fill="#6baed6" stroke="#ffffff" stroke-width="0.8"><title>cell 283: SMCI_B=0.0558</title></path><path d="M 703.70,101.44 L 703.70,62.72 L 662.22,62.72 L 662.22,101.44 L 703.70,101.44 Z" fill="#6baed6" stroke="#ffffff" stroke-width="0.8"><title>cell 284: SMCI_B=0.0482</title></path><path d="M 703.70,62.72 L 703.70,24.00 L 662.22,24.00 L 662.22,62.72 L 703.70,62.72 Z" fill="#6baed6" stroke="#ffffff" stroke-width="0.8"><title>cell 285: SMCI_B=0.0522</title></path><path d="M 745.18,876.00 L 745.18,837.27 L 703.70,837.27 L 703.70,876.00 L 745.18,876.00 Z" fill="#e0e0e0" stroke="#ffffff" stroke-width="0.8"><title>cell 286: SMCI_B=0.0000</title></path><path d="M 745.18,837.27 L 745.18,798.53 L 703.70,798.53 L 703.70,837.27 L 745.18,837.27 Z" fill="#e0e0e0" stroke="#ffffff" stroke-width="0.8"><title>cell 287: SMCI_B=0.0000</title></path><path d="M 745.18,798.53 L 745.18,759.80 L 703.70,759.80 L 703.70,798.53 L 745.18,798.53 Z" fill="#f7fbff" stroke="#ffffff" stroke-width="0.8"><title>cell 288: SMCI_B=0.0020</title></path><path d="M 745.18,759.80 L 745.18,721.07 L 703.70,721.07 L 703.70,759.80 L 745.18,759.80 Z" fill="#e0e0e0" stroke="#ffffff" stroke-width="0.8"><title>cell 289: SMCI_B=0.0000</title></path><path d="M 745.18,721.07 L 745.18,682.34 L 703.70,682.34 L 703.70,721.07 L 745.18,721.07 Z" fill="#f7fbff" stroke="#ffffff" stroke-width="0.8"><title>cell 290: SMCI_B=0.0029</title></path><path d="M 745.18,682.34 L 745.18,643.61 L 703.70,643.61 L 703.70,682.34 L 745.18,682.34 Z" fill="#f7fbff" stroke="#ffffff" stroke-width="0.8"><title>cell 291: SMCI_B=0.0049</title></path><path d="M 745.18,643.61 L 745.18,604.88 L 703.70,604.88 L 703.70,643.61 L 745.18,643.61 Z" fill="#c6dbef" stroke="#ffffff" stroke-width="0.8"><title>cell 292: SMCI_B=0.0064</title></path><path d="M 745.18,604.88 L 745.18,566.15 L 703.70,566.15 L 703.70,604.88 L 745.18,604.88 Z" fill="#2171b5" stroke="#ffffff" stroke-width="0.8"><title>cell 293: SMCI_B=0.1223</title></path><path d="M 745.18,566.15 L 745.18,527.42 L 703.70,527.42 L 703.70,566.15 L 745.18,566.15 Z" fill="#2171b5" stroke="#ffffff" stroke-width="0.8"><title>cell 294: SMCI_B=0.1245</title></path><path d="M 745.18,527.42 L 745.18,488.69 L 703.70,488.69 L 703.70,527.42 L 745.18,527.42 Z" fill="#2171b5" stroke="#ffffff" stroke-width="0.8"><title>cell 295: SMCI_B=0.1206</title></path><path d="M 745.18,488.69 L 745.18,449.97 L 703.70,449.97 L 703.70,488.69 L 745.18,488.69 Z" fill="#2171b5" stroke="#ffffff" stroke-width="0.8"><title>cell 296: SMCI_B=0.1320</title></path><path d="M 745.18,449.97 L 745.18,411.24 L 703.70,411.24 L 703.70,449.97 L 745.18,449.97 Z" fill="#2171b5" stroke="#ffffff" stroke-width="0.8"><title>cell 297: SMCI_B=0.1827</title></path><path d="M 745.18,411.24 L 745.18,372.51 L 703.70,372.51 L 703.70,411.24 L 745.18,411.24 Z" fill="#08306b" stroke="#ffffff" stroke-width="0.8"><title>cell 298: SMCI_B=0.2004</title></path><path d="M 745.18,372.51 L 745.18,333.79 L 703.70,333.79 L 703.70,372.51 L 745.18,372.51 Z" fill="#08306b" stroke="#ffffff" stroke-width="0.8"><title>cell 299: SMCI_B=0.2295</title></path><path d="M 745.18,333.79 L 745.18,295.06 L 703.70,295.06 L 703.70,333.79 L 745.18,333.79 Z" fill="#e0e0e0" stroke="#ffffff" stroke-width="0.8"><title>cell 300: SMCI_B=0.0000</title></path><path d="M 745.18,295.06 L 745.18,256.34 L 703.70,256.34 L 703.70,295.06 L 745.18,295.06 Z" fill="#e0e0e0" stroke="#ffffff" stroke-width="0.8"><title>cell 301: SMCI_B=0.0000</title></path><path d="M 745.18,256.34 L 745.18,217.61 L 703.70,217.61 L 703.70,256.34 L 745.18,256.34 Z" fill="#e0e0e0" stroke="#ffffff" stroke-width="0.8"><title>cell 302: SMCI_B=0.0000</title></path><path d="M 745.18,217.61 L 745.18,178.89 L 703.70,178.89 L 703.70,217.61 L 745.18,217.61 Z" fill="#2171b5" stroke="#ffffff" stroke-width="0.8"><title>cell 303: SMCI_B=0.0863</title></path><path d="M 745.18,178.89 L 745.18,140.17 L 703.70,140.17 L 703.70,178.89 L 745.18,178.89 Z" fill="#2171b5" stroke="#ffffff" stroke-width="0.8"><title>cell 304: SMCI_B=0.0719</title></path><path d="M 745.18,140.17 L 745.18,101.44 L 703.70,101.44 L 703.70,140.17 L 745.18,140.17 Z" fill="#6baed6" stroke="#ffffff" stroke-width="0.8"><title>cell 305: SMCI_B=0.0617</title></path><path d="M 745.18,101.44 L 745.18,62.72 L 703.70,62.72 L 703.70,101.44 L 745.18,101.44 Z" fill="#2171b5" stroke="#ffffff" stroke-width="0.8"><title>cell 306: SMCI_B=0.0906</title></path><path d="M 745.18,62.72 L 745.18,24.00 L 703.70,24.00 L 703.70,62.72 L 745.18,62.72 Z" fill="#2171b5" stroke="#ffffff" stroke-width="0.8"><title>cell 307: SMCI_B=0.0776</title></path><path d="M 786.66,876.00 L 786.66,837.27 L 745.18,837.27 L 745.18,876.00 L 786.66,876.00 Z" fill="#f7fbff" stroke="#ffffff" stroke-width="0.8"><title>cell 308: SMCI_B=0.0011</title></path><path d="M 786.66,837.27 L 786.66,798.53 L 745.18,798.53 L 745.18,837.27 L 786.66,837.27 Z" fill="#f7fbff" stroke="#ffffff" stroke-width="0.8"><title>cell 309: SMCI_B=0.0010</title></path><path d="M 786.66,798.53 L 786.66,759.80 L 745.18,759.80 L 745.18,798.53 L 786.66,798.53 Z" fill="#f7fbff" stroke="#ffffff" stroke-width="0.8"><title>cell 310: SMCI_B=0.0035</title></path><path d="M 786.66,759.80 L 786.66,721.07 L 745.18,721.07 L 745.18,759.80 L 786.66,759.80 Z" fill="#c6dbef" stroke="#ffffff" stroke-width="0.8"><title>cell 311: SMCI_B=0.0083</title></path><path d="M 786.66,721.07 L 786.66,682.34 L 745.18,682.34 L 745.18,721.07 L 786.66,721.07 Z" fill="#c6dbef" stroke="#ffffff" stroke-width="0.8"><title>cell 312: SMCI_B=0.0128</title></path><path d="M 786.66,682.34 L 786.66,643.61 L 745.18,643.61 L 745.18,682.34 L 786.66,682.34 Z" fill="#c6dbef" stroke="#ffffff" stroke-width="0.8"><title>cell 313: SMCI_B=0.0189</title></path><path d="M 786.66,643.61 L 786.66,604.88 L 745.18,604.88 L 745.18,643.61 L 786.66,643.61 Z" fill="#c6dbef" stroke="#ffffff" stroke-width="0.8"><title>cell 314: SMCI_B=0.0195</title></path><path d="M 786.66,604.88 L 786.66,566.15 L 745.18,566.15 L 745.18,604.88 L 786.66,604.88 Z" fill="#6baed6" stroke="#ffffff" stroke-width="0.8"><title>cell 315: SMCI_B=0.0441</title></path><path d="M 786.66,566.15 L 786.66,527.42 L 745.18,527.42 L 745.18,566.15 L 786.66,566.15 Z" fill="#2171b5" stroke="#ffffff" stroke-width="0.8"><title>cell 316: SMCI_B=0.1327</title></path><path d="M 786.66,527.42 L 786.66,488.69 L 745.18,488.69 L 745.18,527.42 L 786.66,527.42 Z" fill="#2171b5" stroke="#ffffff" stroke-width="0.8"><title>cell 317: SMCI_B=0.1302</title></path><path d="M 786.66,488.69 L 786.66,449.97 L 745.18,449.97 L 745.18,488.69 L 786.66,488.69 Z" fill="#2171b5" stroke="#ffffff" stroke-width="0.8"><title>cell 318: SMCI_B=0.1610</title></path><path d="M 786.66,449.97 L 786.66,411.24 L 745.18,411.24 L 745.18,449.97 L 786.66,449.97 Z" fill="#2171b5" stroke="#ffffff" stroke-width="0.8"><title>cell 319: SMCI_B=0.1541</title></path><path d="M 786.66,411.24 L 786.66,372.51 L 745.18,372.51 L 745.18,411.24 L 786.66,411.24 Z" fill="#2171b5" stroke="#ffffff" stroke-width="0.8"><title>cell 320: SMCI_B=0.1219</title></path><path d="M 786.66,372.51 L 786.66,333.79 L 745.18,333.79 L 745.18,372.51 L 786.66,372.51 Z" fill="#2171b5" stroke="#ffffff" stroke-width="0.8"><title>cell 321: SMCI_B=0.1214</title></path><path d="M 786.66,333.79 L 786.66,295.06 L 745.18,295.06 L 745.18,333.79 L 786.66,333.79 Z" fill="#6baed6" stroke="#ffffff" stroke-width="0.8"><title>cell 322: SMCI_B=0.0695</title></path><path d="M 786.66,295.06 L 786.66,256.34 L 745.18,256.34 L 745.18,295.06 L 786.66,295.06 Z" fill="#e0e0e0" stroke="#ffffff" stroke-width="0.8"><title>cell 323: SMCI_B=0.0000</title></path><path d="M 786.66,256.34 L 786.66,217.61 L 745.18,217.61 L 745.18,256.34 L 786.66,256.34 Z" fill="#e0e0e0" stroke="#ffffff" stroke-width="0.8"><title>cell 324: SMCI_B=0.0000</title></path><path d="M 786.66,217.61 L 786.66,178.89 L 745.18,178.89 L 745.18,217.61 L 786.66,217.61 Z" fill="#6baed6" stroke="#ffffff" stroke-width="0.8"><title>cell 325: SMCI_B=0.0449</title></path><path d="M 786.66,178.89 L 786.66,140.17 L 745.18,140.17 L 745.18,178.89 L 786.66,178.89 Z" fill="#6baed6" stroke="#ffffff" stroke-width="0.8"><title>cell 326: SMCI_B=0.0647</title></path><path d="M 786.66,140.17 L 786.66,101.44 L 745.18,101.44 L 745.18,140.17 L 786.66,140.17 Z" fill="#c6dbef" stroke="#ffffff" stroke-width="0.8"><title>cell 327: SMCI_B=0.0250</title></path><path d="M 786.66,101.44 L 786.66,62.72 L 745.18,62.72 L 745.18,101.44 L 786.66,101.44 Z" fill="#2171b5" stroke="#ffffff" stroke-width="0.8"><title>cell 328: SMCI_B=0.0713</title></path><path d="M 786.66,62.72 L 786.66,24.00 L 745.18,24.00 L 745.18,62.72 L 786.66,62.72 Z" fill="#2171b5" stroke="#ffffff" stroke-width="0.8"><title>cell 329: SMCI_B=0.0837</title></path><path d="M 828.14,876.00 L 828.14,837.27 L 786.66,837.27 L 786.66,876.00 L 828.14,876.00 Z" fill="#e0e0e0" stroke="#ffffff" stroke-width="0.8"><title>cell 330: SMCI_B=0.0000</title></path><path d="M 828.14,837.27 L 828.14,798.53 L 786.66,798.53 L 786.66,837.27 L 828.14,837.27 Z" fill="#f7fbff" stroke="#ffffff" stroke-width="0.8"><title>cell 331: SMCI_B=0.0033</title></path><path d="M 828.14,798.53 L 828.14,759.80 L 786.66,759.80 L 786.66,798.53 L 828.14,798.53 Z" fill="#f7fbff" stroke="#ffffff" stroke-width="0.8"><title>cell 332: SMCI_B=0.0045</title></path><path d="M 828.14,759.80 L 828.14,721.07 L 786.66,721.07 L 786.66,759.80 L 828.14,759.80 Z" fill="#c6dbef" stroke="#ffffff" stroke-width="0.8"><title>cell 333: SMCI_B=0.0097</title></path><path d="M 828.14,721.07 L 828.14,682.34 L 786.66,682.34 L 786.66,721.07 L 828.14,721.07 Z" fill="#c6dbef" stroke="#ffffff" stroke-width="0.8"><title>cell 334: SMCI_B=0.0173</title></path><path d="M 828.14,682.34 L 828.14,643.61 L 786.66,643.61 L 786.66,682.34 L 828.14,682.34 Z" fill="#6baed6" stroke="#ffffff" stroke-width="0.8"><title>cell 335: SMCI_B=0.0297</title></path><path d="M 828.14,643.61 L 828.14,604.88 L 786.66,604.88 L 786.66,643.61 L 828.14,643.61 Z" fill="#6baed6" stroke="#ffffff" stroke-width="0.8"><title>cell 336: SMCI_B=0.0354</title></path><path d="M 828.14,604.88 L 828.14,566.15 L 786.66,566.15 L 786.66,604.88 L 828.14,604.88 Z" fill="#c6dbef" stroke="#ffffff" stroke-width="0.8"><title>cell 337: SMCI_B=0.0262</title></path><path d="M 828.14,566.15 L 828.14,527.42 L 786.66,527.42 L 786.66,566.15 L 828.14,566.15 Z" fill="#6baed6" stroke="#ffffff" stroke-width="0.8"><title>cell 338: SMCI_B=0.0688</title></path><path d="M 828.14,527.42 L 828.14,488.69 L 786.66,488.69 L 786.66,527.42 L 828.14,527.42 Z" fill="#2171b5" stroke="#ffffff" stroke-width="0.8"><title>cell 339: SMCI_B=0.0856</title></path><path d="M 828.14,488.69 L 828.14,449.97 L 786.66,449.97 L 786.66,488.69 L 828.14,488.69 Z" fill="#2171b5" stroke="#ffffff" stroke-width="0.8"><title>cell 340: SMCI_B=0.0973</title></path><path d="M 828.14,449.97 L 828.14,411.24 L 786.66,411.24 L 786.66,449.97 L 828.14,449.97 Z" fill="#2171b5" stroke="#ffffff" stroke-width="0.8"><title>cell 341: SMCI_B=0.1025</title></path><path d="M 828.14,411.24 L 828.14,372.51 L 786.66,372.51 L 786.66,411.24 L 828.14,411.24 Z" fill="#2171b5" stroke="#ffffff" stroke-width="0.8"><title>cell 342: SMCI_B=0.0941</title></path><path d="M 828.14,372.51 L 828.14,333.79 L 786.66,333.79 L 786.66,372.51 L 828.14,372.51 Z" fill="#2171b5" stroke="#ffffff" stroke-width="0.8"><title>cell 343: SMCI_B=0.1212</title></path><path d="M 828.14,333.79 L 828.14,295.06 L 786.66,295.06 L 786.66,333.79 L 828.14,333.79 Z" fill="#6baed6" stroke="#ffffff" stroke-width="0.8"><title>cell 344: SMCI_B=0.0577</title></path><path d="M 828.14,295.06 L 828.14,256.34 L 786.66,256.34 L 786.66,295.06 L 828.14,295.06 Z" fill="#c6dbef" stroke="#ffffff" stroke-width="0.8"><title>cell 345: SMCI_B=0.0282</title></path><path d="M 828.14,256.34 L 828.14,217.61 L 786.66,217.61 L 786.66,256.34 L 828.14,256.34 Z" fill="#e0e0e0" stroke="#ffffff" stroke-width="0.8"><title>cell 346: SMCI_B=0.0000</title></path><path d="M 828.14,217.61 L 828.14,178.89 L 786.66,178.89 L 786.66,217.61 L 828.14,217.61 Z" fill="#c6dbef" stroke="#ffffff" stroke-width="0.8"><title>cell 347: SMCI_B=0.0146</title></path><path d="M 828.14,178.89 L 828.14,140.17 L 786.66,140.17 L 786.66,178.89 L 828.14,178.89 Z" fill="#2171b5" stroke="#ffffff" stroke-width="0.8"><title>cell 348: SMCI_B=0.0714</title></path><path d="M 828.14,140.17 L 828.14,101.44 L 786.66,101.44 L 786.66,140.17 L 828.14,140.17 Z" fill="#6baed6" stroke="#ffffff" stroke-width="0.8"><title>cell 349: SMCI_B=0.0692</title></path><path d="M 828.14,101.44 L 828.14,62.72 L 786.66,62.72 L 786.66,101.44 L 828.14,101.44 Z" fill="#6baed6" stroke="#ffffff" stroke-width="0.8"><title>cell 350: SMCI_B=0.0683</title></path><path d="M 828.14,62.72 L 828.14,24.00 L 786.66,24.00 L 786.66,62.72 L 828.14,62.72 Z" fill="#6baed6" stroke="#ffffff" stroke-width="0.8"><title>cell 351: SMCI_B=0.0372</title></path><path d="M 869.62,876.00 L 869.62,837.27 L 828.14,837.27 L 828.14,876.00 L 869.62,876.00 Z" fill="#e0e0e0" stroke="#ffffff" stroke-width="0.8"><title>cell 352: SMCI_B=0.0000</title></path><path d="M 869.62,837.27 L 869.62,798.53 L 828.14,798.53 L 828.14,837.27 L 869.62,837.27 Z" fill="#f7fbff" stroke="#ffffff" stroke-width="0.8"><title>cell 353: SMCI_B=0.0022</title></path><path d="M 869.62,798.53 L 869.62,759.80 L 828.14,759.80 L 828.14,798.53 L 869.62,798.53 Z" fill="#f7fbff" stroke="#ffffff" stroke-width="0.8"><title>cell 354: SMCI_B=0.0024</title></path><path d="M 869.62,759.80 L 869.62,721.07 L 828.14,721.07 L 828.14,759.80 L 869.62,759.80 Z" fill="#c6dbef" stroke="#ffffff" stroke-width="0.8"><title>cell 355: SMCI_B=0.0112</title></path><path d="M 869.62,721.07 L 869.62,682.34 L 828.14,682.34 L 828.14,721.07 L 869.62,721.07 Z" fill="#c6dbef" stroke="#ffffff" stroke-width="0.8"><title>cell 356: SMCI_B=0.0122</title></path><path d="M 869.62,682.34 L 869.62,643.61 L 828.14,643.61 L 828.14,682.34 L 869.62,682.34 Z" fill="#c6dbef" stroke="#ffffff" stroke-width="0.8"><title>cell 357: SMCI_B=0.0262</title></path><path d="M 869.62,643.61 L 869.62,604.88 L 828.14,604.88 L 828.14,643.61 L 869.62,643.61 Z" fill="#c6dbef" stroke="#ffffff" stroke-width="0.8"><title>cell 358: SMCI_B=0.0285</title></path><path d="M 869.62,604.88 L 869.62,566.15 L 828.14,566.15 L 828.14,604.88 L 869.62,604.88 Z" fill="#6baed6" stroke="#ffffff" stroke-width="0.8"><title>cell 359: SMCI_B=0.0331</title></path><path d="M 869.62,566.15 L 869.62,527.42 L 828.14,527.42 L 828.14,566.15 L 869.62,566.15 Z" fill="#6baed6" stroke="#ffffff" stroke-width="0.8"><title>cell 360: SMCI_B=0.0465</title></path><path d="M 869.62,527.42 L 869.62,488.69 L 828.14,488.69 L 828.14,527.42 L 869.62,527.42 Z" fill="#2171b5" stroke="#ffffff" stroke-width="0.8"><title>cell 361: SMCI_B=0.0895</title></path><path d="M 869.62,488.69 L 869.62,449.97 L 828.14,449.97 L 828.14,488.69 L 869.62,488.69 Z" fill="#2171b5" stroke="#ffffff" stroke-width="0.8"><title>cell 362: SMCI_B=0.0890</title></path><path d="M 869.62,449.97 L 869.62,411.24 L 828.14,411.24 L 828.14,449.97 L 869.62,449.97 Z" fill="#2171b5" stroke="#ffffff" stroke-width="0.8"><title>cell 363: SMCI_B=0.0729</title></path><path d="M 869.62,411.24 L 869.62,372.51 L 828.14,372.51 L 828.14,411.24 L 869.62,411.24 Z" fill="#6baed6" stroke="#ffffff" stroke-width="0.8"><title>cell 364: SMCI_B=0.0603</title></path><path d="M 869.62,372.51 L 869.62,333.79 L 828.14,333.79 L 828.14,372.51 L 869.62,372.51 Z" fill="#e0e0e0" stroke="#ffffff" stroke-width="0.8"><title>cell 365: SMCI_B=0.0000</title></path><path d="M 869.62,333.79 L 869.62,295.06 L 828.14,295.06 L 828.14,333.79 L 869.62,333.79 Z" fill="#e0e0e0" stroke="#ffffff" stroke-width="0.8"><title>cell 366: SMCI_B=0.0000</title></path><path d="M 869.62,295.06 L 869.62,256.34 L 828.14,256.34 L 828.14,295.06 L 869.62,295.06 Z" fill="#e0e0e0" stroke="#ffffff" stroke-width="0.8"><title>cell 367: SMCI_B=0.0000</title></path><path d="M 869.62,256.34 L 869.62,217.61 L 828.14,217.61 L 828.14,256.34 L 869.62,256.34 Z" fill="#e0e0e0" stroke="#ffffff" stroke-width="0.8"><title>cell 368: SMCI_B=0.0000</title></path><path d="M 869.62,217.61 L 869.62,178.89 L 828.14,178.89 L 828.14,217.61 L 869.62,217.61 Z" fill="#c6dbef" stroke="#ffffff" stroke-width="0.8"><title>cell 369: SMCI_B=0.0153</title></path><path d="M 869.62,178.89 L 869.62,140.17 L 828.14,140.17 L 828.14,178.89 L 869.62,178.89 Z" fill="#6baed6" stroke="#ffffff" stroke-width="0.8"><title>cell 370: SMCI_B=0.0443</title></path><path d="M 869.62,140.17 L 869.62,101.44 L 828.14,101.44 L 828.14,140.17 L 869.62,140.17 Z" fill="#c6dbef" stroke="#ffffff" stroke-width="0.8"><title>cell 371: SMCI_B=0.0279</title></path><path d="M 869.62,101.44 L 869.62,62.72 L 828.14,62.72 L 828.14,101.44 L 869.62,101.44 Z" fill="#6baed6" stroke="#ffffff" stroke-width="0.8"><title>cell 372: SMCI_B=0.0326</title></path><path d="M 869.62,62.72 L 869.62,24.00 L 828.14,24.00 L 828.14,62.72 L 869.62,62.72 Z" fill="#c6dbef" stroke="#ffffff" stroke-width="0.8"><title>cell 373: SMCI_B=0.0292</title></path><path d="M 911.11,876.00 L 911.11,837.27 L 869.62,837.27 L 869.62,876.00 L 911.11,876.00 Z" fill="#e0e0e0" stroke="#ffffff" stroke-width="0.8"><title>cell 374: SMCI_B=0.0000</title></path><path d="M 911.11,837.27 L 911.11,798.53 L 869.62,798.53 L 869.62,837.27 L 911.11,837.27 Z" fill="#e0e0e0" stroke="#ffffff" stroke-width="0.8"><title>cell 375: SMCI_B=0.0000</title></path><path d="M 911.11,798.53 L 911.11,759.80 L 869.62,759.80 L 869.62,798.53 L 911.11,798.53 Z" fill="#e0e0e0" stroke="#ffffff" stroke-width="0.8"><title>cell 376: SMCI_B=0.0000</title></path><path d="M 911.11,759.80 L 911.11,721.07 L 869.62,721.07 L 869.62,759.80 L 911.11,759.80 Z" fill="#f7fbff" stroke="#ffffff" stroke-width="0.8"><title>cell 377: SMCI_B=0.0003</title></path><path d="M 911.11,721.07 L 911.11,682.34 L 869.62,682.34 L 869.62,721.07 L 911.11,721.07 Z" fill="#c6dbef" stroke="#ffffff" stroke-width="0.8"><title>cell 378: SMCI_B=0.0098</title></path><path d="M 911.11,682.34 L 911.11,643.61 L 869.62,643.61 L 869.62,682.34 L 911.11,682.34 Z" fill="#c6dbef" stroke="#ffffff" stroke-width="0.8"><title>cell 379: SMCI_B=0.0175</title></path><path d="M 911.11,643.61 L 911.11,604.88 L 869.62,604.88 L 869.62,643.61 L 911.11,643.61 Z" fill="#c6dbef" stroke="#ffffff" stroke-width="0.8"><title>cell 380: SMCI_B=0.0165</title></path><path d="M 911.11,604.88 L 911.11,566.15 L 869.62,566.15 L 869.62,604.88 L 911.11,604.88 Z" fill="#6baed6" stroke="#ffffff" stroke-width="0.8"><title>cell 381: SMCI_B=0.0344</title></path><path d="M 911.11,566.15 L 911.11,527.42 L 869.62,527.42 L 869.62,566.15 L 911.11,566.15 Z" fill="#6baed6" stroke="#ffffff" stroke-width="0.8"><title>cell 382: SMCI_B=0.0450</title></path><path d="M 911.11,527.42 L 911.11,488.69 L 869.62,488.69 L 869.62,527.42 L 911.11,527.42 Z" fill="#6baed6" stroke="#ffffff" stroke-width="0.8"><title>cell 383: SMCI_B=0.0368</title></path><path d="M 911.11,488.69 L 911.11,449.97 L 869.62,449.97 L 869.62,488.69 L 911.11,488.69 Z" fill="#2171b5" stroke="#ffffff" stroke-width="0.8"><title>cell 384: SMCI_B=0.0905</title></path><path d="M 911.11,449.97 L 911.11,411.24 L 869.62,411.24 L 869.62,449.97 L 911.11,449.97 Z" fill="#2171b5" stroke="#ffffff" stroke-width="0.8"><title>cell 385: SMCI_B=0.0813</title></path><path d="M 911.11,411.24 L 911.11,372.51 L 869.62,372.51 L 869.62,411.24 L 911.11,411.24 Z" fill="#e0e0e0" stroke="#ffffff" stroke-width="0.8"><title>cell 386: SMCI_B=0.0000</title></path><path d="M 911.11,372.51 L 911.11,333.79 L 869.62,333.79 L 869.62,372.51 L 911.11,372.51 Z" fill="#e0e0e0" stroke="#ffffff" stroke-width="0.8"><title>cell 387: SMCI_B=0.0000</title></path><path d="M 911.11,333.79 L 911.11,295.06 L 869.62,295.06 L 869.62,333.79 L 911.11,333.79 Z" fill="#e0e0e0" stroke="#ffffff" stroke-width="0.8"><title>cell 388: SMCI_B=0.0000</title></path><path d="M 911.11,295.06 L 911.11,256.34 L 869.62,256.34 L 869.62,295.06 L 911.11,295.06 Z" fill="#e0e0e0" stroke="#ffffff" stroke-width="0.8"><title>cell 389: SMCI_B=0.0000</title></path><path d="M 911.11,256.34 L 911.11,217.61 L 869.62,217.61 L 869.62,256.34 L 911.11,256.34 Z" fill="#6baed6" stroke="#ffffff" stroke-width="0.8"><title>cell 390: SMCI_B=0.0325</title></path><path d="M 911.11,217.61 L 911.11,178.89 L 869.62,178.89 L 869.62,217.61 L 911.11,217.61 Z" fill="#c6dbef" stroke="#ffffff" stroke-width="0.8"><title>cell 391: SMCI_B=0.0089</title></path><path d="M 911.11,178.89 L 911.11,140.17 L 869.62,140.17 L 869.62,178.89 L 911.11,178.89 Z" fill="#c6dbef" stroke="#ffffff" stroke-width="0.8"><title>cell 392: SMCI_B=0.0082</title></path><path d="M 911.11,140.17 L 911.11,101.44 L 869.62,101.44 L 869.62,140.17 L 911.11,140.17 Z" fill="#c6dbef" stroke="#ffffff" stroke-width="0.8"><title>cell 393: SMCI_B=0.0295</title></path><path d="M 911.11,101.44 L 911.11,62.72 L 869.62,62.72 L 869.62,101.44 L 911.11,101.44 Z" fill="#e0e0e0" stroke="#ffffff" stroke-width="0.8"><title>cell 394: SMCI_B=0.0000</title></path><path d="M 911.11,62.72 L 911.11,24.00 L 869.62,24.00 L 869.62,62.72 L 911.11,62.72 Z" fill="#f7fbff" stroke="#ffffff" stroke-width="0.8"><title>cell 395: SMCI_B=0.0058</title></path><path d="M 952.59,876.00 L 952.59,837.27 L 911.11,837.27 L 911.11,876.00 L 952.59,876.00 Z" fill="#e0e0e0" stroke="#ffffff" stroke-width="0.8"><title>cell 396: SMCI_B=0.0000</title></path><path d="M 952.59,837.27 L 952.59,798.53 L 911.11,798.53 L 911.11,837.27 L 952.59,837.27 Z" fill="#f7fbff" stroke="#ffffff" stroke-width="0.8"><title>cell 397: SMCI_B=0.0004</title></path><path d="M 952.59,798.53 L 952.59,759.80 L 911.11,759.80 L 911.11,798.53 L 952.59,798.53 Z" fill="#f7fbff" stroke="#ffffff" stroke-width="0.8"><title>cell 398: SMCI_B=0.0004</title></path><path d="M 952.59,759.80 L 952.59,721.07 L 911.11,721.07 L 911.11,759.80 L 952.59,759.80 Z" fill="#f7fbff" stroke="#ffffff" stroke-width="0.8"><title>cell 399: SMCI_B=0.0014</title></path><path d="M 952.59,721.07 L 952.59,682.34 L 911.11,682.34 L 911.11,721.07 L 952.59,721.07 Z" fill="#f7fbff" stroke="#ffffff" stroke-width="0.8"><title>cell 400: SMCI_B=0.0013</title></path><path d="M 952.59,682.34 L 952.59,643.61 L 911.11,643.61 L 911.11,682.34 L 952.59,682.34 Z" fill="#c6dbef" stroke="#ffffff" stroke-width="0.8"><title>cell 401: SMCI_B=0.0069</title></path><path d="M 952.59,643.61 L 952.59,604.88 L 911.11,604.88 L 911.11,643.61 L 952.59,643.61 Z" fill="#f7fbff" stroke="#ffffff" stroke-width="0.8"><title>cell 402: SMCI_B=0.0027</title></path><path d="M 952.59,604.88 L 952.59,566.15 L 911.11,566.15 L 911.11,604.88 L 952.59,604.88 Z" fill="#c6dbef" stroke="#ffffff" stroke-width="0.8"><title>cell 403: SMCI_B=0.0134</title></path><path d="M 952.59,566.15 L 952.59,527.42 L 911.11,527.42 L 911.11,566.15 L 952.59,566.15 Z" fill="#c6dbef" stroke="#ffffff" stroke-width="0.8"><title>cell 404: SMCI_B=0.0172</title></path><path d="M 952.59,527.42 L 952.59,488.69 L 911.11,488.69 L 911.11,527.42 L 952.59,527.42 Z" fill="#c6dbef" stroke="#ffffff" stroke-width="0.8"><title>cell 405: SMCI_B=0.0076</title></path><path d="M 952.59,488.69 L 952.59,449.97 L 911.11,449.97 L 911.11,488.69 L 952.59,488.69 Z" fill="#2171b5" stroke="#ffffff" stroke-width="0.8"><title>cell 406: SMCI_B=0.0828</title></path><path d="M 952.59,449.97 L 952.59,411.24 L 911.11,411.24 L 911.11,449.97 L 952.59,449.97 Z" fill="#6baed6" stroke="#ffffff" stroke-width="0.8"><title>cell 407: SMCI_B=0.0328</title></path><path d="M 952.59,411.24 L 952.59,372.51 L 911.11,372.51 L 911.11,411.24 L 952.59,411.24 Z" fill="#6baed6" stroke="#ffffff" stroke-width="0.8"><title>cell 408: SMCI_B=0.0366</title></path><path d="M 952.59,372.51 L 952.59,333.79 L 911.11,333.79 L 911.11,372.51 L 952.59,372.51 Z" fill="#c6dbef" stroke="#ffffff" stroke-width="0.8"><title>cell 409: SMCI_B=0.0286</title></path><path d="M 952.59,333.79 L 952.59,295.06 L 911.11,295.06 L 911.11,333.79 L 952.59,333.79 Z" fill="#c6dbef" stroke="#ffffff" stroke-width="0.8"><title>cell 410: SMCI_B=0.0064</title></path><path d="M 952.59,295.06 L 952.59,256.34 L 911.11,256.34 L 911.11,295.06 L 952.59,295.06 Z" fill="#6baed6" stroke="#ffffff" stroke-width="0.8"><title>cell 411: SMCI_B=0.0531</title></path><path d="M 952.59,256.34 L 952.59,217.61 L 911.11,217.61 L 911.11,256.34 L 952.59,256.34 Z" fill="#6baed6" stroke="#ffffff" stroke-width="0.8"><title>cell 412: SMCI_B=0.0403</title></path><path d="M 952.59,217.61 L 952.59,178.89 L 911.11,178.89 L 911.11,217.61 L 952.59,217.61 Z" fill="#6baed6" stroke="#ffffff" stroke-width="0.8"><title>cell 413: SMCI_B=0.0593</title></path><path d="M 952.59,178.89 L 952.59,140.17 L 911.11,140.17 L 911.11,178.89 L 952.59,178.89 Z" fill="#c6dbef" stroke="#ffffff" stroke-width="0.8"><title>cell 414: SMCI_B=0.0074</title></path><path d="M 952.59,140.17 L 952.59,101.44 L 911.11,101.44 L 911.11,140.17 L 952.59,140.17 Z" fill="#6baed6" stroke="#ffffff" stroke-width="0.8"><title>cell 415: SMCI_B=0.0408</title></path><path d="M 952.59,101.44 L 952.59,62.72 L 911.11,62.72 L 911.11,101.44 L 952.59,101.44 Z" fill="#6baed6" stroke="#ffffff" stroke-width="0.8"><title>cell 416: SMCI_B=0.0470</title></path><path d="M 952.59,62.72 L 952.59,24.00 L 911.11,24.00 L 911.11,62.72 L 952.59,62.72 Z" fill="#c6dbef" stroke="#ffffff" stroke-width="0.8"><title>cell 417: SMCI_B=0.0116</title></path><path d="M 994.07,876.00 L 994.07,837.27 L 952.59,837.27 L 952.59,876.00 L 994.07,876.00 Z" fill="#e0e0e0" stroke="#ffffff" stroke-width="0.8"><title>cell 418: SMCI_B=0.0000</title></path><path d="M 994.07,837.27 L 994.07,798.53 L 952.59,798.53 L 952.59,837.27 L 994.07,837.27 Z" fill="#f7fbff" stroke="#ffffff" stroke-width="0.8"><title>cell 419: SMCI_B=0.0003</title></path><path d="M 994.07,798.53 L 994.07,759.80 L 952.59,759.80 L 952.59,798.53 L 994.07,798.53 Z" fill="#f7fbff" stroke="#ffffff" stroke-width="0.8"><title>cell 420: SMCI_B=0.0003</title></path><path d="M 994.07,759.80 L 994.07,721.07 L 952.59,721.07 L 952.59,759.80 L 994.07,759.80 Z" fill="#f7fbff" stroke="#ffffff" stroke-width="0.8"><title>cell 421: SMCI_B=0.0010</title></path><path d="M 994.07,721.07 L 994.07,682.34 L 952.59,682.34 L 952.59,721.07 L 994.07,721.07 Z" fill="#f7fbff" stroke="#ffffff" stroke-width="0.8"><title>cell 422: SMCI_B=0.0016</title></path><path d="M 994.07,682.34 L 994.07,643.61 L 952.59,643.61 L 952.59,682.34 L 994.07,682.34 Z" fill="#f7fbff" stroke="#ffffff" stroke-width="0.8"><title>cell 423: SMCI_B=0.0028</title></path><path d="M 994.07,643.61 L 994.07,604.88 L 952.59,604.88 L 952.59,643.61 L 994.07,643.61 Z" fill="#f7fbff" stroke="#ffffff" stroke-width="0.8"><title>cell 424: SMCI_B=0.0020</title></path><path d="M 994.07,604.88 L 994.07,566.15 L 952.59,566.15 L 952.59,604.88 L 994.07,604.88 Z" fill="#f7fbff" stroke="#ffffff" stroke-width="0.8"><title>cell 425: SMCI_B=0.0019</title></path><path d="M 994.07,566.15 L 994.07,527.42 L 952.59,527.42 L 952.59,566.15 L 994.07,566.15 Z" fill="#c6dbef" stroke="#ffffff" stroke-width="0.8"><title>cell 426: SMCI_B=0.0084</title></path><path d="M 994.07,527.42 L 994.07,488.69 L 952.59,488.69 L 952.59,527.42 L 994.07,527.42 Z" fill="#f7fbff" stroke="#ffffff" stroke-width="0.8"><title>cell 427: SMCI_B=0.0023</title></path><path d="M 994.07,488.69 L 994.07,449.97 L 952.59,449.97 L 952.59,488.69 L 994.07,488.69 Z" fill="#f7fbff" stroke="#ffffff" stroke-width="0.8"><title>cell 428: SMCI_B=0.0054</title></path><path d="M 994.07,449.97 L 994.07,411.24 L 952.59,411.24 L 952.59,449.97 L 994.07,449.97 Z" fill="#e0e0e0" stroke="#ffffff" stroke-width="0.8"><title>cell 429: SMCI_B=0.0000</title></path><path d="M 994.07,411.24 L 994.07,372.51 L 952.59,372.51 L 952.59,411.24 L 994.07,411.24 Z" fill="#c6dbef" stroke="#ffffff" stroke-width="0.8"><title>cell 430: SMCI_B=0.0059</title></path><path d="M 994.07,372.51 L 994.07,333.79 L 952.59,333.79 L 952.59,372.51 L 994.07,372.51 Z" fill="#6baed6" stroke="#ffffff" stroke-width="0.8"><title>cell 431: SMCI_B=0.0421</title></path><path d="M 994.07,333.79 L 994.07,295.06 L 952.59,295.06 L 952.59,333.79 L 994.07,333.79 Z" fill="#c6dbef" stroke="#ffffff" stroke-width="0.8"><title>cell 432: SMCI_B=0.0280</title></path><path d="M 994.07,295.06 L 994.07,256.34 L 952.59,256.34 L 952.59,295.06 L 994.07,295.06 Z" fill="#6baed6" stroke="#ffffff" stroke-width="0.8"><title>cell 433: SMCI_B=0.0596</title></path><path d="M 994.07,256.34 L 994.07,217.61 L 952.59,217.61 L 952.59,256.34 L 994.07,256.34 Z" fill="#6baed6" stroke="#ffffff" stroke-width="0.8"><title>cell 434: SMCI_B=0.0464</title></path><path d="M 994.07,217.61 L 994.07,178.89 L 952.59,178.89 L 952.59,217.61 L 994.07,217.61 Z" fill="#6baed6" stroke="#ffffff" stroke-width="0.8"><title>cell 435: SMCI_B=0.0505</title></path><path d="M 994.07,178.89 L 994.07,140.17 L 952.59,140.17 L 952.59,178.89 L 994.07,178.89 Z" fill="#6baed6" stroke="#ffffff" stroke-width="0.8"><title>cell 436: SMCI_B=0.0448</title></path><path d="M 994.07,140.17 L 994.07,101.44 L 952.59,101.44 L 952.59,140.17 L 994.07,140.17 Z" fill="#c6dbef" stroke="#ffffff" stroke-width="0.8"><title>cell 437: SMCI_B=0.0290</title></path><path d="M 994.07,101.44 L 994.07,62.72 L 952.59,62.72 L 952.59,101.44 L 994.07,101.44 Z" fill="#c6dbef" stroke="#ffffff" stroke-width="0.8"><title>cell 438: SMCI_B=0.0230</title></path><path d="M 994.07,62.72 L 994.07,24.00 L 952.59,24.00 L 952.59,62.72 L 994.07,62.72 Z" fill="#c6dbef" stroke="#ffffff" stroke-width="0.8"><title>cell 439: SMCI_B=0.0113</title></path><path d="M 1035.55,876.00 L 1035.55,837.27 L 994.07,837.27 L 994.07,876.00 L 1035.55,876.00 Z" fill="#e0e0e0" stroke="#ffffff" stroke-width="0.8"><title>cell 440: SMCI_B=0.0000</title></path><path d="M 1035.55,837.27 L 1035.55,798.53 L 994.07,798.53 L 994.07,837.27 L 1035.55,837.27 Z" fill="#f7fbff" stroke="#ffffff" stroke-width="0.8"><title>cell 441: SMCI_B=0.0003</title></path><path d="M 1035.55,798.53 L 1035.55,759.80 L 994.07,759.80 L 994.07,798.53 L 1035.55,798.53 Z" fill="#f7fbff" stroke="#ffffff" stroke-width="0.8"><title>cell 442: SMCI_B=0.0004</title></path><path d="M 1035.55,759.80 L 1035.55,721.07 L 994.07,721.07 L 994.07,759.80 L 1035.55,759.80 Z" fill="#f7fbff" stroke="#ffffff" stroke-width="0.8"><title>cell 443: SMCI_B=0.0004</title></path><path d="M 1035.55,721.07 L 1035.55,682.34 L 994.07,682.34 L 994.07,721.07 L 1035.55,721.07 Z" fill="#f7fbff" stroke="#ffffff" stroke-width="0.8"><title>cell 444: SMCI_B=0.0008</title></path><path d="M 1035.55,682.34 L 1035.55,643.61 L 994.07,643.61 L 994.07,682.34 L 1035.55,682.34 Z" fill="#f7fbff" stroke="#ffffff" stroke-width="0.8"><title>cell 445: SMCI_B=0.0027</title></path><path d="M 1035.55,643.61 L 1035.55,604.88 L 994.07,604.88 L 994.07,643.61 L 1035.55,643.61 Z" fill="#f7fbff" stroke="#ffffff" stroke-width="0.8"><title>cell 446: SMCI_B=0.0017</title></path><path d="M 1035.55,604.88 L 1035.55,566.15 L 994.07,566.15 L 994.07,604.88 L 1035.55,604.88 Z" fill="#f7fbff" stroke="#ffffff" stroke-width="0.8"><title>cell 447: SMCI_B=0.0029</title></path><path d="M 1035.55,566.15 L 1035.55,527.42 L 994.07,527.42 L 994.07,566.15 L 1035.55,566.15 Z" fill="#f7fbff" stroke="#ffffff" stroke-width="0.8"><title>cell 448: SMCI_B=0.0029</title></path><path d="M 1035.55,527.42 L 1035.55,488.69 L 994.07,488.69 L 994.07,527.42 L 1035.55,527.42 Z" fill="#f7fbff" stroke="#ffffff" stroke-width="0.8"><title>cell 449: SMCI_B=0.0028</title></path><path d="M 1035.55,488.69 L 1035.55,449.97 L 994.07,449.97 L 994.07,488.69 L 1035.55,488.69 Z" fill="#f7fbff" stroke="#ffffff" stroke-width="0.8"><title>cell 450: SMCI_B=0.0052</title></path><path d="M 1035.55,449.97 L 1035.55,411.24 L 994.07,411.24 L 994.07,449.97 L 1035.55,449.97 Z" fill="#f7fbff" stroke="#ffffff" stroke-width="0.8"><title>cell 451: SMCI_B=0.0049</title></path><path d="M 1035.55,411.24 L 1035.55,372.51 L 994.07,372.51 L 994.07,411.24 L 1035.55,411.24 Z" fill="#c6dbef" stroke="#ffffff" stroke-width="0.8"><title>cell 452: SMCI_B=0.0064</title></path><path d="M 1035.55,372.51 L 1035.55,333.79 L 994.07,333.79 L 994.07,372.51 L 1035.55,372.51 Z" fill="#c6dbef" stroke="#ffffff" stroke-width="0.8"><title>cell 453: SMCI_B=0.0248</title></path><path d="M 1035.55,333.79 L 1035.55,295.06 L 994.07,295.06 L 994.07,333.79 L 1035.55,333.79 Z" fill="#c6dbef" stroke="#ffffff" stroke-width="0.8"><title>cell 454: SMCI_B=0.0229</title></path><path d="M 1035.55,295.06 L 1035.55,256.34 L 994.07,256.34 L 994.07,295.06 L 1035.55,295.06 Z" fill="#6baed6" stroke="#ffffff" stroke-width="0.8"><title>cell 455: SMCI_B=0.0526</title></path><path d="M 1035.55,256.34 L 1035.55,217.61 L 994.07,217.61 L 994.07,256.34 L 1035.55,256.34 Z" fill="#6baed6" stroke="#ffffff" stroke-width="0.8"><title>cell 456: SMCI_B=0.0405</title></path><path d="M 1035.55,217.61 L 1035.55,178.89 L 994.07,178.89 L 994.07,217.61 L 1035.55,217.61 Z" fill="#c6dbef" stroke="#ffffff" stroke-width="0.8"><title>cell 457: SMCI_B=0.0295</title></path><path d="M 1035.55,178.89 L 1035.55,140.17 L 994.07,140.17 L 994.07,178.89 L 1035.55,178.89 Z" fill="#c6dbef" stroke="#ffffff" stroke-width="0.8"><title>cell 458: SMCI_B=0.0293</title></path><path d="M 1035.55,140.17 L 1035.55,101.44 L 994.07,101.44 L 994.07,140.17 L 1035.55,140.17 Z" fill="#c6dbef" stroke="#ffffff" stroke-width="0.8"><title>cell 459: SMCI_B=0.0218</title></path><path d="M 1035.55,101.44 L 1035.55,62.72 L 994.07,62.72 L 994.07,101.44 L 1035.55,101.44 Z" fill="#c6dbef" stroke="#ffffff" stroke-width="0.8"><title>cell 460: SMCI_B=0.0215</title></path><path d="M 1035.55,62.72 L 1035.55,24.00 L 994.07,24.00 L 994.07,62.72 L 1035.55,62.72 Z" fill="#f7fbff" stroke="#ffffff" stroke-width="0.8"><title>cell 461: SMCI_B=0.0049</title></path></g>
<text x="40" y="44" font-family="Arial" font-size="28" font-weight="700">SMCI_B</text>
<rect x="40" y="80" width="22" height="18" fill="#e0e0e0"/><text x="72" y="94" font-size="16">Zero access</text><rect x="40" y="108" width="22" height="18" fill="#f7fbff"/><text x="72" y="122" font-size="16">positive quantile 1</text><rect x="40" y="136" width="22" height="18" fill="#c6dbef"/><text x="72" y="150" font-size="16">positive quantile 2</text><rect x="40" y="164" width="22" height="18" fill="#6baed6"/><text x="72" y="178" font-size="16">positive quantile 3</text><rect x="40" y="192" width="22" height="18" fill="#2171b5"/><text x="72" y="206" font-size="16">positive quantile 4</text><rect x="40" y="220" width="22" height="18" fill="#08306b"/><text x="72" y="234" font-size="16">positive quantile 5</text>
</svg>
