<svg xmlns="http://www.w3.org/2000/svg" width="1200" height="900" viewBox="0 0 1200 900">
<rect width="100%" height="100%" fill="#ffffff"/>
<g><path d="M 205.93,876.00 L 205.93,837.27 L 164.45,837.27 L 164.45,876.00 L 205.93,876.00 Z" fill="#d95f02" stroke="#ffffff" stroke-width="0.8"><title>cell 0: Fragmented Capability</title></path><path d="M 205.93,837.27 L 205.93,798.53 L 164.45,798.53 L 164.45,837.27 L 205.93,837.27 Z" fill="#d95f02" stroke="#ffffff" stroke-width="0.8"><title>cell 1: Fragmented Capability</title></path><path d="M 205.93,798.53 L 205.93,759.80 L 164.45,759.80 L 164.45,798.53 L 205.93,798.53 Z" fill="#666666" stroke="#ffffff" stroke-width="0.8"><title>cell 2: Motorcycle Lock-in</title></path><path d="M 205.93,759.80 L 205.93,721.07 L 164.45,721.07 L 164.45,759.80 L 205.93,759.80 Z" fill="#666666" stroke="#ffffff" stroke-width="0.8"><title>cell 3: Motorcycle Lock-in</title></path><path d="M 205.93,721.07 L 205.93,682.34 L 164.45,682.34 L 164.45,721.07 L 205.93,721.07 Z" fill="#666666" stroke="#ffffff" stroke-width="0.8"><title>cell 4: Motorcycle Lock-in</title></path><path d="M 205.93,682.34 L 205.93,643.61 L 164.45,643.61 L 164.45,682.34 L 205.93,682.34 Z" fill="#666666" stroke="#ffffff" stroke-width="0.8"><title>cell 5: Motorcycle Lock-in</title></path><path d="M 205.93,643.61 L 205.93,604.88 L 164.45,604.88 L 164.45,643.61 L 205.93,643.61 Z" fill="#666666" stroke="#ffffff" stroke-width="0.8"><title>cell 6: Motorcycle Lock-in</title></path><path d="M 205.93,604.88 L 205.93,566.15 L 164.45,566.15 L 164.45,604.88 L 205.93,604.88 Z" fill="#d95f02" stroke="#ffffff" stroke-width="0.8"><title>cell 7: Fragmented Capability</title></path><path d="M 205.93,566.15 L 205.93,527.42 L 164.45,527.42 L 164.45,566.15 L 205.93,566.15 Z" fill="#d95f02" stroke="#ffffff" stroke-width="0.8"><title>cell 8: Fragmented Capability</title></path><path d="M 205.93,527.42 L 205.93,488.69 L 164.45,488.69 L 164.45,527.42 L 205.93,527.42 Z" fill="#7570b3" stroke="#ffffff" stroke-width="0.8"><title>cell 9: Transit-Dependent</title></path><path d="M 205.93,488.69 L 205.93,449.97 L 164.45,449.97 L 164.45,488.69 L 205.93,488.69 Z" fill="#666666" stroke="#ffffff" stroke-width="0.8"><title>cell 10: Motorcycle Lock-in</title></path><path d="M 205.93,449.97 L 205.93,411.24 L 164.45,411.24 L 164.45,449.97 L 205.93,449.97 Z" fill="#7570b3" stroke="#ffffff" stroke-width="0.8"><title>cell 11: Transit-Dependent</title></path><path d="M 205.93,411.24 L 205.93,372.51 L 164.45,372.51 L 164.45,411.24 L 205.93,411.24 Z" fill="#7570b3" stroke="#ffffff" stroke-width="0.8"><title>cell 12: Transit-Dependent</title></path><path d="M 205.93,372.51 L 205.93,333.79 L 164.45,333.79 L 164.45,372.51 L 205.93,372.51 Z" fill="#666666" stroke="#ffffff" stroke-width="0.8"><title>cell 13: Motorcycle Lock-in</title></path><path d="M 205.93,333.79 L 205.93,295.06 L 164.45,295.06 L 164.45,333.79 L 205.93,333.79 Z" fill="#7570b3" stroke="#ffffff" stroke-width="0.8"><title>cell 14: Transit-Dependent</title></path><path d="M 205.93,295.06 L 205.93,256.34 L 164.45,256.34 L 164.45,295.06 L 205.93,295.06 Z" fill="#666666" stroke="#ffffff" stroke-width="0.8"><title>cell 15: Motorcycle Lock-in</title></path><path d="M 205.93,256.34 L 205.93,217.61 L 164.45,217.61 L 164.45,256.34 L 205.93,256.34 Z" fill="#7570b3" stroke="#ffffff" stroke-width="0.8"><title>cell 16: Transit-Dependent</title></path><path d="M 205.93,217.61 L 205.93,178.89 L 164.45,178.89 L 164.45,217.61 L 205.93,217.61 Z" fill="#7570b3" stroke="#ffffff" stroke-width="0.8"><title>cell 17: Transit-Dependent</title></path><path d="M 205.93,178.89 L 205.93,140.17 L 164.45,140.17 L 164.45,178.89 L 205.93,178.89 Z" fill="#1b9e77" stroke="#ffffff" stroke-width="0.8"><title>cell 18: Integrated Capability</title></path><path d="M 205.93,140.17 L 205.93,101.44 L 164.45,101.44 L 164.45,140.17 L 205.93,140.17 Z" fill="#666666" stroke="#ffffff" stroke-width="0.8"><title>cell 19: Motorcycle Lock-in</title></path><path d="M 205.93,101.44 L 205.93,62.72 L 164.45,62.72 L 164.45,101.44 L 205.93,101.44 Z" fill="#666666" stroke="#ffffff" stroke-width="0.8"><title>cell 20: Motorcycle Lock-in</title></path><path d="M 205.93,62.72 L 205.93,24.00 L 164.45,24.00 L 164.45,62.72 L 205.93,62.72 Z" fill="#666666" stroke="#ffffff" stroke-width="0.8"><title>cell 21: Motorcycle Lock-in</title></path><path d="M 247.41,876.00 L 247.41,837.27 L 205.93,837.27 L 205.93,876.00 L 247.41,876.00 Z" fill="#d95f02" stroke="#ffffff" stroke-width="0.8"><title>cell 22: Fragmented Capability</title></path><path d="M 247.41,837.27 L 247.41,798.53 L 205.93,798.53 L 205.93,837.27 L 247.41,837.27 Z" fill="#d95f02" stroke="#ffffff" stroke-width="0.8"><title>cell 23: Fragmented Capability</title></path><path d="M 247.41,798.53 L 247.41,759.80 L 205.93,759.80 L 205.93,798.53 L 247.41,798.53 Z" fill="#666666" stroke="#ffffff" stroke-width="0.8"><title>cell 24: Motorcycle Lock-in</title></path><path d="M 247.41,759.80 L 247.41,721.07 L 205.93,721.07 L 205.93,759.80 L 247.41,759.80 Z" fill="#666666" stroke="#ffffff" stroke-width="0.8"><title>cell 25: Motorcycle Lock-in</title></path><path d="M 247.41,721.07 L 247.41,682.34 L 205.93,682.34 L 205.93,721.07 L 247.41,721.07 Z" fill="#666666" stroke="#ffffff" stroke-width="0.8"><title>cell 26: Motorcycle Lock-in</title></path><path d="M 247.41,682.34 L 247.41,643.61 L 205.93,643.61 L 205.93,682.34 L 247.41,682.34 Z" fill="#d95f02" stroke="#ffffff" stroke-width="0.8"><title>cell 27: Fragmented Capability</title></path><path d="M 247.41,643.61 L 247.41,604.88 L 205.93,604.88 L 205.93,643.61 L 247.41,643.61 Z" fill="#d95f02" stroke="#ffffff" stroke-width="0.8"><title>cell 28: Fragmented Capability</title></path><path d="M 247.41,604.88 L 247.41,566.15 L 205.93,566.15 L 205.93,604.88 L 247.41,604.88 Z" fill="#d95f02" stroke="#ffffff" stroke-width="0.8"><title>cell 29: Fragmented Capability</title></path><path d="M 247.41,566.15 L 247.41,527.42 L 205.93,527.42 L 205.93,566.15 L 247.41,566.15 Z" fill="#666666" stroke="#ffffff" stroke-width="0.8"><title>cell 30: Motorcycle Lock-in</title></path><path d="M 247.41,527.42 L 247.41,488.69 L 205.93,488.69 L 205.93,527.42 L 247.41,527.42 Z" fill="#666666" stroke="#ffffff" stroke-width="0.8"><title>cell 31: Motorcycle Lock-in</title></path><path d="M 247.41,488.69 L 247.41,449.97 L 205.93,449.97 L 205.93,488.69 L 247.41,488.69 Z" fill="#7570b3" stroke="#ffffff" stroke-width="0.8"><title>cell 32: Transit-Dependent</title></path><path d="M 247.41,449.97 L 247.41,411.24 L 205.93,411.24 L 205.93,449.97 L 247.41,449.97 Z" fill="#7570b3" stroke="#ffffff" stroke-width="0.8"><title>cell 33: Transit-Dependent</title></path><path d="M 247.41,411.24 L 247.41,372.51 L 205.93,372.51 L 205.93,411.24 L 247.41,411.24 Z" fill="#7570b3" stroke="#ffffff" stroke-width="0.8"><title>cell 34: Transit-Dependent</title></path><path d="M 247.41,372.51 L 247.41,333.79 L 205.93,333.79 L 205.93,372.51 L 247.41,372.51 Z" fill="#7570b3" stroke="#ffffff" stroke-width="0.8"><title>cell 35: Transit-Dependent</title></path><path d="M 247.41,333.79 L 247.41,295.06 L 205.93,295.06 L 205.93,333.79 L 247.41,333.79 Z" fill="#666666" stroke="#ffffff" stroke-width="0.8"><title>cell 36: Motorcycle Lock-in</title></path><path d="M 247.41,295.06 L 247.41,256.34 L 205.93,256.34 L 205.93,295.06 L 247.41,295.06 Z" fill="#7570b3" stroke="#ffffff" stroke-width="0.8"><title>cell 37: Transit-Dependent</title></path><path d="M 247.41,256.34 L 247.41,217.61 L 205.93,217.61 L 205.93,256.34 L 247.41,256.34 Z" fill="#7570b3" stroke="#ffffff" stroke-width="0.8"><title>cell 38: Transit-Dependent</title></path><path d="M 247.41,217.61 L 247.41,178.89 L 205.93,178.89 L 205.93,217.61 L 247.41,217.61 Z" fill="#7570b3" stroke="#ffffff" stroke-width="0.8"><title>cell 39: Transit-Dependent</title></path><path d="M 247.41,178.89 L 247.41,140.17 L 205.93,140.17 L 205.93,178.89 L 247.41,178.89 Z" fill="#7570b3" stroke="#ffffff" stroke-width="0.8"><title>cell 40: Transit-Dependent</title></path><path d="M 247.41,140.17 L 247.41,101.44 L 205.93,101.44 L 205.93,140.17 L 247.41,140.17 Z" fill="#7570b3" stroke="#ffffff" stroke-width="0.8"><title>cell 41: Transit-Dependent</title></path><path d="M 247.41,101.44 L 247.41,62.72 L 205.93,62.72 L 205.93,101.44 L 247.41,101.44 Z" fill="#666666" stroke="#ffffff" stroke-width="0.8"><title>cell 42: Motorcycle Lock-in</title></path><path d="M 247.41,62.72 L 247.41,24.00 L 205.93,24.00 L 205.93,62.72 L 247.41,62.72 Z" fill="#666666" stroke="#ffffff" stroke-width="0.8"><title>cell 43: Motorcycle Lock-in</title></path><path d="M 288.89,876.00 L 288.89,837.27 L 247.41,837.27 L 247.41,876.00 L 288.89,876.00 Z" fill="#d95f02" stroke="#ffffff" stroke-width="0.8"><title>cell 44: Fragmented Capability</title></path><path d="M 288.89,837.27 L 288.89,798.53 L 247.41,798.53 L 247.41,837.27 L 288.89,837.27 Z" fill="#d95f02" stroke="#ffffff" stroke-width="0.8"><title>cell 45: Fragmented Capability</title></path><path d="M 288.89,798.53 L 288.89,759.80 L 247.41,759.80 L 247.41,798.53 L 288.89,798.53 Z" fill="#666666" stroke="#ffffff" stroke-width="0.8"><title>cell 46: Motorcycle Lock-in</title></path><path d="M 288.89,759.80 L 288.89,721.07 L 247.41,721.07 L 247.41,759.80 L 288.89,759.80 Z" fill="#666666" stroke="#ffffff" stroke-width="0.8"><title>cell 47: Motorcycle Lock-in</title></path><path d="M 288.89,721.07 L 288.89,682.34 L 247.41,682.34 L 247.41,721.07 L 288.89,721.07 Z" fill="#666666" stroke="#ffffff" stroke-width="0.8"><title>cell 48: Motorcycle Lock-in</title></path><path d="M 288.89,682.34 L 288.89,643.61 L 247.41,643.61 L 247.41,682.34 L 288.89,682.34 Z" fill="#d95f02" stroke="#ffffff" stroke-width="0.8"><title>cell 49: Fragmented Capability</title></path><path d="M 288.89,643.61 L 288.89,604.88 L 247.41,604.88 L 247.41,643.61 L 288.89,643.61 Z" fill="#d95f02" stroke="#ffffff" stroke-width="0.8"><title>cell 50: Fragmented Capability</title></path><path d="M 288.89,604.88 L 288.89,566.15 L 247.41,566.15 L 247.41,604.88 L 288.89,604.88 Z" fill="#d95f02" stroke="#ffffff" stroke-width="0.8"><title>cell 51: Fragmented Capability</title></path><path d="M 288.89,566.15 L 288.89,527.42 L 247.41,527.42 L 247.41,566.15 L 288.89,566.15 Z" fill="#d95f02" stroke="#ffffff" stroke-width="0.8"><title>cell 52: Fragmented Capability</title></path><path d="M 288.89,527.42 L 288.89,488.69 L 247.41,488.69 L 247.41,527.42 L 288.89,527.42 Z" fill="#d95f02" stroke="#ffffff" stroke-width="0.8"><title>cell 53: Fragmented Capability</title></path><path d="M 288.89,488.69 L 288.89,449.97 L 247.41,449.97 L 247.41,488.69 L 288.89,488.69 Z" fill="#666666" stroke="#ffffff" stroke-width="0.8"><title>cell 54: Motorcycle Lock-in</title></path><path d="M 288.89,449.97 L 288.89,411.24 L 247.41,411.24 L 247.41,449.97 L 288.89,449.97 Z" fill="#7570b3" stroke="#ffffff" stroke-width="0.8"><title>cell 55: Transit-Dependent</title></path><path d="M 288.89,411.24 L 288.89,372.51 L 247.41,372.51 L 247.41,411.24 L 288.89,411.24 Z" fill="#666666" stroke="#ffffff" stroke-width="0.8"><title>cell 56: Motorcycle Lock-in</title></path><path d="M 288.89,372.51 L 288.89,333.79 L 247.41,333.79 L 247.41,372.51 L 288.89,372.51 Z" fill="#666666" stroke="#ffffff" stroke-width="0.8"><title>cell 57: Motorcycle Lock-in</title></path><path d="M 288.89,333.79 L 288.89,295.06 L 247.41,295.06 L 247.41,333.79 L 288.89,333.79 Z" fill="#7570b3" stroke="#ffffff" stroke-width="0.8"><title>cell 58: Transit-Dependent</title></path><path d="M 288.89,295.06 L 288.89,256.34 L 247.41,256.34 L 247.41,295.06 L 288.89,295.06 Z" fill="#7570b3" stroke="#ffffff" stroke-width="0.8"><title>cell 59: Transit-Dependent</title></path><path d="M 288.89,256.34 L 288.89,217.61 L 247.41,217.61 L 247.41,256.34 L 288.89,256.34 Z" fill="#7570b3" stroke="#ffffff" stroke-width="0.8"><title>cell 60: Transit-Dependent</title></path><path d="M 288.89,217.61 L 288.89,178.89 L 247.41,178.89 L 247.41,217.61 L 288.89,217.61 Z" fill="#1b9e77" stroke="#ffffff" stroke-width="0.8"><title>cell 61: Integrated Capability</title></path><path d="M 288.89,178.89 L 288.89,140.17 L 247.41,140.17 L 247.41,178.89 L 288.89,178.89 Z" fill="#1b9e77" stroke="#ffffff" stroke-width="0.8"><title>cell 62: Integrated Capability</title></path><path d="M 288.89,140.17 L 288.89,101.44 L 247.41,101.44 L 247.41,140.17 L 288.89,140.17 Z" fill="#1b9e77" stroke="#ffffff" stroke-width="0.8"><title>cell 63: Integrated Capability</title></path><path d="M 288.89,101.44 L 288.89,62.72 L 247.41,62.72 L 247.41,101.44 L 288.89,101.44 Z" fill="#d95f02" stroke="#ffffff" stroke-width="0.8"><title>cell 64: Fragmented Capability</title></path><path d="M 288.89,62.72 L 288.89,24.00 L 247.41,24.00 L 247.41,62.72 L 288.89,62.72 Z" fill="#666666" stroke="#ffffff" stroke-width="0.8"><title>cell 65: Motorcycle Lock-in</title></path><path d="M 330.38,876.00 L 330.38,837.27 L 288.89,837.27 L 288.89,876.00 L 330.38,876.00 Z" fill="#d95f02" stroke="#ffffff" stroke-width="0.8"><title>cell 66: Fragmented Capability</title></path><path d="M 330.38,837.27 L 330.38,798.53 L 288.89,798.53 L 288.89,837.27 L 330.38,837.27 Z" fill="#d95f02" stroke="#ffffff" stroke-width="0.8"><title>cell 67: Fragmented Capability</title></path><path d="M 330.38,798.53 L 330.38,759.80 L 288.89,759.80 L 288.89,798.53 L 330.38,798.53 Z" fill="#666666" stroke="#ffffff" stroke-width="0.8"><title>cell 68: Motorcycle Lock-in</title></path><path d="M 330.38,759.80 L 330.38,721.07 L 288.89,721.07 L 288.89,759.80 L 330.38,759.80 Z" fill="#666666" stroke="#ffffff" stroke-width="0.8"><title>cell 69: Motorcycle Lock-in</title></path><path d="M 330.38,721.07 L 330.38,682.34 L 288.89,682.34 L 288.89,721.07 L 330.38,721.07 Z" fill="#666666" stroke="#ffffff" stroke-width="0.8"><title>cell 70: Motorcycle Lock-in</title></path><path d="M 330.38,682.34 L 330.38,643.61 L 288.89,643.61 L 288.89,682.34 L 330.38,682.34 Z" fill="#d95f02" stroke="#ffffff" stroke-width="0.8"><title>cell 71: Fragmented Capability</title></path><path d="M 330.38,643.61 L 330.38,604.88 L 288.89,604.88 L 288.89,643.61 L 330.38,643.61 Z" fill="#d95f02" stroke="#ffffff" stroke-width="0.8"><title>cell 72: Fragmented Capability</title></path><path d="M 330.38,604.88 L 330.38,566.15 L 288.89,566.15 L 288.89,604.88 L 330.38,604.88 Z" fill="#d95f02" stroke="#ffffff" stroke-width="0.8"><title>cell 73: Fragmented Capability</title></path><path d="M 330.38,566.15 L 330.38,527.42 L 288.89,527.42 L 288.89,566.15 L 330.38,566.15 Z" fill="#d95f02" stroke="#ffffff" stroke-width="0.8"><title>cell 74: Fragmented Capability</title></path><path d="M 330.38,527.42 L 330.38,488.69 L 288.89,488.69 L 288.89,527.42 L 330.38,527.42 Z" fill="#d95f02" stroke="#ffffff" stroke-width="0.8"><title>cell 75: Fragmented Capability</title></path><path d="M 330.38,488.69 L 330.38,449.97 L 288.89,449.97 L 288.89,488.69 L 330.38,488.69 Z" fill="#666666" stroke="#ffffff" stroke-width="0.8"><title>cell 76: Motorcycle Lock-in</title></path><path d="M 330.38,449.97 L 330.38,411.24 L 288.89,411.24 L 288.89,449.97 L 330.38,449.97 Z" fill="#7570b3" stroke="#ffffff" stroke-width="0.8"><title>cell 77: Transit-Dependent</title></path><path d="M 330.38,411.24 L 330.38,372.51 L 288.89,372.51 L 288.89,411.24 L 330.38,411.24 Z" fill="#666666" stroke="#ffffff" stroke-width="0.8"><title>cell 78: Motorcycle Lock-in</title></path><path d="M 330.38,372.51 L 330.38,333.79 L 288.89,333.79 L 288.89,372.51 L 330.38,372.51 Z" fill="#666666" stroke="#ffffff" stroke-width="0.8"><title>cell 79: Motorcycle Lock-in</title></path><path d="M 330.38,333.79 L 330.38,295.06 L 288.89,295.06 L 288.89,333.79 L 330.38,333.79 Z" fill="#1b9e77" stroke="#ffffff" stroke-width="0.8"><title>cell 80: Integrated Capability</title></path><path d="M 330.38,295.06 L 330.38,256.34 L 288.89,256.34 L 288.89,295.06 L 330.38,295.06 Z" fill="#1b9e77" stroke="#ffffff" stroke-width="0.8"><title>cell 81: Integrated Capability</title></path><path d="M 330.38,256.34 L 330.38,217.61 L 288.89,217.61 L 288.89,256.34 L 330.38,256.34 Z" fill="#1b9e77" stroke="#ffffff" stroke-width="0.8"><title>cell 82: Integrated Capability</title></path><path d="M 330.38,217.61 L 330.38,178.89 L 288.89,178.89 L 288.89,217.61 L 330.38,217.61 Z" fill="#1b9e77" stroke="#ffffff" stroke-width="0.8"><title>cell 83: Integrated Capability</title></path><path d="M 330.38,178.89 L 330.38,140.17 L 288.89,140.17 L 288.89,178.89 L 330.38,178.89 Z" fill="#7570b3" stroke="#ffffff" stroke-width="0.8"><title>cell 84: Transit-Dependent</title></path><path d="M 330.38,140.17 L 330.38,101.44 L 288.89,101.44 L 288.89,140.17 L 330.38,140.17 Z" fill="#1b9e77" stroke="#ffffff" stroke-width="0.8"><title>cell 85: Integrated Capability</title></path><path d="M 330.38,101.44 L 330.38,62.72 L 288.89,62.72 L 288.89,101.44 L 330.38,101.44 Z" fill="#1b9e77" stroke="#ffffff" stroke-width="0.8"><title>cell 86: Integrated Capability</title></path><path d="M 330.38,62.72 L 330.38,24.00 L 288.89,24.00 L 288.89,62.72 L 330.38,62.72 Z" fill="#1b9e77" stroke="#ffffff" stroke-width="0.8"><title>cell 87: Integrated Capability</title></path><path d="M 371.86,876.00 L 371.86,837.27 L 330.38,837.27 L 330.38,876.00 L 371.86,876.00 Z" fill="#666666" stroke="#ffffff" stroke-width="0.8"><title>cell 88: Motorcycle Lock-in</title></path><path d="M 371.86,837.27 L 371.86,798.53 L 330.38,798.53 L 330.38,837.27 L 371.86,837.27 Z" fill="#d95f02" stroke="#ffffff" stroke-width="0.8"><title>cell 89: Fragmented Capability</title></path><path d="M 371.86,798.53 L 371.86,759.80 L 330.38,759.80 L 330.38,798.53 L 371.86,798.53 Z" fill="#666666" stroke="#ffffff" stroke-width="0.8"><title>cell 90: Motorcycle Lock-in</title></path><path d="M 371.86,759.80 L 371.86,721.07 L 330.38,721.07 L 330.38,759.80 L 371.86,759.80 Z" fill="#666666" stroke="#ffffff" stroke-width="0.8"><title>cell 91: Motorcycle Lock-in</title></path><path d="M 371.86,721.07 L 371.86,682.34 L 330.38,682.34 L 330.38,721.07 L 371.86,721.07 Z" fill="#666666" stroke="#ffffff" stroke-width="0.8"><title>cell 92: Motorcycle Lock-in</title></path><path d="M 371.86,682.34 L 371.86,643.61 L 330.38,643.61 L 330.38,682.34 L 371.86,682.34 Z" fill="#d95f02" stroke="#ffffff" stroke-width="0.8"><title>cell 93: Fragmented Capability</title></path><path d="M 371.86,643.61 L 371.86,604.88 L 330.38,604.88 L 330.38,643.61 L 371.86,643.61 Z" fill="#d95f02" stroke="#ffffff" stroke-width="0.8"><title>cell 94: Fragmented Capability</title></path><path d="M 371.86,604.88 L 371.86,566.15 L 330.38,566.15 L 330.38,604.88 L 371.86,604.88 Z" fill="#d95f02" stroke="#ffffff" stroke-width="0.8"><title>cell 95: Fragmented Capability</title></path><path d="M 371.86,566.15 L 371.86,527.42 L 330.38,527.42 L 330.38,566.15 L 371.86,566.15 Z" fill="#d95f02" stroke="#ffffff" stroke-width="0.8"><title>cell 96: Fragmented Capability</title></path><path d="M 371.86,527.42 L 371.86,488.69 L 330.38,488.69 L 330.38,527.42 L 371.86,527.42 Z" fill="#d95f02" stroke="#ffffff" stroke-width="0.8"><title>cell 97: Fragmented Capability</title></path><path d="M 371.86,488.69 L 371.86,449.97 L 330.38,449.97 L 330.38,488.69 L 371.86,488.69 Z" fill="#7570b3" stroke="#ffffff" stroke-width="0.8"><title>cell 98: Transit-Dependent</title></path><path d="M 371.86,449.97 L 371.86,411.24 L 330.38,411.24 L 330.38,449.97 L 371.86,449.97 Z" fill="#7570b3" stroke="#ffffff" stroke-width="0.8"><title>cell 99: Transit-Dependent</title></path><path d="M 371.86,411.24 L 371.86,372.51 L 330.38,372.51 L 330.38,411.24 L 371.86,411.24 Z" fill="#7570b3" stroke="#ffffff" stroke-width="0.8"><title>cell 100: Transit-Dependent</title></path><path d="M 371.86,372.51 L 371.86,333.79 L 330.38,333.79 L 330.38,372.51 L 371.86,372.51 Z" fill="#7570b3" stroke="#ffffff" stroke-width="0.8"><title>cell 101: Transit-Dependent</title></path><path d="M 371.86,333.79 L 371.86,295.06 L 330.38,295.06 L 330.38,333.79 L 371.86,333.79 Z" fill="#1b9e77" stroke="#ffffff" stroke-width="0.8"><title>cell 102: Integrated Capability</title></path><path d="M 371.86,295.06 L 371.86,256.34 L 330.38,256.34 L 330.38,295.06 L 371.86,295.06 Z" fill="#1b9e77" stroke="#ffffff" stroke-width="0.8"><title>cell 103: Integrated Capability</title></path><path d="M 371.86,256.34 L 371.86,217.61 L 330.38,217.61 L 330.38,256.34 L 371.86,256.34 Z" fill="#1b9e77" stroke="#ffffff" stroke-width="0.8"><title>cell 104: Integrated Capability</title></path><path d="M 371.86,217.61 L 371.86,178.89 L 330.38,178.89 L 330.38,217.61 L 371.86,217.61 Z" fill="#1b9e77" stroke="#ffffff" stroke-width="0.8"><title>cell 105: Integrated Capability</title></path><path d="M 371.86,178.89 L 371.86,140.17 L 330.38,140.17 L 330.38,178.89 L 371.86,178.89 Z" fill="#1b9e77" stroke="#ffffff" stroke-width="0.8"><title>cell 106: Integrated Capability</title></path><path d="M 371.86,140.17 L 371.86,101.44 L 330.38,101.44 L 330.38,140.17 L 371.86,140.17 Z" fill="#1b9e77" stroke="#ffffff" stroke-width="0.8"><title>cell 107: Integrated Capability</title></path><path d="M 371.86,101.44 L 371.86,62.72 L 330.38,62.72 L 330.38,101.44 L 371.86,101.44 Z" fill="#1b9e77" stroke="#ffffff" stroke-width="0.8"><title>cell 108: Integrated Capability</title></path><path d="M 371.86,62.72 L 371.86,24.00 L 330.38,24.00 L 330.38,62.72 L 371.86,62.72 Z" fill="#1b9e77" stroke="#ffffff" stroke-width="0.8"><title>cell 109: Integrated Capability</title></path><path d="M 413.34,876.00 L 413.34,837.27 L 371.86,837.27 L 371.86,876.00 L 413.34,876.00 Z" fill="#d95f02" stroke="#ffffff" stroke-width="0.8"><title>cell 110: Fragmented Capability</title></path><path d="M 413.34,837.27 L 413.34,798.53 L 371.86,798.53 L 371.86,837.27 L 413.34,837.27 Z" fill="#666666" stroke="#ffffff" stroke-width="0.8"><title>cell 111: Motorcycle Lock-in</title></path><path d="M 413.34,798.53 L 413.34,759.80 L 371.86,759.80 L 371.86,798.53 L 413.34,798.53 Z" fill="#666666" stroke="#ffffff" stroke-width="0.8"><title>cell 112: Motorcycle Lock-in</title></path><path d="M 413.34,759.80 L 413.34,721.07 L 371.86,721.07 L 371.86,759.80 L 413.34,759.80 Z" fill="#666666" stroke="#ffffff" stroke-width="0.8"><title>cell 113: Motorcycle Lock-in</title></path><path d="M 413.34,721.07 L 413.34,682.34 L 371.86,682.34 L 371.86,721.07 L 413.34,721.07 Z" fill="#666666" stroke="#ffffff" stroke-width="0.8"><title>cell 114: Motorcycle Lock-in</title></path><path d="M 413.34,682.34 L 413.34,643.61 L 371.86,643.61 L 371.86,682.34 L 413.34,682.34 Z" fill="#666666" stroke="#ffffff" stroke-width="0.8"><title>cell 115: Motorcycle Lock-in</title></path><path d="M 413.34,643.61 L 413.34,604.88 L 371.86,604.88 L 371.86,643.61 L 413.34,643.61 Z" fill="#d95f02" stroke="#ffffff" stroke-width="0.8"><title>cell 116: Fragmented Capability</title></path><path d="M 413.34,604.88 L 413.34,566.15 L 371.86,566.15 L 371.86,604.88 L 413.34,604.88 Z" fill="#d95f02" stroke="#ffffff" stroke-width="0.8"><title>cell 117: Fragmented Capability</title></path><path d="M 413.34,566.15 L 413.34,527.42 L 371.86,527.42 L 371.86,566.15 L 413.34,566.15 Z" fill="#d95f02" stroke="#ffffff" stroke-width="0.8"><title>cell 118: Fragmented Capability</title></path><path d="M 413.34,527.42 L 413.34,488.69 L 371.86,488.69 L 371.86,527.42 L 413.34,527.42 Z" fill="#d95f02" stroke="#ffffff" stroke-width="0.8"><title>cell 119: Fragmented Capability</title></path><path d="M 413.34,488.69 L 413.34,449.97 L 371.86,449.97 L 371.86,488.69 L 413.34,488.69 Z" fill="#7570b3" stroke="#ffffff" stroke-width="0.8"><title>cell 120: Transit-Dependent</title></path><path d="M 413.34,449.97 L 413.34,411.24 L 371.86,411.24 L 371.86,449.97 L 413.34,449.97 Z" fill="#7570b3" stroke="#ffffff" stroke-width="0.8"><title>cell 121: Transit-Dependent</title></path><path d="M 413.34,411.24 L 413.34,372.51 L 371.86,372.51 L 371.86,411.24 L 413.34,411.24 Z" fill="#1b9e77" stroke="#ffffff" stroke-width="0.8"><title>cell 122: Integrated Capability</title></path><path d="M 413.34,372.51 L 413.34,333.79 L 371.86,333.79 L 371.86,372.51 L 413.34,372.51 Z" fill="#1b9e77" stroke="#ffffff" stroke-width="0.8"><title>cell 123: Integrated Capability</title></path><path d="M 413.34,333.79 L 413.34,295.06 L 371.86,295.06 L 371.86,333.79 L 413.34,333.79 Z" fill="#1b9e77" stroke="#ffffff" stroke-width="0.8"><title>cell 124: Integrated Capability</title></path><path d="M 413.34,295.06 L 413.34,256.34 L 371.86,256.34 L 371.86,295.06 L 413.34,295.06 Z" fill="#1b9e77" stroke="#ffffff" stroke-width="0.8"><title>cell 125: Integrated Capability</title></path><path d="M 413.34,256.34 L 413.34,217.61 L 371.86,217.61 L 371.86,256.34 L 413.34,256.34 Z" fill="#1b9e77" stroke="#ffffff" stroke-width="0.8"><title>cell 126: Integrated Capability</title></path><path d="M 413.34,217.61 L 413.34,178.89 L 371.86,178.89 L 371.86,217.61 L 413.34,217.61 Z" fill="#1b9e77" stroke="#ffffff" stroke-width="0.8"><title>cell 127: Integrated Capability</title></path><path d="M 413.34,178.89 L 413.34,140.17 L 371.86,140.17 L 371.86,178.89 L 413.34,178.89 Z" fill="#1b9e77" stroke="#ffffff" stroke-width="0.8"><title>cell 128: Integrated Capability</title></path><path d="M 413.34,140.17 L 413.34,101.44 L 371.86,101.44 L 371.86,140.17 L 413.34,140.17 Z" fill="#1b9e77" stroke="#ffffff" stroke-width="0.8"><title>cell 129: Integrated Capability</title></path><path d="M 413.34,101.44 L 413.34,62.72 L 371.86,62.72 L 371.86,101.44 L 413.34,101.44 Z" fill="#1b9e77" stroke="#ffffff" stroke-width="0.8"><title>cell 130: Integrated Capability</title></path><path d="M 413.34,62.72 L 413.34,24.00 L 371.86,24.00 L 371.86,62.72 L 413.34,62.72 Z" fill="#1b9e77" stroke="#ffffff" stroke-width="0.8"><title>cell 131: Integrated Capability</title></path><path d="M 454.82,876.00 L 454.82,837.27 L 413.34,837.27 L 413.34,876.00 L 454.82,876.00 Z" fill="#666666" stroke="#ffffff" stroke-width="0.8"><title>cell 132: Motorcycle Lock-in</title></path><path d="M 454.82,837.27 L 454.82,798.53 L 413.34,798.53 L 413.34,837.27 L 454.82,837.27 Z" fill="#666666" stroke="#ffffff" stroke-width="0.8"><title>cell 133: Motorcycle Lock-in</title></path><path d="M 454.82,798.53 L 454.82,759.80 L 413.34,759.80 L 413.34,798.53 L 454.82,798.53 Z" fill="#666666" stroke="#ffffff" stroke-width="0.8"><title>cell 134: Motorcycle Lock-in</title></path><path d="M 454.82,759.80 L 454.82,721.07 L 413.34,721.07 L 413.34,759.80 L 454.82,759.80 Z" fill="#666666" stroke="#ffffff" stroke-width="0.8"><title>cell 135: Motorcycle Lock-in</title></path><path d="M 454.82,721.07 L 454.82,682.34 L 413.34,682.34 L 413.34,721.07 L 454.82,721.07 Z" fill="#666666" stroke="#ffffff" stroke-width="0.8"><title>cell 136: Motorcycle Lock-in</title></path><path d="M 454.82,682.34 L 454.82,643.61 L 413.34,643.61 L 413.34,682.34 L 454.82,682.34 Z" fill="#666666" stroke="#ffffff" stroke-width="0.8"><title>cell 137: Motorcycle Lock-in</title></path><path d="M 454.82,643.61 L 454.82,604.88 L 413.34,604.88 L 413.34,643.61 L 454.82,643.61 Z" fill="#d95f02" stroke="#ffffff" stroke-width="0.8"><title>cell 138: Fragmented Capability</title></path><path d="M 454.82,604.88 L 454.82,566.15 L 413.34,566.15 L 413.34,604.88 L 454.82,604.88 Z" fill="#666666" stroke="#ffffff" stroke-width="0.8"><title>cell 139: Motorcycle Lock-in</title></path><path d="M 454.82,566.15 L 454.82,527.42 L 413.34,527.42 L 413.34,566.15 L 454.82,566.15 Z" fill="#d95f02" stroke="#ffffff" stroke-width="0.8"><title>cell 140: Fragmented Capability</title></path><path d="M 454.82,527.42 L 454.82,488.69 L 413.34,488.69 L 413.34,527.42 L 454.82,527.42 Z" fill="#666666" stroke="#ffffff" stroke-width="0.8"><title>cell 141: Motorcycle Lock-in</title></path><path d="M 454.82,488.69 L 454.82,449.97 L 413.34,449.97 L 413.34,488.69 L 454.82,488.69 Z" fill="#1b9e77" stroke="#ffffff" stroke-width="0.8"><title>cell 142: Integrated Capability</title></path><path d="M 454.82,449.97 L 454.82,411.24 L 413.34,411.24 L 413.34,449.97 L 454.82,449.97 Z" fill="#1b9e77" stroke="#ffffff" stroke-width="0.8"><title>cell 143: Integrated Capability</title></path><path d="M 454.82,411.24 L 454.82,372.51 L 413.34,372.51 L 413.34,411.24 L 454.82,411.24 Z" fill="#1b9e77" stroke="#ffffff" stroke-width="0.8"><title>cell 144: Integrated Capability</title></path><path d="M 454.82,372.51 L 454.82,333.79 L 413.34,333.79 L 413.34,372.51 L 454.82,372.51 Z" fill="#7570b3" stroke="#ffffff" stroke-width="0.8"><title>cell 145: Transit-Dependent</title></path><path d="M 454.82,333.79 L 454.82,295.06 L 413.34,295.06 L 413.34,333.79 L 454.82,333.79 Z" fill="#1b9e77" stroke="#ffffff" stroke-width="0.8"><title>cell 146: Integrated Capability</title></path><path d="M 454.82,295.06 L 454.82,256.34 L 413.34,256.34 L 413.34,295.06 L 454.82,295.06 Z" fill="#1b9e77" stroke="#ffffff" stroke-width="0.8"><title>cell 147: Integrated Capability</title></path><path d="M 454.82,256.34 L 454.82,217.61 L 413.34,217.61 L 413.34,256.34 L 454.82,256.34 Z" fill="#1b9e77" stroke="#ffffff" stroke-width="0.8"><title>cell 148: Integrated Capability</title></path><path d="M 454.82,217.61 L 454.82,178.89 L 413.34,178.89 L 413.34,217.61 L 454.82,217.61 Z" fill="#1b9e77" stroke="#ffffff" stroke-width="0.8"><title>cell 149: Integrated Capability</title></path><path d="M 454.82,178.89 L 454.82,140.17 L 413.34,140.17 L 413.34,178.89 L 454.82,178.89 Z" fill="#1b9e77" stroke="#ffffff" stroke-width="0.8"><title>cell 150: Integrated Capability</title></path><path d="M 454.82,140.17 L 454.82,101.44 L 413.34,101.44 L 413.34,140.17 L 454.82,140.17 Z" fill="#1b9e77" stroke="#ffffff" stroke-width="0.8"><title>cell 151: Integrated Capability</title></path><path d="M 454.82,101.44 L 454.82,62.72 L 413.34,62.72 L 413.34,101.44 L 454.82,101.44 Z" fill="#1b9e77" stroke="#ffffff" stroke-width="0.8"><title>cell 152: Integrated Capability</title></path><path d="M 454.82,62.72 L 454.82,24.00 L 413.34,24.00 L 413.34,62.72 L 454.82,62.72 Z" fill="#1b9e77" stroke="#ffffff" stroke-width="0.8"><title>cell 153: Integrated Capability</title></path><path d="M 496.30,876.00 L 496.30,837.27 L 454.82,837.27 L 454.82,876.00 L 496.30,876.00 Z" fill="#666666" stroke="#ffffff" stroke-width="0.8"><title>cell 154: Motorcycle Lock-in</title></path><path d="M 496.30,837.27 L 496.30,798.53 L 454.82,798.53 L 454.82,837.27 L 496.30,837.27 Z" fill="#666666" stroke="#ffffff" stroke-width="0.8"><title>cell 155: Motorcycle Lock-in</title></path><path d="M 496.30,798.53 L 496.30,759.80 L 454.82,759.80 L 454.82,798.53 L 496.30,798.53 Z" fill="#666666" stroke="#ffffff" stroke-width="0.8"><title>cell 156: Motorcycle Lock-in</title></path><path d="M 496.30,759.80 L 496.30,721.07 L 454.82,721.07 L 454.82,759.80 L 496.30,759.80 Z" fill="#666666" stroke="#ffffff" stroke-width="0.8"><title>cell 157: Motorcycle Lock-in</title></path><path d="M 496.30,721.07 L 496.30,682.34 L 454.82,682.34 L 454.82,721.07 L 496.30,721.07 Z" fill="#666666" stroke="#ffffff" stroke-width="0.8"><title>cell 158: Motorcycle Lock-in</title></path><path d="M 496.30,682.34 L 496.30,643.61 L 454.82,643.61 L 454.82,682.34 L 496.30,682.34 Z" fill="#666666" stroke="#ffffff" stroke-width="0.8"><title>cell 159: Motorcycle Lock-in</title></path><path d="M 496.30,643.61 L 496.30,604.88 L 454.82,604.88 L 454.82,643.61 L 496.30,643.61 Z" fill="#666666" stroke="#ffffff" stroke-width="0.8"><title>cell 160: Motorcycle Lock-in</title></path><path d="M 496.30,604.88 L 496.30,566.15 L 454.82,566.15 L 454.82,604.88 L 496.30,604.88 Z" fill="#666666" stroke="#ffffff" stroke-width="0.8"><title>cell 161: Motorcycle Lock-in</title></path><path d="M 496.30,566.15 L 496.30,527.42 L 454.82,527.42 L 454.82,566.15 L 496.30,566.15 Z" fill="#7570b3" stroke="#ffffff" stroke-width="0.8"><title>cell 162: Transit-Dependent</title></path><path d="M 496.30,527.42 L 496.30,488.69 L 454.82,488.69 L 454.82,527.42 L 496.30,527.42 Z" fill="#1b9e77" stroke="#ffffff" stroke-width="0.8"><title>cell 163: Integrated Capability</title></path><path d="M 496.30,488.69 L 496.30,449.97 L 454.82,449.97 L 454.82,488.69 L 496.30,488.69 Z" fill="#1b9e77" stroke="#ffffff" stroke-width="0.8"><title>cell 164: Integrated Capability</title></path><path d="M 496.30,449.97 L 496.30,411.24 L 454.82,411.24 L 454.82,449.97 L 496.30,449.97 Z" fill="#1b9e77" stroke="#ffffff" stroke-width="0.8"><title>cell 165: Integrated Capability</title></path><path d="M 496.30,411.24 L 496.30,372.51 L 454.82,372.51 L 454.82,411.24 L 496.30,411.24 Z" fill="#1b9e77" stroke="#ffffff" stroke-width="0.8"><title>cell 166: Integrated Capability</title></path><path d="M 496.30,372.51 L 496.30,333.79 L 454.82,333.79 L 454.82,372.51 L 496.30,372.51 Z" fill="#1b9e77" stroke="#ffffff" stroke-width="0.8"><title>cell 167: Integrated Capability</title></path><path d="M 496.30,333.79 L 496.30,295.06 L 454.82,295.06 L 454.82,333.79 L 496.30,333.79 Z" fill="#1b9e77" stroke="#ffffff" stroke-width="0.8"><title>cell 168: Integrated Capability</title></path><path d="M 496.30,295.06 L 496.30,256.34 L 454.82,256.34 L 454.82,295.06 L 496.30,295.06 Z" fill="#1b9e77" stroke="#ffffff" stroke-width="0.8"><title>cell 169: Integrated Capability</title></path><path d="M 496.30,256.34 L 496.30,217.61 L 454.82,217.61 L 454.82,256.34 L 496.30,256.34 Z" fill="#1b9e77" stroke="#ffffff" stroke-width="0.8"><title>cell 170: Integrated Capability</title></path><path d="M 496.30,217.61 L 496.30,178.89 L 454.82,178.89 L 454.82,217.61 L 496.30,217.61 Z" fill="#1b9e77" stroke="#ffffff" stroke-width="0.8"><title>cell 171: Integrated Capability</title></path><path d="M 496.30,178.89 L 496.30,140.17 L 454.82,140.17 L 454.82,178.89 L 496.30,178.89 Z" fill="#1b9e77" stroke="#ffffff" stroke-width="0.8"><title>cell 172: Integrated Capability</title></path><path d="M 496.30,140.17 L 496.30,101.44 L 454.82,101.44 L 454.82,140.17 L 496.30,140.17 Z" fill="#1b9e77" stroke="#ffffff" stroke-width="0.8"><title>cell 173: Integrated Capability</title></path><path d="M 496.30,101.44 L 496.30,62.72 L 454.82,62.72 L 454.82,101.44 L 496.30,101.44 Z" fill="#1b9e77" stroke="#ffffff" stroke-width="0.8"><title>cell 174: Integrated Capability</title></path><path d="M 496.30,62.72 L 496.30,24.00 L 454.82,24.00 L 454.82,62.72 L 496.30,62.72 Z" fill="#1b9e77" stroke="#ffffff" stroke-width="0.8"><title>cell 175: Integrated Capability</title></path><path d="M 537.78,876.00 L 537.78,837.27 L 496.30,837.27 L 496.30,876.00 L 537.78,876.00 Z" fill="#666666" stroke="#ffffff" stroke-width="0.8"><title>cell 176: Motorcycle Lock-in</title></path><path d="M 537.78,837.27 L 537.78,798.53 L 496.30,798.53 L 496.30,837.27 L 537.78,837.27 Z" fill="#666666" stroke="#ffffff" stroke-width="0.8"><title>cell 177: Motorcycle Lock-in</title></path><path d="M 537.78,798.53 L 537.78,759.80 L 496.30,759.80 L 496.30,798.53 L 537.78,798.53 Z" fill="#666666" stroke="#ffffff" stroke-width="0.8"><title>cell 178: Motorcycle Lock-in</title></path><path d="M 537.78,759.80 L 537.78,721.07 L 496.30,721.07 L 496.30,759.80 L 537.78,759.80 Z" fill="#666666" stroke="#ffffff" stroke-width="0.8"><title>cell 179: Motorcycle Lock-in</title></path><path d="M 537.78,721.07 L 537.78,682.34 L 496.30,682.34 L 496.30,721.07 L 537.78,721.07 Z" fill="#666666" stroke="#ffffff" stroke-width="0.8"><title>cell 180: Motorcycle Lock-in</title></path><path d="M 537.78,682.34 L 537.78,643.61 L 496.30,643.61 L 496.30,682.34 L 537.78,682.34 Z" fill="#666666" stroke="#ffffff" stroke-width="0.8"><title>cell 181: Motorcycle Lock-in</title></path><path d="M 537.78,643.61 L 537.78,604.88 L 496.30,604.88 L 496.30,643.61 L 537.78,643.61 Z" fill="#666666" stroke="#ffffff" stroke-width="0.8"><title>cell 182: Motorcycle Lock-in</title></path><path d="M 537.78,604.88 L 537.78,566.15 L 496.30,566.15 L 496.30,604.88 L 537.78,604.88 Z" fill="#1b9e77" stroke="#ffffff" stroke-width="0.8"><title>cell 183: Integrated Capability</title></path><path d="M 537.78,566.15 L 537.78,527.42 L 496.30,527.42 L 496.30,566.15 L 537.78,566.15 Z" fill="#1b9e77" stroke="#ffffff" stroke-width="0.8"><title>cell 184: Integrated Capability</title></path><path d="M 537.78,527.42 L 537.78,488.69 L 496.30,488.69 L 496.30,527.42 L 537.78,527.42 Z" fill="#1b9e77" stroke="#ffffff" stroke-width="0.8"><title>cell 185: Integrated Capability</title></path><path d="M 537.78,488.69 L 537.78,449.97 L 496.30,449.97 L 496.30,488.69 L 537.78,488.69 Z" fill="#1b9e77" stroke="#ffffff" stroke-width="0.8"><title>cell 186: Integrated Capability</title></path><path d="M 537.78,449.97 L 537.78,411.24 L 496.30,411.24 L 496.30,449.97 L 537.78,449.97 Z" fill="#1b9e77" stroke="#ffffff" stroke-width="0.8"><title>cell 187: Integrated Capability</title></path><path d="M 537.78,411.24 L 537.78,372.51 L 496.30,372.51 L 496.30,411.24 L 537.78,411.24 Z" fill="#1b9e77" stroke="#ffffff" stroke-width="0.8"><title>cell 188: Integrated Capability</title></path><path d="M 537.78,372.51 L 537.78,333.79 L 496.30,333.79 L 496.30,372.51 L 537.78,372.51 Z" fill="#1b9e77" stroke="#ffffff" stroke-width="0.8"><title>cell 189: Integrated Capability</title></path><path d="M 537.78,333.79 L 537.78,295.06 L 496.30,295.06 L 496.30,333.79 L 537.78,333.79 Z" fill="#1b9e77" stroke="#ffffff" stroke-width="0.8"><title>cell 190: Integrated Capability</title></path><path d="M 537.78,295.06 L 537.78,256.34 L 496.30,256.34 L 496.30,295.06 L 537.78,295.06 Z" fill="#1b9e77" stroke="#ffffff" stroke-width="0.8"><title>cell 191: Integrated Capability</title></path><path d="M 537.78,256.34 L 537.78,217.61 L 496.30,217.61 L 496.30,256.34 L 537.78,256.34 Z" fill="#7570b3" stroke="#ffffff" stroke-width="0.8"><title>cell 192: Transit-Dependent</title></path><path d="M 537.78,217.61 L 537.78,178.89 L 496.30,178.89 L 496.30,217.61 L 537.78,217.61 Z" fill="#1b9e77" stroke="#ffffff" stroke-width="0.8"><title>cell 193: Integrated Capability</title></path><path d="M 537.78,178.89 L 537.78,140.17 L 496.30,140.17 L 496.30,178.89 L 537.78,178.89 Z" fill="#1b9e77" stroke="#ffffff" stroke-width="0.8"><title>cell 194: Integrated Capability</title></path><path d="M 537.78,140.17 L 537.78,101.44 L 496.30,101.44 L 496.30,140.17 L 537.78,140.17 Z" fill="#1b9e77" stroke="#ffffff" stroke-width="0.8"><title>cell 195: Integrated Capability</title></path><path d="M 537.78,101.44 L 537.78,62.72 L 496.30,62.72 L 496.30,101.44 L 537.78,101.44 Z" fill="#1b9e77" stroke="#ffffff" stroke-width="0.8"><title>cell 196: Integrated Capability</title></path><path d="M 537.78,62.72 L 537.78,24.00 L 496.30,24.00 L 496.30,62.72 L 537.78,62.72 Z" fill="#1b9e77" stroke="#ffffff" stroke-width="0.8"><title>cell 197: Integrated Capability</title></path><path d="M 579.26,876.00 L 579.26,837.27 L 537.78,837.27 L 537.78,876.00 L 579.26,876.00 Z" fill="#666666" stroke="#ffffff" stroke-width="0.8"><title>cell 198: Motorcycle Lock-in</title></path><path d="M 579.26,837.27 L 579.26,798.53 L 537.78,798.53 L 537.78,837.27 L 579.26,837.27 Z" fill="#666666" stroke="#ffffff" stroke-width="0.8"><title>cell 199: Motorcycle Lock-in</title></path><path d="M 579.26,798.53 L 579.26,759.80 L 537.78,759.80 L 537.78,798.53 L 579.26,798.53 Z" fill="#666666" stroke="#ffffff" stroke-width="0.8"><title>cell 200: Motorcycle Lock-in</title></path><path d="M 579.26,759.80 L 579.26,721.07 L 537.78,721.07 L 537.78,759.80 L 579.26,759.80 Z" fill="#666666" stroke="#ffffff" stroke-width="0.8"><title>cell 201: Motorcycle Lock-in</title></path><path d="M 579.26,721.07 L 579.26,682.34 L 537.78,682.34 L 537.78,721.07 L 579.26,721.07 Z" fill="#666666" stroke="#ffffff" stroke-width="0.8"><title>cell 202: Motorcycle Lock-in</title></path><path d="M 579.26,682.34 L 579.26,643.61 L 537.78,643.61 L 537.78,682.34 L 579.26,682.34 Z" fill="#666666" stroke="#ffffff" stroke-width="0.8"><title>cell 203: Motorcycle Lock-in</title></path><path d="M 579.26,643.61 L 579.26,604.88 L 537.78,604.88 L 537.78,643.61 L 579.26,643.61 Z" fill="#666666" stroke="#ffffff" stroke-width="0.8"><title>cell 204: Motorcycle Lock-in</title></path><path d="M 579.26,604.88 L 579.26,566.15 L 537.78,566.15 L 537.78,604.88 L 579.26,604.88 Z" fill="#1b9e77" stroke="#ffffff" stroke-width="0.8"><title>cell 205: Integrated Capability</title></path><path d="M 579.26,566.15 L 579.26,527.42 L 537.78,527.42 L 537.78,566.15 L 579.26,566.15 Z" fill="#1b9e77" stroke="#ffffff" stroke-width="0.8"><title>cell 206: Integrated Capability</title></path><path d="M 579.26,527.42 L 579.26,488.69 L 537.78,488.69 L 537.78,527.42 L 579.26,527.42 Z" fill="#1b9e77" stroke="#ffffff" stroke-width="0.8"><title>cell 207: Integrated Capability</title></path><path d="M 579.26,488.69 L 579.26,449.97 L 537.78,449.97 L 537.78,488.69 L 579.26,488.69 Z" fill="#1b9e77" stroke="#ffffff" stroke-width="0.8"><title>cell 208: Integrated Capability</title></path><path d="M 579.26,449.97 L 579.26,411.24 L 537.78,411.24 L 537.78,449.97 L 579.26,449.97 Z" fill="#1b9e77" stroke="#ffffff" stroke-width="0.8"><title>cell 209: Integrated Capability</title></path><path d="M 579.26,411.24 L 579.26,372.51 L 537.78,372.51 L 537.78,411.24 L 579.26,411.24 Z" fill="#1b9e77" stroke="#ffffff" stroke-width="0.8"><title>cell 210: Integrated Capability</title></path><path d="M 579.26,372.51 L 579.26,333.79 L 537.78,333.79 L 537.78,372.51 L 579.26,372.51 Z" fill="#1b9e77" stroke="#ffffff" stroke-width="0.8"><title>cell 211: Integrated Capability</title></path><path d="M 579.26,333.79 L 579.26,295.06 L 537.78,295.06 L 537.78,333.79 L 579.26,333.79 Z" fill="#1b9e77" stroke="#ffffff" stroke-width="0.8"><title>cell 212: Integrated Capability</title></path><path d="M 579.26,295.06 L 579.26,256.34 L 537.78,256.34 L 537.78,295.06 L 579.26,295.06 Z" fill="#1b9e77" stroke="#ffffff" stroke-width="0.8"><title>cell 213: Integrated Capability</title></path><path d="M 579.26,256.34 L 579.26,217.61 L 537.78,217.61 L 537.78,256.34 L 579.26,256.34 Z" fill="#1b9e77" stroke="#ffffff" stroke-width="0.8"><title>cell 214: Integrated Capability</title></path><path d="M 579.26,217.61 L 579.26,178.89 L 537.78,178.89 L 537.78,217.61 L 579.26,217.61 Z" fill="#1b9e77" stroke="#ffffff" stroke-width="0.8"><title>cell 215: Integrated Capability</title></path><path d="M 579.26,178.89 L 579.26,140.17 L 537.78,140.17 L 537.78,178.89 L 579.26,178.89 Z" fill="#1b9e77" stroke="#ffffff" stroke-width="0.8"><title>cell 216: Integrated Capability</title></path><path d="M 579.26,140.17 L 579.26,101.44 L 537.78,101.44 L 537.78,140.17 L 579.26,140.17 Z" fill="#1b9e77" stroke="#ffffff" stroke-width="0.8"><title>cell 217: Integrated Capability</title></path><path d="M 579.26,101.44 L 579.26,62.72 L 537.78,62.72 L 537.78,101.44 L 579.26,101.44 Z" fill="#1b9e77" stroke="#ffffff" stroke-width="0.8"><title>cell 218: Integrated Capability</title></path><path d="M 579.26,62.72 L 579.26,24.00 L 537.78,24.00 L 537.78,62.72 L 579.26,62.72 Z" fill="#1b9e77" stroke="#ffffff" stroke-width="0.8"><title>cell 219: Integrated Capability</title></path><path d="M 620.74,876.00 L 620.74,837.27 L 579.26,837.27 L 579.26,876.00 L 620.74,876.00 Z" fill="#666666" stroke="#ffffff" stroke-width="0.8"><title>cell 220: Motorcycle Lock-in</title></path><path d="M 620.74,837.27 L 620.74,798.53 L 579.26,798.53 L 579.26,837.27 L 620.74,837.27 Z" fill="#666666" stroke="#ffffff" stroke-width="0.8"><title>cell 221: Motorcycle Lock-in</title></path><path d="M 620.74,798.53 L 620.74,759.80 L 579.26,759.80 L 579.26,798.53 L 620.74,798.53 Z" fill="#666666" stroke="#ffffff" stroke-width="0.8"><title>cell 222: Motorcycle Lock-in</title></path><path d="M 620.74,759.80 L 620.74,721.07 L 579.26,721.07 L 579.26,759.80 L 620.74,759.80 Z" fill="#666666" stroke="#ffffff" stroke-width="0.8"><title>cell 223: Motorcycle Lock-in</title></path><path d="M 620.74,721.07 L 620.74,682.34 L 579.26,682.34 L 579.26,721.07 L 620.74,721.07 Z" fill="#666666" stroke="#ffffff" stroke-width="0.8"><title>cell 224: Motorcycle Lock-in</title></path><path d="M 620.74,682.34 L 620.74,643.61 L 579.26,643.61 L 579.26,682.34 L 620.74,682.34 Z" fill="#666666" stroke="#ffffff" stroke-width="0.8"><title>cell 225: Motorcycle Lock-in</title></path><path d="M 620.74,643.61 L 620.74,604.88 L 579.26,604.88 L 579.26,643.61 L 620.74,643.61 Z" fill="#666666" stroke="#ffffff" stroke-width="0.8"><title>cell 226: Motorcycle Lock-in</title></path><path d="M 620.74,604.88 L 620.74,566.15 L 579.26,566.15 L 579.26,604.88 L 620.74,604.88 Z" fill="#7570b3" stroke="#ffffff" stroke-width="0.8"><title>cell 227: Transit-Dependent</title></path><path d="M 620.74,566.15 L 620.74,527.42 L 579.26,527.42 L 579.26,566.15 L 620.74,566.15 Z" fill="#1b9e77" stroke="#ffffff" stroke-width="0.8"><title>cell 228: Integrated Capability</title></path><path d="M 620.74,527.42 L 620.74,488.69 L 579.26,488.69 L 579.26,527.42 L 620.74,527.42 Z" fill="#1b9e77" stroke="#ffffff" stroke-width="0.8"><title>cell 229: Integrated Capability</title></path><path d="M 620.74,488.69 L 620.74,449.97 L 579.26,449.97 L 579.26,488.69 L 620.74,488.69 Z" fill="#1b9e77" stroke="#ffffff" stroke-width="0.8"><title>cell 230: Integrated Capability</title></path><path d="M 620.74,449.97 L 620.74,411.24 L 579.26,411.24 L 579.26,449.97 L 620.74,449.97 Z" fill="#1b9e77" stroke="#ffffff" stroke-width="0.8"><title>cell 231: Integrated Capability</title></path><path d="M 620.74,411.24 L 620.74,372.51 L 579.26,372.51 L 579.26,411.24 L 620.74,411.24 Z" fill="#1b9e77" stroke="#ffffff" stroke-width="0.8"><title>cell 232: Integrated Capability</title></path><path d="M 620.74,372.51 L 620.74,333.79 L 579.26,333.79 L 579.26,372.51 L 620.74,372.51 Z" fill="#1b9e77" stroke="#ffffff" stroke-width="0.8"><title>cell 233: Integrated Capability</title></path><path d="M 620.74,333.79 L 620.74,295.06 L 579.26,295.06 L 579.26,333.79 L 620.74,333.79 Z" fill="#1b9e77" stroke="#ffffff" stroke-width="0.8"><title>cell 234: Integrated Capability</title></path><path d="M 620.74,295.06 L 620.74,256.34 L 579.26,256.34 L 579.26,295.06 L 620.74,295.06 Z" fill="#1b9e77" stroke="#ffffff" stroke-width="0.8"><title>cell 235: Integrated Capability</title></path><path d="M 620.74,256.34 L 620.74,217.61 L 579.26,217.61 L 579.26,256.34 L 620.74,256.34 Z" fill="#1b9e77" stroke="#ffffff" stroke-width="0.8"><title>cell 236: Integrated Capability</title></path><path d="M 620.74,217.61 L 620.74,178.89 L 579.26,178.89 L 579.26,217.61 L 620.74,217.61 Z" fill="#1b9e77" stroke="#ffffff" stroke-width="0.8"><title>cell 237: Integrated Capability</title></path><path d="M 620.74,178.89 L 620.74,140.17 L 579.26,140.17 L 579.26,178.89 L 620.74,178.89 Z" fill="#1b9e77" stroke="#ffffff" stroke-width="0.8"><title>cell 238: Integrated Capability</title></path><path d="M 620.74,140.17 L 620.74,101.44 L 579.26,101.44 L 579.26,140.17 L 620.74,140.17 Z" fill="#1b9e77" stroke="#ffffff" stroke-width="0.8"><title>cell 239: Integrated Capability</title></path><path d="M 620.74,101.44 L 620.74,62.72 L 579.26,62.72 L 579.26,101.44 L 620.74,101.44 Z" fill="#1b9e77" stroke="#ffffff" stroke-width="0.8"><title>cell 240: Integrated Capability</title></path><path d="M 620.74,62.72 L 620.74,24.00 L 579.26,24.00 L 579.26,62.72 L 620.74,62.72 Z" fill="#1b9e77" stroke="#ffffff" stroke-width="0.8"><title>cell 241: Integrated Capability</title></path><path d="M 662.22,876.00 L 662.22,837.27 L 620.74,837.27 L 620.74,876.00 L 662.22,876.00 Z" fill="#666666" stroke="#ffffff" stroke-width="0.8"><title>cell 242: Motorcycle Lock-in</title></path><path d="M 662.22,837.27 L 662.22,798.53 L 620.74,798.53 L 620.74,837.27 L 662.22,837.27 Z" fill="#666666" stroke="#ffffff" stroke-width="0.8"><title>cell 243: Motorcycle Lock-in</title></path><path d="M 662.22,798.53 L 662.22,759.80 L 620.74,759.80 L 620.74,798.53 L 662.22,798.53 Z" fill="#666666" stroke="#ffffff" stroke-width="0.8"><title>cell 244: Motorcycle Lock-in</title></path><path d="M 662.22,759.80 L 662.22,721.07 L 620.74,721.07 L 620.74,759.80 L 662.22,759.80 Z" fill="#666666" stroke="#ffffff" stroke-width="0.8"><title>cell 245: Motorcycle Lock-in</title></path><path d="M 662.22,721.07 L 662.22,682.34 L 620.74,682.34 L 620.74,721.07 L 662.22,721.07 Z" fill="#666666" stroke="#ffffff" stroke-width="0.8"><title>cell 246: Motorcycle Lock-in</title></path><path d="M 662.22,682.34 L 662.22,643.61 L 620.74,643.61 L 620.74,682.34 L 662.22,682.34 Z" fill="#666666" stroke="#ffffff" stroke-width="0.8"><title>cell 247: Motorcycle Lock-in</title></path><path d="M 662.22,643.61 L 662.22,604.88 L 620.74,604.88 L 620.74,643.61 L 662.22,643.61 Z" fill="#666666" stroke="#ffffff" stroke-width="0.8"><title>cell 248: Motorcycle Lock-in</title></path><path d="M 662.22,604.88 L 662.22,566.15 L 620.74,566.15 L 620.74,604.88 L 662.22,604.88 Z" fill="#1b9e77" stroke="#ffffff" stroke-width="0.8"><title>cell 249: Integrated Capability</title></path><path d="M 662.22,566.15 L 662.22,527.42 L 620.74,527.42 L 620.74,566.15 L 662.22,566.15 Z" fill="#1b9e77" stroke="#ffffff" stroke-width="0.8"><title>cell 250: Integrated Capability</title></path><path d="M 662.22,527.42 L 662.22,488.69 L 620.74,488.69 L 620.74,527.42 L 662.22,527.42 Z" fill="#1b9e77" stroke="#ffffff" stroke-width="0.8"><title>cell 251: Integrated Capability</title></path><path d="M 662.22,488.69 L 662.22,449.97 L 620.74,449.97 L 620.74,488.69 L 662.22,488.69 Z" fill="#1b9e77" stroke="#ffffff" stroke-width="0.8"><title>cell 252: Integrated Capability</title></path><path d="M 662.22,449.97 L 662.22,411.24 L 620.74,411.24 L 620.74,449.97 L 662.22,449.97 Z" fill="#1b9e77" stroke="#ffffff" stroke-width="0.8"><title>cell 253: Integrated Capability</title></path><path d="M 662.22,411.24 L 662.22,372.51 L 620.74,372.51 L 620.74,411.24 L 662.22,411.24 Z" fill="#1b9e77" stroke="#ffffff" stroke-width="0.8"><title>cell 254: Integrated Capability</title></path><path d="M 662.22,372.51 L 662.22,333.79 L 620.74,333.79 L 620.74,372.51 L 662.22,372.51 Z" fill="#1b9e77" stroke="#ffffff" stroke-width="0.8"><title>cell 255: Integrated Capability</title></path><path d="M 662.22,333.79 L 662.22,295.06 L 620.74,295.06 L 620.74,333.79 L 662.22,333.79 Z" fill="#1b9e77" stroke="#ffffff" stroke-width="0.8"><title>cell 256: Integrated Capability</title></path><path d="M 662.22,295.06 L 662.22,256.34 L 620.74,256.34 L 620.74,295.06 L 662.22,295.06 Z" fill="#1b9e77" stroke="#ffffff" stroke-width="0.8"><title>cell 257: Integrated Capability</title></path><path d="M 662.22,256.34 L 662.22,217.61 L 620.74,217.61 L 620.74,256.34 L 662.22,256.34 Z" fill="#1b9e77" stroke="#ffffff" stroke-width="0.8"><title>cell 258: Integrated Capability</title></path><path d="M 662.22,217.61 L 662.22,178.89 L 620.74,178.89 L 620.74,217.61 L 662.22,217.61 Z" fill="#1b9e77" stroke="#ffffff" stroke-width="0.8"><title>cell 259: Integrated Capability</title></path><path d="M 662.22,178.89 L 662.22,140.17 L 620.74,140.17 L 620.74,178.89 L 662.22,178.89 Z" fill="#1b9e77" stroke="#ffffff" stroke-width="0.8"><title>cell 260: Integrated Capability</title></path><path d="M 662.22,140.17 L 662.22,101.44 L 620.74,101.44 L 620.74,140.17 L 662.22,140.17 Z" fill="#7570b3" stroke="#ffffff" stroke-width="0.8"><title>cell 261: Transit-Dependent</title></path><path d="M 662.22,101.44 L 662.22,62.72 L 620.74,62.72 L 620.74,101.44 L 662.22,101.44 Z" fill="#7570b3" stroke="#ffffff" stroke-width="0.8"><title>cell 262: Transit-Dependent</title></path><path d="M 662.22,62.72 L 662.22,24.00 L 620.74,24.00 L 620.74,62.72 L 662.22,62.72 Z" fill="#7570b3" stroke="#ffffff" stroke-width="0.8"><title>cell 263: Transit-Dependent</title></path><path d="M 703.70,876.00 L 703.70,837.27 L 662.22,837.27 L 662.22,876.00 L 703.70,876.00 Z" fill="#666666" stroke="#ffffff" stroke-width="0.8"><title>cell 264: Motorcycle Lock-in</title></path><path d="M 703.70,837.27 L 703.70,798.53 L 662.22,798.53 L 662.22,837.27 L 703.70,837.27 Z" fill="#666666" stroke="#ffffff" stroke-width="0.8"><title>cell 265: Motorcycle Lock-in</title></path><path d="M 703.70,798.53 L 703.70,759.80 L 662.22,759.80 L 662.22,798.53 L 703.70,798.53 Z" fill="#666666" stroke="#ffffff" stroke-width="0.8"><title>cell 266: Motorcycle Lock-in</title></path><path d="M 703.70,759.80 L 703.70,721.07 L 662.22,721.07 L 662.22,759.80 L 703.70,759.80 Z" fill="#666666" stroke="#ffffff" stroke-width="0.8"><title>cell 267: Motorcycle Lock-in</title></path><path d="M 703.70,721.07 L 703.70,682.34 L 662.22,682.34 L 662.22,721.07 L 703.70,721.07 Z" fill="#666666" stroke="#ffffff" stroke-width="0.8"><title>cell 268: Motorcycle Lock-in</title></path><path d="M 703.70,682.34 L 703.70,643.61 L 662.22,643.61 L 662.22,682.34 L 703.70,682.34 Z" fill="#666666" stroke="#ffffff" stroke-width="0.8"><title>cell 269: Motorcycle Lock-in</title></path><path d="M 703.70,643.61 L 703.70,604.88 L 662.22,604.88 L 662.22,643.61 L 703.70,643.61 Z" fill="#7570b3" stroke="#ffffff" stroke-width="0.8"><title>cell 270: Transit-Dependent</title></path><path d="M 703.70,604.88 L 703.70,566.15 L 662.22,566.15 L 662.22,604.88 L 703.70,604.88 Z" fill="#1b9e77" stroke="#ffffff" stroke-width="0.8"><title>cell 271: Integrated Capability</title></path><path d="M 703.70,566.15 L 703.70,527.42 L 662.22,527.42 L 662.22,566.15 L 703.70,566.15 Z" fill="#1b9e77" stroke="#ffffff" stroke-width="0.8"><title>cell 272: Integrated Capability</title></path><path d="M 703.70,527.42 L 703.70,488.69 L 662.22,488.69 L 662.22,527.42 L 703.70,527.42 Z" fill="#1b9e77" stroke="#ffffff" stroke-width="0.8"><title>cell 273: Integrated Capability</title></path><path d="M 703.70,488.69 L 703.70,449.97 L 662.22,449.97 L 662.22,488.69 L 703.70,488.69 Z" fill="#1b9e77" stroke="#ffffff" stroke-width="0.8"><title>cell 274: Integrated Capability</title></path><path d="M 703.70,449.97 L 703.70,411.24 L 662.22,411.24 L 662.22,449.97 L 703.70,449.97 Z" fill="#1b9e77" stroke="#ffffff" stroke-width="0.8"><title>cell 275: Integrated Capability</title></path><path d="M 703.70,411.24 L 703.70,372.51 L 662.22,372.51 L 662.22,411.24 L 703.70,411.24 Z" fill="#1b9e77" stroke="#ffffff" stroke-width="0.8"><title>cell 276: Integrated Capability</title></path><path d="M 703.70,372.51 L 703.70,333.79 L 662.22,333.79 L 662.22,372.51 L 703.70,372.51 Z" fill="#1b9e77" stroke="#ffffff" stroke-width="0.8"><title>cell 277: Integrated Capability</title></path><path d="M 703.70,333.79 L 703.70,295.06 L 662.22,295.06 L 662.22,333.79 L 703.70,333.79 Z" fill="#1b9e77" stroke="#ffffff" stroke-width="0.8"><title>cell 278: Integrated Capability</title></path><path d="M 703.70,295.06 L 703.70,256.34 L 662.22,256.34 L 662.22,295.06 L 703.70,295.06 Z" fill="#1b9e77" stroke="#ffffff" stroke-width="0.8"><title>cell 279: Integrated Capability</title></path><path d="M 703.70,256.34 L 703.70,217.61 L 662.22,217.61 L 662.22,256.34 L 703.70,256.34 Z" fill="#1b9e77" stroke="#ffffff" stroke-width="0.8"><title>cell 280: Integrated Capability</title></path><path d="M 703.70,217.61 L 703.70,178.89 L 662.22,178.89 L 662.22,217.61 L 703.70,217.61 Z" fill="#1b9e77" stroke="#ffffff" stroke-width="0.8"><title>cell 281: Integrated Capability</title></path><path d="M 703.70,178.89 L 703.70,140.17 L 662.22,140.17 L 662.22,178.89 L 703.70,178.89 Z" fill="#7570b3" stroke="#ffffff" stroke-width="0.8"><title>cell 282: Transit-Dependent</title></path><path d="M 703.70,140.17 L 703.70,101.44 L 662.22,101.44 L 662.22,140.17 L 703.70,140.17 Z" fill="#7570b3" stroke="#ffffff" stroke-width="0.8"><title>cell 283: Transit-Dependent</title></path><path d="M 703.70,101.44 L 703.70,62.72 L 662.22,62.72 L 662.22,101.44 L 703.70,101.44 Z" fill="#1b9e77" stroke="#ffffff" stroke-width="0.8"><title>cell 284: Integrated Capability</title></path><path d="M 703.70,62.72 L 703.70,24.00 L 662.22,24.00 L 662.22,62.72 L 703.70,62.72 Z" fill="#1b9e77" stroke="#ffffff" stroke-width="0.8"><title>cell 285: Integrated Capability</title></path><path d="M 745.18,876.00 L 745.18,837.27 L 703.70,837.27 L 703.70,876.00 L 745.18,876.00 Z" fill="#666666" stroke="#ffffff" stroke-width="0.8"><title>cell 286: Motorcycle Lock-in</title></path><path d="M 745.18,837.27 L 745.18,798.53 L 703.70,798.53 L 703.70,837.27 L 745.18,837.27 Z" fill="#666666" stroke="#ffffff" stroke-width="0.8"><title>cell 287: Motorcycle Lock-in</title></path><path d="M 745.18,798.53 L 745.18,759.80 L 703.70,759.80 L 703.70,798.53 L 745.18,798.53 Z" fill="#666666" stroke="#ffffff" stroke-width="0.8"><title>cell 288: Motorcycle Lock-in</title></path><path d="M 745.18,759.80 L 745.18,721.07 L 703.70,721.07 L 703.70,759.80 L 745.18,759.80 Z" fill="#666666" stroke="#ffffff" stroke-width="0.8"><title>cell 289: Motorcycle Lock-in</title></path><path d="M 745.18,721.07 L 745.18,682.34 L 703.70,682.34 L 703.70,721.07 L 745.18,721.07 Z" fill="#666666" stroke="#ffffff" stroke-width="0.8"><title>cell 290: Motorcycle Lock-in</title></path><path d="M 745.18,682.34 L 745.18,643.61 L 703.70,643.61 L 703.70,682.34 L 745.18,682.34 Z" fill="#666666" stroke="#ffffff" stroke-width="0.8"><title>cell 291: Motorcycle Lock-in</title></path><path d="M 745.18,643.61 L 745.18,604.88 L 703.70,604.88 L 703.70,643.61 L 745.18,643.61 Z" fill="#666666" stroke="#ffffff" stroke-width="0.8"><title>cell 292: Motorcycle Lock-in</title></path><path d="M 745.18,604.88 L 745.18,566.15 L 703.70,566.15 L 703.70,604.88 L 745.18,604.88 Z" fill="#1b9e77" stroke="#ffffff" stroke-width="0.8"><title>cell 293: Integrated Capability</title></path><path d="M 745.18,566.15 L 745.18,527.42 L 703.70,527.42 L 703.70,566.15 L 745.18,566.15 Z" fill="#1b9e77" stroke="#ffffff" stroke-width="0.8"><title>cell 294: Integrated Capability</title></path><path d="M 745.18,527.42 L 745.18,488.69 L 703.70,488.69 L 703.70,527.42 L 745.18,527.42 Z" fill="#1b9e77" stroke="#ffffff" stroke-width="0.8"><title>cell 295: Integrated Capability</title></path><path d="M 745.18,488.69 L 745.18,449.97 L 703.70,449.97 L 703.70,488.69 L 745.18,488.69 Z" fill="#1b9e77" stroke="#ffffff" stroke-width="0.8"><title>cell 296: Integrated Capability</title></path><path d="M 745.18,449.97 L 745.18,411.24 L 703.70,411.24 L 703.70,449.97 L 745.18,449.97 Z" fill="#1b9e77" stroke="#ffffff" stroke-width="0.8"><title>cell 297: Integrated Capability</title></path><path d="M 745.18,411.24 L 745.18,372.51 L 703.70,372.51 L 703.70,411.24 L 745.18,411.24 Z" fill="#1b9e77" stroke="#ffffff" stroke-width="0.8"><title>cell 298: Integrated Capability</title></path><path d="M 745.18,372.51 L 745.18,333.79 L 703.70,333.79 L 703.70,372.51 L 745.18,372.51 Z" fill="#1b9e77" stroke="#ffffff" stroke-width="0.8"><title>cell 299: Integrated Capability</title></path><path d="M 745.18,333.79 L 745.18,295.06 L 703.70,295.06 L 703.70,333.79 L 745.18,333.79 Z" fill="#666666" stroke="#ffffff" stroke-width="0.8"><title>cell 300: Motorcycle Lock-in</title></path><path d="M 745.18,295.06 L 745.18,256.34 L 703.70,256.34 L 703.70,295.06 L 745.18,295.06 Z" fill="#7570b3" stroke="#ffffff" stroke-width="0.8"><title>cell 301: Transit-Dependent</title></path><path d="M 745.18,256.34 L 745.18,217.61 L 703.70,217.61 L 703.70,256.34 L 745.18,256.34 Z" fill="#7570b3" stroke="#ffffff" stroke-width="0.8"><title>cell 302: Transit-Dependent</title></path><path d="M 745.18,217.61 L 745.18,178.89 L 703.70,178.89 L 703.70,217.61 L 745.18,217.61 Z" fill="#1b9e77" stroke="#ffffff" stroke-width="0.8"><title>cell 303: Integrated Capability</title></path><path d="M 745.18,178.89 L 745.18,140.17 L 703.70,140.17 L 703.70,178.89 L 745.18,178.89 Z" fill="#7570b3" stroke="#ffffff" stroke-width="0.8"><title>cell 304: Transit-Dependent</title></path><path d="M 745.18,140.17 L 745.18,101.44 L 703.70,101.44 L 703.70,140.17 L 745.18,140.17 Z" fill="#7570b3" stroke="#ffffff" stroke-width="0.8"><title>cell 305: Transit-Dependent</title></path><path d="M 745.18,101.44 L 745.18,62.72 L 703.70,62.72 L 703.70,101.44 L 745.18,101.44 Z" fill="#1b9e77" stroke="#ffffff" stroke-width="0.8"><title>cell 306: Integrated Capability</title></path><path d="M 745.18,62.72 L 745.18,24.00 L 703.70,24.00 L 703.70,62.72 L 745.18,62.72 Z" fill="#1b9e77" stroke="#ffffff" stroke-width="0.8"><title>cell 307: Integrated Capability</title></path><path d="M 786.66,876.00 L 786.66,837.27 L 745.18,837.27 L 745.18,876.00 L 786.66,876.00 Z" fill="#666666" stroke="#ffffff" stroke-width="0.8"><title>cell 308: Motorcycle Lock-in</title></path><path d="M 786.66,837.27 L 786.66,798.53 L 745.18,798.53 L 745.18,837.27 L 786.66,837.27 Z" fill="#666666" stroke="#ffffff" stroke-width="0.8"><title>cell 309: Motorcycle Lock-in</title></path><path d="M 786.66,798.53 L 786.66,759.80 L 745.18,759.80 L 745.18,798.53 L 786.66,798.53 Z" fill="#666666" stroke="#ffffff" stroke-width="0.8"><title>cell 310: Motorcycle Lock-in</title></path><path d="M 786.66,759.80 L 786.66,721.07 L 745.18,721.07 L 745.18,759.80 L 786.66,759.80 Z" fill="#666666" stroke="#ffffff" stroke-width="0.8"><title>cell 311: Motorcycle Lock-in</title></path><path d="M 786.66,721.07 L 786.66,682.34 L 745.18,682.34 L 745.18,721.07 L 786.66,721.07 Z" fill="#d95f02" stroke="#ffffff" stroke-width="0.8"><title>cell 312: Fragmented Capability</title></path><path d="M 786.66,682.34 L 786.66,643.61 L 745.18,643.61 L 745.18,682.34 L 786.66,682.34 Z" fill="#d95f02" stroke="#ffffff" stroke-width="0.8"><title>cell 313: Fragmented Capability</title></path><path d="M 786.66,643.61 L 786.66,604.88 L 745.18,604.88 L 745.18,643.61 L 786.66,643.61 Z" fill="#d95f02" stroke="#ffffff" stroke-width="0.8"><title>cell 314: Fragmented Capability</title></path><path d="M 786.66,604.88 L 786.66,566.15 L 745.18,566.15 L 745.18,604.88 L 786.66,604.88 Z" fill="#d95f02" stroke="#ffffff" stroke-width="0.8"><title>cell 315: Fragmented Capability</title></path><path d="M 786.66,566.15 L 786.66,527.42 L 745.18,527.42 L 745.18,566.15 L 786.66,566.15 Z" fill="#1b9e77" stroke="#ffffff" stroke-width="0.8"><title>cell 316: Integrated Capability</title></path><path d="M 786.66,527.42 L 786.66,488.69 L 745.18,488.69 L 745.18,527.42 L 786.66,527.42 Z" fill="#1b9e77" stroke="#ffffff" stroke-width="0.8"><title>cell 317: Integrated Capability</title></path><path d="M 786.66,488.69 L 786.66,449.97 L 745.18,449.97 L 745.18,488.69 L 786.66,488.69 Z" fill="#1b9e77" stroke="#ffffff" stroke-width="0.8"><title>cell 318: Integrated Capability</title></path><path d="M 786.66,449.97 L 786.66,411.24 L 745.18,411.24 L 745.18,449.97 L 786.66,449.97 Z" fill="#1b9e77" stroke="#ffffff" stroke-width="0.8"><title>cell 319: Integrated Capability</title></path><path d="M 786.66,411.24 L 786.66,372.51 L 745.18,372.51 L 745.18,411.24 L 786.66,411.24 Z" fill="#1b9e77" stroke="#ffffff" stroke-width="0.8"><title>cell 320: Integrated Capability</title></path><path d="M 786.66,372.51 L 786.66,333.79 L 745.18,333.79 L 745.18,372.51 L 786.66,372.51 Z" fill="#1b9e77" stroke="#ffffff" stroke-width="0.8"><title>cell 321: Integrated Capability</title></path><path d="M 786.66,333.79 L 786.66,295.06 L 745.18,295.06 L 745.18,333.79 L 786.66,333.79 Z" fill="#7570b3" stroke="#ffffff" stroke-width="0.8"><title>cell 322: Transit-Dependent</title></path><path d="M 786.66,295.06 L 786.66,256.34 L 745.18,256.34 L 745.18,295.06 L 786.66,295.06 Z" fill="#7570b3" stroke="#ffffff" stroke-width="0.8"><title>cell 323: Transit-Dependent</title></path><path d="M 786.66,256.34 L 786.66,217.61 L 745.18,217.61 L 745.18,256.34 L 786.66,256.34 Z" fill="#7570b3" stroke="#ffffff" stroke-width="0.8"><title>cell 324: Transit-Dependent</title></path><path d="M 786.66,217.61 L 786.66,178.89 L 745.18,178.89 L 745.18,217.61 L 786.66,217.61 Z" fill="#7570b3" stroke="#ffffff" stroke-width="0.8"><title>cell 325: Transit-Dependent</title></path><path d="M 786.66,178.89 L 786.66,140.17 L 745.18,140.17 L 745.18,178.89 L 786.66,178.89 Z" fill="#7570b3" stroke="#ffffff" stroke-width="0.8"><title>cell 326: Transit-Dependent</title></path><path d="M 786.66,140.17 L 786.66,101.44 L 745.18,101.44 L 745.18,140.17 L 786.66,140.17 Z" fill="#7570b3" stroke="#ffffff" stroke-width="0.8"><title>cell 327: Transit-Dependent</title></path><path d="M 786.66,101.44 L 786.66,62.72 L 745.18,62.72 L 745.18,101.44 L 786.66,101.44 Z" fill="#1b9e77" stroke="#ffffff" stroke-width="0.8"><title>cell 328: Integrated Capability</title></path><path d="M 786.66,62.72 L 786.66,24.00 L 745.18,24.00 L 745.18,62.72 L 786.66,62.72 Z" fill="#1b9e77" stroke="#ffffff" stroke-width="0.8"><title>cell 329: Integrated Capability</title></path><path d="M 828.14,876.00 L 828.14,837.27 L 786.66,837.27 L 786.66,876.00 L 828.14,876.00 Z" fill="#666666" stroke="#ffffff" stroke-width="0.8"><title>cell 330: Motorcycle Lock-in</title></path><path d="M 828.14,837.27 L 828.14,798.53 L 786.66,798.53 L 786.66,837.27 L 828.14,837.27 Z" fill="#666666" stroke="#ffffff" stroke-width="0.8"><title>cell 331: Motorcycle Lock-in</title></path><path d="M 828.14,798.53 L 828.14,759.80 L 786.66,759.80 L 786.66,798.53 L 828.14,798.53 Z" fill="#666666" stroke="#ffffff" stroke-width="0.8"><title>cell 332: Motorcycle Lock-in</title></path><path d="M 828.14,759.80 L 828.14,721.07 L 786.66,721.07 L 786.66,759.80 L 828.14,759.80 Z" fill="#d95f02" stroke="#ffffff" stroke-width="0.8"><title>cell 333: Fragmented Capability</title></path><path d="M 828.14,721.07 L 828.14,682.34 L 786.66,682.34 L 786.66,721.07 L 828.14,721.07 Z" fill="#d95f02" stroke="#ffffff" stroke-width="0.8"><title>cell 334: Fragmented Capability</title></path><path d="M 828.14,682.34 L 828.14,643.61 L 786.66,643.61 L 786.66,682.34 L 828.14,682.34 Z" fill="#d95f02" stroke="#ffffff" stroke-width="0.8"><title>cell 335: Fragmented Capability</title></path><path d="M 828.14,643.61 L 828.14,604.88 L 786.66,604.88 L 786.66,643.61 L 828.14,643.61 Z" fill="#d95f02" stroke="#ffffff" stroke-width="0.8"><title>cell 336: Fragmented Capability</title></path><path d="M 828.14,604.88 L 828.14,566.15 L 786.66,566.15 L 786.66,604.88 L 828.14,604.88 Z" fill="#d95f02" stroke="#ffffff" stroke-width="0.8"><title>cell 337: Fragmented Capability</title></path><path d="M 828.14,566.15 L 828.14,527.42 L 786.66,527.42 L 786.66,566.15 L 828.14,566.15 Z" fill="#1b9e77" stroke="#ffffff" stroke-width="0.8"><title>cell 338: Integrated Capability</title></path><path d="M 828.14,527.42 L 828.14,488.69 L 786.66,488.69 L 786.66,527.42 L 828.14,527.42 Z" fill="#1b9e77" stroke="#ffffff" stroke-width="0.8"><title>cell 339: Integrated Capability</title></path><path d="M 828.14,488.69 L 828.14,449.97 L 786.66,449.97 L 786.66,488.69 L 828.14,488.69 Z" fill="#1b9e77" stroke="#ffffff" stroke-width="0.8"><title>cell 340: Integrated Capability</title></path><path d="M 828.14,449.97 L 828.14,411.24 L 786.66,411.24 L 786.66,449.97 L 828.14,449.97 Z" fill="#1b9e77" stroke="#ffffff" stroke-width="0.8"><title>cell 341: Integrated Capability</title></path><path d="M 828.14,411.24 L 828.14,372.51 L 786.66,372.51 L 786.66,411.24 L 828.14,411.24 Z" fill="#1b9e77" stroke="#ffffff" stroke-width="0.8"><title>cell 342: Integrated Capability</title></path><path d="M 828.14,372.51 L 828.14,333.79 L 786.66,333.79 L 786.66,372.51 L 828.14,372.51 Z" fill="#1b9e77" stroke="#ffffff" stroke-width="0.8"><title>cell 343: Integrated Capability</title></path><path d="M 828.14,333.79 L 828.14,295.06 L 786.66,295.06 L 786.66,333.79 L 828.14,333.79 Z" fill="#7570b3" stroke="#ffffff" stroke-width="0.8"><title>cell 344: Transit-Dependent</title></path><path d="M 828.14,295.06 L 828.14,256.34 L 786.66,256.34 L 786.66,295.06 L 828.14,295.06 Z" fill="#7570b3" stroke="#ffffff" stroke-width="0.8"><title>cell 345: Transit-Dependent</title></path><path d="M 828.14,256.34 L 828.14,217.61 L 786.66,217.61 L 786.66,256.34 L 828.14,256.34 Z" fill="#7570b3" stroke="#ffffff" stroke-width="0.8"><title>cell 346: Transit-Dependent</title></path><path d="M 828.14,217.61 L 828.14,178.89 L 786.66,178.89 L 786.66,217.61 L 828.14,217.61 Z" fill="#7570b3" stroke="#ffffff" stroke-width="0.8"><title>cell 347: Transit-Dependent</title></path><path d="M 828.14,178.89 L 828.14,140.17 L 786.66,140.17 L 786.66,178.89 L 828.14,178.89 Z" fill="#1b9e77" stroke="#ffffff" stroke-width="0.8"><title>cell 348: Integrated Capability</title></path><path d="M 828.14,140.17 L 828.14,101.44 L 786.66,101.44 L 786.66,140.17 L 828.14,140.17 Z" fill="#1b9e77" stroke="#ffffff" stroke-width="0.8"><title>cell 349: Integrated Capability</title></path><path d="M 828.14,101.44 L 828.14,62.72 L 786.66,62.72 L 786.66,101.44 L 828.14,101.44 Z" fill="#1b9e77" stroke="#ffffff" stroke-width="0.8"><title>cell 350: Integrated Capability</title></path><path d="M 828.14,62.72 L 828.14,24.00 L 786.66,24.00 L 786.66,62.72 L 828.14,62.72 Z" fill="#7570b3" stroke="#ffffff" stroke-width="0.8"><title>cell 351: Transit-Dependent</title></path><path d="M 869.62,876.00 L 869.62,837.27 L 828.14,837.27 L 828.14,876.00 L 869.62,876.00 Z" fill="#666666" stroke="#ffffff" stroke-width="0.8"><title>cell 352: Motorcycle Lock-in</title></path><path d="M 869.62,837.27 L 869.62,798.53 L 828.14,798.53 L 828.14,837.27 L 869.62,837.27 Z" fill="#666666" stroke="#ffffff" stroke-width="0.8"><title>cell 353: Motorcycle Lock-in</title></path><path d="M 869.62,798.53 L 869.62,759.80 L 828.14,759.80 L 828.14,798.53 L 869.62,798.53 Z" fill="#666666" stroke="#ffffff" stroke-width="0.8"><title>cell 354: Motorcycle Lock-in</title></path><path d="M 869.62,759.80 L 869.62,721.07 L 828.14,721.07 L 828.14,759.80 L 869.62,759.80 Z" fill="#d95f02" stroke="#ffffff" stroke-width="0.8"><title>cell 355: Fragmented Capability</title></path><path d="M 869.62,721.07 L 869.62,682.34 L 828.14,682.34 L 828.14,721.07 L 869.62,721.07 Z" fill="#d95f02" stroke="#ffffff" stroke-width="0.8"><title>cell 356: Fragmented Capability</title></path><path d="M 869.62,682.34 L 869.62,643.61 L 828.14,643.61 L 828.14,682.34 L 869.62,682.34 Z" fill="#d95f02" stroke="#ffffff" stroke-width="0.8"><title>cell 357: Fragmented Capability</title></path><path d="M 869.62,643.61 L 869.62,604.88 L 828.14,604.88 L 828.14,643.61 L 869.62,643.61 Z" fill="#d95f02" stroke="#ffffff" stroke-width="0.8"><title>cell 358: Fragmented Capability</title></path><path d="M 869.62,604.88 L 869.62,566.15 L 828.14,566.15 L 828.14,604.88 L 869.62,604.88 Z" fill="#d95f02" stroke="#ffffff" stroke-width="0.8"><title>cell 359: Fragmented Capability</title></path><path d="M 869.62,566.15 L 869.62,527.42 L 828.14,527.42 L 828.14,566.15 L 869.62,566.15 Z" fill="#1b9e77" stroke="#ffffff" stroke-width="0.8"><title>cell 360: Integrated Capability</title></path><path d="M 869.62,527.42 L 869.62,488.69 L 828.14,488.69 L 828.14,527.42 L 869.62,527.42 Z" fill="#1b9e77" stroke="#ffffff" stroke-width="0.8"><title>cell 361: Integrated Capability</title></path><path d="M 869.62,488.69 L 869.62,449.97 L 828.14,449.97 L 828.14,488.69 L 869.62,488.69 Z" fill="#1b9e77" stroke="#ffffff" stroke-width="0.8"><title>cell 362: Integrated Capability</title></path><path d="M 869.62,449.97 L 869.62,411.24 L 828.14,411.24 L 828.14,449.97 L 869.62,449.97 Z" fill="#1b9e77" stroke="#ffffff" stroke-width="0.8"><title>cell 363: Integrated Capability</title></path><path d="M 869.62,411.24 L 869.62,372.51 L 828.14,372.51 L 828.14,411.24 L 869.62,411.24 Z" fill="#1b9e77" stroke="#ffffff" stroke-width="0.8"><title>cell 364: Integrated Capability</title></path><path d="M 869.62,372.51 L 869.62,333.79 L 828.14,333.79 L 828.14,372.51 L 869.62,372.51 Z" fill="#7570b3" stroke="#ffffff" stroke-width="0.8"><title>cell 365: Transit-Dependent</title></path><path d="M 869.62,333.79 L 869.62,295.06 L 828.14,295.06 L 828.14,333.79 L 869.62,333.79 Z" fill="#7570b3" stroke="#ffffff" stroke-width="0.8"><title>cell 366: Transit-Dependent</title></path><path d="M 869.62,295.06 L 869.62,256.34 L 828.14,256.34 L 828.14,295.06 L 869.62,295.06 Z" fill="#7570b3" stroke="#ffffff" stroke-width="0.8"><title>cell 367: Transit-Dependent</title></path><path d="M 869.62,256.34 L 869.62,217.61 L 828.14,217.61 L 828.14,256.34 L 869.62,256.34 Z" fill="#7570b3" stroke="#ffffff" stroke-width="0.8"><title>cell 368: Transit-Dependent</title></path><path d="M 869.62,217.61 L 869.62,178.89 L 828.14,178.89 L 828.14,217.61 L 869.62,217.61 Z" fill="#7570b3" stroke="#ffffff" stroke-width="0.8"><title>cell 369: Transit-Dependent</title></path><path d="M 869.62,178.89 L 869.62,140.17 L 828.14,140.17 L 828.14,178.89 L 869.62,178.89 Z" fill="#7570b3" stroke="#ffffff" stroke-width="0.8"><title>cell 370: Transit-Dependent</title></path><path d="M 869.62,140.17 L 869.62,101.44 L 828.14,101.44 L 828.14,140.17 L 869.62,140.17 Z" fill="#7570b3" stroke="#ffffff" stroke-width="0.8"><title>cell 371: Transit-Dependent</title></path><path d="M 869.62,101.44 L 869.62,62.72 L 828.14,62.72 L 828.14,101.44 L 869.62,101.44 Z" fill="#7570b3" stroke="#ffffff" stroke-width="0.8"><title>cell 372: Transit-Dependent</title></path><path d="M 869.62,62.72 L 869.62,24.00 L 828.14,24.00 L 828.14,62.72 L 869.62,62.72 Z" fill="#7570b3" stroke="#ffffff" stroke-width="0.8"><title>cell 373: Transit-Dependent</title></path><path d="M 911.11,876.00 L 911.11,837.27 L 869.62,837.27 L 869.62,876.00 L 911.11,876.00 Z" fill="#666666" stroke="#ffffff" stroke-width="0.8"><title>cell 374: Motorcycle Lock-in</title></path><path d="M 911.11,837.27 L 911.11,798.53 L 869.62,798.53 L 869.62,837.27 L 911.11,837.27 Z" fill="#666666" stroke="#ffffff" stroke-width="0.8"><title>cell 375: Motorcycle Lock-in</title></path><path d="M 911.11,798.53 L 911.11,759.80 L 869.62,759.80 L 869.62,798.53 L 911.11,798.53 Z" fill="#666666" stroke="#ffffff" stroke-width="0.8"><title>cell 376: Motorcycle Lock-in</title></path><path d="M 911.11,759.80 L 911.11,721.07 L 869.62,721.07 L 869.62,759.80 L 911.11,759.80 Z" fill="#666666" stroke="#ffffff" stroke-width="0.8"><title>cell 377: Motorcycle Lock-in</title></path><path d="M 911.11,721.07 L 911.11,682.34 L 869.62,682.34 L 869.62,721.07 L 911.11,721.07 Z" fill="#d95f02" stroke="#ffffff" stroke-width="0.8"><title>cell 378: Fragmented Capability</title></path><path d="M 911.11,682.34 L 911.11,643.61 L 869.62,643.61 L 869.62,682.34 L 911.11,682.34 Z" fill="#d95f02" stroke="#ffffff" stroke-width="0.8"><title>cell 379: Fragmented Capability</title></path><path d="M 911.11,643.61 L 911.11,604.88 L 869.62,604.88 L 869.62,643.61 L 911.11,643.61 Z" fill="#666666" stroke="#ffffff" stroke-width="0.8"><title>cell 380: Motorcycle Lock-in</title></path><path d="M 911.11,604.88 L 911.11,566.15 L 869.62,566.15 L 869.62,604.88 L 911.11,604.88 Z" fill="#d95f02" stroke="#ffffff" stroke-width="0.8"><title>cell 381: Fragmented Capability</title></path><path d="M 911.11,566.15 L 911.11,527.42 L 869.62,527.42 L 869.62,566.15 L 911.11,566.15 Z" fill="#7570b3" stroke="#ffffff" stroke-width="0.8"><title>cell 382: Transit-Dependent</title></path><path d="M 911.11,527.42 L 911.11,488.69 L 869.62,488.69 L 869.62,527.42 L 911.11,527.42 Z" fill="#7570b3" stroke="#ffffff" stroke-width="0.8"><title>cell 383: Transit-Dependent</title></path><path d="M 911.11,488.69 L 911.11,449.97 L 869.62,449.97 L 869.62,488.69 L 911.11,488.69 Z" fill="#1b9e77" stroke="#ffffff" stroke-width="0.8"><title>cell 384: Integrated Capability</title></path><path d="M 911.11,449.97 L 911.11,411.24 L 869.62,411.24 L 869.62,449.97 L 911.11,449.97 Z" fill="#1b9e77" stroke="#ffffff" stroke-width="0.8"><title>cell 385: Integrated Capability</title></path><path d="M 911.11,411.24 L 911.11,372.51 L 869.62,372.51 L 869.62,411.24 L 911.11,411.24 Z" fill="#666666" stroke="#ffffff" stroke-width="0.8"><title>cell 386: Motorcycle Lock-in</title></path><path d="M 911.11,372.51 L 911.11,333.79 L 869.62,333.79 L 869.62,372.51 L 911.11,372.51 Z" fill="#7570b3" stroke="#ffffff" stroke-width="0.8"><title>cell 387: Transit-Dependent</title></path><path d="M 911.11,333.79 L 911.11,295.06 L 869.62,295.06 L 869.62,333.79 L 911.11,333.79 Z" fill="#7570b3" stroke="#ffffff" stroke-width="0.8"><title>cell 388: Transit-Dependent</title></path><path d="M 911.11,295.06 L 911.11,256.34 L 869.62,256.34 L 869.62,295.06 L 911.11,295.06 Z" fill="#7570b3" stroke="#ffffff" stroke-width="0.8"><title>cell 389: Transit-Dependent</title></path><path d="M 911.11,256.34 L 911.11,217.61 L 869.62,217.61 L 869.62,256.34 L 911.11,256.34 Z" fill="#7570b3" stroke="#ffffff" stroke-width="0.8"><title>cell 390: Transit-Dependent</title></path><path d="M 911.11,217.61 L 911.11,178.89 L 869.62,178.89 L 869.62,217.61 L 911.11,217.61 Z" fill="#7570b3" stroke="#ffffff" stroke-width="0.8"><title>cell 391: Transit-Dependent</title></path><path d="M 911.11,178.89 L 911.11,140.17 L 869.62,140.17 L 869.62,178.89 L 911.11,178.89 Z" fill="#7570b3" stroke="#ffffff" stroke-width="0.8"><title>cell 392: Transit-Dependent</title></path><path d="M 911.11,140.17 L 911.11,101.44 L 869.62,101.44 L 869.62,140.17 L 911.11,140.17 Z" fill="#666666" stroke="#ffffff" stroke-width="0.8"><title>cell 393: Motorcycle Lock-in</title></path><path d="M 911.11,101.44 L 911.11,62.72 L 869.62,62.72 L 869.62,101.44 L 911.11,101.44 Z" fill="#666666" stroke="#ffffff" stroke-width="0.8"><title>cell 394: Motorcycle Lock-in</title></path><path d="M 911.11,62.72 L 911.11,24.00 L 869.62,24.00 L 869.62,62.72 L 911.11,62.72 Z" fill="#666666" stroke="#ffffff" stroke-width="0.8"><title>cell 395: Motorcycle Lock-in</title></path><path d="M 952.59,876.00 L 952.59,837.27 L 911.11,837.27 L 911.11,876.00 L 952.59,876.00 Z" fill="#666666" stroke="#ffffff" stroke-width="0.8"><title>cell 396: Motorcycle Lock-in</title></path><path d="M 952.59,837.27 L 952.59,798.53 L 911.11,798.53 L 911.11,837.27 L 952.59,837.27 Z" fill="#666666" stroke="#ffffff" stroke-width="0.8"><title>cell 397: Motorcycle Lock-in</title></path><path d="M 952.59,798.53 L 952.59,759.80 L 911.11,759.80 L 911.11,798.53 L 952.59,798.53 Z" fill="#666666" stroke="#ffffff" stroke-width="0.8"><title>cell 398: Motorcycle Lock-in</title></path><path d="M 952.59,759.80 L 952.59,721.07 L 911.11,721.07 L 911.11,759.80 L 952.59,759.80 Z" fill="#666666" stroke="#ffffff" stroke-width="0.8"><title>cell 399: Motorcycle Lock-in</title></path><path d="M 952.59,721.07 L 952.59,682.34 L 911.11,682.34 L 911.11,721.07 L 952.59,721.07 Z" fill="#666666" stroke="#ffffff" stroke-width="0.8"><title>cell 400: Motorcycle Lock-in</title></path><path d="M 952.59,682.34 L 952.59,643.61 L 911.11,643.61 L 911.11,682.34 L 952.59,682.34 Z" fill="#666666" stroke="#ffffff" stroke-width="0.8"><title>cell 401: Motorcycle Lock-in</title></path><path d="M 952.59,643.61 L 952.59,604.88 L 911.11,604.88 L 911.11,643.61 L 952.59,643.61 Z" fill="#666666" stroke="#ffffff" stroke-width="0.8"><title>cell 402: Motorcycle Lock-in</title></path><path d="M 952.59,604.88 L 952.59,566.15 L 911.11,566.15 L 911.11,604.88 L 952.59,604.88 Z" fill="#666666" stroke="#ffffff" stroke-width="0.8"><title>cell 403: Motorcycle Lock-in</title></path><path d="M 952.59,566.15 L 952.59,527.42 L 911.11,527.42 L 911.11,566.15 L 952.59,566.15 Z" fill="#666666" stroke="#ffffff" stroke-width="0.8"><title>cell 404: Motorcycle Lock-in</title></path><path d="M 952.59,527.42 L 952.59,488.69 L 911.11,488.69 L 911.11,527.42 L 952.59,527.42 Z" fill="#666666" stroke="#ffffff" stroke-width="0.8"><title>cell 405: Motorcycle Lock-in</title></path><path d="M 952.59,488.69 L 952.59,449.97 L 911.11,449.97 L 911.11,488.69 L 952.59,488.69 Z" fill="#1b9e77" stroke="#ffffff" stroke-width="0.8"><title>cell 406: Integrated Capability</title></path><path d="M 952.59,449.97 L 952.59,411.24 L 911.11,411.24 L 911.11,449.97 L 952.59,449.97 Z" fill="#7570b3" stroke="#ffffff" stroke-width="0.8"><title>cell 407: Transit-Dependent</title></path><path d="M 952.59,411.24 L 952.59,372.51 L 911.11,372.51 L 911.11,411.24 L 952.59,411.24 Z" fill="#7570b3" stroke="#ffffff" stroke-width="0.8"><title>cell 408: Transit-Dependent</title></path><path d="M 952.59,372.51 L 952.59,333.79 L 911.11,333.79 L 911.11,372.51 L 952.59,372.51 Z" fill="#666666" stroke="#ffffff" stroke-width="0.8"><title>cell 409: Motorcycle Lock-in</title></path><path d="M 952.59,333.79 L 952.59,295.06 L 911.11,295.06 L 911.11,333.79 L 952.59,333.79 Z" fill="#666666" stroke="#ffffff" stroke-width="0.8"><title>cell 410: Motorcycle Lock-in</title></path><path d="M 952.59,295.06 L 952.59,256.34 L 911.11,256.34 L 911.11,295.06 L 952.59,295.06 Z" fill="#1b9e77" stroke="#ffffff" stroke-width="0.8"><title>cell 411: Integrated Capability</title></path><path d="M 952.59,256.34 L 952.59,217.61 L 911.11,217.61 L 911.11,256.34 L 952.59,256.34 Z" fill="#1b9e77" stroke="#ffffff" stroke-width="0.8"><title>cell 412: Integrated Capability</title></path><path d="M 952.59,217.61 L 952.59,178.89 L 911.11,178.89 L 911.11,217.61 L 952.59,217.61 Z" fill="#1b9e77" stroke="#ffffff" stroke-width="0.8"><title>cell 413: Integrated Capability</title></path><path d="M 952.59,178.89 L 952.59,140.17 L 911.11,140.17 L 911.11,178.89 L 952.59,178.89 Z" fill="#666666" stroke="#ffffff" stroke-width="0.8"><title>cell 414: Motorcycle Lock-in</title></path><path d="M 952.59,140.17 L 952.59,101.44 L 911.11,101.44 L 911.11,140.17 L 952.59,140.17 Z" fill="#d95f02" stroke="#ffffff" stroke-width="0.8"><title>cell 415: Fragmented Capability</title></path><path d="M 952.59,101.44 L 952.59,62.72 L 911.11,62.72 L 911.11,101.44 L 952.59,101.44 Z" fill="#1b9e77" stroke="#ffffff" stroke-width="0.8"><title>cell 416: Integrated Capability</title></path><path d="M 952.59,62.72 L 952.59,24.00 L 911.11,24.00 L 911.11,62.72 L 952.59,62.72 Z" fill="#666666" stroke="#ffffff" stroke-width="0.8"><title>cell 417: Motorcycle Lock-in</title></path><path d="M 994.07,876.00 L 994.07,837.27 L 952.59,837.27 L 952.59,876.00 L 994.07,876.00 Z" fill="#666666" stroke="#ffffff" stroke-width="0.8"><title>cell 418: Motorcycle Lock-in</title></path><path d="M 994.07,837.27 L 994.07,798.53 L 952.59,798.53 L 952.59,837.27 L 994.07,837.27 Z" fill="#666666" stroke="#ffffff" stroke-width="0.8"><title>cell 419: Motorcycle Lock-in</title></path><path d="M 994.07,798.53 L 994.07,759.80 L 952.59,759.80 L 952.59,798.53 L 994.07,798.53 Z" fill="#666666" stroke="#ffffff" stroke-width="0.8"><title>cell 420: Motorcycle Lock-in</title></path><path d="M 994.07,759.80 L 994.07,721.07 L 952.59,721.07 L 952.59,759.80 L 994.07,759.80 Z" fill="#666666" stroke="#ffffff" stroke-width="0.8"><title>cell 421: Motorcycle Lock-in</title></path><path d="M 994.07,721.07 L 994.07,682.34 L 952.59,682.34 L 952.59,721.07 L 994.07,721.07 Z" fill="#666666" stroke="#ffffff" stroke-width="0.8"><title>cell 422: Motorcycle Lock-in</title></path><path d="M 994.07,682.34 L 994.07,643.61 L 952.59,643.61 L 952.59,682.34 L 994.07,682.34 Z" fill="#666666" stroke="#ffffff" stroke-width="0.8"><title>cell 423: Motorcycle Lock-in</title></path><path d="M 994.07,643.61 L 994.07,604.88 L 952.59,604.88 L 952.59,643.61 L 994.07,643.61 Z" fill="#666666" stroke="#ffffff" stroke-width="0.8"><title>cell 424: Motorcycle Lock-in</title></path><path d="M 994.07,604.88 L 994.07,566.15 L 952.59,566.15 L 952.59,604.88 L 994.07,604.88 Z" fill="#666666" stroke="#ffffff" stroke-width="0.8"><title>cell 425: Motorcycle Lock-in</title></path><path d="M 994.07,566.15 L 994.07,527.42 L 952.59,527.42 L 952.59,566.15 L 994.07,566.15 Z" fill="#666666" stroke="#ffffff" stroke-width="0.8"><title>cell 426: Motorcycle Lock-in</title></path><path d="M 994.07,527.42 L 994.07,488.69 L 952.59,488.69 L 952.59,527.42 L 994.07,527.42 Z" fill="#666666" stroke="#ffffff" stroke-width="0.8"><title>cell 427: Motorcycle Lock-in</title></path><path d="M 994.07,488.69 L 994.07,449.97 L 952.59,449.97 L 952.59,488.69 L 994.07,488.69 Z" fill="#666666" stroke="#ffffff" stroke-width="0.8"><title>cell 428: Motorcycle Lock-in</title></path><path d="M 994.07,449.97 L 994.07,411.24 L 952.59,411.24 L 952.59,449.97 L 994.07,449.97 Z" fill="#666666" stroke="#ffffff" stroke-width="0.8"><title>cell 429: Motorcycle Lock-in</title></path><path d="M 994.07,411.24 L 994.07,372.51 L 952.59,372.51 L 952.59,411.24 L 994.07,411.24 Z" fill="#666666" stroke="#ffffff" stroke-width="0.8"><title>cell 430: Motorcycle Lock-in</title></path><path d="M 994.07,372.51 L 994.07,333.79 L 952.59,333.79 L 952.59,372.51 L 994.07,372.51 Z" fill="#d95f02" stroke="#ffffff" stroke-width="0.8"><title>cell 431: Fragmented Capability</title></path><path d="M 994.07,333.79 L 994.07,295.06 L 952.59,295.06 L 952.59,333.79 L 994.07,333.79 Z" fill="#d95f02" stroke="#ffffff" stroke-width="0.8"><title>cell 432: Fragmented Capability</title></path><path d="M 994.07,295.06 L 994.07,256.34 L 952.59,256.34 L 952.59,295.06 L 994.07,295.06 Z" fill="#d95f02" stroke="#ffffff" stroke-width="0.8"><title>cell 433: Fragmented Capability</title></path><path d="M 994.07,256.34 L 994.07,217.61 L 952.59,217.61 L 952.59,256.34 L 994.07,256.34 Z" fill="#d95f02" stroke="#ffffff" stroke-width="0.8"><title>cell 434: Fragmented Capability</title></path><path d="M 994.07,217.61 L 994.07,178.89 L 952.59,178.89 L 952.59,217.61 L 994.07,217.61 Z" fill="#d95f02" stroke="#ffffff" stroke-width="0.8"><title>cell 435: Fragmented Capability</title></path><path d="M 994.07,178.89 L 994.07,140.17 L 952.59,140.17 L 952.59,178.89 L 994.07,178.89 Z" fill="#d95f02" stroke="#ffffff" stroke-width="0.8"><title>cell 436: Fragmented Capability</title></path><path d="M 994.07,140.17 L 994.07,101.44 L 952.59,101.44 L 952.59,140.17 L 994.07,140.17 Z" fill="#d95f02" stroke="#ffffff" stroke-width="0.8"><title>cell 437: Fragmented Capability</title></path><path d="M 994.07,101.44 L 994.07,62.72 L 952.59,62.72 L 952.59,101.44 L 994.07,101.44 Z" fill="#d95f02" stroke="#ffffff" stroke-width="0.8"><title>cell 438: Fragmented Capability</title></path><path d="M 994.07,62.72 L 994.07,24.00 L 952.59,24.00 L 952.59,62.72 L 994.07,62.72 Z" fill="#666666" stroke="#ffffff" stroke-width="0.8"><title>cell 439: Motorcycle Lock-in</title></path><path d="M 1035.55,876.00 L 1035.55,837.27 L 994.07,837.27 L 994.07,876.00 L 1035.55,876.00 Z" fill="#666666" stroke="#ffffff" stroke-width="0.8"><title>cell 440: Motorcycle Lock-in</title></path><path d="M 1035.55,837.27 L 1035.55,798.53 L 994.07,798.53 L 994.07,837.27 L 1035.55,837.27 Z" fill="#666666" stroke="#ffffff" stroke-width="0.8"><title>cell 441: Motorcycle Lock-in</title></path><path d="M 1035.55,798.53 L 1035.55,759.80 L 994.07,759.80 L 994.07,798.53 L 1035.55,798.53 Z" fill="#666666" stroke="#ffffff" stroke-width="0.8"><title>cell 442: Motorcycle Lock-in</title></path><path d="M 1035.55,759.80 L 1035.55,721.07 L 994.07,721.07 L 994.07,759.80 L 1035.55,759.80 Z" fill="#666666" stroke="#ffffff" stroke-width="0.8"><title>cell 443: Motorcycle Lock-in</title></path><path d="M 1035.55,721.07 L 1035.55,682.34 L 994.07,682.34 L 994.07,721.07 L 1035.55,721.07 Z" fill="#666666" stroke="#ffffff" stroke-width="0.8"><title>cell 444: Motorcycle Lock-in</title></path><path d="M 1035.55,682.34 L 1035.55,643.61 L 994.07,643.61 L 994.07,682.34 L 1035.55,682.34 Z" fill="#666666" stroke="#ffffff" stroke-width="0.8"><title>cell 445: Motorcycle Lock-in</title></path><path d="M 1035.55,643.61 L 1035.55,604.88 L 994.07,604.88 L 994.07,643.61 L 1035.55,643.61 Z" fill="#666666" stroke="#ffffff" stroke-width="0.8"><title>cell 446: Motorcycle Lock-in</title></path><path d="M 1035.55,604.88 L 1035.55,566.15 L 994.07,566.15 L 994.07,604.88 L 1035.55,604.88 Z" fill="#666666" stroke="#ffffff" stroke-width="0.8"><title>cell 447: Motorcycle Lock-in</title></path><path d="M 1035.55,566.15 L 1035.55,527.42 L 994.07,527.42 L 994.07,566.15 L 1035.55,566.15 Z" fill="#666666" stroke="#ffffff" stroke-width="0.8"><title>cell 448: Motorcycle Lock-in</title></path><path d="M 1035.55,527.42 L 1035.55,488.69 L 994.07,488.69 L 994.07,527.42 L 1035.55,527.42 Z" fill="#666666" stroke="#ffffff" stroke-width="0.8"><title>cell 449: Motorcycle Lock-in</title></path><path d="M 1035.55,488.69 L 1035.55,449.97 L 994.07,449.97 L 994.07,488.69 L 1035.55,488.69 Z" fill="#666666" stroke="#ffffff" stroke-width="0.8"><title>cell 450: Motorcycle Lock-in</title></path><path d="M 1035.55,449.97 L 1035.55,411.24 L 994.07,411.24 L 994.07,449.97 L 1035.55,449.97 Z" fill="#666666" stroke="#ffffff" stroke-width="0.8"><title>cell 451: Motorcycle Lock-in</title></path><path d="M 1035.55,411.24 L 1035.55,372.51 L 994.07,372.51 L 994.07,411.24 L 1035.55,411.24 Z" fill="#666666" stroke="#ffffff" stroke-width="0.8"><title>cell 452: Motorcycle Lock-in</title></path><path d="M 1035.55,372.51 L 1035.55,333.79 L 994.07,333.79 L 994.07,372.51 L 1035.55,372.51 Z" fill="#d95f02" stroke="#ffffff" stroke-width="0.8"><title>cell 453: Fragmented Capability</title></path><path d="M 1035.55,333.79 L 1035.55,295.06 L 994.07,295.06 L 994.07,333.79 L 1035.55,333.79 Z" fill="#d95f02" stroke="#ffffff" stroke-width="0.8"><title>cell 454: Fragmented Capability</title></path><path d="M 1035.55,295.06 L 1035.55,256.34 L 994.07,256.34 L 994.07,295.06 L 1035.55,295.06 Z" fill="#d95f02" stroke="#ffffff" stroke-width="0.8"><title>cell 455: Fragmented Capability</title></path><path d="M 1035.55,256.34 L 1035.55,217.61 L 994.07,217.61 L 994.07,256.34 L 1035.55,256.34 Z" fill="#d95f02" stroke="#ffffff" stroke-width="0.8"><title>cell 456: Fragmented Capability</title></path><path d="M 1035.55,217.61 L 1035.55,178.89 L 994.07,178.89 L 994.07,217.61 L 1035.55,217.61 Z" fill="#d95f02" stroke="#ffffff" stroke-width="0.8"><title>cell 457: Fragmented Capability</title></path><path d="M 1035.55,178.89 L 1035.55,140.17 L 994.07,140.17 L 994.07,178.89 L 1035.55,178.89 Z" fill="#d95f02" stroke="#ffffff" stroke-width="0.8"><title>cell 458: Fragmented Capability</title></path><path d="M 1035.55,140.17 L 1035.55,101.44 L 994.07,101.44 L 994.07,140.17 L 1035.55,140.17 Z" fill="#d95f02" stroke="#ffffff" stroke-width="0.8"><title>cell 459: Fragmented Capability</title></path><path d="M 1035.55,101.44 L 1035.55,62.72 L 994.07,62.72 L 994.07,101.44 L 1035.55,101.44 Z" fill="#d95f02" stroke="#ffffff" stroke-width="0.8"><title>cell 460: Fragmented Capability</title></path><path d="M 1035.55,62.72 L 1035.55,24.00 L 994.07,24.00 L 994.07,62.72 L 1035.55,62.72 Z" fill="#666666" stroke="#ffffff" stroke-width="0.8"><title>cell 461: Motorcycle Lock-in</title></path></g>
<text x="40" y="44" font-family="Arial" font-size="28" font-weight="700">typology_B</text>
<rect x="40" y="80" width="22" height="18" fill="#1b9e77"/><text x="72" y="94" font-size="16">Integrated Capability</text><rect x="40" y="110" width="22" height="18" fill="#d95f02"/><text x="72" y="124" font-size="16">Fragmented Capability</text><rect x="40" y="140" width="22" height="18" fill="#7570b3"/><text x="72" y="154" font-size="16">Transit-Dependent</text><rect x="40" y="170" width="22" height="18" fill="#666666"/><text x="72" y="184" font-size="16">Motorcycle Lock-in</text>
</svg>
